<svg width="71" height="71" viewBox="0 0 71 71" fill="none" xmlns="http://www.w3.org/2000/svg">
<g clip-path="url(#clip0_2032_3011)">
<path d="M16.0064 52.2056C15.8063 48.4539 13.4427 46.3746 9.46709 46.1074C5.89959 46.7111 3.53604 48.6552 3.68383 52.5944C3.83163 56.5939 6.61583 58.5175 10.1549 58.5732C14.0259 58.6312 16.2099 56.0232 16.0064 52.2056ZM40.9482 6.40682C40.6071 4.0751 38.704 2.99621 37.4489 1.39209C36.4041 2.89503 36.86 4.48665 37.0885 6.10669C37.3329 7.81199 37.2249 9.68214 34.9443 9.65486C32.7627 9.62985 32.4989 7.75401 32.649 6.0669C32.7991 4.37978 32.8764 2.81545 31.8327 1.39209C30.8766 2.94733 29.617 4.39456 29.0372 6.08281C28.1015 8.81812 29.293 11.0941 31.5565 12.7415C33.6529 14.266 35.9039 14.2774 38.0957 12.9461C40.5457 11.4545 41.354 9.25468 40.9482 6.40682ZM66.14 25.0845C64.744 23.0642 62.7294 24.6797 61.0366 25.2084C51.3619 28.212 41.4916 29.4398 31.345 29.5285C26.062 29.5728 23.2107 27.4446 21.0745 22.3412C33.5255 25.1129 45.2194 23.8134 56.6097 19.5218C58.4537 18.826 61.4686 18.3258 60.525 15.7189C59.4734 12.8188 56.8734 14.8708 55.1056 15.4915C41.3961 20.3346 27.7139 20.9701 13.968 15.6791C12.2968 15.0357 10.156 13.5839 8.84522 15.5393C7.19335 18.0063 9.90024 19.2625 11.3202 20.5347C18.6996 27.1376 24.7944 34.7285 29.933 43.1948C32.7206 47.7866 33.4767 51.918 29.3851 56.4962C25.065 44.8342 18.6075 34.9593 9.19651 27.2013C7.75724 26.0133 5.93371 23.3359 4.04536 25.6529C2.22637 27.8891 5.05718 29.3159 6.52942 30.5846C17.5571 40.0786 24.2828 52.0646 27.3501 66.2028C27.7264 67.9467 27.1454 70.6945 29.4658 70.8298C32.1943 70.9935 32.1852 67.974 32.5353 66.1073C34.4828 55.8754 38.2549 46.4178 43.6016 37.507C46.0209 33.4757 49.0734 31.3327 54.3166 32.5923C53.4367 33.8918 52.7318 35.0559 51.9087 36.1235C45.1815 44.8023 41.013 54.5688 39.4031 65.4229C39.1428 67.1623 38.1594 69.6293 40.7788 70.0943C43.638 70.5945 43.0525 67.758 43.3867 66.1425C46.3938 51.7725 52.8932 39.4033 63.9436 29.5444C65.1942 28.4314 67.6419 27.2718 66.1344 25.0845H66.14ZM35.2968 43.0208C33.1492 40.4811 29.634 37.5855 30.8209 35.098C32.2454 32.1149 36.5962 34.334 40.3922 33.8474C39.1144 37.8458 37.4784 40.3219 35.2911 43.0208H35.2968ZM61.3311 45.6447C57.2384 45.8244 54.8441 47.8048 54.8316 51.644C54.8202 55.3388 56.8632 57.8672 60.8036 57.9389C64.6985 58.0105 66.8097 55.7629 66.9825 51.9237C67.1541 47.9287 64.8702 46.0449 61.3311 45.6447Z" fill="black"/>
<path d="M38.0944 12.9461C35.9025 14.2774 33.6515 14.266 31.5551 12.7415C29.2916 11.0941 28.1001 8.81812 29.0358 6.08281C29.6156 4.39456 30.3532 2.92342 31.8313 1.39209H37.4429C38.6935 2.99508 40.6023 4.0751 40.9422 6.40682C41.3538 9.25468 40.5454 11.4545 38.0944 12.9461Z" fill="white"/>
<path d="M66.1342 25.0847C64.7381 23.0645 62.7236 24.68 61.0308 25.2087C51.356 28.2123 41.4857 29.4401 31.3392 29.5288C26.0561 29.5731 23.2049 27.4449 21.0687 22.3415C33.5197 25.1132 45.2135 23.8137 56.6038 19.522C58.4478 18.8263 61.4628 18.326 60.5192 15.7192C59.4676 12.8191 56.8676 14.8711 55.0997 15.4918C41.3902 20.3349 27.708 20.9704 13.9621 15.6794C12.2909 15.0359 10.1502 13.5842 8.83937 15.5396C7.18749 18.0066 9.89438 19.2628 11.3143 20.535C18.6938 27.1379 24.7885 34.7288 29.9272 43.1951C32.7148 47.7869 33.4708 51.9183 29.3792 56.4964C25.0591 44.8344 18.6017 34.9596 9.19067 27.2016C7.75139 26.0136 5.92785 23.3362 4.03951 25.6532C2.22051 27.8894 5.05132 29.3162 6.52356 30.5849C17.5512 40.0789 24.2769 52.0649 27.3442 66.203C27.7205 67.947 27.1396 70.6948 29.4599 70.8301C32.1884 70.9938 32.1793 67.9743 32.5295 66.1075C34.4769 55.8757 38.2491 46.4181 43.5958 37.5073C46.015 33.476 49.0675 31.333 54.3108 32.5926C53.4308 33.8921 52.726 35.0562 51.9029 36.1237C45.1756 44.8026 41.0071 54.5691 39.3973 65.4231C39.1369 67.1626 38.1536 69.6296 40.7729 70.0945C43.6321 70.5948 43.0466 67.7583 43.3809 66.1428C46.3879 51.7728 52.8874 39.4036 63.9378 29.5447C65.194 28.4317 67.6417 27.2721 66.1342 25.0847ZM35.2909 43.0211C33.1434 40.4814 29.6282 37.5858 30.8151 35.0983C32.2396 32.1151 36.5904 34.3343 40.3864 33.8477C39.1142 37.8461 37.4783 40.3222 35.2909 43.0211Z" fill="white"/>
<path d="M10.1554 58.5722C6.61628 58.5165 3.83208 56.5929 3.68429 52.5934C3.5365 48.6542 5.90005 46.7101 9.46755 46.1064C13.4466 46.3736 15.8067 48.4495 16.0068 52.2046C16.2103 56.0234 14.0264 58.6313 10.1554 58.5722Z" fill="white"/>
<path d="M66.9829 51.9235C66.8101 55.7627 64.699 58.0103 60.8041 57.9386C56.8637 57.867 54.8207 55.3386 54.8321 51.6438C54.8446 47.8046 57.2445 45.8242 61.3316 45.6445C64.8706 46.0447 67.1546 47.9285 66.9829 51.9235Z" fill="white"/>
<circle cx="34.8786" cy="6.96061" r="6.96061" fill="white"/>
</g>
<defs>
<clipPath id="clip0_2032_3011">
<rect width="70.3801" height="70.3801" fill="white"/>
</clipPath>
</defs>
</svg>
