<svg width="24" height="25" viewBox="0 0 24 25" fill="none" xmlns="http://www.w3.org/2000/svg">
<g clip-path="url(#clip0_753_1419)">
<path d="M1.125 24.978H11.625C11.7245 24.978 11.8198 24.9385 11.8902 24.8682C11.9605 24.7979 12 24.7025 12 24.603C12 24.5036 11.9605 24.4082 11.8902 24.3379C11.8198 24.2675 11.7245 24.228 11.625 24.228H1.125C1.02554 24.228 0.930161 24.1885 0.859835 24.1182C0.789509 24.0479 0.75 23.9525 0.75 23.853V2.10303C0.75 2.00357 0.789509 1.90819 0.859835 1.83786C0.930161 1.76754 1.02554 1.72803 1.125 1.72803H16.875C16.9745 1.72803 17.0698 1.76754 17.1402 1.83786C17.2105 1.90819 17.25 2.00357 17.25 2.10303V5.85303C17.25 5.95248 17.2895 6.04787 17.3598 6.11819C17.4302 6.18852 17.5255 6.22803 17.625 6.22803C17.7245 6.22803 17.8198 6.18852 17.8902 6.11819C17.9605 6.04787 18 5.95248 18 5.85303V2.10303C18 1.48278 17.4953 0.978027 16.875 0.978027H1.125C0.50475 0.978027 0 1.48278 0 2.10303V23.853C0 24.4733 0.50475 24.978 1.125 24.978Z" fill="#FFBD59"/>
<path d="M13.5 8.85303V23.853C13.5 24.4733 14.0048 24.978 14.625 24.978H22.875C23.4952 24.978 24 24.4733 24 23.853V8.85303C24 8.23278 23.4952 7.72803 22.875 7.72803H14.625C14.0048 7.72803 13.5 8.23278 13.5 8.85303ZM23.25 8.85303V23.853C23.25 23.9525 23.2105 24.0479 23.1402 24.1182C23.0698 24.1885 22.9745 24.228 22.875 24.228H14.625C14.5255 24.228 14.4302 24.1885 14.3598 24.1182C14.2895 24.0479 14.25 23.9525 14.25 23.853V8.85303C14.25 8.75357 14.2895 8.65819 14.3598 8.58786C14.4302 8.51754 14.5255 8.47803 14.625 8.47803H22.875C22.9745 8.47803 23.0698 8.51754 23.1402 8.58786C23.2105 8.65819 23.25 8.75357 23.25 8.85303Z" fill="#FFBD59"/>
<path d="M9 22.728C9.41421 22.728 9.75 22.3922 9.75 21.978C9.75 21.5638 9.41421 21.228 9 21.228C8.58579 21.228 8.25 21.5638 8.25 21.978C8.25 22.3922 8.58579 22.728 9 22.728Z" fill="#FFBD59"/>
<path d="M18.75 22.728C19.1642 22.728 19.5 22.3922 19.5 21.978C19.5 21.5638 19.1642 21.228 18.75 21.228C18.3358 21.228 18 21.5638 18 21.978C18 22.3922 18.3358 22.728 18.75 22.728Z" fill="#FFBD59"/>
</g>
<defs>
<clipPath id="clip0_753_1419">
<rect width="24" height="24" fill="white" transform="translate(0 0.978027)"/>
</clipPath>
</defs>
</svg>
