<svg width="90" height="90" viewBox="0 0 90 90" fill="none" xmlns="http://www.w3.org/2000/svg">
<g clip-path="url(#clip0_753_821)">
<path fill-rule="evenodd" clip-rule="evenodd" d="M90 86.25C90 87.2446 89.6049 88.1984 88.9017 88.9017C88.1984 89.6049 87.2446 90 86.25 90H3.75C2.75544 90 1.80161 89.6049 1.09835 88.9017C0.395088 88.1984 0 87.2446 0 86.25V3.75C0 2.75544 0.395088 1.80161 1.09835 1.09835C1.80161 0.395088 2.75544 0 3.75 0C4.74456 0 5.69839 0.395088 6.40165 1.09835C7.10491 1.80161 7.5 2.75544 7.5 3.75V82.5H86.25C87.2446 82.5 88.1984 82.8951 88.9017 83.5983C89.6049 84.3016 90 85.2554 90 86.25Z" fill="#FFBD59"/>
<path fill-rule="evenodd" clip-rule="evenodd" d="M88.5007 6.75L78.6756 14.1337C78.7379 14.4295 78.7631 14.7318 78.7507 15.0337C78.7447 17.021 77.9526 18.9253 76.5474 20.3305C75.1422 21.7357 73.2379 22.5278 71.2506 22.5337C71.0886 22.5409 70.9263 22.5296 70.7669 22.5L66.8669 28.3462L62.9669 34.1925C63.4919 35.2162 63.7581 36.3525 63.7506 37.5C63.749 39.408 63.018 41.2432 61.7073 42.6299C60.3967 44.0165 58.6056 44.8497 56.7006 44.9587L51.2631 55.8337C51.9055 56.8086 52.3114 57.9199 52.4486 59.0792C52.5858 60.2386 52.4504 61.414 52.0533 62.5118C51.6561 63.6096 51.0082 64.5995 50.1611 65.4028C49.3139 66.2061 48.291 66.8005 47.1736 67.1388C46.0562 67.477 44.8753 67.5498 43.7249 67.3512C42.5745 67.1526 41.4863 66.6882 40.547 65.995C39.6076 65.3018 38.8431 64.3988 38.3143 63.3581C37.7854 62.3173 37.5068 61.1674 37.5006 60V59.8875L29.8881 55.32C29.2244 55.695 28.5006 55.965 27.7506 56.1075L22.3131 72.45C22.0616 73.1948 21.5823 73.8418 20.943 74.2993C20.3037 74.7569 19.5368 75.002 18.7506 75C18.3442 74.9897 17.9408 74.9267 17.5506 74.8125C16.6112 74.4879 15.837 73.8071 15.3951 72.9168C14.9531 72.0266 14.8788 70.9983 15.1881 70.0537L20.6256 53.7112C19.823 52.8011 19.2532 51.7098 18.9651 50.5311C18.677 49.3523 18.6792 48.1212 18.9716 46.9434C19.264 45.7657 19.8377 44.6765 20.6437 43.7693C21.4496 42.8621 22.4637 42.164 23.5988 41.7349C24.7339 41.3059 25.9561 41.1586 27.1607 41.3059C28.3652 41.4531 29.516 41.8904 30.5143 42.5803C31.5126 43.2701 32.3287 44.1919 32.8924 45.2665C33.4561 46.3412 33.7506 47.5365 33.7506 48.75V48.8625L41.3631 53.4337C42.3381 52.8825 43.4331 52.5712 44.5506 52.5337L49.9881 41.6587C49.2475 40.5263 48.826 39.215 48.7681 37.8631C48.7101 36.5112 49.018 35.1687 49.6591 33.9771C50.3002 32.7854 51.2509 31.7888 52.4109 31.0921C53.571 30.3955 54.8975 30.0247 56.2506 30.0187C56.414 30.0125 56.5776 30.0251 56.7381 30.0562L60.6381 24.21L64.5419 18.375C63.861 17.0036 63.6162 15.4566 63.8404 13.9419C64.0645 12.4273 64.7469 11.0175 65.7958 9.90208C66.8447 8.78663 68.2098 8.01893 69.7079 7.70215C71.2059 7.38537 72.765 7.53467 74.1757 8.13L84.0006 0.75C84.3946 0.454526 84.8429 0.239542 85.32 0.117324C85.797 -0.00489468 86.2935 -0.0319544 86.781 0.0376895C87.2685 0.107333 87.7375 0.272317 88.1612 0.523221C88.585 0.774125 88.9552 1.10603 89.2506 1.5C89.5461 1.89397 89.7611 2.34227 89.8833 2.81932C90.0055 3.29637 90.0326 3.79282 89.963 4.28033C89.8933 4.76784 89.7283 5.23685 89.4774 5.6606C89.2265 6.08435 88.8946 6.45452 88.5007 6.75Z" fill="#FFBD59"/>
</g>
<defs>
<clipPath id="clip0_753_821">
<rect width="90" height="90" fill="white"/>
</clipPath>
</defs>
</svg>
