<svg width="92" height="90" viewBox="0 0 92 90" fill="none" xmlns="http://www.w3.org/2000/svg">
<path d="M4 29.3308H87.7673" stroke="url(#paint0_linear_753_784)" stroke-width="6" stroke-miterlimit="10" stroke-linecap="round" stroke-linejoin="round"/>
<path d="M16.8839 22.8885C15.9174 22.8885 15.273 22.5663 14.6287 21.9219C13.9843 21.2776 13.6621 20.6332 13.6621 19.6666C13.6621 18.7001 13.9843 18.0557 14.6287 17.4114L14.9508 17.0892C15.273 17.0892 15.273 16.767 15.5952 16.767C15.9174 16.4448 15.9174 16.4448 16.2396 16.4448C16.5617 16.4448 17.2061 16.4448 17.5283 16.4448C17.8505 16.4448 17.8505 16.4448 18.1727 16.767C18.4948 16.767 18.4948 17.0892 18.817 17.0892L19.1392 17.4114C19.4614 17.7336 19.7836 18.0557 19.7836 18.3779C20.1057 18.7001 20.1057 19.3445 20.1057 19.6666C20.1057 19.9888 20.1057 20.6332 19.7836 20.9554C19.7836 21.2775 19.4614 21.5997 19.1392 21.9219C18.4948 22.5663 17.8505 22.8885 16.8839 22.8885Z" fill="url(#paint1_linear_753_784)"/>
<path d="M26.5578 22.8861C25.5912 22.8861 24.9468 22.564 24.3025 21.9196C23.6581 21.2752 23.3359 20.6309 23.3359 19.6643C23.3359 19.3421 23.3359 18.6978 23.6581 18.3756C23.9803 18.0534 23.9803 17.7312 24.3025 17.409C24.6247 17.0869 24.9468 16.7647 25.269 16.7647C26.5578 16.1203 27.8465 16.4425 28.813 17.409C29.1352 17.7312 29.4574 18.0534 29.4574 18.3756C29.7796 18.6978 29.7796 19.3421 29.7796 19.6643C29.7796 20.6309 29.4574 21.2752 28.813 21.9196C28.1687 22.564 27.5243 22.8861 26.5578 22.8861Z" fill="url(#paint2_linear_753_784)"/>
<path d="M36.2179 22.8866C35.8957 22.8866 35.2514 22.8866 34.9292 22.5644C34.607 22.2423 34.2848 22.2423 33.9626 21.9201C33.6405 21.5979 33.3183 21.2757 33.3183 20.9535C32.9961 20.6314 32.9961 19.987 32.9961 19.6648C32.9961 19.3426 32.9961 18.6983 33.3183 18.3761C33.6405 18.0539 33.6405 17.7317 33.9626 17.4095C35.2514 16.1208 37.1845 16.1208 38.4732 17.4095C38.7954 17.7317 39.1175 18.0539 39.1175 18.3761C39.4397 18.6983 39.4397 19.3426 39.4397 19.6648C39.4397 19.987 39.4397 20.6314 39.1175 20.9535C38.7954 21.2757 38.7954 21.5979 38.4732 21.9201C37.8288 22.5644 37.1845 22.8866 36.2179 22.8866Z" fill="url(#paint3_linear_753_784)"/>
<path d="M81.3237 10H10.4436C6.89964 10 4 12.8996 4 16.4436V74.4364C4 77.9804 6.89964 80.88 10.4436 80.88H81.3237C84.8677 80.88 87.7673 77.9804 87.7673 74.4364V16.4436C87.7673 12.8996 84.8677 10 81.3237 10Z" stroke="url(#paint4_linear_753_784)" stroke-width="6" stroke-miterlimit="10" stroke-linecap="round" stroke-linejoin="round"/>
<path d="M4 55.1064H55.5491" stroke="url(#paint5_linear_753_784)" stroke-width="6" stroke-miterlimit="10" stroke-linecap="round" stroke-linejoin="round"/>
<path d="M55.5508 29.3308V80.8799" stroke="url(#paint6_linear_753_784)" stroke-width="6" stroke-miterlimit="10" stroke-linecap="round" stroke-linejoin="round"/>
<defs>
<linearGradient id="paint0_linear_753_784" x1="45.8837" y1="29.3308" x2="45.8837" y2="30.3308" gradientUnits="userSpaceOnUse">
<stop stop-color="#FFBD59"/>
<stop offset="1" stop-color="#FCB446"/>
</linearGradient>
<linearGradient id="paint1_linear_753_784" x1="16.8839" y1="16.4448" x2="16.8839" y2="22.8885" gradientUnits="userSpaceOnUse">
<stop stop-color="#FFBD59"/>
<stop offset="1" stop-color="#FCB446"/>
</linearGradient>
<linearGradient id="paint2_linear_753_784" x1="26.5578" y1="16.4294" x2="26.5578" y2="22.8861" gradientUnits="userSpaceOnUse">
<stop stop-color="#FFBD59"/>
<stop offset="1" stop-color="#FCB446"/>
</linearGradient>
<linearGradient id="paint3_linear_753_784" x1="36.2179" y1="16.443" x2="36.2179" y2="22.8866" gradientUnits="userSpaceOnUse">
<stop stop-color="#FFBD59"/>
<stop offset="1" stop-color="#FCB446"/>
</linearGradient>
<linearGradient id="paint4_linear_753_784" x1="45.8837" y1="10" x2="45.8837" y2="80.88" gradientUnits="userSpaceOnUse">
<stop stop-color="#FFBD59"/>
<stop offset="1" stop-color="#FCB446"/>
</linearGradient>
<linearGradient id="paint5_linear_753_784" x1="29.7746" y1="55.1064" x2="29.7746" y2="56.1064" gradientUnits="userSpaceOnUse">
<stop stop-color="#FFBD59"/>
<stop offset="1" stop-color="#FCB446"/>
</linearGradient>
<linearGradient id="paint6_linear_753_784" x1="56.0508" y1="29.3308" x2="56.0508" y2="80.8799" gradientUnits="userSpaceOnUse">
<stop stop-color="#FFBD59"/>
<stop offset="1" stop-color="#FCB446"/>
</linearGradient>
</defs>
</svg>
