<svg width="90" height="90" viewBox="0 0 90 90" fill="none" xmlns="http://www.w3.org/2000/svg">
<g clip-path="url(#clip0_753_812)">
<path d="M2 -0.5V91.5M48 61.2V69.3C48 71.2096 47.3257 73.0409 46.1255 74.3912C44.9253 75.7414 43.2974 76.5 41.6 76.5H22.4C20.7026 76.5 19.0748 75.7414 17.8745 74.3912C16.6743 73.0409 16 71.2096 16 69.3V61.2C16 59.2904 16.6743 57.4591 17.8745 56.1088C19.0748 54.7586 20.7026 54 22.4 54H41.6C43.2974 54 44.9253 54.7586 46.1255 56.1088C47.3257 57.4591 48 59.2904 48 61.2ZM80 20.7V28.8C80 30.7096 79.3257 32.5409 78.1255 33.8912C76.9252 35.2414 75.2974 36 73.6 36H22.4C20.7026 36 19.0748 35.2414 17.8745 33.8912C16.6743 32.5409 16 30.7096 16 28.8V20.7C16 18.7904 16.6743 16.9591 17.8745 15.6088C19.0748 14.2586 20.7026 13.5 22.4 13.5H73.6C75.2974 13.5 76.9252 14.2586 78.1255 15.6088C79.3257 16.9591 80 18.7904 80 20.7Z" stroke="url(#paint0_linear_753_812)" stroke-width="6.5" stroke-miterlimit="10" stroke-linecap="round" stroke-linejoin="round"/>
</g>
<defs>
<linearGradient id="paint0_linear_753_812" x1="40" y1="4.19095e-08" x2="40" y2="90" gradientUnits="userSpaceOnUse">
<stop stop-color="#FFBD59"/>
<stop offset="1" stop-color="#FCB446"/>
</linearGradient>
<clipPath id="clip0_753_812">
<rect width="90" height="90" fill="white"/>
</clipPath>
</defs>
</svg>
