<svg width="90" height="80" viewBox="0 0 90 80" fill="none" xmlns="http://www.w3.org/2000/svg">
<path d="M46.656 46.5813L51.9161 37.1595C52.0892 36.812 52.1803 36.4177 52.1803 36.0164C52.1803 35.6151 52.0892 35.2209 51.9161 34.8734C51.7422 34.5312 51.4847 34.2565 51.1762 34.0839C50.8677 33.9113 50.5219 33.8485 50.1826 33.9035C39.7223 34.8734 31.6529 35.774 31.6529 35.774C31.3797 35.7925 31.1137 35.8833 30.8754 36.0394C30.6371 36.1955 30.4328 36.4128 30.2782 36.6746C30.1605 36.9675 30.0996 37.2867 30.0996 37.6098C30.0996 37.9329 30.1605 38.2521 30.2782 38.5451L36.2555 58.982C36.3497 59.3704 36.5427 59.7169 36.8092 59.9763C37.0757 60.2358 37.4035 60.3963 37.7498 60.4369C38.05 60.439 38.3456 60.3508 38.6075 60.1808C38.8695 60.0107 39.0889 59.7648 39.2441 59.467L44.5042 50.1145L56.937 59.6055C57.2465 59.8147 57.5952 59.9335 57.9532 59.9519C58.2614 59.9528 58.5649 59.8646 58.8363 59.6952C59.1076 59.5259 59.3383 59.2807 59.5073 58.982C59.7592 58.5104 59.8438 57.9441 59.7435 57.4017C59.6433 56.8593 59.3658 56.383 58.9693 56.0724L46.656 46.5813ZM38.4073 53.5091L34.3427 39.6535L46.8353 38.4065L38.4073 53.5091Z" fill="url(#paint0_linear_753_799)"/>
<path d="M80.0788 0H10.9817C8.4294 0 4.62341 1.17512 2.81865 3.26685C1.0139 5.35858 0 9.19213 0 12.1503C0 12.1503 0 64.6144 0 67.5725C0 70.5307 1.0139 74.6414 2.81865 76.7331C4.62341 78.8249 8.4294 80 10.9817 80H80.0788C82.6311 80 85.3766 78.633 87.1813 76.5413C88.9861 74.4495 90 70.3388 90 67.3807V11.9584C90 9.00026 88.9861 5.16671 87.1813 3.07498C85.3766 0.983248 82.6311 0 80.0788 0ZM10.9817 5.22251H79.0036C80.5889 5.22251 82.1093 5.95239 83.2302 7.2516C84.3512 8.55082 84.9809 10.3129 84.9809 12.1503V17.1383H5.00438V12.1503C5.00438 10.3129 5.63413 8.55082 6.7551 7.2516C7.87606 5.95239 9.39642 5.22251 10.9817 5.22251ZM79.0036 74.5003H10.9817C9.39642 74.5003 7.87606 73.7704 6.7551 72.4712C5.63413 71.172 5.00438 69.4099 5.00438 67.5725V22.4221H44.9927H84.9809V67.5725C84.9809 68.4823 84.8263 69.3832 84.5259 70.2237C84.2256 71.0642 83.7853 71.8279 83.2302 72.4712C82.6752 73.1145 82.0162 73.6248 81.291 73.973C80.5658 74.3211 79.7886 74.5003 79.0036 74.5003Z" fill="url(#paint1_linear_753_799)"/>
<path d="M11.415 13.9504C11.9196 13.995 12.4258 13.8852 12.8666 13.6356C13.3074 13.386 13.6619 13.0084 13.8833 12.5528C14.1047 12.0972 14.1825 11.5851 14.1063 11.0843C14.0302 10.5835 13.8037 10.1176 13.4569 9.74844C13.1101 9.37924 12.6593 9.12411 12.1642 9.01684C11.6691 8.90956 11.1532 8.9552 10.6846 9.14771C10.2161 9.34023 9.81709 9.67053 9.54046 10.0949C9.26384 10.5192 9.12264 11.0176 9.13558 11.524C9.15126 12.1378 9.39226 12.7243 9.81264 13.1718C10.233 13.6193 10.8034 13.8965 11.415 13.9504Z" fill="url(#paint2_linear_753_799)"/>
<path d="M17.5623 13.9591C18.0627 13.9736 18.556 13.8375 18.9782 13.5685C19.4004 13.2995 19.7321 12.9099 19.9303 12.4502C20.1286 11.9905 20.1843 11.4819 20.0902 10.9902C19.9961 10.4985 19.7565 10.0464 19.4025 9.69236C19.0485 9.33837 18.5964 9.0988 18.1047 9.0047C17.613 8.91059 17.1044 8.96628 16.6447 9.16454C16.185 9.36281 15.7954 9.69453 15.5264 10.1167C15.2574 10.5389 15.1213 11.0322 15.1358 11.5326C15.1543 12.1703 15.4159 12.7768 15.867 13.2279C16.3181 13.679 16.9246 13.9406 17.5623 13.9591Z" fill="url(#paint3_linear_753_799)"/>
<path d="M23.5623 13.9591C24.0627 13.9736 24.556 13.8375 24.9782 13.5685C25.4004 13.2995 25.7321 12.9099 25.9303 12.4502C26.1286 11.9905 26.1843 11.4819 26.0902 10.9902C25.9961 10.4985 25.7565 10.0464 25.4025 9.69236C25.0485 9.33837 24.5964 9.0988 24.1047 9.0047C23.613 8.91059 23.1044 8.96628 22.6447 9.16454C22.185 9.36281 21.7954 9.69453 21.5264 10.1167C21.2574 10.5389 21.1213 11.0322 21.1358 11.5326C21.1543 12.1703 21.4159 12.7768 21.867 13.2279C22.3181 13.679 22.9246 13.9406 23.5623 13.9591Z" fill="url(#paint4_linear_753_799)"/>
<defs>
<linearGradient id="paint0_linear_753_799" x1="44.9421" y1="33.8841" x2="44.9421" y2="60.4369" gradientUnits="userSpaceOnUse">
<stop stop-color="#FFBD59"/>
<stop offset="1" stop-color="#FCB446"/>
</linearGradient>
<linearGradient id="paint1_linear_753_799" x1="44.9977" y1="0.996534" x2="44.9977" y2="78.7262" gradientUnits="userSpaceOnUse">
<stop stop-color="#FFBD59"/>
<stop offset="1" stop-color="#FCB446"/>
</linearGradient>
<linearGradient id="paint2_linear_753_799" x1="11.6348" y1="8.96013" x2="11.6348" y2="13.9601" gradientUnits="userSpaceOnUse">
<stop stop-color="#FFBD59"/>
<stop offset="1" stop-color="#FCB446"/>
</linearGradient>
<linearGradient id="paint3_linear_753_799" x1="17.6348" y1="8.96013" x2="17.6348" y2="13.9601" gradientUnits="userSpaceOnUse">
<stop stop-color="#FFBD59"/>
<stop offset="1" stop-color="#FCB446"/>
</linearGradient>
<linearGradient id="paint4_linear_753_799" x1="23.6348" y1="8.96013" x2="23.6348" y2="13.9601" gradientUnits="userSpaceOnUse">
<stop stop-color="#FFBD59"/>
<stop offset="1" stop-color="#FCB446"/>
</linearGradient>
</defs>
</svg>
