<svg width="1920" height="404" viewBox="0 0 1920 404" fill="none" xmlns="http://www.w3.org/2000/svg">
<path d="M1950.52 0.418658C1951.64 -0.342351 1950.85 -0.151349 1947.61 1.70467L1945.51 3.33769L1950.52 0.418658ZM1928.1 12.0528C1924.36 14.3598 1920.11 17.1219 1922.81 16.0458C1926.4 13.5968 1927.42 13.2188 1931.26 10.5458C1934.51 8.68276 1937.05 7.47274 1936.58 7.90475C1937.68 7.17274 1941.71 5.14571 1943.33 3.9517C1938.07 6.52651 1932.95 9.35101 1928 12.4138C1926.74 13.0118 1927.86 12.2698 1928.1 12.0528ZM1592.1 161.661L1594.37 160.92C1593.75 161.109 1592.97 161.365 1592.1 161.661ZM1369.42 219.222C1370.27 219.088 1371.11 218.902 1371.94 218.667C1371.09 218.797 1370.24 218.982 1369.42 219.222ZM1330.38 224.87L1332.69 224.584C1331.8 224.667 1330.92 224.766 1330.38 224.87ZM1592.1 161.661C1590.17 162.31 1588.2 162.887 1586.24 163.483C1588.24 162.998 1590.19 162.389 1592.1 161.661ZM1884.17 36.9351C1885.29 36.3201 1886.21 35.7901 1887.03 35.2931C1886.12 35.7931 1885.24 36.2831 1884.31 36.7861C1884.28 36.8417 1884.23 36.8918 1884.17 36.9351ZM1686.67 126.33L1688.4 125.65C1688.89 125.408 1689.35 125.17 1689.77 124.937L1686.67 126.33ZM1757.81 96.1578C1756.86 96.5558 1755.99 97.1107 1755.26 97.7948C1756.35 97.1536 1757.47 96.5732 1758.63 96.0568C1758.49 96.0228 1758.35 96.0143 1758.21 96.0316C1758.07 96.0489 1757.93 96.0918 1757.81 96.1578ZM1868.17 43.7242L1870.07 42.7012C1869.58 42.9672 1868.74 43.4172 1868.17 43.7242ZM1634.89 146.097C1634.65 146.116 1634.41 146.161 1634.18 146.231C1634.42 146.233 1634.66 146.187 1634.89 146.097ZM56.2543 340.644C56.2793 340.585 56.2065 340.634 56.2032 340.606C55.9162 340.933 55.839 341.043 56.2543 340.644ZM-3.52163 403.328L-2.82357 402.362C-2.78513 402.26 -2.7894 402.148 -2.83553 402.05L-3.52163 403.328ZM1258.55 232.125L1258.87 232.106C1260.76 231.913 1259.69 232.007 1258.55 232.126V232.125ZM640.181 258.25C642.646 255.596 640.802 257.872 639.343 259.856C637.884 261.84 636.733 263.476 640.244 259.356C639.467 260.051 646.144 251.51 640.181 258.25ZM1882.4 37.8331C1881.48 38.3221 1880.55 38.8201 1879.62 39.3171C1880.88 38.6411 1881.74 38.1861 1882.4 37.8331ZM640.244 259.359L640.988 258.523C640.681 258.87 640.507 259.063 640.244 259.359ZM1092.87 225.451C1093.19 225.576 1093.83 225.751 1094.49 225.929C1093.97 225.727 1093.43 225.567 1092.87 225.451ZM1031.28 208.927C1029.75 208.327 1029.24 208.09 1027.12 207.346L1027.74 207.624C1028.52 207.866 1029.55 208.224 1031.28 208.927ZM969.816 184.054L970.932 184.554L972.906 185.294L969.816 184.054ZM214.979 224.154C213.65 224.742 212.832 225.121 212.166 225.375C213.185 225.091 204.86 229.925 214.979 224.156V224.154ZM1884.04 36.7861C1883.53 37.1835 1882.98 37.5338 1882.4 37.8321C1883.06 37.4711 1883.7 37.1241 1884.31 36.7861C1884.47 36.6531 1884.48 36.5961 1884.04 36.7861ZM1027.61 210.426C1025.94 209.819 1024.32 209.148 1022.7 208.464L1017.84 206.436C1019.2 207.008 1020.76 207.664 1022.41 208.358C1024.07 209.052 1025.82 209.784 1027.61 210.426ZM676.257 126.667L673.824 126.492C674.759 126.583 675.621 126.65 676.257 126.667ZM988.942 194.552C987.255 193.737 985.44 192.924 983.555 192.109C983.139 191.97 982.669 191.801 982.385 191.728L988.942 194.552ZM154.459 262.023C158.492 259.197 159.461 258.558 159.505 258.317C159.572 258.1 158.802 258.389 159.598 257.717C169.383 251.157 164.372 254.993 167.871 252.982C170.923 250.931 173.53 249.002 176.026 247.314C178.521 245.626 180.849 244.093 183.202 242.658C183.596 242.504 184.523 241.966 183.51 242.698C185.118 241.603 187.154 240.298 189.422 238.872C191.689 237.446 194.173 235.886 196.773 234.42C201.933 231.431 207.225 228.352 211.049 225.889C211.402 225.702 211.768 225.536 212.143 225.389C210.738 225.937 210.413 225.858 210.585 225.569L213.331 223.939L215.782 222.548C216.904 221.87 218.087 221.281 219.317 220.786C218.056 221.437 216.843 222.164 215.688 222.963L219.739 220.644C223.678 219.014 214.194 223.786 214.367 224.049C218.334 221.82 222.63 219.404 226.693 217.118C230.757 214.832 234.584 212.658 237.784 211.201C238.558 211.074 234.867 212.851 232.177 214.387C229.458 215.878 227.61 216.897 231.809 214.853L222.202 219.826C229.83 216.477 216.394 222.889 223.455 219.896C229.762 216.613 233.189 214.615 236.721 212.796C240.252 210.977 243.788 209.166 250.177 206.058C252.928 204.435 249.059 206.233 251.808 204.609C255.102 202.836 258.49 201.216 261.96 199.755C264.429 198.702 266.149 198.055 267.713 197.47C271.939 195.94 276.042 194.138 279.991 192.077C284.614 189.493 289.468 187.276 294.5 185.45L291.366 187.266C297.765 184.616 299.52 183.703 301.359 182.788C303.185 181.839 305.165 181.025 312.033 178.588C309.691 179.669 301.891 182.588 303.878 181.896C312.842 178.896 309.998 179.296 316.774 176.736L318.345 176.582L328.929 172.515L340.055 168.615L351.472 164.615C353.382 163.915 355.335 163.315 357.297 162.723L363.185 160.923C362.354 161.299 359.705 162.223 363.427 161.244L378.7 156.602L380.658 156.017L382.643 155.506L386.627 154.483L394.621 152.454L402.585 150.454C405.235 149.821 407.834 149.073 410.471 148.574L425.755 145.404L433.149 143.421C434.888 143.043 436.411 142.868 434.547 143.348C438.373 142.548 438.485 142.589 438.057 142.541C437.636 142.526 436.707 142.567 438.543 142.167C442.922 141.356 444.379 141.326 441.624 141.928C448.392 140.588 458.026 138.615 467.809 136.895C477.642 135.447 487.588 134.07 494.831 133.251L492.032 133.751C497.652 132.997 500.826 132.529 503.884 132.004C507.614 131.345 511.383 130.88 515.171 130.613L513.168 130.885C537.703 128.366 564.873 125.84 583.714 125.515C587.262 124.788 608.115 124.737 609.683 124.115L617.512 124.203C619.424 124.265 620.861 124.312 622.476 124.363L628.517 124.499L639.561 124.815C644.844 125.039 647.463 124.544 654.004 124.822L654.143 125.2C657.107 125.206 660.072 125.222 663.034 125.317L667.71 126.076C669.75 126.187 671.784 126.363 673.822 126.504C672.21 126.42 670.611 126.185 669.05 125.804C671.442 125.974 674.087 126.204 676.716 126.456C679.343 126.725 681.941 127.087 684.253 127.389C686.565 127.691 688.57 128.056 690.016 128.304C690.821 128.42 691.617 128.587 692.397 128.804C699.857 129.786 707.306 130.913 714.637 132.504C714.103 132.567 710.433 131.727 707.474 131.304C713.41 132.287 713.9 132.582 714.289 132.745C714.666 132.957 714.951 133.028 720.308 134.225C718.906 133.784 721.142 134.208 721.406 134.198C722.726 134.563 724.441 135.108 726.423 135.716C727.416 136.016 728.474 136.339 729.576 136.676L732.973 137.815C735.326 138.549 737.7 139.515 740.077 140.37C741.257 140.814 742.391 141.326 743.521 141.783C744.651 142.24 745.753 142.683 746.766 143.183C746.201 143.011 745.648 142.822 745.066 142.683C746.921 143.535 748.776 144.441 750.643 145.369C752.446 146.391 754.362 147.301 756.123 148.451C759.812 150.642 763.27 153.145 766.453 155.927C773.105 161.6 777.927 168.851 780.391 176.882C779.521 173.982 779.213 172.841 779.437 172.991C780.182 174.256 780.74 175.606 781.096 177.007L781.188 179.028C782.234 182.108 780.085 173.928 781.949 180.314C782.522 183.46 782.389 184.547 782.26 184.375C782.111 184.029 782.013 183.666 781.969 183.297C781.83 182.703 781.648 181.912 781.443 181.026L781.806 182.91C781.906 183.542 781.952 184.181 782.024 184.816C782.096 185.451 782.174 186.088 782.222 186.727L782.278 188.649C782.157 189.1 782.071 187.3 781.904 186.84C781.973 187.622 782.008 188.84 781.983 190.298C781.834 191.754 781.796 193.452 781.462 195.174C781.008 198.64 779.995 202.196 779.613 204.464L779.378 204.857C777.326 211.45 774.543 217.832 771.073 223.902C767.999 229.315 764.541 234.535 760.719 239.528C760.864 239.956 757.349 244.402 754.722 247.849C751.215 251.901 747.292 256.015 743.03 260.197C738.789 264.397 734.195 268.658 729.311 272.997C722.527 279.181 727.505 274.973 724.527 277.83C723.835 278.098 713.706 286.415 718.803 281.937C712.714 286.937 708.725 290.022 704.287 293.382C699.829 296.721 694.951 300.382 686.576 305.904C688.496 304.843 690.589 303.549 689.59 304.329C688.067 305.329 686.295 306.422 684.95 307.21C683.605 307.998 682.652 308.438 682.835 308.245L683.641 307.722C674.181 313.785 662.386 319.902 650.296 323.195C647.347 323.979 644.337 324.551 641.291 324.907C638.461 325.214 635.599 325.176 632.78 324.794C630.274 324.456 627.882 323.607 625.779 322.31C623.941 321.137 622.43 319.581 621.368 317.77L621.857 318.512C620.354 316.137 619.444 313.486 619.193 310.748C618.911 307.915 619 305.062 619.457 302.248C619.666 301.274 619.807 300.617 619.892 300.201C619.922 299.998 619.981 299.799 620.068 299.61C620.067 299.747 620.05 299.883 620.019 300.016C619.983 300.266 619.935 300.609 619.885 300.969C619.684 302.405 619.45 304.078 620.122 301.23C620.881 297.049 622.138 292.958 623.869 289.03C625.349 285.617 627.056 282.291 628.98 279.07C632.764 272.831 636.953 266.806 641.523 261.029C645.801 256.453 653.157 248.187 661.752 240.203C669.618 232.751 678.1 225.871 687.121 219.624L686.178 220.044C689.608 217.244 690.643 217.022 693.34 215.159C692.851 215.294 689.266 217.784 691.45 216.101C722.264 194.441 759.587 176.292 798.054 167.292C801.58 166.521 803.826 165.957 805.494 165.492C807.161 165.027 808.272 164.755 809.488 164.407C814.212 163.163 819.063 162.372 823.964 162.048L818.882 163.117C833.527 160.815 848.411 160.053 863.244 160.847C877.933 161.669 892.52 163.643 906.845 166.747C905.154 166.467 905.081 166.559 902.351 165.966C903.812 166.347 905.9 166.866 908.223 167.393L911.82 168.201L915.434 169.086L921.564 170.534C922.43 170.788 923.317 170.978 924.216 171.102C928.493 172.34 925.141 171.587 927.741 172.446C930.629 173.337 934.265 174.428 937.59 175.352C940.893 176.332 943.84 177.268 945.31 177.902C944.39 177.698 943.487 177.439 942.604 177.126C946.431 178.146 959.911 183.218 956.497 181.626C966.5 185.426 975.706 188.756 983.545 192.114C988.873 193.852 1000.42 199.214 1002.29 199.422C1001.34 199.622 1019.42 207.028 1025.83 209.343C1023.62 208.693 1031.32 211.572 1028.71 210.843C1036.02 213.559 1042.75 215.968 1041.59 215.218C1044.96 216.431 1048.39 217.541 1051.75 218.571C1055.12 219.579 1058.37 220.629 1061.54 221.291C1066.82 222.426 1072.04 223.806 1077.18 225.425C1099.98 230.209 1121.44 232.706 1142.3 234.492C1141.46 235.23 1119.27 232.092 1120.07 232.78C1129.98 233.786 1137.77 234.619 1145.6 234.954C1149.51 235.204 1153.4 235.454 1157.55 235.714C1161.71 235.975 1166.12 236.062 1171.04 236.321C1176.13 236.6 1168.13 236.439 1166.4 236.462L1181.06 236.962C1185.87 237.079 1190.61 237.049 1195.27 237.104L1202.22 237.152C1204.51 237.167 1206.8 237.196 1209.07 237.103C1213.6 236.973 1218.08 236.82 1222.49 236.646C1222.08 236.707 1221.68 236.743 1221.27 236.753L1218.74 236.883C1222.21 236.783 1226.84 236.765 1226.43 236.53L1223.04 236.68C1220.26 236.568 1223.7 236.298 1227.92 236.03C1232.15 235.83 1237.13 235.292 1237.44 235.216C1231.58 236.24 1254.86 234.453 1245.55 235.847C1247.83 235.677 1250.69 235.405 1250.16 235.27C1253.56 235.135 1254.65 235.17 1251.21 235.545C1257.44 235.175 1259.43 234.879 1261.28 234.64C1263.13 234.401 1264.84 234.202 1270.46 233.74C1270.44 233.862 1268.16 234.095 1267.01 234.331C1269.85 233.98 1272.7 233.631 1276.03 233.281C1279.34 232.906 1283.16 232.657 1287.9 232.137C1287.33 232.272 1288.45 232.243 1285.63 232.551C1293.76 231.641 1300.69 230.729 1307.8 229.827C1311.36 229.417 1314.95 228.827 1318.78 228.291C1322.61 227.755 1326.64 227.204 1331.1 226.656C1325.93 227.879 1337.18 226.003 1338.2 226.316C1341.38 225.834 1344.55 225.225 1347.71 224.686L1343.85 225.086C1352.2 223.748 1359.51 222.24 1366.71 221.229L1360.54 222.408L1368.36 221.108L1376.12 219.627C1373.18 220.103 1370.24 220.638 1367.28 221.065C1375.65 219.34 1366.27 220.694 1377.34 218.777C1375.11 219.238 1385.65 217.239 1390.03 216.693L1390 216.7C1394.08 215.792 1398.27 214.911 1404.39 213.692C1406.01 213.498 1403.23 214.442 1404.29 214.32C1408.23 213.108 1423.61 210.156 1428.61 208.697C1426.93 209.145 1426.9 209.397 1427.47 209.322C1428.58 208.996 1429.67 208.632 1430.76 208.27C1434.59 207.475 1435.15 207.392 1434.59 207.718C1446.04 205.099 1430.8 208.018 1444.45 205.081C1443.38 205.354 1443.91 205.281 1441.7 205.842C1448.53 204.295 1455.12 202.762 1461.53 201.142C1467.93 199.452 1474.18 197.8 1480.42 196.272C1484.22 195.761 1469.58 199.172 1473.89 198.459C1482.85 196.097 1492.14 193.671 1501.23 190.914C1510.36 188.274 1519.42 185.653 1528.02 183.166L1524.81 184.086C1526.98 182.761 1537.67 180.52 1546.23 177.612C1544.12 178.299 1543.57 178.79 1544.12 178.548C1555.93 175.198 1567.97 170.902 1585.53 164.98L1583.41 165.846C1590.36 163.839 1601.4 159.796 1608.8 157.334C1610.92 156.422 1615.13 154.982 1612.48 155.651C1624.04 152.228 1634.68 148.05 1645.03 144.068C1650.19 142.081 1655.29 140.121 1660.34 138.187C1665.36 136.201 1670.35 134.298 1675.37 132.531C1673.01 133.463 1669.8 134.879 1671.68 134.14L1688.45 127.376C1686.45 127.907 1684.48 128.544 1682.55 129.285C1684.6 128.296 1689.3 126.31 1693.48 124.668C1685.97 127.79 1693.76 125.104 1697.04 123.848C1696.47 123.997 1697.53 123.448 1697.23 123.485C1706.15 120.308 1698.43 122.367 1710.48 117.719L1709.92 118.114C1714.34 116.193 1718.35 114.314 1723.17 112.35C1725.31 111.812 1718.51 114.458 1718.32 114.825C1721.68 113.413 1724.94 111.89 1728.14 110.44C1731.34 108.99 1734.42 107.503 1737.52 106.332C1734.72 107.644 1730.66 109.483 1727.84 110.747C1734.62 108.258 1735.32 107.791 1740.25 105.711L1739.76 105.911L1751.16 101.098L1748.23 102.27C1756.19 97.8298 1765.23 94.7408 1776.08 89.0207C1765.49 94.4928 1774.43 90.1207 1773.77 90.8257C1776.68 89.5997 1781.06 87.6987 1779.87 88.3607C1785.01 85.6607 1788.79 84.4987 1796.02 80.6796C1796.41 80.6296 1801.66 78.0796 1800.62 78.8936C1807.41 75.5936 1798.91 79.4856 1799.4 79.0646C1809.71 73.7245 1824.26 67.5975 1839.01 59.8164C1851.73 53.0893 1853.9 51.5363 1865.7 45.3082C1869.82 43.4262 1862.63 47.3532 1862.63 47.3532C1869.19 44.1742 1874.11 41.7662 1880.06 38.3851C1878.88 39.1241 1880.19 38.5291 1882.1 37.6611C1886.94 35.0531 1885.12 35.5611 1891.61 32.308C1890.57 33.008 1889.28 33.9361 1887.02 35.2941C1892.65 32.127 1898.22 28.994 1904.06 25.72C1905.73 25.06 1900.65 27.888 1898.64 29.113C1905.24 25.501 1915.77 19.7859 1917.58 18.3179L1913.3 20.5669C1915.69 19.2209 1914.69 20.1189 1912.95 21.1549C1907.41 24.4109 1904.68 25.437 1904.3 25.508L1908.46 23.1999C1903.76 24.913 1891.61 32.306 1883.1 36.7911L1886.37 34.4761L1877.9 39.4671C1875.98 40.3401 1874.56 40.7671 1878.71 38.4751C1872.51 41.5152 1873.38 41.4392 1867.98 43.9122C1867.37 44.1702 1867.62 44.0122 1868.15 43.7242L1862.23 46.9092C1863.35 46.2182 1861.04 47.1092 1864.77 45.2972C1853.84 50.5273 1847.59 54.4663 1843.33 56.1973L1844.22 55.7113C1836.8 59.6054 1836.46 59.8224 1836.63 59.8834C1836.81 59.9444 1837.46 59.7974 1831.9 62.7384L1823.81 65.6444L1822.51 66.6885C1820.94 67.4345 1817.84 68.9065 1818.34 68.5005C1812.67 71.5375 1819.41 68.1615 1816.17 70.0005C1812.33 71.6745 1807.18 74.2205 1802.73 76.3846C1798.27 78.5146 1794.48 80.1956 1793.49 80.3416C1790.9 81.8466 1800.85 77.1816 1792.85 81.0946C1790.23 81.6026 1783.54 85.5147 1776.47 88.4577C1778.44 87.1857 1785.08 84.3077 1778.02 87.2507C1774.09 89.6507 1764.51 93.4358 1758.62 96.0508C1758.55 96.5638 1745.87 101.846 1736.05 106.323C1736.32 106.091 1731.67 108.174 1725.69 110.575C1719.71 112.976 1712.5 115.901 1707.83 117.787L1708.07 117.607C1705.79 118.861 1703.43 119.976 1700.99 120.945C1697.51 122.436 1693.38 124.196 1689.86 125.59C1690.02 125.226 1691.26 124.674 1695 123.008C1692.81 123.934 1690.58 124.761 1688.39 125.644C1686.89 126.388 1684.85 127.27 1680.58 129.005L1682.1 128.048C1677.7 129.791 1673.3 131.625 1668.58 133.557C1663.86 135.489 1658.81 137.57 1653.03 139.545C1652.51 140.068 1662.49 136.958 1650.46 141.636C1649.95 141.65 1649.39 141.553 1652.53 140.316C1651.5 140.721 1648.89 141.816 1646.77 142.525L1651.48 140.474C1646.22 142.293 1648.85 141.7 1644.68 143.222C1644.66 142.972 1641.53 144.208 1642.05 143.813C1643.09 143.398 1645.72 142.555 1647.28 141.878C1642.56 143.578 1636.82 145.557 1634.87 146.086C1635.34 146.059 1635 146.386 1631.58 147.686C1622.68 150.994 1628.42 148.565 1623.17 150.347C1621.07 151.256 1615.28 153.09 1615.27 153.473C1613.9 153.97 1612.49 154.367 1611.05 154.663C1606.46 156.424 1589.39 162.252 1594.76 160.784L1595.96 160.393C1595.74 160.475 1595.48 160.571 1595.21 160.671C1593.31 161.371 1591.41 162.085 1589.48 162.751C1587.53 163.393 1585.57 164.039 1583.6 164.691C1579.65 165.953 1575.67 167.223 1571.68 168.501C1563.71 171.014 1555.76 173.559 1548.09 175.884L1548.07 175.764C1538.96 178.643 1527.75 182.064 1521.26 184.182C1518.54 184.945 1514.76 185.777 1515.88 185.317C1508.86 187.375 1508.11 187.724 1497.87 190.387C1504.89 188.206 1495.37 190.897 1505.09 188.21C1495.89 190.637 1493.8 191.178 1484 193.984C1487.27 192.827 1476.94 195.399 1472.59 196.613L1479.1 195.162C1474.2 196.47 1469.88 197.551 1465.5 198.652L1467.75 197.659C1458.28 199.935 1449.75 201.984 1441.81 204.049C1437.84 205.063 1434.01 206.034 1430.25 206.914C1426.49 207.794 1422.78 208.436 1419.1 209.014C1414.13 210.347 1429.51 207.03 1425.09 208.295C1416.29 210.087 1407 211.45 1404.25 212.026C1401.24 212.596 1399.04 213.089 1397.23 213.481C1395.41 213.873 1394.01 214.199 1392.59 214.544C1389.73 215.231 1386.8 215.944 1380.46 217.044C1382.1 216.883 1383.71 216.971 1374.29 218.86C1371.61 219.429 1368.89 219.803 1366.15 219.978C1365.21 219.966 1366.08 219.678 1368.86 219.144C1369.86 218.898 1370.89 218.735 1371.93 218.657C1374.76 218.076 1378.49 217.319 1374.97 217.819L1373.85 218.171C1369.46 218.942 1357.24 220.834 1360.06 220.163C1353.39 221.377 1357.24 220.853 1362.23 220.126C1356.51 220.941 1352.07 221.656 1347.58 222.386L1340.66 223.507C1338.23 223.902 1335.62 224.194 1332.67 224.574C1334.56 224.397 1336.31 224.329 1334.45 224.58C1317.16 226.749 1326.89 225.88 1315.2 227.527C1311.86 227.872 1312.44 227.663 1312.37 227.59C1312 227.546 1311.61 227.572 1311.24 227.669C1310.33 227.779 1308.69 227.978 1305.74 228.332C1298.5 228.976 1304.17 228.125 1307.01 227.696C1301.64 228.421 1296.62 228.927 1292.15 229.328C1287.69 229.712 1283.81 230.082 1280.72 230.263C1282.61 230.085 1284.51 229.869 1286.39 229.606C1283.01 230.083 1280.22 230.235 1277.39 230.489L1280.67 230.505C1278.64 230.715 1276.59 230.826 1274.55 230.838C1271.12 231.308 1277.23 231.092 1270.43 231.909C1265.96 232.109 1256.89 233.23 1255.31 232.879C1269.33 231.955 1253.74 232.657 1265.58 231.643C1263.29 231.877 1260.51 232.104 1257.16 232.33C1256.65 232.33 1257.63 232.215 1258.53 232.116C1245.1 232.587 1252.4 232.897 1238.49 233.659C1240.24 233.351 1235.24 233.43 1232.98 233.598C1238.58 233.288 1235.69 233.831 1230.54 234.224C1221.61 234.275 1220.83 234.583 1216.16 234.677L1221.5 234.625C1219.7 234.881 1215.23 234.963 1209 235.18C1208.46 235.028 1214.66 234.929 1212.43 234.91C1210.7 235.045 1208.86 235.11 1206.93 235.145C1204.98 235.145 1202.94 235.058 1200.82 234.993C1196.57 234.85 1191.99 234.693 1187.16 234.783C1182.69 234.608 1186.74 234.383 1182.82 234.255C1172.01 234.116 1171.14 233.499 1159.8 233.274C1161.42 233.483 1162.38 233.574 1161.93 233.61C1161.49 233.646 1159.62 233.662 1155.63 233.465C1157.18 233.553 1158.73 233.696 1160.28 233.739L1164.96 233.876L1174.28 234.151L1162.29 234.084C1167.91 234.315 1174.18 234.384 1177.55 234.568C1171.84 234.568 1172.43 234.523 1175.11 234.868C1167.43 234.093 1159.8 234.64 1150.94 233.552L1151.27 232.866C1147.94 232.536 1144.8 232.28 1141.68 232.06L1136.99 231.735L1132.26 231.27L1122.12 230.26C1120.32 230.06 1118.44 229.86 1116.48 229.645C1114.54 229.358 1112.51 229.021 1110.36 228.67L1115.85 229.649C1113.51 229.568 1105.26 228.039 1099.69 227.288C1099.97 227.211 1099.24 227.017 1098.16 226.777C1097.62 226.662 1096.99 226.529 1096.34 226.394C1095.71 226.231 1095.05 226.067 1094.48 225.918C1094.73 226.147 1082.06 223.403 1080.4 223.553C1079.16 223.236 1077.9 222.966 1076.66 222.613L1072.96 221.519C1066.22 219.739 1062.3 218.982 1058.47 218.119C1054.68 217.135 1050.95 216.173 1044.56 214.161C1048.51 215.106 1042.76 213.161 1051.39 215.623C1047.12 214.306 1043.31 213.083 1043.18 213.215C1040.76 212.262 1031.48 209.227 1027.73 207.615C1025.29 206.957 1022.92 206.117 1020.63 205.106C1020.15 204.854 1020.7 205.006 1020.7 205.006C1020.63 205.111 1013.39 202.165 1017.31 204.074C1004.96 198.138 981.862 189.383 970.918 184.548C961.795 181.085 950.705 177.121 942.237 174.409C942.815 174.461 943.377 174.614 943.893 174.86C940.75 173.664 937.507 172.707 934.195 171.998C933.164 171.768 932.085 171.522 930.434 171.061C928.775 170.626 926.533 170.013 923.193 169.001C916.439 166.692 930.401 170.823 926.163 169.474C924.569 168.104 909.83 165.131 900.649 162.933L902.911 163.317C895.872 161.649 885.487 160.329 873.707 159.17C873.707 159.17 874.289 159.148 873.789 159.059C871.757 158.995 869.279 158.878 866.529 158.727L857.613 158.512C854.479 158.445 851.241 158.572 848.078 158.582C844.915 158.615 841.831 158.882 838.99 158.999C842.509 158.541 844.151 158.612 841.973 158.399C839.42 158.531 839.798 158.639 839.548 158.78C839.132 158.929 838.69 159.011 838.243 159.022L836.404 159.184L833.335 159.499L826.645 159.821C825.003 160.018 823.349 160.104 821.693 160.08L826.458 159.443L831.251 159.017C830.011 159.017 828.615 159.087 827.139 159.196C825.662 159.305 824.121 159.568 822.572 159.782C819.477 160.261 816.357 160.675 813.873 161.139L814.476 160.839C810.851 161.496 808.127 162.018 805.837 162.479L799.868 163.989L796.983 164.722C795.971 164.96 794.902 165.243 793.721 165.598C791.356 166.277 788.502 167.069 784.697 168.084L786.313 167.797C782.254 169.177 780.557 169.75 778.811 170.185C777.941 170.417 777.071 170.645 775.914 170.998L773.932 171.634C773.186 171.911 772.341 172.252 771.354 172.654L768.745 173.093L763.494 175.127C761.379 175.966 759.014 177.055 756.491 178.127C751.411 180.218 746.036 182.933 741.468 185.037C743.981 183.71 747.875 181.737 752.015 179.787C756.22 177.97 760.571 175.982 763.976 174.613C761.332 175.555 756.977 177.449 752.895 179.132C748.838 180.866 745.217 182.709 743.939 183.388C745.959 182.414 748.479 181.135 750.532 180.279C747.509 181.867 743.979 183.634 739.942 185.579C736.006 187.694 731.51 189.9 726.64 192.495C726.944 192.061 725.512 192.695 723.076 193.946C721.867 194.586 720.397 195.361 718.763 196.226C717.129 197.091 715.347 198.07 713.536 199.145C706.219 203.339 698.097 208.545 694.599 210.52C678.763 221.663 663.341 233.078 648.049 249.331C654.021 244.031 643.626 254.09 645.222 253.596C641.836 257.481 640.631 259.027 640.277 259.338C636.864 263.274 633.623 267.349 630.616 271.581C629.5 273.06 630.135 272.024 631 270.654C631.662 269.724 632.269 268.763 632.819 267.773C631.155 270.05 630.229 271.478 629.588 272.36C628.948 273.242 628.661 273.623 628.435 273.901C627.399 275.095 626.494 276.381 625.734 277.739C626.777 276.557 623.994 281.228 621.26 287.012C622.637 284.334 624.08 281.695 625.683 279.146C622.051 286.063 620.742 289.173 619.376 292.294C619.025 293.071 618.718 293.867 618.411 294.738C618.104 295.609 617.759 296.538 617.469 297.638C616.615 300.562 616.141 303.569 616.056 306.596C616.062 304.916 616.176 303.237 616.397 301.568C615.919 304.312 615.737 307.092 615.854 309.868C615.983 313.656 617.159 317.351 619.273 320.605C621.581 323.867 625.13 326.221 629.225 327.205C632.158 327.927 635.21 328.146 638.228 327.85C639.785 327.827 641.895 327.895 637.977 328.188C643.469 327.913 648.882 326.852 654.019 325.046C659.219 323.271 664.264 321.134 669.111 318.654C677.57 314.258 685.765 309.447 693.661 304.241L692.519 305.23C695.598 303.13 697.666 301.33 701.581 298.785C701.435 298.985 700.477 299.785 701.891 298.806L706.836 294.96C709.057 293.214 711.562 291.243 713.537 289.785L710.356 292.491C716.821 287.683 723.012 282.572 728.906 277.178C734.041 272.444 738.737 267.838 744.345 262.118C744.542 262.312 747.346 259.78 750.644 256.418C753.942 253.056 757.699 248.852 760.071 245.953L759.972 246.201C766.349 238.55 771.817 230.292 776.282 221.57C778.333 217.48 780.083 213.268 781.518 208.962C783.054 204.402 784.087 199.712 784.601 194.962C785.265 190.919 785.368 186.814 784.906 182.747C784.259 177.315 782.542 172.037 779.841 167.17C776.878 161.903 772.96 157.139 768.255 153.083C763.877 149.326 759.067 146.02 753.909 143.222C755.323 144.045 755.142 144.068 754.197 143.667L749.81 141.661C747.214 140.384 744.548 139.231 741.823 138.207C739.24 137.279 737.354 136.579 737.824 136.49L739.498 137.127C738.335 136.534 737.137 136 735.91 135.527C734.388 134.965 732.584 134.343 730.653 133.693C728.704 133.093 726.611 132.505 724.527 131.901L718.362 130.333C717.87 130.433 717.383 130.516 716.894 130.633C706.733 127.76 692.973 125.612 680.376 124.405C667.763 123.154 656.32 122.731 650.571 122.053C645.461 122.031 639.137 121.807 634.076 121.935L634.354 121.599C620.208 121.376 613.134 121.358 595.671 122.032L599.223 121.675C595.531 121.766 591.848 122.071 588.198 122.588C585.201 122.988 582.298 123.329 577.768 123.626L575.006 123.281C557.855 124.288 540.475 125.293 523.648 127.452C524.783 127.1 525.967 126.898 527.164 126.852C523.141 127.267 515.356 127.96 508.96 128.686C502.565 129.412 497.551 130.086 499.057 130.265C498.782 129.723 481.499 132.633 472.356 134.083L473.726 133.553L465.554 135.163C463.206 135.683 460.473 136.233 455.116 137.254C452.562 137.667 452.832 137.39 456.229 136.869C447.713 138.218 449.689 138.364 439.376 140.032L443.158 139.138C438.842 139.759 434.591 140.715 430.451 141.997C425.049 143.32 414.033 145.51 412.676 145.497C412.118 145.714 410.672 146.142 408.725 146.644C406.779 147.146 404.376 147.868 401.838 148.462C401.125 148.528 402.941 147.985 403.854 147.712C396.669 149.455 391.377 150.927 386.644 152.241L379.794 154.119C377.564 154.793 375.305 155.445 372.847 156.092C372.265 156.112 371.69 156.213 371.14 156.392L379.036 154.042C381.459 153.342 383.659 152.83 385.452 152.354C389.056 151.428 391.134 150.901 390.709 151.024C390.618 150.724 381.411 153.058 388.594 150.755C381.223 152.716 368.98 157.056 360.081 159.544C359.646 159.644 359.211 159.744 358.874 159.792L359.778 159.487C357.725 160.067 355.907 160.642 354.203 161.206C351.37 162.019 349.608 162.642 346.925 163.524C345.798 163.634 336.602 166.874 332.131 168.374C332.63 168.564 326.765 170.493 332.348 168.898C333.586 168.391 334.851 167.944 336.139 167.558C336.805 167.319 337.589 167.039 338.029 166.88L337.735 167.011L348.826 163.234C345.361 164.589 341.734 165.97 336.728 167.466L330.71 170.083C327.54 170.834 323.099 172.412 319.17 173.702C315.256 175.013 311.885 176.139 311.015 176.311C307.69 177.655 304 178.972 300.347 180.543C296.693 182.114 292.966 183.703 289.393 185.233C285.82 186.763 282.418 188.259 279.402 189.613C276.407 191.013 273.849 192.358 271.875 193.422C270.029 194.344 268.101 195.122 266.113 195.746C268.216 194.712 270.759 193.56 271.87 192.951C268.213 194.715 262.746 197.233 258 199.46C255.608 200.543 253.478 201.69 251.809 202.573C250.692 203.131 249.616 203.757 248.591 204.448C239.339 208.819 253.525 201.534 240.987 207.848L242.618 206.884C239.479 208.343 236.504 209.767 233.648 211.165C230.838 212.638 228.155 214.097 225.538 215.532C222.928 216.982 220.386 218.4 217.859 219.807C215.35 221.237 212.82 222.598 210.376 224.126C205.444 227.117 200.431 230.148 194.967 233.334C189.524 236.548 183.785 240.135 177.149 243.908C178.978 242.85 179.891 242.32 180.302 242.155C172.79 246.521 165.536 251.455 158.114 256.263L155.341 258.085L152.623 259.985L147.178 263.785C143.566 266.343 139.874 268.816 136.325 271.451C129.228 276.721 122.043 281.87 115.184 287.256C111.742 289.933 108.226 292.504 104.87 295.196L94.7951 303.129C90.4828 306.572 86.3614 310.211 82.4465 314.034L80.5916 315.118C78.1451 317.379 75.7976 319.737 73.399 322.039C70.8199 324.46 68.2887 326.605 65.8781 328.773C63.436 330.918 61.0374 333.024 58.5507 335.206C56.0369 337.366 53.5252 339.688 50.8406 342.25C48.156 344.812 45.2714 347.589 42.2628 350.878L44.083 349.408C41.8094 351.674 38.23 355.279 35.3464 358.25C32.489 361.243 30.2546 363.541 30.509 363.062C29.5836 364.273 28.5554 365.414 27.4341 366.475L27.1459 366.495C23.685 370.418 20.1872 374.309 16.8285 378.302C12.7152 382.79 12.9142 382.348 12.6043 382.397C12.3292 382.47 11.5278 383.019 5.79988 389.792C3.7079 392.337 0.861319 396.052 -1.19587 398.938C-3.25306 401.824 -4.55675 403.865 -3.76627 402.901C-2.41084 401.013 -0.893561 399.228 0.771072 397.563C-0.433667 399.163 -1.65037 400.743 -2.82357 402.364C-2.90838 402.954 -3.48683 404.254 -2.92687 403.957C-2.3669 403.66 -0.696796 401.772 4.08737 396.177C6.1152 393.447 8.24198 390.777 10.3416 388.083L12.7337 385.744C10.8432 387.921 8.98642 390.121 7.16337 392.344C10.4981 388.729 12.3651 386.259 14.5016 383.521C15.5945 382.559 16.6304 381.544 17.6048 380.479C19.7001 377.858 21.7681 375.214 23.9308 372.637C24.9441 371.878 21.2125 376.247 25.9195 371.337C28.9313 367.695 22.4281 374.359 27.62 368.489C31.1929 365.042 30.4035 366.251 34.2232 361.914C34.9039 361.421 34.1297 362.369 32.5923 364.069C34.3168 362.158 36.6284 359.653 38.79 357.431C40.9515 355.209 42.8848 353.192 43.7068 352.146C44.6853 351.288 45.9216 350.071 47.2688 348.77C48.616 347.469 50.0675 346.08 51.3875 344.813C54.0253 342.272 56.1717 340.245 56.1967 340.606C57.2383 339.364 62.5553 334.094 66.0205 330.826C63.0848 334.026 66.3152 330.952 70.2469 327.45C74.1949 323.962 78.7464 319.95 78.1397 320.957C82.5161 316.244 95.628 305.547 104.384 298.165C103.918 298.603 103.004 299.465 102.199 300.081C107.242 296.043 108.818 294.988 112.202 292.549C112.541 291.7 120.4 285.412 124.563 281.933C131.288 277.589 121.043 285.208 123.367 284.085C122.763 284.008 134.241 275.626 131.838 276.971C134.106 275.332 136.478 273.818 138.941 272.437C139.39 271.323 143.523 269.117 147.422 265.937C154.86 261.152 149.632 265.069 157.496 259.437C159.485 258.247 158.707 258.875 157.433 259.799L154.459 262.023ZM363.173 160.798V160.805L358.523 162.214L363.173 160.798ZM382.143 155.187C379.793 155.747 376.947 156.687 373.899 157.573C373.197 157.661 373.876 157.331 375.785 156.767C374.784 157.179 379.246 155.823 382.143 155.189V155.187ZM341.318 165.333C342.747 164.768 344.219 164.3 345.722 163.933L340.543 165.733C340.461 165.771 340.291 165.85 340.209 165.89C340.562 165.678 340.932 165.492 341.318 165.335V165.333ZM336.146 167.556L334.932 167.993L336.731 167.464L337.743 167.009L336.146 167.556ZM1594.78 160.788L1594.37 160.918C1594.71 160.818 1595.01 160.725 1595.22 160.675L1594.78 160.788ZM654.166 125.273L654.143 125.188L652.404 125.177L654.166 125.273ZM1697.06 123.844C1697.52 123.71 1697.97 123.553 1698.42 123.375C1698.35 123.379 1697.77 123.587 1697.06 123.844ZM1740.27 105.707L1746.38 103.154C1743.74 104.259 1741.8 105.064 1740.27 105.707ZM1773.22 91.2487C1773.43 91.1291 1773.62 90.9871 1773.79 90.8257C1773.77 90.8357 1773.75 90.8438 1773.72 90.8527L1773.22 91.2487ZM1218.75 236.88L1217.34 236.928C1214.03 237.074 1216.28 236.999 1218.75 236.88ZM1390.01 216.699L1384.61 217.868C1387.63 217.333 1389.97 216.903 1390.01 216.698V216.699ZM1028.7 210.838C1028.71 210.839 1028.71 210.839 1028.72 210.838L1027.61 210.424L1028.7 210.838ZM1376.73 219.326C1379.76 218.826 1382.27 218.348 1384.61 217.868C1382.13 218.304 1379.22 218.813 1376.73 219.326ZM1912.37 21.9509C1912.88 21.6879 1913.39 21.4159 1913.89 21.1379C1913.9 21.1045 1913.92 21.0739 1913.95 21.0485C1913.97 21.0231 1914.01 21.0034 1914.04 20.9909L1912.37 21.9509ZM1914.04 20.9909L1915.68 20.0259C1914.92 20.4529 1914.26 20.8269 1914.04 20.9909ZM1919.15 17.9909L1915.68 20.0229C1916.9 19.3489 1918.41 18.5209 1919.15 17.9959V17.9909ZM1870.4 44.0062L1869.97 44.3592C1870.14 44.2761 1870.29 44.1547 1870.4 44.0062ZM1857.57 50.5783C1860.64 49.0432 1865.4 46.8912 1869.64 44.6472L1869.97 44.3592C1868.06 45.5422 1860.36 48.9172 1857.57 50.5783ZM1802.79 75.9016L1813.72 70.7095C1811.75 71.5175 1809.16 72.5755 1814.09 70.1465C1800.18 76.4566 1817.06 69.0315 1802.79 75.9016ZM1768.63 91.5078C1774.51 88.7237 1768.47 91.3708 1768.74 91.1588C1765.06 92.9968 1764.17 93.4428 1768.63 91.5078ZM1513.21 185.952L1513.74 185.481C1508.88 186.888 1513.73 185.607 1513.21 185.952ZM1463.07 200.99L1467.9 199.945L1470.09 199.09L1463.07 200.99ZM1432.32 205.998L1434.46 205.452C1431.73 206.108 1429.01 206.852 1426.25 207.437C1428.29 207.006 1430.3 206.485 1432.32 205.998ZM980.946 188.098L982.197 189.006C985.382 190.218 986.238 190.084 980.946 188.098ZM786.351 167.421C784.662 167.744 782.997 168.171 781.369 168.698C779.352 169.298 777.198 169.998 775.587 170.606L781.754 168.755C783.628 168.183 785.249 167.717 786.351 167.421ZM707.174 128.113C708.502 128.333 709.842 128.502 711.163 128.764C708.674 128.275 706.161 127.878 703.67 127.431L707.174 128.113Z" fill="#676767" fill-opacity="0.15"/>
</svg>
