<svg width="279" height="251" viewBox="0 0 279 251" fill="none" xmlns="http://www.w3.org/2000/svg">
<g opacity="0.08">
<path d="M213.461 149.622L213.436 149.672L208.014 157.911L198.49 172.392L167.556 219.401L178.271 192.914L184.482 177.566L191.434 160.423V160.411L141.301 131.467L162.616 100.697L213.461 149.622Z" fill="#F4F4F4"/>
<path d="M208.009 157.906L184.473 177.555L178.262 192.903L167.547 219.395L198.481 172.386L208.009 157.906Z" fill="#C7C7C7"/>
<path d="M167.804 86.3789L54.875 250.878L54.9258 250.765L119.982 108.495L140.813 98.8621L167.804 86.3789Z" fill="#C7C7C7"/>
<path d="M140.813 98.8613L54.9258 250.76L119.982 108.494L140.813 98.8613Z" fill="#F4F4F4"/>
<path d="M278.999 11.6263C270.069 23.7396 259.28 34.4124 247.019 43.2626C241.534 47.1109 235.831 50.6498 229.939 53.8622C226.976 55.4957 224.224 56.9022 221.814 58.0816C220.233 58.8609 218.805 59.5401 217.567 60.1027C215.423 61.0946 213.842 61.7697 213 62.1114L212.312 62.401L197.497 69.2083L64.6346 130.312L64.0738 130.576L61.0771 131.958L52.2245 136.027L45.3359 139.192L27.3006 147.479L0 160.037C4.39281 153.454 9.57491 147.416 15.4343 142.053C27.4591 130.835 41.0603 121.377 55.8202 113.972L56.0762 113.834L57.346 113.209L58.673 112.532L60.893 111.478H61.02C62.4746 110.8 63.9158 110.147 65.3436 109.519C68.9541 107.748 72.3719 106.104 75.5485 104.62C78.2151 103.37 80.651 102.234 82.9557 101.218C86.4518 99.6361 89.4104 98.3421 91.6326 97.4503L96.3393 95.4792L210.589 42.7229L221.751 37.5617L230.216 33.6548L232.766 32.4859L244.435 27.0996L247.995 25.466L246.528 25.0638L200.793 12.5056C213.607 9.74999 226.698 8.44341 239.813 8.61124C252.944 8.35476 266.068 9.3646 278.999 11.6263Z" fill="#F4F4F4"/>
<path d="M64.6346 111.473V130.311L64.0738 130.576L61.0771 131.957L52.2245 136.027L45.3359 139.185L27.3006 147.48L0 160.039C4.39282 153.456 9.57492 147.417 15.4343 142.055C27.4591 130.836 41.0603 121.379 55.8201 113.973L56.0762 113.836L57.346 113.21L58.6729 112.533L60.893 111.479L64.6346 111.473Z" fill="#C7C7C7"/>
<path d="M279 11.6263L248.04 25.441L200.793 12.5056C213.607 9.74999 226.699 8.44341 239.814 8.61124C252.944 8.35476 266.069 9.3646 279 11.6263Z" fill="#C7C7C7"/>
<path d="M244.483 27.028L232.82 32.4143L230.27 33.5832L210.652 42.6513L96.4126 95.3992C96.4126 95.3992 94.7026 96.091 91.7059 97.3704C89.4731 98.3247 86.5145 99.6187 83.0289 101.138L80.72 102.179L80.1592 102.444L77.7233 103.561C76.8768 103.938 76.3583 104.186 76.3583 104.201L75.6303 104.54C72.4558 106.022 69.0358 107.666 65.4254 109.439C64.1556 110.016 62.8096 110.608 61.4975 111.223L61.1017 111.398L58.6912 112.527C53.9741 116.063 49.4997 119.901 45.297 124.018C38.0144 130.809 31.9207 138.737 27.2617 147.482L45.2864 139.194L64.0879 130.565L197.49 69.2138L212.305 62.4065L212.992 62.1169C213.839 61.7647 215.416 61.1001 217.559 60.1082L219.422 59.2414L219.665 59.1289L221.667 58.1621L221.807 58.0871C224.543 56.7327 227.251 55.326 229.931 53.8677C241.783 43.3306 248.032 25.3965 248.032 25.3965L244.483 27.028Z" fill="#F4F4F4"/>
<path d="M124.384 1.62891C124.384 1.62891 110.122 2.25401 111.705 21.1091C112.252 27.3172 114.042 33.3571 116.972 38.8807C119.554 43.9251 123.007 48.489 127.177 52.3682C127.535 52.5766 140.432 63.9471 150.802 53.7997C152.933 51.6014 128.836 39.7454 125.967 35.1113C121.973 28.6186 124.384 1.62891 124.384 1.62891Z" fill="#C7C7C7"/>
<path d="M127.837 15.1846C127.837 15.1846 135.108 16.4348 139.635 25.2321C142.584 30.8703 143.381 37.3633 141.88 43.5308C141.457 45.1519 148.5 43.5308 148.5 43.5308L151.167 29.339L140.585 11.1903L133.093 9.36914L126.715 12.2696L127.837 15.1846Z" fill="#C7C7C7"/>
<path d="M157.457 33.1661C156.803 29.7117 155.755 26.3412 154.332 23.1187V23.0062C153.875 21.9592 153.381 20.9285 152.85 19.9161C152.015 18.2793 151.087 16.6904 150.069 15.157C149.559 14.3652 149.024 13.613 148.476 12.8837C147.928 12.1544 147.532 11.6335 147.047 11.0626C139.708 2.14452 130.46 -2.17075 124.005 1.07768C115.802 5.10958 114.949 19.6223 121.848 33.8579L122.46 35.1081C124.174 38.4213 126.248 41.5415 128.646 44.4137C129.781 45.7429 131 47.0011 132.294 48.181C133.598 49.3795 135.002 50.4676 136.491 51.4336C137.731 52.2622 139.046 52.9771 140.419 53.5694C142.809 54.6565 145.453 55.0884 148.072 54.8196C149.212 54.6855 150.318 54.3495 151.337 53.8277C157.119 50.9877 159.225 42.7864 157.457 33.1661ZM130.669 33.8954C130.206 33.1536 129.782 32.3885 129.399 31.6034C125.291 23.6542 125.649 15.3654 130.216 13.0796C134.299 11.0334 140.421 14.4986 144.542 20.9663C145.037 21.7257 145.492 22.5095 145.907 23.3146C145.983 23.4521 146.046 23.5792 146.118 23.7167C147.223 25.9091 148.013 28.2422 148.465 30.649C149.396 35.8582 148.254 40.2818 145.111 41.8508C144.773 42.0175 144.419 42.1482 144.053 42.2405C142.568 42.4636 141.052 42.3449 139.622 41.8937C138.192 41.4425 136.888 40.6711 135.812 39.6401C133.811 37.9936 132.096 36.038 130.733 33.8496L130.669 33.8954Z" fill="#F4F4F4"/>
</g>
</svg>
