<svg width="63" height="67" viewBox="0 0 63 67" fill="none" xmlns="http://www.w3.org/2000/svg">
<g clip-path="url(#clip0_5141_6019)">
<path d="M60.3543 44.0432C60.6822 44.8963 60.8251 45.8093 60.7735 46.7218C60.7218 47.6343 60.4768 48.5254 60.0547 49.336C59.6326 50.1466 59.043 50.8583 58.3251 51.4238C57.6071 51.9894 56.7771 52.3958 55.8902 52.6163C52.6272 53.3285 49.3454 51.4967 48.239 48.3456L34.6519 12.4453C33.3942 9.34771 34.6459 5.79839 37.5686 4.17521C38.379 3.75498 39.2695 3.51161 40.181 3.4612C41.0925 3.41078 42.0043 3.55447 42.8562 3.88276C43.708 4.21105 44.4805 4.71646 45.1224 5.36556C45.7643 6.01465 46.2611 6.79265 46.58 7.64808L60.3543 44.0432Z" fill="#F9AB00"/>
<path d="M20.2747 52.4106C23.5944 51.1542 27.3041 52.827 28.5605 56.1466C29.8169 59.4663 28.1443 63.1759 24.8245 64.4323C21.5048 65.6887 17.7952 64.0161 16.5388 60.6966C15.2824 57.3768 16.955 53.667 20.2747 52.4106ZM29.1955 28.2067C25.9294 29.6519 24.4003 33.4291 25.7418 36.7394L31.8524 52.8852C33.5108 57.267 36.4456 59.1974 39.485 58.6953C40.428 58.5414 41.3249 58.1795 42.1106 57.6359C42.8964 57.0923 43.5513 56.3806 44.0278 55.5524C44.5044 54.7243 44.7906 53.8005 44.8658 52.848C44.941 51.8955 44.8032 50.9382 44.4625 50.0456L37.6066 31.9308C37.305 31.1294 36.8468 30.3962 36.2588 29.7738C35.6708 29.1513 34.9647 28.6523 34.1818 28.3056C33.3988 27.959 32.5547 27.7717 31.6986 27.7547C30.8425 27.7378 29.9916 27.8913 29.1955 28.2067Z" fill="#E37400"/>
</g>
<defs>
<clipPath id="clip0_5141_6019">
<rect width="47" height="53.2609" fill="white" transform="translate(0.000488281 17) rotate(-20.73)"/>
</clipPath>
</defs>
</svg>
