<svg width="48" height="38" viewBox="0 0 48 38" fill="none" xmlns="http://www.w3.org/2000/svg">
<path d="M39.0393 10.6172C39.6292 11.3297 39.3622 11.7455 38.4571 12.4948C37.5006 13.2866 37.1913 13.2722 36.4854 12.6287C34.7656 10.9368 32.2178 10.4009 29.9774 11.9581C29.2614 12.4588 28.8937 12.3413 28.2082 11.5133C27.5705 10.743 27.3863 10.2788 27.9833 9.78459C31.6314 6.79152 36.5683 7.63229 39.0367 10.614L39.0393 10.6172ZM44.3351 6.23302C39.7437 0.686932 31.1373 -2.07081 22.4683 5.10589L5.23627 19.3716C4.88643 19.6612 4.81432 20.0184 5.08003 20.3394C5.22484 20.5143 5.48928 20.5658 5.67579 20.5494C6.71028 20.5314 8.10127 20.3102 9.8284 19.9136C11.515 19.5235 12.7699 19.1445 14.0142 18.7527C14.5418 18.5863 14.8297 18.6401 15.0104 18.8583C15.2628 19.1632 15.2013 19.5333 14.7777 19.884L1.10662 31.2017C0.699011 31.5392 0.727527 31.9591 0.942749 32.2191C1.12343 32.4373 1.3508 32.5682 1.69693 32.6008C3.76874 32.8492 6.69943 32.776 10.6126 32.2627C14.1742 31.7754 17.7065 31.096 21.1978 30.2395C21.7226 30.1025 22.0056 30.2091 22.1862 30.4273C22.378 30.6851 22.356 31.0441 21.9163 31.4081L15.6529 36.5933C15.3063 36.8803 15.2603 37.2429 15.4994 37.5318C15.6323 37.6922 15.928 37.7882 16.2374 37.8025C18.7359 37.9194 22.1886 37.4411 26.302 36.2157C31.7969 34.5877 36.7631 32.21 41.3945 28.3759C50.1646 21.1155 48.5896 11.3656 44.3356 6.22716L44.3351 6.23302ZM39.669 23.9002C35.1853 27.6121 28.4096 27.0657 24.6393 22.5114C20.9274 18.0276 21.6826 11.3278 26.1792 7.60531C30.7736 3.80173 37.3571 4.40989 41.0769 8.90326C41.9762 9.97732 42.6535 11.219 43.0697 12.5565C43.486 13.894 43.6329 15.3008 43.5019 16.6955C43.371 18.0901 42.9648 19.4449 42.3069 20.6816C41.649 21.9183 40.7524 23.0122 39.669 23.9002Z" fill="#FF5500"/>
</svg>
