<svg width="76" height="76" viewBox="0 0 76 76" fill="none" xmlns="http://www.w3.org/2000/svg">
<g clip-path="url(#clip0_5141_6003)">
<path d="M50.9233 33.039C53.3991 40.366 49.4696 48.3062 42.1426 50.782C38.4791 52.0199 36.5095 55.9998 37.7571 59.6437C38.9949 63.3072 42.9749 65.2768 46.6384 64.0389C61.2924 59.0874 69.1514 43.2069 64.1998 28.5529L50.9233 33.039Z" fill="#EA4335"/>
<path d="M64.1801 28.5422C59.2286 13.8882 43.3677 6.03895 28.7137 10.9905C14.0597 15.9421 6.20068 31.8226 11.1522 46.4766L24.4191 42.0101C21.9433 34.6831 25.8728 26.7428 33.1998 24.267C40.5268 21.7913 48.467 25.7207 50.9428 33.0478C52.1807 36.7113 56.1606 38.6808 59.8241 37.443C63.4484 36.1857 65.418 32.2057 64.1801 28.5422Z" fill="url(#paint0_linear_5141_6003)"/>
<path d="M46.6187 64.0286L42.1229 50.7716C34.7959 53.2474 26.8556 49.3179 24.3799 41.9909L11.113 46.4574C16.1038 61.1308 31.9647 68.9801 46.6187 64.0286Z" fill="#FBBC04"/>
<path d="M42.1423 50.7808C45.8058 49.5429 49.7661 51.5028 51.004 55.1663C52.2419 58.8298 50.2723 62.8098 46.6088 64.0477C42.9453 65.2855 38.985 63.3257 37.7471 59.6622C36.5092 55.9986 38.4788 52.0187 42.1423 50.7808Z" fill="#EA4335"/>
<path d="M15.5378 37.6148C19.2013 36.3769 23.1616 38.3368 24.3995 42.0003C25.6374 45.6638 23.6678 49.6438 20.0043 50.8816C16.3408 52.1195 12.3805 50.1596 11.1426 46.4961C9.90469 42.8326 11.8743 38.8527 15.5378 37.6148Z" fill="#34A853"/>
</g>
<defs>
<linearGradient id="paint0_linear_5141_6003" x1="-1034.99" y1="2141.91" x2="3431.11" y2="4352.1" gradientUnits="userSpaceOnUse">
<stop stop-color="#246FDB"/>
<stop offset="0.0552" stop-color="#2973DF"/>
<stop offset="0.2781" stop-color="#377DEB"/>
<stop offset="0.5491" stop-color="#3F83F2"/>
<stop offset="1" stop-color="#4285F4"/>
</linearGradient>
<clipPath id="clip0_5141_6003">
<rect width="56" height="56" fill="white" transform="translate(25) rotate(26.33)"/>
</clipPath>
</defs>
</svg>
