<svg width="101" height="100" viewBox="0 0 101 100" fill="none" xmlns="http://www.w3.org/2000/svg">
<path d="M9.79924 20.1539C17.6841 5.87832 34.4884 1.41472 44.2953 0.39773C68.876 -2.15135 81.0801 8.22093 85.5081 12.5064C104.604 30.9881 102.199 56.4801 96.0393 76.2364C89.8793 95.9927 72.6313 101.091 59.0793 99.8164C45.5273 98.5418 37.5193 95.9926 37.5193 82.6093C37.5193 69.226 27.0473 67.3141 17.8073 60.9411C8.56723 54.5681 -0.0567789 37.9983 9.79924 20.1539Z" fill="#FF6E4E" fill-opacity="0.21"/>
<path d="M74.3322 19.2188H12.0762V86.9656H74.3322V19.2188Z" fill="#F1F2F2"/>
<path d="M74.3322 17.8438H12.0762V26.0912H74.3322V17.8438Z" fill="#36D7B7"/>
<path d="M74.3322 17.8438H12.0762V26.0912H74.3322V17.8438Z" stroke="#414042" stroke-miterlimit="10"/>
<path d="M42.0664 33.752H17.0122V52.996H42.0664V33.752Z" fill="#F7BC5D"/>
<path d="M44.5359 36.6895H70.3493" stroke="#414042" stroke-miterlimit="10"/>
<path d="M44.5359 44.5508H70.3493" stroke="#414042" stroke-miterlimit="10"/>
<path d="M44.5359 52.4102H70.3493" stroke="#414042" stroke-miterlimit="10"/>
<path d="M18.9126 64.1875H66.3638" stroke="#414042" stroke-miterlimit="10"/>
<path d="M32.7656 69.6836H52.1257" stroke="#414042" stroke-miterlimit="10"/>
<path d="M28.4029 73.2227H18.7229V83.2374H28.4029V73.2227Z" fill="#E6E7E8"/>
<path d="M41.1163 73.2227H31.4363V83.2374H41.1163V73.2227Z" fill="#E6E7E8"/>
<path d="M53.6459 73.2227H43.9658V83.2374H53.6459V73.2227Z" fill="#E6E7E8"/>
<path d="M66.3607 73.2227H56.6807V83.2374H66.3607V73.2227Z" fill="#E6E7E8"/>
<path d="M17.0152 22.9461C17.5393 22.9461 17.9642 22.5065 17.9642 21.9643C17.9642 21.422 17.5393 20.9824 17.0152 20.9824C16.4911 20.9824 16.0662 21.422 16.0662 21.9643C16.0662 22.5065 16.4911 22.9461 17.0152 22.9461Z" fill="#F1F2F2"/>
<path d="M21 22.9461C21.5242 22.9461 21.9491 22.5065 21.9491 21.9643C21.9491 21.422 21.5242 20.9824 21 20.9824C20.4759 20.9824 20.051 21.422 20.051 21.9643C20.051 22.5065 20.4759 22.9461 21 22.9461Z" fill="#F1F2F2"/>
<path d="M24.9839 22.9461C25.5081 22.9461 25.933 22.5065 25.933 21.9643C25.933 21.422 25.5081 20.9824 24.9839 20.9824C24.4598 20.9824 24.0349 21.422 24.0349 21.9643C24.0349 22.5065 24.4598 22.9461 24.9839 22.9461Z" fill="#F1F2F2"/>
<path d="M75.0941 41.5989V86.3707H70.5388V41.5989L72.6267 35.7078C72.6267 35.5115 72.8165 35.5115 72.8165 35.7078L75.0941 41.5989Z" fill="white"/>
<path d="M75.0941 41.5977H70.5388V86.3695H75.0941V41.5977Z" fill="#36D7B7"/>
<path d="M72.8165 41.5977H70.5388V86.3695H72.8165V41.5977Z" fill="#86E7D4"/>
<path d="M75.2862 80.6758H70.3513V86.1741H75.2862V80.6758Z" fill="white"/>
<path d="M75.0941 41.5989V86.3707H70.5388V41.5989L72.6267 35.7078C72.6267 35.5115 72.8165 35.5115 72.8165 35.7078L75.0941 41.5989Z" stroke="#414042" stroke-miterlimit="10"/>
<path d="M70.5388 80.6758H74.5247" stroke="#414042" stroke-miterlimit="10"/>
<path d="M70.73 41.5977H74.7159" stroke="#414042" stroke-miterlimit="10"/>
<path d="M14.5481 57.9023V63.9897" stroke="#414042" stroke-miterlimit="10"/>
<path d="M14.5456 29.627C6.76356 29.627 0.5 36.1071 0.5 44.1582C0.5 52.2092 6.76356 58.6894 14.5456 58.6894C22.3276 58.6894 28.5911 52.2092 28.5911 44.1582C28.5911 36.1071 22.3276 29.627 14.5456 29.627ZM14.5456 57.1184C7.71259 57.1184 2.01844 51.4238 2.01844 44.1582C2.01844 37.0889 7.52278 31.1979 14.5456 31.1979C21.5683 31.1979 27.0727 36.8926 27.0727 44.1582C27.0727 51.4238 21.5683 57.1184 14.5456 57.1184Z" fill="#A7A9AC"/>
<path d="M14.5481 34.1445C19.8626 34.1445 24.2281 38.661 24.2281 44.1593" stroke="#414042" stroke-miterlimit="10"/>
<path d="M11.8887 62.2246V85.0033C11.8887 86.5742 13.2173 87.9488 14.7357 87.9488V62.421H11.8887V62.2246Z" fill="#5EDFC5"/>
<path d="M14.5481 62.2246V87.7524C16.0665 87.7524 17.3952 86.3778 17.3952 84.8069V62.2246H14.5481Z" fill="#36D7B7"/>
<path d="M11.7014 66.3496H17.5854" stroke="#414042" stroke-miterlimit="10"/>
<path d="M11.7014 68.8965H17.5854" stroke="#414042" stroke-miterlimit="10"/>
</svg>
