<svg width="101" height="100" viewBox="0 0 101 100" fill="none" xmlns="http://www.w3.org/2000/svg">
<path d="M5.09785 20.1539C13.3914 5.87832 31.0668 1.41472 41.382 0.39773C67.2369 -2.15135 80.0735 8.22093 84.731 12.5064C104.817 30.9881 102.287 56.4801 95.8081 76.2364C89.3288 95.9927 71.1868 101.091 56.9323 99.8164C42.6778 98.5418 34.2547 95.9926 34.2547 82.6093C34.2547 69.226 23.2399 67.3141 13.5209 60.9411C3.80197 54.5681 -5.26906 37.9983 5.09785 20.1539Z" fill="#FF6E4E" fill-opacity="0.21"/>
<path d="M10.6074 66.3055V24.4731C10.6074 22.7906 12.007 21.4141 13.7175 21.4141H72.8088C74.5193 21.4141 75.9188 22.7906 75.9188 24.4731V66.3055C75.9188 67.9879 74.5193 69.3645 72.8088 69.3645H13.7175C12.007 69.3645 10.6074 67.9879 10.6074 66.3055Z" fill="#83E1E5"/>
<path d="M23.4928 51.5879C21.3157 51.5879 19.543 53.3315 19.543 55.4729V61.5757H27.4425V55.4729C27.4425 53.3315 25.6854 51.5879 23.4928 51.5879Z" fill="#FDDF7F"/>
<path d="M31.4146 40.6855C29.2376 40.6855 27.4648 42.4292 27.4648 44.5705V61.5788H35.3644V44.5705C35.3644 42.4292 33.5917 40.6855 31.4146 40.6855Z" fill="#FDDF7F"/>
<path d="M39.314 47.25C37.137 47.25 35.3643 48.9937 35.3643 51.135V61.5816H43.2638V51.135C43.2638 48.9937 41.4911 47.25 39.314 47.25Z" fill="#FDDF7F"/>
<path d="M47.2135 37.2715C45.0364 37.2715 43.2637 39.0151 43.2637 41.1565V61.5756H51.1632V41.1565C51.1632 39.0151 49.3905 37.2715 47.2135 37.2715Z" fill="#FDDF7F"/>
<path d="M55.1124 35.5488C52.9353 35.5488 51.1626 37.2925 51.1626 39.4338V61.566H59.0622V39.4338C59.0777 37.2925 57.305 35.5488 55.1124 35.5488Z" fill="#FDDF7F"/>
<path d="M63.0343 28.1426C60.8572 28.1426 59.0845 29.8862 59.0845 32.0276V61.5779H66.984V32.0276C66.984 29.8709 65.2113 28.1426 63.0343 28.1426Z" fill="#FDDF7F"/>
<path d="M27.452 62.3474H19.5524C19.117 62.3474 18.7749 62.0109 18.7749 61.5826V55.4798C18.7749 52.9102 20.8897 50.8301 23.5022 50.8301C26.1147 50.8301 28.2295 52.9102 28.2295 55.4798V61.5826C28.2295 62.0109 27.8874 62.3474 27.452 62.3474ZM20.3299 60.8178H26.6745V55.4798C26.6745 53.7515 25.2438 52.3596 23.5022 52.3596C21.745 52.3596 20.3299 53.7668 20.3299 55.4798V60.8178Z" fill="#1C1D21"/>
<path d="M35.3587 62.3427H27.4592C27.0237 62.3427 26.6816 62.0062 26.6816 61.5779V44.5697C26.6816 42.0001 28.7965 39.9199 31.4089 39.9199C34.0214 39.9199 36.1362 42.0001 36.1362 44.5697V61.5779C36.1362 62.0062 35.7786 62.3427 35.3587 62.3427ZM28.2211 60.8132H34.5657V44.5697C34.5657 42.8413 33.135 41.4494 31.3934 41.4494C29.6362 41.4494 28.2211 42.8566 28.2211 44.5697V60.8132Z" fill="#1C1D21"/>
<path d="M43.2581 62.3359H35.3586C34.9232 62.3359 34.5811 61.9994 34.5811 61.5711V50.4974C34.5811 47.9278 36.6959 45.8477 39.3084 45.8477C41.9208 45.8477 44.0357 47.9278 44.0357 50.4974V61.5711C44.0357 61.9994 43.6936 62.3359 43.2581 62.3359ZM36.1361 60.8064H42.4806V50.4974C42.4806 48.769 41.05 47.3772 39.3084 47.3772C37.5512 47.3772 36.1361 48.7843 36.1361 50.4974V60.8064Z" fill="#1C1D21"/>
<path d="M51.1644 62.3414H43.2648C42.8294 62.3414 42.4873 62.0049 42.4873 61.5766V41.1576C42.4873 38.588 44.6021 36.5078 47.2146 36.5078C49.8271 36.5078 51.9419 38.588 51.9419 41.1576V61.5766C51.9419 62.0049 51.5998 62.3414 51.1644 62.3414ZM44.0423 60.8119H50.3869V41.1576C50.3869 39.4292 48.9562 38.0373 47.2146 38.0373C45.4574 38.0373 44.0423 39.4445 44.0423 41.1576V60.8119Z" fill="#1C1D21"/>
<path d="M59.0789 62.3357H51.1794C50.744 62.3357 50.4019 61.9992 50.4019 61.571V39.4388C50.4019 36.8692 52.5167 34.7891 55.1292 34.7891C57.7416 34.7891 59.8565 36.8692 59.8565 39.4388V61.571C59.8565 61.9992 59.4988 62.3357 59.0789 62.3357ZM51.9413 60.8062H58.2859V39.4388C58.2859 37.7104 56.8552 36.3186 55.1136 36.3186C53.3564 36.3186 51.9413 37.7257 51.9413 39.4388V60.8062Z" fill="#1C1D21"/>
<path d="M66.9784 62.3457H59.0788C58.6434 62.3457 58.3013 62.0092 58.3013 61.5809V32.0306C58.3013 29.461 60.4161 27.3809 63.0286 27.3809C65.641 27.3809 67.7559 29.461 67.7559 32.0306V61.5809C67.7559 62.0092 67.3982 62.3457 66.9784 62.3457ZM59.8563 60.8162H66.2008V32.0306C66.2008 30.3022 64.7702 28.9104 63.0286 28.9104C61.2714 28.9104 59.8563 30.3175 59.8563 32.0306V60.8162Z" fill="#1C1D21"/>
<path d="M62.0483 91.7709H24.4787C24.0433 91.7709 23.7012 91.4344 23.7012 91.0062V89.4766C23.7012 86.0964 26.4847 83.3586 29.9213 83.3586H33.7934C35.2551 83.3586 36.4525 82.1808 36.4525 80.7431V78.6782C36.4525 76.9193 34.9908 75.4815 33.2025 75.4815H9.83031C6.8291 75.4815 4.3877 73.0802 4.3877 70.1282V20.6482C4.3877 17.6963 6.8291 15.2949 9.83031 15.2949H76.6968C79.698 15.2949 82.1394 17.6963 82.1394 20.6482V70.1282C82.1394 73.0802 79.698 75.4815 76.6968 75.4815H53.3091C51.5208 75.4815 50.059 76.9193 50.059 78.6782V80.7431C50.059 82.1808 51.2564 83.3586 52.7181 83.3586H56.5902C60.0268 83.3586 62.8103 86.0964 62.8103 89.4766V91.0062C62.8259 91.4344 62.4682 91.7709 62.0483 91.7709ZM25.2562 90.2414H61.2553V89.4766C61.2553 86.9529 59.156 84.8881 56.5902 84.8881H52.7181C50.3856 84.8881 48.504 83.0221 48.504 80.7431V78.6782C48.504 76.0781 50.6655 73.952 53.3091 73.952H76.6968C78.8427 73.952 80.5844 72.239 80.5844 70.1282V20.6482C80.5844 18.5375 78.8427 16.8244 76.6968 16.8244H9.83031C7.68437 16.8244 5.94273 18.5375 5.94273 20.6482V70.1282C5.94273 72.239 7.68437 73.952 9.83031 73.952H33.218C35.8616 73.952 38.0231 76.0781 38.0231 78.6782V80.7431C38.0231 83.0374 36.1259 84.8881 33.8089 84.8881H29.9369C27.3711 84.8881 25.2718 86.9529 25.2718 89.4766V90.2414H25.2562Z" fill="#989898"/>
<path d="M39.3187 75.4709H32.2277C31.7923 75.4709 31.4502 75.1344 31.4502 74.7062C31.4502 74.2779 31.7923 73.9414 32.2277 73.9414H39.3187C39.7541 73.9414 40.0962 74.2779 40.0962 74.7062C40.0962 75.1344 39.7385 75.4709 39.3187 75.4709Z" fill="#989898"/>
<path d="M44.7348 75.4709H43.2575C42.8221 75.4709 42.48 75.1344 42.48 74.7062C42.48 74.2779 42.8221 73.9414 43.2575 73.9414H44.7348C45.1702 73.9414 45.5123 74.2779 45.5123 74.7062C45.5123 75.1344 45.1702 75.4709 44.7348 75.4709Z" fill="#989898"/>
<path d="M53.7904 84.8752H45.1911C44.7557 84.8752 44.4136 84.5387 44.4136 84.1105C44.4136 83.6822 44.7557 83.3457 45.1911 83.3457H53.7904C54.2258 83.3457 54.5679 83.6822 54.5679 84.1105C54.5679 84.5387 54.2103 84.8752 53.7904 84.8752Z" fill="#989898"/>
<path d="M10.5993 25.2253C10.1639 25.2253 9.82178 24.8888 9.82178 24.4605C9.82178 22.3498 11.5634 20.6367 13.7094 20.6367H16.3996C16.835 20.6367 17.1771 20.9732 17.1771 21.4015C17.1771 21.8297 16.835 22.1662 16.3996 22.1662H13.7094C12.4187 22.1662 11.3768 23.191 11.3768 24.4605C11.3768 24.8888 11.0347 25.2253 10.5993 25.2253Z" fill="#1C1D21"/>
<path d="M10.5993 40.6116C10.1639 40.6116 9.82178 40.2751 9.82178 39.8469V28.5284C9.82178 28.1002 10.1639 27.7637 10.5993 27.7637C11.0347 27.7637 11.3768 28.1002 11.3768 28.5284V39.8469C11.3768 40.2599 11.0347 40.6116 10.5993 40.6116Z" fill="#1C1D21"/>
<path d="M21.0229 22.1662H19.8566C19.4212 22.1662 19.0791 21.8297 19.0791 21.4015C19.0791 20.9732 19.4212 20.6367 19.8566 20.6367H21.0229C21.4583 20.6367 21.8004 20.9732 21.8004 21.4015C21.8004 21.8297 21.4583 22.1662 21.0229 22.1662Z" fill="#1C1D21"/>
<path d="M72.8129 70.1374H70.1227C69.6873 70.1374 69.3452 69.8009 69.3452 69.3726C69.3452 68.9444 69.6873 68.6079 70.1227 68.6079H72.8129C74.1036 68.6079 75.1455 67.5831 75.1455 66.3136C75.1455 65.8853 75.4876 65.5488 75.923 65.5488C76.3584 65.5488 76.7005 65.8853 76.7005 66.3136C76.7005 68.4243 74.9589 70.1374 72.8129 70.1374Z" fill="#1C1D21"/>
<path d="M75.9147 63.0003C75.4793 63.0003 75.1372 62.6638 75.1372 62.2356V50.9171C75.1372 50.4888 75.4793 50.1523 75.9147 50.1523C76.3501 50.1523 76.6922 50.4888 76.6922 50.9171V62.2356C76.6922 62.6638 76.3501 63.0003 75.9147 63.0003Z" fill="#1C1D21"/>
<path d="M66.6572 70.1311H65.4909C65.0555 70.1311 64.7134 69.7946 64.7134 69.3663C64.7134 68.9381 65.0555 68.6016 65.4909 68.6016H66.6572C67.0926 68.6016 67.4347 68.9381 67.4347 69.3663C67.4347 69.7946 67.0926 70.1311 66.6572 70.1311Z" fill="#1C1D21"/>
</svg>
