<svg width="101" height="100" viewBox="0 0 101 100" fill="none" xmlns="http://www.w3.org/2000/svg">
<path d="M5.09785 20.1539C13.3914 5.87832 31.0668 1.41472 41.382 0.39773C67.2369 -2.15135 80.0735 8.22093 84.731 12.5064C104.817 30.9881 102.287 56.4801 95.8081 76.2364C89.3288 95.9927 71.1868 101.091 56.9323 99.8164C42.6778 98.5418 34.2547 95.9926 34.2547 82.6093C34.2547 69.226 23.2399 67.3141 13.5209 60.9411C3.80197 54.5681 -5.26906 37.9983 5.09785 20.1539Z" fill="#FF6E4E" fill-opacity="0.21"/>
<path d="M18.8992 89.2072H14.9509C10.4837 89.2072 6.86182 85.6447 6.86182 81.2505V25.5543C6.86182 21.1601 10.4837 17.5977 14.9509 17.5977H71.5762C76.0433 17.5977 79.6655 21.1601 79.6655 25.5543V81.2505C79.6655 85.6447 76.0433 89.2072 71.5762 89.2072H22.8245" fill="#6AC6D8"/>
<path d="M71.576 17.7285H14.9509C10.4837 17.7285 6.86182 21.291 6.86182 25.6852V32.7326H79.6654V25.6852C79.6654 21.2909 76.0432 17.7285 71.576 17.7285Z" fill="#E0E0E0"/>
<path d="M68.6095 36.7321H6.86182V32.7344H79.6654V36.7321H72.4563" fill="#738191"/>
<path d="M16.4248 27.867C17.7259 27.867 18.7807 26.8295 18.7807 25.5497C18.7807 24.2699 17.7259 23.2324 16.4248 23.2324C15.1236 23.2324 14.0688 24.2699 14.0688 25.5497C14.0688 26.8295 15.1236 27.867 16.4248 27.867Z" fill="#F57555"/>
<path d="M24.5542 27.867C25.8553 27.867 26.9101 26.8295 26.9101 25.5497C26.9101 24.2699 25.8553 23.2324 24.5542 23.2324C23.253 23.2324 22.1982 24.2699 22.1982 25.5497C22.1982 26.8295 23.253 27.867 24.5542 27.867Z" fill="#F4B846"/>
<path d="M32.6813 27.8673C33.9825 27.8673 35.0374 26.8297 35.0374 25.5499C35.0374 24.27 33.9825 23.2324 32.6813 23.2324C31.3801 23.2324 30.3252 24.27 30.3252 25.5499C30.3252 26.8297 31.3801 27.8673 32.6813 27.8673Z" fill="#62B07E"/>
<path d="M69.7243 51.0896L64.6519 46.6778L70.8849 44.7715L69.7243 51.0896Z" fill="#F4B846"/>
<path d="M50.2736 68.8574C51.5299 68.8574 52.5483 67.8557 52.5483 66.6201C52.5483 65.3845 51.5299 64.3828 50.2736 64.3828C49.0174 64.3828 47.999 65.3845 47.999 66.6201C47.999 67.8557 49.0174 68.8574 50.2736 68.8574Z" fill="#F4B846"/>
<path d="M37.6887 62.5625C38.9449 62.5625 39.9633 61.5608 39.9633 60.3252C39.9633 59.0896 38.9449 58.0879 37.6887 58.0879C36.4324 58.0879 35.4141 59.0896 35.4141 60.3252C35.4141 61.5608 36.4324 62.5625 37.6887 62.5625Z" fill="#F4B846"/>
<path d="M21.1485 77.195C22.4046 77.195 23.423 76.1934 23.423 74.9579C23.423 73.7223 22.4046 72.7207 21.1485 72.7207C19.8923 72.7207 18.874 73.7223 18.874 74.9579C18.874 76.1934 19.8923 77.195 21.1485 77.195Z" fill="#F4B846"/>
<path d="M71.5758 16.5703H14.9507C9.84088 16.5703 5.68359 20.6594 5.68359 25.6857V32.7331V36.731V81.3819C5.68359 86.408 9.84088 90.4971 14.9507 90.4971H18.899C19.5497 90.4971 20.077 89.9785 20.077 89.3384C20.077 88.6983 19.5497 88.1797 18.899 88.1797H14.9507C11.1399 88.1797 8.03968 85.1302 8.03968 81.3817V37.8895H68.6094C69.2601 37.8895 69.7874 37.3709 69.7874 36.7308C69.7874 36.0909 69.2601 35.5721 68.6094 35.5721H8.03968V33.8917H78.4873V35.5721H72.4563C71.8056 35.5721 71.2783 36.0907 71.2783 36.7308C71.2783 37.3709 71.8056 37.8895 72.4563 37.8895H78.4873V81.3817C78.4873 85.1302 75.387 88.1797 71.576 88.1797H22.8243C22.1736 88.1797 21.6463 88.6983 21.6463 89.3384C21.6463 89.9785 22.1736 90.4971 22.8243 90.4971H71.5758C76.686 90.4971 80.8433 86.408 80.8433 81.3817V36.7308V32.7331V25.6857C80.8433 20.6594 76.686 16.5703 71.5758 16.5703ZM8.03968 31.5744V25.6857C8.03968 21.9372 11.1399 18.8877 14.9507 18.8877H71.576C75.387 18.8877 78.4873 21.9372 78.4873 25.6857V31.5744H8.03968Z" fill="#231F20"/>
<path d="M16.4246 22.0723C14.476 22.0723 12.8906 23.6317 12.8906 25.5483C12.8906 27.4649 14.476 29.0243 16.4246 29.0243C18.373 29.0243 19.9583 27.4649 19.9583 25.5483C19.9583 23.6317 18.373 22.0723 16.4246 22.0723ZM16.4246 26.707C15.775 26.707 15.2466 26.1873 15.2466 25.5483C15.2466 24.9092 15.7749 24.3896 16.4246 24.3896C17.074 24.3896 17.6024 24.9092 17.6024 25.5483C17.6024 26.1872 17.074 26.707 16.4246 26.707Z" fill="#231F20"/>
<path d="M24.553 22.0723C22.6044 22.0723 21.019 23.6317 21.019 25.5483C21.019 27.4649 22.6044 29.0243 24.553 29.0243C26.5015 29.0243 28.0867 27.4649 28.0867 25.5483C28.0867 23.6317 26.5016 22.0723 24.553 22.0723ZM24.553 26.707C23.9035 26.707 23.375 26.1873 23.375 25.5483C23.375 24.9092 23.9033 24.3896 24.553 24.3896C25.2025 24.3896 25.7308 24.9092 25.7308 25.5483C25.7308 26.1872 25.2026 26.707 24.553 26.707Z" fill="#231F20"/>
<path d="M32.681 22.0723C30.7324 22.0723 29.147 23.6317 29.147 25.5483C29.147 27.4649 30.7324 29.0243 32.681 29.0243C34.6295 29.0243 36.2149 27.4649 36.2149 25.5483C36.2149 23.6317 34.6295 22.0723 32.681 22.0723ZM32.681 26.707C32.0314 26.707 31.5029 26.1873 31.5029 25.5483C31.5029 24.9092 32.0312 24.3896 32.681 24.3896C33.3307 24.3896 33.859 24.9092 33.859 25.5483C33.859 26.1872 33.3307 26.707 32.681 26.707Z" fill="#231F20"/>
<path d="M71.8672 24.3906H51.1351C50.4843 24.3906 49.957 24.9093 49.957 25.5493C49.957 26.1894 50.4843 26.7081 51.1351 26.7081H71.8672C72.5178 26.7081 73.0452 26.1894 73.0452 25.5493C73.0452 24.9094 72.5179 24.3906 71.8672 24.3906Z" fill="#231F20"/>
<path d="M21.1506 71.554C19.2469 71.554 17.6982 73.0773 17.6982 74.9499C17.6982 76.8225 19.2469 78.3459 21.1506 78.3459C23.0544 78.3459 24.6033 76.8226 24.6033 74.9499C24.6033 74.5202 24.5208 74.1093 24.3722 73.7307L35.9708 63.2628C36.4778 63.5509 37.0654 63.7168 37.6918 63.7168C38.6616 63.7168 39.5387 63.321 40.1664 62.6857L46.8373 66.3269C46.829 66.4219 46.8239 66.5178 46.8239 66.6148C46.8239 68.4874 48.3728 70.0107 50.2766 70.0107C52.1804 70.0107 53.7292 68.4874 53.7292 66.6148C53.7292 66.1347 53.6268 65.6779 53.4434 65.2633L67.403 50.6095L68.9466 51.9519C69.1652 52.1422 69.444 52.2427 69.7271 52.2427C69.8566 52.2427 69.9871 52.2216 70.1132 52.1787C70.5151 52.0414 70.8106 51.7018 70.8862 51.2899L72.0468 44.9717C72.1201 44.5734 71.9764 44.166 71.6678 43.8979C71.3597 43.6299 70.9312 43.5397 70.5379 43.6594L64.3048 45.5656C63.8984 45.6899 63.5919 46.0198 63.5027 46.429C63.4134 46.8381 63.5554 47.2629 63.8741 47.54L65.6375 49.0738L51.8201 63.5783C51.3552 63.3487 50.8312 63.2188 50.2766 63.2188C49.3222 63.2188 48.457 63.6017 47.8315 64.2194L41.1346 60.5639C41.1405 60.4835 41.1445 60.4025 41.1445 60.3206C41.1445 58.4481 39.5956 56.9246 37.6918 56.9246C35.788 56.9246 34.2392 58.4479 34.2392 60.3206C34.2392 60.7314 34.3137 61.1255 34.4503 61.4902L22.8254 71.9817C22.3291 71.7097 21.7582 71.554 21.1506 71.554ZM69.383 46.4393L68.9399 48.8526L67.0024 47.1674L69.383 46.4393ZM50.2767 65.5361C50.8815 65.5361 51.3734 66.0199 51.3734 66.6148C51.3734 67.2095 50.8815 67.6932 50.2767 67.6932C49.6719 67.6932 49.18 67.2094 49.18 66.6148C49.18 66.0199 49.6719 65.5361 50.2767 65.5361ZM21.1506 76.0285C20.5461 76.0285 20.0543 75.5446 20.0543 74.9498C20.0543 74.355 20.5462 73.8713 21.1506 73.8713C21.7554 73.8713 22.2473 74.3552 22.2473 74.9498C22.2473 75.5445 21.7554 76.0285 21.1506 76.0285ZM37.6918 59.2421C38.2966 59.2421 38.7885 59.7259 38.7885 60.3208C38.7885 60.9158 38.2966 61.3995 37.6918 61.3995C37.0872 61.3995 36.5951 60.9157 36.5951 60.3208C36.5952 59.7259 37.0872 59.2421 37.6918 59.2421Z" fill="#231F20"/>
<path d="M22.3904 84.5205V82.5364H27.7062V84.5205C27.7062 85.1606 28.2335 85.6793 28.8842 85.6793C29.535 85.6793 30.0623 85.1606 30.0623 84.5205V82.5364H35.3784V84.5205C35.3784 85.1606 35.9057 85.6793 36.5564 85.6793C37.2072 85.6793 37.7345 85.1606 37.7345 84.5205V82.5364H43.0503V84.5205C43.0503 85.1606 43.5776 85.6793 44.2283 85.6793C44.8791 85.6793 45.4063 85.1606 45.4063 84.5205V82.5364H50.7224V84.5205C50.7224 85.1606 51.2497 85.6793 51.9005 85.6793C52.5512 85.6793 53.0785 85.1606 53.0785 84.5205V82.5364H58.3943V84.5205C58.3943 85.1606 58.9216 85.6793 59.5724 85.6793C60.2231 85.6793 60.7504 85.1606 60.7504 84.5205V82.5364H66.0665V84.5205C66.0665 85.1606 66.5938 85.6793 67.2446 85.6793C67.8953 85.6793 68.4226 85.1606 68.4226 84.5205V82.5364H70.4854C71.1362 82.5364 71.6635 82.0176 71.6635 81.3776C71.6635 80.7376 71.1362 80.2189 70.4854 80.2189H16.1591V42.2818C16.1591 41.6417 15.6319 41.123 14.9811 41.123C14.3305 41.123 13.8031 41.6417 13.8031 42.2818V44.0703H12.0999C11.4492 44.0703 10.9219 44.5889 10.9219 45.229C10.9219 45.8691 11.4492 46.3877 12.0999 46.3877H13.8032V51.6165H12.0999C11.4492 51.6165 10.9219 52.1351 10.9219 52.7752C10.9219 53.4153 11.4492 53.9339 12.0999 53.9339H13.8032V59.1625H12.0999C11.4492 59.1625 10.9219 59.6811 10.9219 60.3212C10.9219 60.9613 11.4492 61.4799 12.0999 61.4799H13.8032V66.7085H12.0999C11.4492 66.7085 10.9219 67.2271 10.9219 67.8672C10.9219 68.5073 11.4492 69.0259 12.0999 69.0259H13.8032V74.2548H12.0999C11.4492 74.2548 10.9219 74.7735 10.9219 75.4135C10.9219 76.0536 11.4492 76.5723 12.0999 76.5723H13.8032V81.3781C13.8032 82.018 14.3306 82.5368 14.9812 82.5368H20.0344V84.521C20.0344 85.161 20.5617 85.6797 21.2125 85.6797C21.8631 85.6795 22.3904 85.1605 22.3904 84.5205Z" fill="#231F20"/>
<g opacity="0.1">
<path d="M10.5267 81.2544V25.5582C10.5267 21.1641 14.1488 17.6016 18.616 17.6016H14.9509C10.4837 17.6016 6.86182 21.1641 6.86182 25.5582V81.2544C6.86182 85.6486 10.4837 89.2111 14.9509 89.2111H18.616C14.1487 89.2111 10.5267 85.6486 10.5267 81.2544Z" fill="#231F20"/>
</g>
</svg>
