<svg width="101" height="100" viewBox="0 0 101 100" fill="none" xmlns="http://www.w3.org/2000/svg">
<path d="M5.09785 20.1539C13.3914 5.87832 31.0668 1.41472 41.382 0.39773C67.2369 -2.15135 80.0735 8.22093 84.731 12.5064C104.817 30.9881 102.287 56.4801 95.8081 76.2364C89.3288 95.9927 71.1868 101.091 56.9323 99.8164C42.6778 98.5418 34.2547 95.9926 34.2547 82.6093C34.2547 69.226 23.2399 67.3141 13.5209 60.9411C3.80197 54.5681 -5.26906 37.9983 5.09785 20.1539Z" fill="#FF6E4E" fill-opacity="0.21"/>
<path d="M14.9327 15.6992C14.5771 19.852 10.1772 20.5077 10.1772 20.5077C13.955 20.6826 14.8962 25.5565 14.8962 25.5565C14.9769 22.0814 19.7597 20.4564 19.7597 20.4564C16.177 20.2452 14.9327 15.6992 14.9327 15.6992Z" fill="#D5DC57"/>
<path d="M19.783 19.951C16.6413 19.766 15.4627 15.633 15.4514 15.591C15.3821 15.3389 15.1411 15.1737 14.8735 15.1952C14.6088 15.2189 14.3996 15.4258 14.3773 15.6861C14.0633 19.3545 10.2465 19.9826 10.0859 20.0073C9.80731 20.0486 9.60651 20.291 9.62111 20.5679C9.63571 20.8444 9.86098 21.0649 10.1425 21.0782C13.4386 21.2308 14.3404 25.6454 14.3492 25.6899C14.3992 25.9453 14.6263 26.127 14.8866 26.127C14.9019 26.127 14.9176 26.1266 14.933 26.1252C15.2119 26.1022 15.4284 25.8763 15.4346 25.6012C15.5058 22.5459 19.886 21.0129 19.9301 20.9978C20.1766 20.9134 20.3288 20.6695 20.293 20.4149C20.2565 20.1607 20.0437 19.9664 19.783 19.951ZM14.8297 23.6663C14.3346 22.542 13.4755 21.1856 12.0596 20.4785C13.1297 19.9739 14.3996 19.0733 15.0542 17.5079C15.6205 18.6108 16.5876 19.9786 18.097 20.6401C16.9991 21.229 15.5697 22.2223 14.8297 23.6663Z" fill="#3A312A"/>
<path d="M6.99784 21.8164C6.74629 24.7536 3.63452 25.2172 3.63452 25.2172C6.30634 25.3407 6.97229 28.7882 6.97229 28.7882C7.02924 26.3304 10.4123 25.1809 10.4123 25.1809C7.8781 25.0319 6.99784 21.8164 6.99784 21.8164Z" fill="#D5DC57"/>
<path d="M10.4507 24.6492C8.34552 24.5253 7.53974 21.7095 7.53207 21.6811C7.46233 21.429 7.22173 21.262 6.95448 21.2854C6.68941 21.3087 6.48021 21.5163 6.45794 21.7766C6.24654 24.2441 3.66637 24.6736 3.5583 24.6905C3.27972 24.7318 3.07892 24.9742 3.09352 25.251C3.10813 25.5276 3.33339 25.7481 3.61489 25.7613C5.81828 25.8633 6.43457 28.8655 6.44041 28.895C6.4897 29.151 6.71753 29.3331 6.97784 29.3331C6.99318 29.3331 7.00815 29.3327 7.02348 29.3313C7.30278 29.3087 7.51929 29.0821 7.52586 28.8066C7.57333 26.7564 10.5675 25.706 10.5975 25.696C10.8443 25.612 10.9969 25.3681 10.9611 25.1135C10.925 24.8589 10.7114 24.6643 10.4507 24.6492ZM6.95119 27.089C6.61384 26.4121 6.09685 25.6716 5.32758 25.1929C6.00485 24.819 6.67736 24.2484 7.10599 23.4275C7.49191 24.1005 8.07498 24.8474 8.90996 25.3031C8.23453 25.6989 7.45357 26.2874 6.95119 27.089Z" fill="#3A312A"/>
<path d="M6.98067 12.2441C6.7408 15.1824 3.63086 15.6582 3.63086 15.6582C6.30304 15.7717 6.98286 19.2163 6.98286 19.2163C7.02996 16.7582 10.4086 15.5957 10.4086 15.5957C7.87371 15.4564 6.98067 12.2441 6.98067 12.2441Z" fill="#D5DC57"/>
<path d="M10.4476 15.0633C8.35159 14.948 7.53303 12.1606 7.5177 12.1074C7.44724 11.8553 7.20116 11.688 6.93865 11.7135C6.67358 11.7379 6.46511 11.9458 6.44357 12.2069C6.24203 14.6751 3.66332 15.1143 3.55524 15.1315C3.27704 15.1743 3.07696 15.4174 3.09266 15.6939C3.10836 15.9704 3.33472 16.1902 3.61585 16.202C5.81961 16.2958 6.44758 19.2954 6.45343 19.3249C6.50381 19.5798 6.7309 19.7608 6.99049 19.7608C7.00619 19.7608 7.02226 19.7601 7.03832 19.759C7.31762 19.7353 7.5334 19.508 7.53851 19.2326C7.57794 17.1821 10.5681 16.1202 10.5973 16.1101C10.8441 16.0254 10.9953 15.7808 10.9588 15.5262C10.923 15.2712 10.7087 15.0777 10.4476 15.0633ZM6.958 17.5167C6.61809 16.8409 6.09818 16.1026 5.32672 15.6267C6.00289 15.2504 6.67285 14.6772 7.0982 13.8545C7.48667 14.5261 8.07266 15.2709 8.90947 15.7233C8.23586 16.1212 7.45746 16.7134 6.958 17.5167Z" fill="#3A312A"/>
<path d="M36.9246 75.8213C33.8176 75.8213 30.8238 74.2268 29.1698 71.4401C28.5382 70.3736 27.6912 69.4578 26.6945 68.7468C25.7014 68.0393 24.5623 67.5258 23.3392 67.2637L15.9604 86.3469L27.5488 80.7483L32.4302 92.5056L38.9728 75.5807C38.2938 75.7423 37.6074 75.8213 36.9246 75.8213Z" fill="#87796F"/>
<path d="M39.3922 75.2281C39.2575 75.0783 39.0508 75.0137 38.8526 75.0607C38.2239 75.2105 37.578 75.2859 36.9329 75.2859C33.9474 75.2859 31.1573 73.7094 29.6513 71.1723C28.9817 70.0414 28.0978 69.0797 27.024 68.3137C25.9444 67.5449 24.7469 67.0156 23.4643 66.7405C23.2003 66.6852 22.9319 66.8259 22.8359 67.0755L15.4572 86.1587C15.3772 86.3656 15.4338 86.5994 15.6003 86.7484C15.7664 86.8974 16.0089 86.9315 16.2104 86.8335L27.2723 81.4896L31.9317 92.7125C32.0157 92.9154 32.2165 93.0476 32.4388 93.0476H32.4454C32.6703 93.0447 32.8707 92.9072 32.9507 92.7003L39.4933 75.7754C39.5656 75.589 39.5266 75.3782 39.3922 75.2281ZM32.4202 91.0405L28.0642 80.548C28.0069 80.4097 27.8937 80.3009 27.752 80.2481C27.6892 80.2248 27.6231 80.2129 27.5574 80.2129C27.4745 80.2129 27.392 80.2312 27.3161 80.2682L16.9749 85.2642L23.6873 67.9047C24.6505 68.1672 25.5548 68.5974 26.3814 69.1864C27.3311 69.8637 28.1127 70.7144 28.7057 71.7153C30.4074 74.5824 33.5601 76.3632 36.9332 76.3632C37.3308 76.3632 37.7288 76.3377 38.1238 76.2875L32.4202 91.0405Z" fill="#3A312A"/>
<path d="M68.6953 76.918L66.8633 72.1796L64.9625 67.2637C62.5127 67.7952 60.3951 69.307 59.1319 71.4401C57.4779 74.2268 54.4841 75.8213 51.3771 75.8213C50.6943 75.8213 50.0079 75.7423 49.3289 75.5807L55.8715 92.5056L60.7529 80.7483L72.3412 86.3469L68.6953 76.918Z" fill="#87796F"/>
<path d="M72.8533 86.1595L69.2077 76.731C69.0997 76.453 68.7842 76.3133 68.5009 76.4189C68.2183 76.5245 68.0763 76.8358 68.1836 77.1138L71.3355 85.2649L60.9944 80.2689C60.8578 80.2025 60.6994 80.1957 60.5585 80.2488C60.4164 80.3016 60.3036 80.4104 60.2459 80.5487L55.8899 91.0409L50.1866 76.2878C50.5813 76.3381 50.9796 76.3636 51.3772 76.3636C54.7504 76.3636 57.9034 74.5828 59.6052 71.7149C60.7071 69.8547 62.518 68.4858 64.6235 67.9058L66.3512 72.3746C66.4592 72.6529 66.7751 72.793 67.058 72.6867C67.3406 72.5811 67.4826 72.2697 67.3753 71.9918L65.4746 67.0759C65.3774 66.826 65.1087 66.6837 64.8444 66.7412C62.2474 67.3047 59.9925 68.9199 58.6592 71.1719C57.1528 73.7094 54.3623 75.2859 51.3772 75.2859C50.7321 75.2859 50.0866 75.2101 49.4575 75.0608C49.2596 75.0137 49.0523 75.0784 48.9179 75.2281C48.7836 75.3778 48.7445 75.5886 48.8168 75.7757L55.3598 92.7007C55.4401 92.9075 55.6402 93.0451 55.8651 93.0479H55.872C56.094 93.0479 56.2948 92.9158 56.3791 92.7129L61.0386 81.4899L72.1004 86.8339C72.302 86.9316 72.544 86.8978 72.7105 86.7488C72.8763 86.6001 72.9329 86.3663 72.8533 86.1595Z" fill="#3A312A"/>
<path d="M74.2606 39.2458L74.2445 39.2278C72.576 37.3849 71.7684 34.9389 72.017 32.4837L72.0189 32.4639C72.4705 28.0034 69.4511 23.9182 64.998 22.9647L64.9845 22.9618C62.5277 22.4357 60.4079 20.9203 59.1414 18.7843L59.1406 18.7832C56.8416 14.9062 51.9507 13.3434 47.7743 15.1515C45.4708 16.1488 42.8479 16.1488 40.5445 15.1515C36.3681 13.3434 31.4768 14.9062 29.1781 18.7832L29.1778 18.7839C27.9112 20.9203 25.7915 22.4357 23.3347 22.9618L23.3212 22.9647C18.868 23.9182 15.8486 28.0034 16.3003 32.4639L16.3021 32.4837C16.5507 34.9393 15.7427 37.3849 14.0746 39.2278L14.0585 39.2458C11.0296 42.5916 11.0296 47.6389 14.0585 50.9848L14.0746 51.0027C15.7431 52.8457 16.5507 55.2916 16.3021 57.7472L16.3003 57.7666C15.8486 62.2271 18.868 66.3124 23.3212 67.2658L23.3347 67.2687C25.7915 67.7948 27.9109 69.3103 29.1778 71.4463L29.1785 71.4473C31.4776 75.3243 36.3685 76.8872 40.5449 75.079C42.8483 74.0821 45.4712 74.0818 47.7746 75.079C51.951 76.8872 56.8419 75.3243 59.141 71.4473L59.1414 71.4466C60.4079 69.3103 62.5277 67.7948 64.9845 67.2691L64.998 67.2662C69.4511 66.3128 72.4705 62.2279 72.0189 57.7673L72.017 57.7476C71.7684 55.292 72.5764 52.8464 74.2445 51.0031L74.2606 50.9855C77.2895 47.6393 77.2895 42.592 74.2606 39.2458Z" fill="#87796F"/>
<path d="M74.6476 38.8548C73.0857 37.1296 72.3233 34.8216 72.5574 32.5024C73.0367 27.7682 69.8344 23.4356 65.0947 22.4207C62.7989 21.9294 60.8025 20.5045 59.6152 18.5103C59.6127 18.5057 59.6101 18.5014 59.6076 18.4971C57.1668 14.3809 51.9831 12.7247 47.5475 14.6438C45.3912 15.5778 42.9165 15.5778 40.7588 14.6438C36.3264 12.7251 31.1464 14.378 28.7038 18.4888C28.702 18.492 28.7002 18.4953 28.698 18.4981C27.5118 20.4987 25.5121 21.9284 23.1981 22.4239C18.4719 23.4359 15.2692 27.7686 15.7504 32.5229C15.9833 34.8216 15.221 37.1299 13.6427 38.8731C10.4283 42.4236 10.4283 47.7783 13.6587 51.3468C15.2206 53.072 15.983 55.3804 15.7486 57.6988C15.2692 62.433 18.4715 66.766 23.2116 67.7805C25.5121 68.2732 27.5118 69.7028 28.6987 71.7042C30.4549 74.6654 33.6294 76.3536 36.9245 76.3532C38.21 76.3532 39.5142 76.0961 40.7588 75.5574C42.9154 74.6237 45.3908 74.6234 47.5471 75.5574C51.9809 77.4769 57.1661 75.8203 59.6072 71.7042C59.609 71.7009 59.6112 71.6973 59.613 71.6941C60.8 69.6985 62.7974 68.2725 65.1082 67.7776C69.8341 66.766 73.0367 62.433 72.5555 57.679C72.323 55.3797 73.0853 53.0716 74.649 51.3447L74.6644 51.3274C77.878 47.7769 77.8776 42.4225 74.6476 38.8548ZM73.8458 50.6117L74.2547 50.9701L73.8297 50.6297C72.0645 52.5793 71.2032 55.1872 71.4683 57.8051C71.8921 61.9949 69.0579 65.8291 64.8617 66.7272C62.2622 67.2839 60.0022 68.8995 58.6616 71.1597C58.6597 71.163 58.6576 71.1666 58.6557 71.1698C56.4936 74.8058 51.9097 76.2685 47.9885 74.5709C45.5508 73.5159 42.7552 73.5159 40.3177 74.5709C36.3933 76.2703 31.8054 74.804 29.6443 71.1597C28.3041 68.8995 26.0444 67.2838 23.431 66.7243C19.2484 65.8291 16.4145 61.9945 16.8406 57.7853C17.1035 55.1875 16.2418 52.5793 14.4608 50.6117C11.6163 47.4695 11.6163 42.731 14.4769 39.5712C16.2422 37.6212 17.1035 35.013 16.8384 32.3958C16.4141 28.206 19.2484 24.3718 23.4445 23.4733C26.0412 22.9174 28.2982 21.3053 29.6392 19.049C29.6411 19.0461 29.6429 19.0429 29.6447 19.04C31.805 15.3972 36.3929 13.9306 40.3177 15.6299C42.7552 16.685 45.5518 16.6846 47.9885 15.6299C51.9075 13.9324 56.4907 15.3936 58.6539 19.0275C58.6565 19.0321 58.659 19.0364 58.6612 19.0408C60.0019 21.301 62.2615 22.9166 64.8749 23.4761C69.0575 24.3714 71.8918 28.206 71.4657 32.4152C71.2025 35.0133 72.0641 37.6216 73.8454 39.5888C76.6903 42.731 76.6903 47.4698 73.8458 50.6117Z" fill="#3A312A"/>
<path d="M61.244 61.914C70.6852 52.6276 70.6852 37.5716 61.244 28.2853C51.8027 18.9989 36.4955 18.9989 27.0543 28.2853C17.6131 37.5716 17.6131 52.6276 27.0543 61.914C36.4955 71.2003 51.8027 71.2003 61.244 61.914Z" fill="#D4DB56"/>
<path d="M44.1528 20.7949C30.5203 20.7949 19.4292 31.704 19.4292 45.1129C19.4292 58.5218 30.5203 69.4309 44.1528 69.4309C57.7857 69.4309 68.8768 58.5218 68.8768 45.1129C68.8768 31.704 57.7857 20.7949 44.1528 20.7949ZM44.1528 68.3535C31.1241 68.3535 20.5245 57.9278 20.5245 45.1129C20.5245 32.298 31.1241 21.8723 44.1528 21.8723C57.1819 21.8723 67.7815 32.298 67.7815 45.1129C67.7815 57.9278 57.1819 68.3535 44.1528 68.3535Z" fill="#3A312A"/>
<path d="M55.8353 45.8372H48.3723C47.6498 45.8372 47.0649 45.2616 47.0649 44.5512V40.3615C47.0649 38.9268 45.8823 37.7637 44.4255 37.7637C43.6961 37.7637 43.0363 38.0542 42.5588 38.5236C42.0812 38.9951 41.7859 39.644 41.7859 40.3611V43.6028C41.7859 44.9384 40.9213 46.127 39.6343 46.5576L37.0713 47.4166C37.0815 47.4934 37.087 47.5721 37.087 47.6522V59.3994C37.087 59.4354 37.0852 59.4695 37.0852 59.5036L37.639 59.6418C40.3236 60.313 43.0812 60.6581 45.8509 60.675C45.8735 60.675 45.8943 60.6768 45.917 60.6768H46.024H48.3332H52.3574C53.3924 60.6768 54.2311 59.8519 54.2311 58.8338V58.8098C54.2311 57.7921 53.3924 56.9668 52.3574 56.9668H53.6389C54.674 56.9668 55.5126 56.1419 55.5126 55.1239V55.0998C55.5126 54.1036 54.7094 53.2924 53.7053 53.2579C53.6849 53.2572 52.6177 53.2568 52.4662 53.2568H54.9208C55.9555 53.2568 56.7945 52.432 56.7945 51.4139V51.3898C56.7945 50.3721 55.9558 49.5469 54.9208 49.5469H52.7882L52.79 49.5451H55.8357C56.8708 49.5451 57.7094 48.7202 57.7094 47.7021V47.678C57.709 46.6621 56.8704 45.8372 55.8353 45.8372Z" fill="#F4E0C4"/>
<path d="M58.2621 47.6798C58.2621 46.3665 57.176 45.2982 55.8408 45.2982H48.3777C47.9586 45.2982 47.6176 44.9628 47.6176 44.5509V40.3611C47.6176 38.6316 46.1878 37.2246 44.4306 37.2246C43.5785 37.2246 42.7781 37.5507 42.1757 38.1432C41.5748 38.7368 41.2433 39.5244 41.2433 40.3611V43.6028C41.2433 44.7089 40.5277 45.6914 39.4627 46.0476L36.8996 46.9066C36.6521 46.9896 36.4988 47.2334 36.5334 47.4884C36.5411 47.5415 36.5444 47.5965 36.5444 47.6521V59.3994L36.5426 59.5036C36.5426 59.7499 36.7127 59.965 36.9555 60.0257L37.5094 60.164C40.2264 60.8434 43.0337 61.1964 45.8669 61.2144C45.8742 61.2147 45.9147 61.2158 45.922 61.2158H52.3628C53.698 61.2158 54.7842 60.1474 54.7842 58.8101C54.7842 58.2876 54.6122 57.8042 54.3212 57.411C55.3278 57.1216 56.0653 56.2022 56.0653 55.1005C56.0653 54.5765 55.8959 54.0928 55.6071 53.6999C56.6115 53.4091 57.3468 52.4908 57.3468 51.3909C57.3468 50.8217 57.1427 50.2984 56.8028 49.8883C57.6608 49.5206 58.2621 48.6745 58.2621 47.6798ZM55.8408 49.0078H52.7947C52.6498 49.0078 52.5085 49.0663 52.4059 49.1672C52.2493 49.3213 52.2022 49.5529 52.2872 49.7544C52.3719 49.9558 52.5716 50.0869 52.7933 50.0869H54.9258C55.6571 50.0869 56.2519 50.6719 56.2519 51.4153C56.2519 52.1342 55.6571 52.7192 54.9258 52.7192H52.4537C52.1514 52.7192 51.9061 52.9602 51.9061 53.2579C51.9061 53.5556 52.1514 53.7965 52.4537 53.7965C52.4753 53.7965 53.6308 53.7969 53.6918 53.7973C54.4088 53.8217 54.9704 54.3945 54.9704 55.1245C54.9704 55.8435 54.3756 56.4285 53.6443 56.4285H52.3628C52.0605 56.4285 51.8152 56.6694 51.8152 56.9671C51.8152 57.2649 52.0605 57.5058 52.3628 57.5058C53.0941 57.5058 53.6889 58.0908 53.6889 58.8342C53.6889 59.5531 53.0941 60.1385 52.3628 60.1385L45.9115 60.1381C45.9052 60.1377 45.8658 60.1367 45.8596 60.1367C43.129 60.1198 40.4105 59.7779 37.7792 59.12L37.6401 59.0852V47.7969L39.8161 47.0675C41.325 46.5626 42.3389 45.1703 42.3389 43.6028V40.3611C42.3389 39.8113 42.5569 39.2938 42.9512 38.9042C43.3459 38.5156 43.8716 38.3019 44.431 38.3019C45.5843 38.3019 46.5226 39.2256 46.5226 40.3611V44.5509C46.5226 45.5571 47.3551 46.3755 48.3781 46.3755H55.8411C56.5724 46.3755 57.1672 46.9605 57.1672 47.7039C57.1668 48.4228 56.5721 49.0078 55.8408 49.0078Z" fill="#3A312A"/>
<path d="M35.1194 45.7188H32.5232C31.4582 45.7188 30.5947 46.568 30.5947 47.6156V59.4469C30.5947 60.4944 31.4582 61.3433 32.5232 61.3433H35.1194C36.2082 61.3433 37.0906 60.4754 37.0906 59.4045V47.6576C37.0906 46.5867 36.2082 45.7188 35.1194 45.7188Z" fill="#8BC0D7"/>
<path d="M35.1214 45.1836H32.5252C31.1601 45.1836 30.0491 46.276 30.0491 47.6191V50.5211C30.0491 50.8188 30.2941 51.0597 30.5967 51.0597C30.8994 51.0597 31.1444 50.8188 31.1444 50.5211V47.6191C31.1444 46.8703 31.7636 46.2609 32.5252 46.2609H35.1214C35.9064 46.2609 36.545 46.889 36.545 47.6611V59.408C36.545 60.1801 35.9064 60.8082 35.1214 60.8082H32.5252C31.764 60.8082 31.1444 60.1991 31.1444 59.4504V54.8333C31.1444 54.5356 30.8994 54.2946 30.5967 54.2946C30.2941 54.2946 30.0491 54.5356 30.0491 54.8333V59.4504C30.0491 60.7931 31.1597 61.8855 32.5252 61.8855H35.1214C36.5103 61.8855 37.6403 60.7741 37.6403 59.408V47.6611C37.6403 46.295 36.5103 45.1836 35.1214 45.1836Z" fill="#3A312A"/>
<path d="M33.8342 57.4219C33.1766 57.4219 32.6436 57.9462 32.6436 58.5929C32.6436 59.2397 33.1766 59.764 33.8342 59.764C34.4917 59.764 35.0248 59.2397 35.0248 58.5929C35.0248 57.9462 34.4917 57.4219 33.8342 57.4219Z" fill="#87796F"/>
<path d="M33.8325 56.8848C32.8741 56.8848 32.0942 57.6518 32.0942 58.5945C32.0942 59.5372 32.8741 60.3042 33.8325 60.3042C34.7912 60.3042 35.5707 59.5372 35.5707 58.5945C35.5711 57.6518 34.7912 56.8848 33.8325 56.8848ZM33.8325 59.2269C33.478 59.2269 33.1895 58.9432 33.1895 58.5945C33.1895 58.2458 33.478 57.9621 33.8325 57.9621C34.187 57.9621 34.4754 58.2458 34.4754 58.5945C34.4758 58.9432 34.1874 59.2269 33.8325 59.2269Z" fill="#3A312A"/>
<path d="M48.8603 29.6125C49.3155 29.1762 49.0643 28.4156 48.4353 28.3258L46.444 28.0414C46.1943 28.0058 45.9781 27.8514 45.8664 27.6288L44.9759 25.854C44.6944 25.2935 43.8817 25.2935 43.6002 25.854L42.7097 27.6288C42.598 27.8514 42.3819 28.0058 42.1322 28.0414L40.1409 28.3258C39.5118 28.4156 39.2606 29.1762 39.7159 29.6125L41.157 30.994C41.3377 31.1674 41.4202 31.417 41.3775 31.6616L41.0372 33.6123C40.9299 34.2285 41.5874 34.6986 42.15 34.4077L43.931 33.4866C44.1545 33.371 44.4213 33.371 44.6448 33.4866L46.4258 34.4077C46.9884 34.6986 47.6463 34.2285 47.5386 33.6123L47.1983 31.6616C47.1556 31.417 47.2381 31.1671 47.4188 30.994L48.8603 29.6125Z" fill="#F16C7A"/>
<path d="M49.2377 30.0154C49.5985 29.6693 49.7259 29.1611 49.5696 28.6896C49.4137 28.2181 49.007 27.8812 48.5086 27.8101L46.5174 27.5257C46.4462 27.5157 46.3845 27.4715 46.3523 27.4076L45.4615 25.6328C45.2388 25.1883 44.7868 24.9121 44.2826 24.9121C43.7784 24.9121 43.3267 25.1883 43.104 25.6328L42.2132 27.4079C42.1814 27.4715 42.1197 27.5157 42.0482 27.5257L40.0572 27.8101C39.5585 27.8812 39.1518 28.2185 38.9959 28.69C38.84 29.1615 38.9671 29.6696 39.3285 30.0158L40.7692 31.397C40.821 31.4469 40.8444 31.518 40.8324 31.5884L40.4921 33.5391C40.407 34.0278 40.6075 34.5122 41.0153 34.8035C41.4227 35.0954 41.9536 35.1328 42.4001 34.9019L44.1811 33.9808C44.2446 33.9477 44.3216 33.9477 44.3852 33.9808L46.1661 34.9019C46.3604 35.0021 46.5703 35.0516 46.7791 35.0516C47.0508 35.0516 47.3202 34.968 47.5506 34.8035C47.9584 34.5119 48.1592 34.0274 48.0742 33.5387L47.7339 31.588C47.7215 31.518 47.7452 31.4465 47.7967 31.397L49.2377 30.0154ZM47.0318 30.6259C46.7218 30.9233 46.5809 31.3513 46.6539 31.7704L46.9942 33.7211C47.0143 33.836 46.9482 33.9028 46.9069 33.9323C46.8657 33.9617 46.7802 34.003 46.6758 33.9488L44.8949 33.0277C44.7032 32.9286 44.4929 32.879 44.2829 32.879C44.073 32.879 43.8627 32.9286 43.671 33.0277L41.8904 33.9484C41.7842 34.0034 41.7002 33.9614 41.6589 33.9323C41.6177 33.9028 41.5516 33.836 41.5717 33.7211L41.912 31.7708C41.985 31.3513 41.8437 30.9233 41.5337 30.6259L40.093 29.2448C40.008 29.1633 40.0218 29.071 40.0375 29.0232C40.0532 28.9755 40.0974 28.8932 40.2146 28.8763L42.2059 28.5919C42.6345 28.5305 43.0047 28.2659 43.1957 27.8845L44.0862 26.1094C44.1391 26.0049 44.2318 25.9894 44.2829 25.9894C44.3341 25.9894 44.4272 26.0049 44.4797 26.1094L45.3698 27.8838C45.5612 28.2655 45.931 28.5302 46.3596 28.5916L48.3513 28.876C48.4685 28.8929 48.5123 28.9751 48.528 29.0229C48.5437 29.0706 48.5576 29.1629 48.4729 29.2441L47.0318 30.6259Z" fill="#3A312A"/>
<path d="M39.1552 36.5894C39.6105 36.1531 39.3593 35.3925 38.7302 35.3027L36.7389 35.0179C36.4892 34.9824 36.2731 34.828 36.1613 34.6053L35.2709 32.8306C34.9894 32.27 34.1766 32.27 33.8951 32.8306L33.0047 34.6053C32.8929 34.828 32.6768 34.9824 32.4271 35.0179L30.4358 35.3027C29.8067 35.3925 29.5555 36.1531 30.0108 36.5894L31.4519 37.9709C31.6326 38.1444 31.7151 38.3939 31.6724 38.6389L31.3321 40.5896C31.2248 41.2058 31.8823 41.6759 32.445 41.385L34.2259 40.4639C34.4494 40.3482 34.7163 40.3482 34.9397 40.4639L36.7207 41.385C37.2833 41.6759 37.9412 41.2058 37.8335 40.5896L37.4932 38.6389C37.4505 38.3939 37.533 38.1444 37.7138 37.9709L39.1552 36.5894Z" fill="#F16C7A"/>
<path d="M39.5379 36.965C39.8986 36.6188 40.026 36.1111 39.8705 35.6395C39.7146 35.168 39.3082 34.8308 38.8091 34.7594L36.8179 34.4749C36.7463 34.4649 36.6846 34.4207 36.6525 34.3568L35.762 32.5821C35.5389 32.1375 35.0869 31.8613 34.5831 31.8613C34.0792 31.8613 33.6272 32.1375 33.4041 32.5821L32.5137 34.3568C32.4819 34.4207 32.4198 34.4649 32.3483 34.4749L30.357 34.7594C29.8583 34.8308 29.4515 35.168 29.2957 35.6395C29.1401 36.1111 29.2675 36.6188 29.6286 36.965L31.0693 38.3462C31.1212 38.3957 31.1445 38.4672 31.1325 38.5372L30.7922 40.4879C30.7071 40.9763 30.9072 41.4611 31.315 41.7523C31.7228 42.0439 32.2533 42.0817 32.6999 41.8507L34.4805 40.93C34.5444 40.8973 34.621 40.8969 34.6849 40.93L36.4659 41.8507C36.6601 41.9509 36.8697 42.0005 37.0789 42.0005C37.3505 42.0005 37.62 41.9168 37.8507 41.752C38.2585 41.4604 38.459 40.9759 38.3736 40.4876L38.0333 38.5369C38.0209 38.4668 38.0446 38.3954 38.0961 38.3458L39.5379 36.965ZM37.3323 37.5752C37.0227 37.8721 36.8814 38.3002 36.9544 38.7196L37.2947 40.6703C37.3148 40.7853 37.2487 40.8521 37.2074 40.8815C37.1665 40.9113 37.0811 40.9522 36.9763 40.898L35.1953 39.9773C35.004 39.8781 34.7937 39.8286 34.5838 39.8286C34.3735 39.8286 34.1636 39.8781 33.9719 39.9773L32.1913 40.898C32.0865 40.9522 32.0014 40.9113 31.9602 40.8815C31.9189 40.8521 31.8528 40.7853 31.8729 40.6703L32.2132 38.7196C32.2862 38.3002 32.1449 37.8725 31.8349 37.5752L30.3942 36.1937C30.3092 36.1121 30.3227 36.0202 30.3387 35.9724C30.3544 35.9247 30.3983 35.8424 30.5158 35.8256L32.5071 35.5411C32.9354 35.4797 33.3056 35.2154 33.4972 34.8337L34.3877 33.059C34.4403 32.9541 34.5334 32.9387 34.5845 32.9387C34.6356 32.9387 34.7287 32.9541 34.7813 33.0586L35.6718 34.8337C35.8635 35.2154 36.2337 35.4797 36.662 35.5411L38.6532 35.8256C38.7708 35.8424 38.8146 35.9247 38.8303 35.9724C38.8464 36.0202 38.8599 36.1121 38.7748 36.1937L37.3323 37.5752Z" fill="#3A312A"/>
<path d="M58.6754 36.5894C59.1307 36.1531 58.8795 35.3925 58.2505 35.3027L56.2592 35.0179C56.0095 34.9824 55.7933 34.828 55.6816 34.6053L54.7911 32.8306C54.5096 32.27 53.6969 32.27 53.4154 32.8306L52.5249 34.6053C52.4132 34.828 52.1971 34.9824 51.9473 35.0179L49.9561 35.3027C49.327 35.3925 49.0758 36.1531 49.5311 36.5894L50.9722 37.9709C51.1529 38.1444 51.2354 38.3939 51.1927 38.6389L50.8524 40.5896C50.7451 41.2058 51.4026 41.6759 51.9652 41.385L53.7462 40.4639C53.9696 40.3482 54.2365 40.3482 54.46 40.4639L56.2409 41.385C56.8036 41.6759 57.4615 41.2058 57.3538 40.5896L57.0135 38.6389C56.9708 38.3939 57.0533 38.1444 57.234 37.9709L58.6754 36.5894Z" fill="#F16C7A"/>
<path d="M59.0537 36.965C59.4148 36.6188 59.5422 36.1111 59.3863 35.6395C59.2304 35.168 58.8237 34.8308 58.325 34.7594L56.3341 34.4749C56.2625 34.4649 56.2008 34.4207 56.1687 34.3568L55.2782 32.5821C55.0555 32.1375 54.6035 31.8613 54.0993 31.8613C53.5951 31.8613 53.1434 32.1375 52.9204 32.5821L52.0295 34.3572C51.9978 34.4207 51.9361 34.4649 51.8645 34.4749L49.8736 34.7594C49.3749 34.8308 48.9678 35.168 48.8122 35.6395C48.6563 36.1111 48.7838 36.6192 49.1448 36.965L50.5859 38.3462C50.6374 38.3957 50.6611 38.4672 50.6487 38.5372L50.3084 40.4879C50.2234 40.9767 50.4238 41.4611 50.8316 41.7523C51.2391 42.0443 51.7696 42.0817 52.2165 41.8507L53.9974 40.93C54.061 40.8969 54.138 40.8969 54.2015 40.93L55.9828 41.8511C56.1767 41.9513 56.3866 42.0009 56.5958 42.0009C56.8671 42.0009 57.1369 41.9172 57.3673 41.7523C57.7748 41.4611 57.9756 40.9763 57.8905 40.4879L57.5502 38.5369C57.5382 38.4672 57.5615 38.3957 57.6134 38.3462L59.0537 36.965ZM56.8485 37.5752C56.5382 37.8725 56.3972 38.3006 56.4703 38.7196L56.8105 40.6703C56.8306 40.7853 56.7645 40.8521 56.7233 40.8815C56.6827 40.9109 56.5973 40.9526 56.4922 40.898L54.7112 39.9773C54.5195 39.8781 54.3092 39.8286 54.0993 39.8286C53.8893 39.8286 53.6791 39.8781 53.4874 39.9773L51.7068 40.898C51.6009 40.9533 51.5166 40.9113 51.4753 40.8819C51.434 40.8524 51.368 40.7856 51.388 40.6707L51.7283 38.7204C51.8017 38.3009 51.6604 37.8729 51.3504 37.5755L49.9094 36.194C49.8247 36.1125 49.8382 36.0206 49.8539 35.9728C49.8699 35.925 49.9138 35.8428 50.0313 35.8259L52.0222 35.5415C52.4508 35.4801 52.8211 35.2154 53.012 34.8341L53.9025 33.059C53.9554 32.9545 54.0482 32.939 54.0993 32.939C54.1504 32.939 54.2431 32.9545 54.2961 33.059L55.1862 34.8333C55.3775 35.2151 55.7477 35.4797 56.1764 35.5411L58.1673 35.8256C58.2848 35.8424 58.3286 35.9247 58.3447 35.9724C58.3604 36.0202 58.3739 36.1121 58.2892 36.1937L56.8485 37.5752Z" fill="#3A312A"/>
<path d="M44.151 21.873C42.8475 21.873 41.566 21.9772 40.3174 22.1819C47.8786 23.3957 54.2424 28.1575 57.5867 34.6646L58.3242 34.7723C58.8244 34.8406 59.2297 35.1781 59.3867 35.6522C59.54 36.1226 59.4122 36.629 59.0544 36.9773L58.7331 37.2825C59.6276 39.7281 60.1132 42.364 60.1132 45.1112C60.1132 56.6423 51.5297 66.2413 40.3174 68.0441C41.566 68.2488 42.8475 68.3529 44.151 68.3529C57.1778 68.3529 67.7804 57.9279 67.7804 45.1112C67.7804 32.2981 57.1778 21.873 44.151 21.873Z" fill="#B9C239"/>
</svg>
