<svg width="101" height="100" viewBox="0 0 101 100" fill="none" xmlns="http://www.w3.org/2000/svg">
<path d="M5.09785 20.1539C13.3914 5.87832 31.0668 1.41472 41.382 0.39773C67.2369 -2.15135 80.0735 8.22093 84.731 12.5064C104.817 30.9881 102.287 56.4801 95.8081 76.2364C89.3288 95.9927 71.1868 101.091 56.9323 99.8164C42.6778 98.5418 34.2547 95.9926 34.2547 82.6093C34.2547 69.226 23.2399 67.3141 13.5209 60.9411C3.80197 54.5681 -5.26906 37.9983 5.09785 20.1539Z" fill="#FF6E4E" fill-opacity="0.21"/>
<path d="M82.139 39.5124V67.5536C82.139 70.596 80.9102 73.5138 78.723 75.6651C76.5358 77.8164 73.5694 79.025 70.4762 79.025H33.8681C30.9378 81.1136 28.4138 83.7042 26.4169 86.6726L27.7128 79.025H18.6418C15.5486 79.025 12.5821 77.8164 10.3949 75.6651C8.20775 73.5138 6.979 70.596 6.979 67.5536V39.5124C6.979 36.47 8.20775 33.5522 10.3949 31.4009C12.5821 29.2496 15.5486 28.041 18.6418 28.041H70.4762C73.5694 28.041 76.5358 29.2496 78.723 31.4009C80.9102 33.5522 82.139 36.47 82.139 39.5124Z" fill="#FFE45C"/>
<path d="M29.8393 28.041H18.6418C15.5486 28.041 12.5821 29.2496 10.3949 31.4009C8.20775 33.5522 6.979 36.47 6.979 39.5124V50.5071C8.97069 45.3927 12.0359 40.7486 15.9748 36.8776C19.9137 33.0067 24.6379 29.9957 29.8393 28.041Z" fill="#FFDA45"/>
<path d="M53.6301 35.6902C55.0614 35.6902 56.2218 34.5489 56.2218 33.141C56.2218 31.7331 55.0614 30.5918 53.6301 30.5918C52.1987 30.5918 51.0383 31.7331 51.0383 33.141C51.0383 34.5489 52.1987 35.6902 53.6301 35.6902Z" fill="white"/>
<path d="M43.2631 35.6902C44.6945 35.6902 45.8548 34.5489 45.8548 33.141C45.8548 31.7331 44.6945 30.5918 43.2631 30.5918C41.8317 30.5918 40.6714 31.7331 40.6714 33.141C40.6714 34.5489 41.8317 35.6902 43.2631 35.6902Z" fill="white"/>
<path d="M45.8549 33.1409C45.8549 32.6367 45.7029 32.1439 45.4182 31.7246C45.1334 31.3054 44.7286 30.9787 44.255 30.7858C43.7815 30.5928 43.2604 30.5423 42.7576 30.6407C42.2549 30.739 41.7931 30.9818 41.4306 31.3383C41.0681 31.6949 40.8213 32.1491 40.7213 32.6436C40.6213 33.1381 40.6726 33.6506 40.8688 34.1164C41.0649 34.5822 41.3971 34.9804 41.8233 35.2605C42.2495 35.5406 42.7506 35.6901 43.2632 35.6901C43.95 35.6881 44.608 35.4189 45.0936 34.9412C45.5792 34.4636 45.8529 33.8164 45.8549 33.1409ZM56.2218 33.1409C56.2218 32.6367 56.0698 32.1439 55.7851 31.7246C55.5003 31.3054 55.0955 30.9787 54.6219 30.7858C54.1483 30.5928 53.6272 30.5423 53.1245 30.6407C52.6217 30.739 52.16 30.9818 51.7975 31.3383C51.435 31.6949 51.1882 32.1491 51.0882 32.6436C50.9882 33.1381 51.0395 33.6506 51.2357 34.1164C51.4318 34.5822 51.764 34.9804 52.1902 35.2605C52.6164 35.5406 53.1175 35.6901 53.6301 35.6901C54.3169 35.6881 54.9749 35.4189 55.4605 34.9412C55.9461 34.4636 56.2198 33.8164 56.2218 33.1409ZM69.1805 28.0425V38.2393C69.1805 39.5915 68.6343 40.8883 67.6623 41.8444C66.6902 42.8006 65.3717 43.3377 63.997 43.3377H58.8136V49.7107C58.8136 49.7107 56.2218 43.3377 52.3343 43.3377H32.8963C31.5216 43.3377 30.2032 42.8006 29.2311 41.8444C28.259 40.8883 27.7129 39.5915 27.7129 38.2393V22.9441C27.7129 21.5919 28.259 20.2951 29.2311 19.339C30.2032 18.3829 31.5216 17.8457 32.8963 17.8457H63.997C65.3717 17.8457 66.6902 18.3829 67.6623 19.339C68.6343 20.2951 69.1805 21.5919 69.1805 22.9441V28.0425Z" fill="#F2F6FC"/>
<path d="M63.997 17.8457H60.1094C61.4841 17.8457 62.8025 18.3829 63.7746 19.339C64.7467 20.2951 65.2928 21.5919 65.2928 22.9441V38.2393C65.2928 39.5915 64.7467 40.8883 63.7746 41.8444C62.8025 42.8006 61.4841 43.3377 60.1094 43.3377H63.997C65.3717 43.3377 66.6901 42.8006 67.6622 41.8444C68.6343 40.8883 69.1804 39.5915 69.1804 38.2393V22.9441C69.1804 21.5919 68.6343 20.2951 67.6622 19.339C66.6901 18.3829 65.3717 17.8457 63.997 17.8457Z" fill="#CDD2E1"/>
<path d="M70.4764 26.7671V22.9433C70.4744 21.2537 69.7911 19.6339 68.5764 18.4392C67.3617 17.2444 65.7149 16.5723 63.9971 16.5703H32.8964C31.1787 16.5723 29.5318 17.2444 28.3172 18.4392C27.1025 19.6339 26.4192 21.2537 26.4171 22.9433V26.7671H18.642C15.2063 26.7708 11.9124 28.1149 9.48301 30.5044C7.05361 32.894 5.68712 36.1338 5.68335 39.5131L5.68335 67.5543C5.68712 70.9336 7.05361 74.1735 9.48301 76.563C11.9124 78.9525 15.2063 80.2966 18.642 80.3003H26.1826L25.1394 86.463C25.0899 86.7554 25.1455 87.0556 25.2967 87.3119C25.4478 87.5683 25.6851 87.7649 25.9677 87.8678C26.2503 87.9707 26.5605 87.9735 26.845 87.8758C27.1295 87.7781 27.3704 87.5859 27.5264 87.3323C29.3609 84.6266 31.6511 82.2486 34.2986 80.3003H70.4764C73.9121 80.2966 77.206 78.9525 79.6354 76.563C82.0648 74.1735 83.4313 70.9336 83.435 67.5543V39.5131C83.4313 36.1338 82.0648 32.894 79.6354 30.5044C77.206 28.1149 73.9121 26.7708 70.4764 26.7671ZM29.0089 22.9433C29.0089 21.9292 29.4184 20.9566 30.1475 20.2395C30.8766 19.5224 31.8654 19.1195 32.8964 19.1195H63.9971C65.0282 19.1195 66.017 19.5224 66.7461 20.2395C67.4751 20.9566 67.8847 21.9292 67.8847 22.9433V38.2385C67.8847 39.2526 67.4751 40.2252 66.7461 40.9423C66.017 41.6595 65.0282 42.0623 63.9971 42.0623H58.8137C58.47 42.0623 58.1404 42.1966 57.8974 42.4356C57.6543 42.6747 57.5178 42.9989 57.5178 43.3369V45.0181C56.9331 44.176 56.164 43.4733 55.267 42.9618C54.37 42.4504 53.3679 42.143 52.3344 42.0623H32.8964C31.8654 42.0623 30.8766 41.6595 30.1475 40.9423C29.4184 40.2252 29.0089 39.2526 29.0089 38.2385V22.9433ZM80.8433 67.5543C80.8402 70.2577 79.747 72.8496 77.8035 74.7612C75.86 76.6728 73.2249 77.7481 70.4764 77.7511H33.8683C33.5928 77.7514 33.3246 77.838 33.1025 77.9984C31.4541 79.1902 29.9211 80.5291 28.5229 81.9981L28.9907 79.236C29.0218 79.0534 29.012 78.8663 28.9621 78.6878C28.9122 78.5093 28.8234 78.3436 28.7018 78.2023C28.5802 78.061 28.4287 77.9474 28.258 77.8695C28.0872 77.7916 27.9012 77.7512 27.713 77.7511H18.642C15.8934 77.7481 13.2584 76.6728 11.3149 74.7612C9.37137 72.8496 8.27816 70.2577 8.27507 67.5543V39.5131C8.27816 36.8097 9.37137 34.2179 11.3149 32.3062C13.2584 30.3946 15.8934 29.3193 18.642 29.3163H26.4171V38.2385C26.4192 39.9281 27.1025 41.5479 28.3172 42.7427C29.5318 43.9374 31.1787 44.6095 32.8964 44.6115H52.3344C54.7797 44.6115 57.0189 48.7387 57.6111 50.1853C57.7076 50.4214 57.8737 50.6236 58.088 50.766C58.3023 50.9085 58.555 50.9846 58.8137 50.9845C58.8964 50.9845 58.9788 50.9764 59.0599 50.9603C59.3552 50.9041 59.6214 50.7486 59.8129 50.5205C60.0044 50.2923 60.1093 50.0058 60.1095 49.7099V44.6115H63.9971C65.7149 44.6095 67.3617 43.9374 68.5764 42.7427C69.7911 41.5479 70.4744 39.9281 70.4764 38.2385V29.3163C73.2249 29.3193 75.86 30.3946 77.8035 32.3062C79.747 34.2179 80.8402 36.8097 80.8433 39.5131V67.5543Z" fill="#2B1505"/>
<path d="M39.3759 33.141C39.3759 34.1551 39.7855 35.1277 40.5145 35.8448C41.2436 36.5619 42.2324 36.9648 43.2635 36.9648C44.2945 36.9648 45.2833 36.5619 46.0124 35.8448C46.7415 35.1277 47.151 34.1551 47.151 33.141C47.151 24.3207 40.7365 24.2188 40.6717 24.2188C40.3319 24.2191 40.006 24.3515 39.765 24.5871C39.5239 24.8228 39.3873 25.1425 39.385 25.4768C39.3825 25.8127 39.5141 26.1362 39.7516 26.3777C39.9891 26.6191 40.3134 26.7593 40.6549 26.768C41.3996 26.841 42.1061 27.1278 42.6865 27.5925C43.2668 28.0573 43.6955 28.6797 43.9192 29.3822C43.3608 29.2786 42.786 29.2984 42.2364 29.4401C41.6868 29.5819 41.1761 29.842 40.7412 30.2018C40.3064 30.5615 39.9583 31.0119 39.7222 31.5202C39.4861 32.0285 39.3678 32.5821 39.3759 33.141ZM43.2635 34.4156C43.0072 34.4156 42.7566 34.3408 42.5435 34.2007C42.3304 34.0607 42.1643 33.8616 42.0662 33.6287C41.9682 33.3958 41.9425 33.1395 41.9925 32.8923C42.0425 32.645 42.1659 32.4179 42.3472 32.2397C42.5284 32.0614 42.7593 31.94 43.0107 31.8908C43.262 31.8417 43.5226 31.8669 43.7594 31.9634C43.9962 32.0598 44.1985 32.2232 44.3409 32.4328C44.4833 32.6424 44.5593 32.8889 44.5593 33.141C44.5593 33.479 44.4228 33.8032 44.1798 34.0422C43.9368 34.2813 43.6071 34.4156 43.2635 34.4156Z" fill="#2B1505"/>
<path d="M49.7428 33.141C49.7428 34.1551 50.1524 35.1277 50.8815 35.8448C51.6105 36.5619 52.5994 36.9648 53.6304 36.9648C54.6615 36.9648 55.6503 36.5619 56.3793 35.8448C57.1084 35.1277 57.518 34.1551 57.518 33.141C57.518 24.3207 51.1035 24.2188 51.0387 24.2188C50.6989 24.2191 50.3729 24.3515 50.1319 24.5871C49.8909 24.8228 49.7543 25.1425 49.7519 25.4768C49.7494 25.8127 49.8811 26.1362 50.1185 26.3777C50.356 26.6191 50.6804 26.7593 51.0218 26.768C51.7666 26.841 52.473 27.1278 53.0534 27.5925C53.6338 28.0573 54.0624 28.6797 54.2861 29.3822C53.7278 29.2786 53.153 29.2984 52.6033 29.4401C52.0537 29.5819 51.543 29.842 51.1082 30.2018C50.6734 30.5615 50.3253 31.0119 50.0891 31.5202C49.853 32.0285 49.7347 32.5821 49.7428 33.141ZM53.6304 34.4156C53.3741 34.4156 53.1236 34.3408 52.9105 34.2007C52.6974 34.0607 52.5313 33.8616 52.4332 33.6287C52.3351 33.3958 52.3094 33.1395 52.3594 32.8923C52.4094 32.645 52.5329 32.4179 52.7141 32.2397C52.8953 32.0614 53.1262 31.94 53.3776 31.8908C53.629 31.8417 53.8895 31.8669 54.1263 31.9634C54.3631 32.0598 54.5655 32.2232 54.7079 32.4328C54.8503 32.6424 54.9263 32.8889 54.9263 33.141C54.9263 33.479 54.7897 33.8032 54.5467 34.0422C54.3037 34.2813 53.9741 34.4156 53.6304 34.4156Z" fill="#2B1505"/>
<path d="M71.7721 68.8281H26.417C26.0733 68.8281 25.7437 68.9624 25.5006 69.2014C25.2576 69.4405 25.1211 69.7647 25.1211 70.1027C25.1211 70.4408 25.2576 70.765 25.5006 71.004C25.7437 71.243 26.0733 71.3773 26.417 71.3773H71.7721C72.1158 71.3773 72.4454 71.243 72.6884 71.004C72.9314 70.765 73.068 70.4408 73.068 70.1027C73.068 69.7647 72.9314 69.4405 72.6884 69.2014C72.4454 68.9624 72.1158 68.8281 71.7721 68.8281Z" fill="#2B1505"/>
<path d="M69.1804 63.7297C69.1804 63.3916 69.0438 63.0674 68.8008 62.8284C68.5578 62.5894 68.2282 62.4551 67.8845 62.4551H17.3459C17.0022 62.4551 16.6726 62.5894 16.4296 62.8284C16.1866 63.0674 16.05 63.3916 16.05 63.7297C16.05 64.0677 16.1866 64.3919 16.4296 64.631C16.6726 64.87 17.0022 65.0043 17.3459 65.0043H67.8845C68.2282 65.0043 68.5578 64.87 68.8008 64.631C69.0438 64.3919 69.1804 64.0677 69.1804 63.7297Z" fill="#2B1505"/>
<path d="M71.7722 56.082H21.2336C20.8899 56.082 20.5603 56.2163 20.3173 56.4554C20.0743 56.6944 19.9377 57.0186 19.9377 57.3566C19.9377 57.6947 20.0743 58.0189 20.3173 58.2579C20.5603 58.4969 20.8899 58.6312 21.2336 58.6312H71.7722C72.1159 58.6312 72.4455 58.4969 72.6885 58.2579C72.9315 58.0189 73.0681 57.6947 73.0681 57.3566C73.0681 57.0186 72.9315 56.6944 72.6885 56.4554C72.4455 56.2163 72.1159 56.082 71.7722 56.082Z" fill="#2B1505"/>
<path d="M17.3459 52.2582H52.3342C52.6779 52.2582 53.0075 52.1239 53.2505 51.8849C53.4935 51.6458 53.63 51.3216 53.63 50.9836C53.63 50.6455 53.4935 50.3213 53.2505 50.0823C53.0075 49.8433 52.6779 49.709 52.3342 49.709H17.3459C17.0022 49.709 16.6726 49.8433 16.4296 50.0823C16.1866 50.3213 16.05 50.6455 16.05 50.9836C16.05 51.3216 16.1866 51.6458 16.4296 51.8849C16.6726 52.1239 17.0022 52.2582 17.3459 52.2582Z" fill="#2B1505"/>
</svg>
