<svg width="24" height="16" viewBox="0 0 24 16" fill="none" xmlns="http://www.w3.org/2000/svg">
<g clip-path="url(#clip0_6422_14800)">
<g clip-path="url(#clip1_6422_14800)">
<path d="M7.29289 15.7071L0.292892 8.70711C0.104067 8.51828 0.00654411 8.27273 0.000318527 8.02531C0.000167847 8.0174 0 8.00871 0 8L0.000343323 7.9737C0.00680351 7.72661 0.104321 7.48147 0.292892 7.29289L7.29289 0.292892C7.68342 -0.0976315 8.31658 -0.0976315 8.70711 0.292892C9.09763 0.683416 9.09763 1.31658 8.70711 1.70711L3.415 7H22.5C23.3284 7 24 7.44772 24 8C24 8.55228 23.3284 9 22.5 9H3.415L8.70711 14.2929C9.09763 14.6834 9.09763 15.3166 8.70711 15.7071C8.31658 16.0976 7.68342 16.0976 7.29289 15.7071Z" fill="#DADADA"/>
<mask id="mask0_6422_14800" style="mask-type:luminance" maskUnits="userSpaceOnUse" x="0" y="0" width="24" height="16">
<path d="M7.29289 15.7071L0.292892 8.70711C0.104067 8.51828 0.00654411 8.27273 0.000318527 8.02531C0.000167847 8.0174 0 8.00871 0 8L0.000343323 7.9737C0.00680351 7.72661 0.104321 7.48147 0.292892 7.29289L7.29289 0.292892C7.68342 -0.0976315 8.31658 -0.0976315 8.70711 0.292892C9.09763 0.683416 9.09763 1.31658 8.70711 1.70711L3.415 7H22.5C23.3284 7 24 7.44772 24 8C24 8.55228 23.3284 9 22.5 9H3.415L8.70711 14.2929C9.09763 14.6834 9.09763 15.3166 8.70711 15.7071C8.31658 16.0976 7.68342 16.0976 7.29289 15.7071Z" fill="white"/>
</mask>
<g mask="url(#mask0_6422_14800)">
<path d="M-4 20H20V-4H-4V20Z" fill="#DADADA"/>
</g>
</g>
</g>
<defs>
<clipPath id="clip0_6422_14800">
<rect width="24" height="16" fill="white" transform="matrix(-1 0 0 -1 24 16)"/>
</clipPath>
<clipPath id="clip1_6422_14800">
<rect width="24" height="16" fill="white" transform="matrix(-1 0 0 -1 24 16)"/>
</clipPath>
</defs>
</svg>
