<svg width="24" height="16" viewBox="0 0 24 16" fill="none" xmlns="http://www.w3.org/2000/svg">
<g clip-path="url(#clip0_6414_15112)">
<g clip-path="url(#clip1_6414_15112)">
<g clip-path="url(#clip2_6414_15112)">
<path d="M16.7071 0.292893L23.7071 7.29289C23.8959 7.48172 23.9935 7.72727 23.9997 7.97469C23.9998 7.9826 24 7.99129 24 8L23.9997 8.0263C23.9932 8.27339 23.8957 8.51853 23.7071 8.70711L16.7071 15.7071C16.3166 16.0976 15.6834 16.0976 15.2929 15.7071C14.9024 15.3166 14.9024 14.6834 15.2929 14.2929L20.585 9H1.5C0.671573 9 0 8.55228 0 8C0 7.44772 0.671573 7 1.5 7H20.585L15.2929 1.70711C14.9024 1.31658 14.9024 0.683418 15.2929 0.292893C15.6834 -0.0976311 16.3166 -0.0976311 16.7071 0.292893Z" fill="white"/>
<mask id="mask0_6414_15112" style="mask-type:luminance" maskUnits="userSpaceOnUse" x="0" y="0" width="24" height="16">
<path d="M16.7071 0.292893L23.7071 7.29289C23.8959 7.48172 23.9935 7.72727 23.9997 7.97469C23.9998 7.9826 24 7.99129 24 8L23.9997 8.0263C23.9932 8.27339 23.8957 8.51853 23.7071 8.70711L16.7071 15.7071C16.3166 16.0976 15.6834 16.0976 15.2929 15.7071C14.9024 15.3166 14.9024 14.6834 15.2929 14.2929L20.585 9H1.5C0.671573 9 0 8.55228 0 8C0 7.44772 0.671573 7 1.5 7H20.585L15.2929 1.70711C14.9024 1.31658 14.9024 0.683418 15.2929 0.292893C15.6834 -0.0976311 16.3166 -0.0976311 16.7071 0.292893Z" fill="white"/>
</mask>
<g mask="url(#mask0_6414_15112)">
<path d="M28 -4H4V20H28V-4Z" fill="white"/>
</g>
</g>
</g>
</g>
<defs>
<clipPath id="clip0_6414_15112">
<rect width="24" height="16" fill="white"/>
</clipPath>
<clipPath id="clip1_6414_15112">
<rect width="24" height="16" fill="white"/>
</clipPath>
<clipPath id="clip2_6414_15112">
<rect width="24" height="16" fill="white"/>
</clipPath>
</defs>
</svg>
