<svg width="25" height="25" viewBox="0 0 25 25" fill="none" xmlns="http://www.w3.org/2000/svg">
<g clip-path="url(#clip0_7055_19933)">
<path fill-rule="evenodd" clip-rule="evenodd" d="M9.00009 3.47128C8.36009 3.28568 7.88809 3.33528 7.54409 3.52248C7.19849 3.70808 6.89769 4.07768 6.70249 4.71448C6.50729 5.35608 6.44169 6.21208 6.53609 7.24568C6.55209 7.41368 6.57129 7.58488 6.59529 7.75928C7.47792 7.53772 8.37354 7.37153 9.27689 7.26168C9.89401 6.39025 10.5759 5.56658 11.3169 4.79768C11.2819 4.7692 11.2467 4.74093 11.2113 4.71288C10.3985 4.06968 9.64329 3.65688 9.00009 3.47128ZM12.4961 3.69528C12.4001 3.61528 12.3025 3.53528 12.2049 3.45848C11.2897 2.73528 10.3521 2.19608 9.44649 1.93368C8.53449 1.66968 7.60169 1.66968 6.78089 2.11608C5.96009 2.56088 5.44809 3.34328 5.17289 4.25048C4.89769 5.15288 4.83689 6.23128 4.94249 7.39448C4.96809 7.66648 5.00169 7.94488 5.04649 8.23128C4.77449 8.32728 4.51209 8.43128 4.26249 8.53848C3.18889 8.99768 2.26889 9.56568 1.60649 10.2377C0.940894 10.9113 0.496094 11.7321 0.496094 12.6665C0.496094 13.5993 0.940894 14.4217 1.60649 15.0969C2.26889 15.7689 3.18889 16.3353 4.26249 16.7961C4.51209 16.9033 4.77449 17.0057 5.04649 17.1033C5.00336 17.3811 4.96867 17.6602 4.94249 17.9401C4.83689 19.1017 4.89769 20.1801 5.17289 21.0841C5.44809 21.9913 5.96009 22.7737 6.78089 23.2169C7.60169 23.6617 8.53609 23.6633 9.44649 23.3993C10.3521 23.1353 11.2897 22.5993 12.2049 21.8745L12.4961 21.6361C12.5921 21.7177 12.6897 21.7961 12.7873 21.8745C13.7025 22.5977 14.6401 23.1353 15.5457 23.3993C16.4561 23.6633 17.3905 23.6617 18.2113 23.2169C19.0321 22.7737 19.5441 21.9913 19.8193 21.0841C20.0945 20.1817 20.1553 19.1017 20.0497 17.9401C20.0236 17.6601 19.9889 17.3811 19.9457 17.1033C20.2102 17.0093 20.4717 16.9068 20.7297 16.7961C21.8033 16.3353 22.7233 15.7673 23.3857 15.0969C24.0513 14.4217 24.4961 13.5993 24.4961 12.6649C24.4961 11.7337 24.0513 10.9113 23.3857 10.2361C22.7233 9.56408 21.8033 8.99608 20.7297 8.53688C20.4715 8.4266 20.2101 8.32415 19.9457 8.22968C19.9889 7.94328 20.0241 7.66488 20.0497 7.39288C20.1553 6.22968 20.0945 5.15288 19.8193 4.24888C19.5441 3.34168 19.0321 2.55928 18.2113 2.11448C17.3921 1.66968 16.4561 1.66968 15.5457 1.93368C14.6401 2.19608 13.7025 2.73368 12.7873 3.45848L12.4961 3.69528ZM12.4961 5.87928C12.1361 6.24728 11.7761 6.65208 11.4209 7.08728C12.1374 7.05891 12.8548 7.05891 13.5713 7.08728C13.231 6.66889 12.8722 6.26583 12.4961 5.87928ZM15.7153 7.26168C15.0593 6.34328 14.3713 5.51448 13.6753 4.79768L13.7793 4.71288C14.5953 4.06968 15.3473 3.65688 15.9921 3.47128C16.6305 3.28568 17.1041 3.33528 17.4481 3.52248C17.7937 3.70808 18.0945 4.07768 18.2881 4.71448C18.4833 5.35608 18.5505 6.21208 18.4561 7.24568C18.4401 7.41368 18.4209 7.58488 18.3969 7.75768C17.5142 7.53666 16.6186 7.37101 15.7153 7.26168ZM14.8145 8.77208C13.2722 8.62846 11.72 8.62846 10.1777 8.77208C9.35378 10.0045 8.6411 11.3078 8.04809 12.6665C8.64118 14.0243 9.35329 15.327 10.1761 16.5593C11.7194 16.703 13.2728 16.703 14.8161 16.5593C15.6394 15.3273 16.3515 14.0246 16.9441 12.6665C16.3511 11.3081 15.6374 10.0048 14.8145 8.77208ZM17.7345 10.5929C17.4696 10.0742 17.1884 9.56412 16.8913 9.06328C17.3073 9.14328 17.7089 9.23288 18.0945 9.33208C17.9937 9.74168 17.8737 10.1641 17.7345 10.5929ZM17.7345 14.7385C17.4701 15.2579 17.1888 15.7685 16.8913 16.2697C17.3073 16.1897 17.7089 16.1001 18.0945 15.9993C17.9893 15.5749 17.8692 15.1544 17.7345 14.7385ZM19.6225 15.5177C19.3739 14.547 19.0596 13.5944 18.6817 12.6665C19.0753 11.6905 19.3905 10.7321 19.6225 9.81528C19.7873 9.87608 19.9473 9.94168 20.1025 10.0073C21.0561 10.4169 21.7777 10.8825 22.2481 11.3593C22.7153 11.8329 22.8977 12.2745 22.8977 12.6665C22.8977 13.0585 22.7153 13.4985 22.2481 13.9721C21.7777 14.4505 21.0561 14.9161 20.1025 15.3257C19.9439 15.3931 19.7839 15.4571 19.6225 15.5177ZM18.3985 17.5737C17.5159 17.7956 16.6203 17.9618 15.7169 18.0713C15.0609 18.9897 14.3729 19.8169 13.6769 20.5353L13.7825 20.6185C14.5953 21.2633 15.3505 21.6745 15.9937 21.8617C16.6321 22.0473 17.1057 21.9977 17.4497 21.8105C17.7953 21.6233 18.0961 21.2537 18.2897 20.6169C18.4865 19.9769 18.5521 19.1193 18.4577 18.0857C18.4417 17.9146 18.4219 17.7439 18.3985 17.5737ZM12.4961 19.4537C12.8561 19.0857 13.2161 18.6809 13.5713 18.2457C12.8548 18.2741 12.1374 18.2741 11.4209 18.2457C11.7761 18.6809 12.1361 19.0841 12.4961 19.4537ZM8.10249 16.2697C7.80507 15.7685 7.52386 15.2578 7.25929 14.7385C7.12009 15.1705 7.00009 15.5897 6.89929 15.9993C7.28329 16.1001 7.68649 16.1897 8.10249 16.2697ZM6.59529 17.5737C7.47785 17.7956 8.37348 17.9618 9.27689 18.0713C9.93289 18.9897 10.6193 19.8169 11.3169 20.5353C11.2819 20.5632 11.2467 20.591 11.2113 20.6185C10.3985 21.2633 9.64329 21.6745 9.00009 21.8617C8.36009 22.0473 7.88809 21.9977 7.54249 21.8105C7.19689 21.6233 6.89769 21.2537 6.70249 20.6169C6.50729 19.9769 6.44169 19.1193 6.53609 18.0857C6.55214 17.9146 6.57188 17.7439 6.59529 17.5737ZM5.37129 15.5177C5.60329 14.5993 5.91689 13.6425 6.31209 12.6665C5.93419 11.7385 5.61987 10.7859 5.37129 9.81528C5.21009 9.87623 5.05007 9.94025 4.89129 10.0073C3.93769 10.4169 3.21609 10.8825 2.74569 11.3593C2.27849 11.8329 2.09609 12.2745 2.09609 12.6665C2.09609 13.0585 2.27849 13.4985 2.74569 13.9721C3.21609 14.4505 3.93769 14.9161 4.89129 15.3257C5.04649 15.3913 5.20649 15.4553 5.37129 15.5177ZM6.89929 9.33368C7.00009 9.74168 7.12009 10.1641 7.25929 10.5929C7.52403 10.0742 7.80524 9.56405 8.10249 9.06328C7.68649 9.14328 7.28489 9.23288 6.89929 9.33368ZM10.0961 12.6665C10.0961 12.03 10.349 11.4195 10.799 10.9694C11.2491 10.5193 11.8596 10.2665 12.4961 10.2665C13.1326 10.2665 13.7431 10.5193 14.1932 10.9694C14.6432 11.4195 14.8961 12.03 14.8961 12.6665C14.8961 13.303 14.6432 13.9134 14.1932 14.3635C13.7431 14.8136 13.1326 15.0665 12.4961 15.0665C11.8596 15.0665 11.2491 14.8136 10.799 14.3635C10.349 13.9134 10.0961 13.303 10.0961 12.6665ZM12.4961 11.8665C12.2839 11.8665 12.0804 11.9508 11.9304 12.1008C11.7804 12.2508 11.6961 12.4543 11.6961 12.6665C11.6961 12.8786 11.7804 13.0821 11.9304 13.2322C12.0804 13.3822 12.2839 13.4665 12.4961 13.4665C12.7083 13.4665 12.9118 13.3822 13.0618 13.2322C13.2118 13.0821 13.2961 12.8786 13.2961 12.6665C13.2961 12.4543 13.2118 12.2508 13.0618 12.1008C12.9118 11.9508 12.7083 11.8665 12.4961 11.8665Z" fill="#FF6E4E"/>
</g>
<defs>
<clipPath id="clip0_7055_19933">
<rect width="24" height="24" fill="white" transform="translate(0.496094 0.53125)"/>
</clipPath>
</defs>
</svg>
