<svg width="25" height="25" viewBox="0 0 25 25" fill="none" xmlns="http://www.w3.org/2000/svg">
<g clip-path="url(#clip0_7069_20046)">
<path d="M15.7063 1.42012L16.8568 -0.65545C16.8715 -0.682046 16.8808 -0.71128 16.8842 -0.741482C16.8876 -0.771684 16.8851 -0.802263 16.8767 -0.831474C16.8683 -0.860685 16.8542 -0.887954 16.8353 -0.911726C16.8163 -0.935498 16.7929 -0.955307 16.7663 -0.970021C16.7397 -0.984735 16.7105 -0.994067 16.6803 -0.997483C16.6501 -1.0009 16.6195 -0.998334 16.5903 -0.989933C16.5611 -0.981531 16.5338 -0.967458 16.51 -0.948518C16.4862 -0.929578 16.4664 -0.90614 16.4517 -0.879545L15.2893 1.21759C14.297 0.782526 13.2253 0.557903 12.1418 0.557903C11.0583 0.557903 9.98659 0.782526 8.99429 1.21759L7.83188 -0.879545C7.80216 -0.933575 7.7522 -0.973588 7.69298 -0.99078C7.63376 -1.00797 7.57014 -1.00094 7.51611 -0.97122C7.46208 -0.941503 7.42207 -0.89154 7.40487 -0.832321C7.38768 -0.773103 7.39472 -0.709481 7.42443 -0.65545L8.57487 1.42012C7.48027 1.95997 6.55546 2.79081 5.90185 3.82153C5.24824 4.85225 4.89108 6.04305 4.86952 7.26334H19.4141C19.3923 6.0428 19.0348 4.85183 18.3807 3.82108C17.7267 2.79034 16.8014 1.95964 15.7063 1.42012ZM8.78578 4.60178C8.66556 4.60178 8.54805 4.56611 8.4481 4.4993C8.34816 4.43248 8.27029 4.33752 8.22434 4.22643C8.17839 4.11535 8.16643 3.99312 8.18997 3.87523C8.21351 3.75734 8.2715 3.64909 8.35659 3.56416C8.44168 3.47924 8.55005 3.42147 8.66798 3.39816C8.78592 3.37485 8.90812 3.38706 9.01912 3.43323C9.13011 3.4794 9.22492 3.55746 9.29154 3.65753C9.35815 3.7576 9.39359 3.87519 9.39335 3.9954C9.39303 4.15633 9.32888 4.31056 9.21497 4.42425C9.10106 4.53793 8.94671 4.60178 8.78578 4.60178ZM15.499 4.60178C15.3788 4.60178 15.2613 4.56611 15.1613 4.4993C15.0614 4.43248 14.9835 4.33752 14.9376 4.22643C14.8916 4.11535 14.8797 3.99312 14.9032 3.87523C14.9268 3.75734 14.9847 3.64909 15.0698 3.56416C15.1549 3.47924 15.2633 3.42147 15.3812 3.39816C15.4992 3.37485 15.6214 3.38706 15.7324 3.43323C15.8434 3.4794 15.9382 3.55746 16.0048 3.65753C16.0714 3.7576 16.1068 3.87519 16.1066 3.9954C16.1063 4.15633 16.0421 4.31056 15.9282 4.42425C15.8143 4.53793 15.6599 4.60178 15.499 4.60178ZM4.86712 18.3794C4.86681 18.6107 4.91217 18.8399 5.0006 19.0537C5.08903 19.2675 5.21879 19.4617 5.38245 19.6253C5.54611 19.7888 5.74044 19.9185 5.9543 20.0068C6.16817 20.095 6.39735 20.1402 6.62872 20.1398H7.79473V23.7349C7.79473 24.1673 7.9665 24.582 8.27226 24.8877C8.57801 25.1935 8.9927 25.3652 9.4251 25.3652C9.85751 25.3652 10.2722 25.1935 10.578 24.8877C10.8837 24.582 11.0555 24.1673 11.0555 23.7349V20.1398H13.2293V23.7349C13.2293 24.1671 13.401 24.5817 13.7067 24.8873C14.0123 25.1929 14.4268 25.3646 14.8591 25.3646C15.2913 25.3646 15.7059 25.1929 16.0115 24.8873C16.3172 24.5817 16.4889 24.1671 16.4889 23.7349V20.1398H17.6561C17.8871 20.1399 18.116 20.0945 18.3295 20.0062C18.543 19.9178 18.737 19.7883 18.9004 19.6249C19.0638 19.4615 19.1933 19.2675 19.2817 19.054C19.37 18.8405 19.4154 18.6116 19.4153 18.3806V7.83856H4.86712V18.3794ZM2.62978 7.55814C2.19752 7.55878 1.78317 7.73085 1.47763 8.03662C1.17209 8.34238 1.00032 8.75686 1 9.18912V15.9826C1 16.1967 1.04216 16.4086 1.12406 16.6063C1.20596 16.8041 1.32601 16.9837 1.47735 17.1351C1.62869 17.2864 1.80835 17.4065 2.00609 17.4884C2.20382 17.5703 2.41575 17.6124 2.62978 17.6124C2.8438 17.6124 3.05573 17.5703 3.25346 17.4884C3.4512 17.4065 3.63086 17.2864 3.7822 17.1351C3.93354 16.9837 4.05359 16.8041 4.13549 16.6063C4.2174 16.4086 4.25955 16.1967 4.25955 15.9826V9.18912C4.25892 8.75707 4.08701 8.3429 3.7815 8.03739C3.476 7.73189 3.06183 7.55997 2.62978 7.55934M21.6502 7.55934C21.218 7.55998 20.8036 7.73205 20.4981 8.03782C20.1925 8.34358 20.0208 8.75806 20.0204 9.19032V15.9838C20.0204 16.1979 20.0626 16.4098 20.1445 16.6075C20.2264 16.8053 20.3465 16.9849 20.4978 17.1363C20.6491 17.2876 20.8288 17.4077 21.0265 17.4896C21.2243 17.5715 21.4362 17.6136 21.6502 17.6136C21.8642 17.6136 22.0762 17.5715 22.2739 17.4896C22.4716 17.4077 22.6513 17.2876 22.8027 17.1363C22.954 16.9849 23.074 16.8053 23.1559 16.6075C23.2378 16.4098 23.28 16.1979 23.28 15.9838V9.18912C23.2794 8.75707 23.1075 8.3429 22.802 8.03739C22.4964 7.73189 22.0823 7.55997 21.6502 7.55934Z" fill="#FF6E4E"/>
</g>
<defs>
<clipPath id="clip0_7069_20046">
<rect width="24" height="24" fill="white" transform="translate(0.496094 0.53125)"/>
</clipPath>
</defs>
</svg>
