<svg width="25" height="25" viewBox="0 0 25 25" fill="none" xmlns="http://www.w3.org/2000/svg">
<g clip-path="url(#clip0_7055_19927)">
<path d="M17.269 0.543261C17.218 0.486261 15.3805 0.565761 13.7815 2.30126C12.1825 4.03526 12.4285 6.02426 12.4645 6.07526C12.5005 6.12626 14.7445 6.20576 16.177 4.18826C17.6095 2.17076 17.32 0.601761 17.269 0.543261M22.24 18.1428C22.168 17.9988 18.7525 16.2918 19.0705 13.0098C19.3885 9.72776 21.583 8.82626 21.6175 8.72876C21.652 8.63126 20.722 7.54376 19.7365 6.99326C19.0128 6.60551 18.212 6.38317 17.392 6.34226C17.23 6.33776 16.6675 6.19976 15.511 6.51626C14.749 6.72476 13.0315 7.39976 12.559 7.42676C12.085 7.45376 10.675 6.64376 9.15848 6.42926C8.18798 6.24176 7.15898 6.62576 6.42248 6.92126C5.68748 7.21526 4.28948 8.05226 3.31148 10.2768C2.33348 12.4998 2.84498 16.0218 3.21098 17.1168C3.57698 18.2118 4.14848 20.0028 5.12048 21.3108C5.98448 22.7868 7.13048 23.8113 7.60898 24.1593C8.08748 24.5073 9.43748 24.7383 10.3735 24.2598C11.1265 23.7978 12.4855 23.5323 13.0225 23.5518C13.558 23.5713 14.614 23.7828 15.6955 24.3603C16.552 24.6558 17.362 24.5328 18.1735 24.2028C18.985 23.8713 20.1595 22.6143 21.5305 20.0658C22.0505 18.8808 22.287 18.2398 22.24 18.1428" fill="#FF6E4E"/>
<path d="M17.269 0.543261C17.218 0.486261 15.3805 0.565761 13.7815 2.30126C12.1825 4.03526 12.4285 6.02426 12.4645 6.07526C12.5005 6.12626 14.7445 6.20576 16.177 4.18826C17.6095 2.17076 17.32 0.601761 17.269 0.543261M22.24 18.1428C22.168 17.9988 18.7525 16.2918 19.0705 13.0098C19.3885 9.72776 21.583 8.82626 21.6175 8.72876C21.652 8.63126 20.722 7.54376 19.7365 6.99326C19.0128 6.60551 18.212 6.38317 17.392 6.34226C17.23 6.33776 16.6675 6.19976 15.511 6.51626C14.749 6.72476 13.0315 7.39976 12.559 7.42676C12.085 7.45376 10.675 6.64376 9.15848 6.42926C8.18798 6.24176 7.15898 6.62576 6.42248 6.92126C5.68748 7.21526 4.28948 8.05226 3.31148 10.2768C2.33348 12.4998 2.84498 16.0218 3.21098 17.1168C3.57698 18.2118 4.14848 20.0028 5.12048 21.3108C5.98448 22.7868 7.13048 23.8113 7.60898 24.1593C8.08748 24.5073 9.43748 24.7383 10.3735 24.2598C11.1265 23.7978 12.4855 23.5323 13.0225 23.5518C13.558 23.5713 14.614 23.7828 15.6955 24.3603C16.552 24.6558 17.362 24.5328 18.1735 24.2028C18.985 23.8713 20.1595 22.6143 21.5305 20.0658C22.0505 18.8808 22.287 18.2398 22.24 18.1428" fill="#FF6E4E"/>
</g>
<defs>
<clipPath id="clip0_7055_19927">
<rect width="24" height="24" fill="white" transform="translate(0.496094 0.53125)"/>
</clipPath>
</defs>
</svg>
