<svg width="25" height="25" viewBox="0 0 25 25" fill="none" xmlns="http://www.w3.org/2000/svg">
<g clip-path="url(#clip0_7053_19893)">
<path d="M16.7305 8.29375C19.0742 10.6375 19.0742 14.4344 16.7305 16.7781C15.5586 17.95 15.5586 19.8531 16.7305 21.0156C17.9023 22.1875 19.8055 22.1875 20.9773 21.0156C25.6648 16.3281 25.6648 8.73438 20.9773 4.04688L16.7305 8.29375Z" fill="#EA4335"/>
<path d="M20.9711 4.04688C16.2836 -0.640625 8.69922 -0.640625 4.01172 4.04688C-0.675781 8.73438 -0.675781 16.3281 4.01172 21.0156L8.25859 16.7781C5.91484 14.4344 5.91484 10.6375 8.25859 8.29375C10.6023 5.95 14.3992 5.95 16.743 8.29375C17.9148 9.46563 19.818 9.46563 20.9898 8.29375C22.143 7.12188 22.143 5.21875 20.9711 4.04688Z" fill="#FF6E4E"/>
<path d="M20.9703 21.0148L16.7234 16.7773C14.3797 19.1211 10.5828 19.1211 8.23906 16.7773L3.99219 21.0148C8.69844 25.7023 16.2828 25.7023 20.9703 21.0148Z" fill="#F87A5E"/>
<path d="M16.7305 16.7773C17.9023 15.6055 19.7961 15.6055 20.968 16.7773C22.1398 17.9492 22.1398 19.8523 20.968 21.0242C19.7961 22.1961 17.9023 22.1961 16.7305 21.0242C15.5586 19.8523 15.5586 17.9492 16.7305 16.7773Z" fill="#EA4335"/>
<path d="M4.00781 16.7773C5.17969 15.6055 7.07344 15.6055 8.24531 16.7773C9.41719 17.9492 9.41719 19.8523 8.24531 21.0242C7.07344 22.1961 5.17969 22.1961 4.00781 21.0242C2.83594 19.8523 2.83594 17.9492 4.00781 16.7773Z" fill="#FF5A35"/>
</g>
<defs>
<clipPath id="clip0_7053_19893">
<rect width="24" height="24" fill="white" transform="translate(0.496094 0.53125)"/>
</clipPath>
</defs>
</svg>
