<svg width="25" height="25" viewBox="0 0 25 25" fill="none" xmlns="http://www.w3.org/2000/svg">
<g clip-path="url(#clip0_7053_19891)">
<path d="M21.1941 12.035C21.1941 12.5368 20.9681 12.6181 20.4041 12.6181C19.8081 12.6181 19.6981 12.5051 19.6341 11.992C19.5161 10.6902 18.7381 9.58494 17.4331 9.46063C17.0151 9.4222 16.9151 9.24591 16.9151 8.66278C16.9151 8.12033 16.9891 7.86267 17.3611 7.86267C19.6261 7.87397 21.1941 9.93301 21.1941 12.0327V12.035ZM24.4941 12.035C24.4941 8.12937 22.1561 4 16.7541 4H6.01609C5.79809 4 5.66209 4.12431 5.66209 4.35033C5.66209 4.47351 5.74409 4.58652 5.81809 4.64415C6.20609 4.99448 6.78809 5.38324 7.54809 5.81494C8.29109 6.23533 8.87109 6.51107 9.45109 6.77778C9.69709 6.89079 9.78709 7.01284 9.78709 7.16653C9.78709 7.38125 9.65109 7.5146 9.38709 7.5146H0.868094C0.614094 7.5146 0.496094 7.69994 0.496094 7.88301C0.496094 8.03671 0.540094 8.17006 0.658094 8.30341C1.34809 9.12386 2.45409 10.107 4.05809 11.2462C5.52409 12.2746 7.03809 13.2125 8.59109 14.0624C8.82709 14.1867 8.89909 14.3291 8.89909 14.4828C8.89109 14.6568 8.77309 14.7992 8.49909 14.7992H4.59609C4.38009 14.7992 4.25209 14.9348 4.25209 15.1382C4.25209 15.2512 4.33209 15.3936 4.44209 15.5066C5.33009 16.4198 6.75309 17.4142 8.64909 18.3251C11.1791 19.5456 13.7431 20.27 16.6291 20.27C22.0941 20.27 24.4961 15.6513 24.4961 12.0327L24.4941 12.035ZM17.3611 17.803C14.5671 17.803 12.2291 15.2309 12.2291 12.0237C12.2291 8.8662 14.5591 6.328 17.3611 6.328C20.2241 6.328 22.4721 8.85942 22.4721 12.0237C22.4758 12.7835 22.3462 13.5367 22.0907 14.2395C21.8352 14.9424 21.4589 15.581 20.9836 16.1184C20.5083 16.6559 19.9434 17.0815 19.3216 17.3706C18.6998 17.6598 18.0335 17.8067 17.3611 17.803Z" fill="#FF6E4E"/>
</g>
<defs>
<clipPath id="clip0_7053_19891">
<rect width="24" height="24" fill="white" transform="translate(0.496094 0.53125)"/>
</clipPath>
</defs>
</svg>
