<svg width="25" height="25" viewBox="0 0 25 25" fill="none" xmlns="http://www.w3.org/2000/svg">
<g clip-path="url(#clip0_7053_19888)">
<path d="M24.4926 21.4833C24.495 21.9051 24.398 22.3225 24.2079 22.708C24.0177 23.0934 23.7389 23.438 23.3899 23.719C23.0408 23.9999 22.6295 24.2108 22.1832 24.3376C21.7369 24.4645 21.2658 24.5043 20.8011 24.4546C19.1095 24.229 17.8699 22.9021 17.9112 21.3611V3.64483C17.8703 2.10224 19.1129 0.774634 20.8067 0.551451C21.271 0.502444 21.7415 0.54285 22.1871 0.669996C22.6328 0.797143 23.0434 1.00813 23.3918 1.28901C23.7403 1.56988 24.0186 1.91424 24.2083 2.29931C24.3981 2.68438 24.495 3.10138 24.4926 3.52272V21.4833Z" fill="#FF6E4E"/>
<path d="M3.78681 18.5474C5.60425 18.5474 7.07753 19.8755 7.07753 21.5136C7.07753 23.1519 5.60425 24.4799 3.78681 24.4799C1.96938 24.4799 0.496094 23.1519 0.496094 21.5137C0.496094 19.8756 1.96938 18.5474 3.78681 18.5474ZM12.4454 9.55691C10.6194 9.64716 9.20256 11.0278 9.24503 12.6759V20.6436C9.24503 22.806 10.3006 24.1187 11.8471 24.3985C12.3265 24.4862 12.8216 24.4765 13.2964 24.3702C13.7712 24.2639 14.2138 24.0637 14.5921 23.7841C14.9704 23.5045 15.2749 23.1525 15.4835 22.7536C15.6921 22.3547 15.7997 21.919 15.7983 21.478V12.5386C15.7991 12.1434 15.7126 11.752 15.5438 11.3872C15.375 11.0225 15.1274 10.6917 14.8153 10.4142C14.5032 10.1366 14.1329 9.91788 13.726 9.77071C13.3191 9.62354 12.8837 9.55081 12.4454 9.55691Z" fill="#FF6E4E"/>
</g>
<defs>
<clipPath id="clip0_7053_19888">
<rect width="24" height="24" fill="white" transform="translate(0.496094 0.53125)"/>
</clipPath>
</defs>
</svg>
