<svg width="25" height="25" viewBox="0 0 25 25" fill="none" xmlns="http://www.w3.org/2000/svg">
<g clip-path="url(#clip0_7053_19871)">
<path d="M24.4961 5.28282C23.6127 5.68232 22.6605 5.94484 21.6739 6.0704C22.6835 5.46545 23.4636 4.50666 23.8307 3.35384C22.8785 3.92454 21.8231 4.32404 20.7102 4.55232C19.8039 3.57071 18.5305 3 17.085 3C14.389 3 12.1863 5.19151 12.1863 7.89666C12.1863 8.28474 12.2322 8.6614 12.3125 9.01524C8.22841 8.80979 4.5917 6.85797 2.17105 3.90172C1.74657 4.6208 1.50565 5.46545 1.50565 6.35575C1.50565 8.05645 2.36607 9.56312 3.69686 10.4192C2.88233 10.4192 2.12516 10.1909 1.45977 9.84847V9.88271C1.45977 12.2568 3.15766 14.2429 5.40623 14.6881C4.68444 14.8854 3.92635 14.9128 3.19208 14.768C3.50367 15.741 4.11392 16.5924 4.93703 17.2025C5.76014 17.8126 6.75473 18.1507 7.78099 18.1694C6.04141 19.5396 3.88502 20.2803 1.66627 20.2696C1.27621 20.2696 0.886151 20.2467 0.496094 20.2011C2.67583 21.5936 5.26856 22.404 8.04485 22.404C17.085 22.404 22.0525 14.9392 22.0525 8.46736C22.0525 8.25049 22.0525 8.04504 22.041 7.82817C23.0047 7.14332 23.8307 6.27585 24.4961 5.28282Z" fill="#FF6E4E"/>
</g>
<defs>
<clipPath id="clip0_7053_19871">
<rect width="24" height="24" fill="white" transform="translate(0.496094 0.53125)"/>
</clipPath>
</defs>
</svg>
