<svg width="25" height="25" viewBox="0 0 25 25" fill="none" xmlns="http://www.w3.org/2000/svg">
<g clip-path="url(#clip0_7053_19875)">
<path d="M12.4961 0.90625C5.86706 0.90625 0.496094 6.10938 0.496094 12.5312C0.496094 18.9531 5.86706 24.1562 12.4961 24.1562C19.1251 24.1562 24.4961 18.9531 24.4961 12.5312C24.4961 6.10938 19.1251 0.90625 12.4961 0.90625ZM20.6977 16.7922C20.5284 17.1719 19.8219 17.4484 18.53 17.6453C18.4622 17.7344 18.409 18.1047 18.3219 18.3906C18.2687 18.5641 18.1429 18.6672 17.93 18.6672H17.9203C17.6203 18.6672 17.3009 18.5312 16.6719 18.5312C15.8203 18.5312 15.5251 18.7188 14.8622 19.1734C14.1606 19.6563 13.488 20.0687 12.4816 20.0266C11.4654 20.1016 10.6138 19.5016 10.1348 19.1734C9.46706 18.7188 9.17674 18.5312 8.32513 18.5312C7.72029 18.5312 7.33803 18.6766 7.07674 18.6766C6.81545 18.6766 6.71384 18.5219 6.67513 18.3953C6.58803 18.1094 6.5348 17.7344 6.46706 17.6453C5.79932 17.5469 4.29932 17.2938 4.26545 16.6422C4.25577 16.4734 4.37674 16.3234 4.55093 16.2953C6.79125 15.9391 7.79771 13.7125 7.84125 13.6188C7.84125 13.6141 7.84609 13.6094 7.85093 13.6047C7.9719 13.3703 7.99609 13.1734 7.92835 13.0187C7.76384 12.6484 7.06222 12.5172 6.76706 12.4C6.00255 12.1094 5.89609 11.7719 5.94448 11.5422C6.0219 11.1437 6.64125 10.8953 7.00416 11.0594C7.28964 11.1906 7.54609 11.2563 7.76384 11.2563C7.92351 11.2563 8.02996 11.2187 8.08319 11.1906C8.01545 10.0703 7.85577 8.47188 8.26706 7.57656C9.35577 5.21875 11.659 5.03125 12.3364 5.03125C12.3654 5.03125 12.6316 5.02656 12.6606 5.02656C14.3396 5.02656 15.9509 5.86094 16.7396 7.57187C17.1509 8.46719 16.9913 10.0609 16.9235 11.1859C16.9767 11.2141 17.0638 11.2469 17.1993 11.2516C17.4074 11.2422 17.6445 11.1766 17.9106 11.0547C18.1042 10.9656 18.3751 10.9797 18.5687 11.0547C18.8735 11.1625 19.0671 11.3734 19.0719 11.6125C19.0767 11.9172 18.7961 12.1797 18.2396 12.3906C18.1719 12.4188 18.0896 12.4422 18.0025 12.4703C17.688 12.5687 17.209 12.7141 17.0832 13.0094C17.0154 13.1641 17.0445 13.3609 17.1606 13.5953C17.1654 13.6 17.1654 13.6047 17.1703 13.6094C17.2138 13.7031 18.2203 15.9297 20.4606 16.2859C20.6542 16.3328 20.8042 16.5437 20.6977 16.7922Z" fill="#FF6E4E"/>
</g>
<defs>
<clipPath id="clip0_7053_19875">
<rect width="24" height="24" fill="white" transform="translate(0.496094 0.53125)"/>
</clipPath>
</defs>
</svg>
