<svg width="25" height="25" viewBox="0 0 25 25" fill="none" xmlns="http://www.w3.org/2000/svg">
<g clip-path="url(#clip0_7053_19879)">
<path d="M0.496094 0.53125V24.5312H24.4961V0.53125H0.496094ZM6.38183 5.24951C7.33243 5.26021 8.26883 5.91601 8.30957 7.05127C8.32989 8.06077 7.45015 8.82969 6.35693 8.85303H6.33057C5.38943 8.84217 4.47033 8.16991 4.42773 7.05127C4.44115 6.05301 5.28027 5.27319 6.38183 5.24951ZM16.5801 10.0191C17.6252 10.0255 18.6115 10.3356 19.4219 11.1617C20.264 12.1009 20.5344 13.3958 20.5645 14.7124V20.7007H17.1133V15.1196C17.1056 14.0736 16.7473 12.8021 15.3628 12.7598C14.5514 12.7684 13.9792 13.2399 13.5874 14.0283C13.4804 14.2821 13.465 14.5738 13.46 14.8647V20.7007H10.0103C10.0235 17.7831 10.0416 14.8658 10.0352 11.9482C10.0352 11.1195 10.0272 10.5614 10.0103 10.2739H13.46V11.7446C13.7528 11.3282 14.0775 10.9332 14.5132 10.6152C15.1041 10.1935 15.8139 10.0319 16.5801 10.0191ZM4.63135 10.2739H8.08105V20.7007H4.63135V10.2739Z" fill="#FF6E4E"/>
</g>
<defs>
<clipPath id="clip0_7053_19879">
<rect width="24" height="24" fill="white" transform="translate(0.496094 0.53125)"/>
</clipPath>
</defs>
</svg>
