<svg width="25" height="25" viewBox="0 0 25 25" fill="none" xmlns="http://www.w3.org/2000/svg">
<g clip-path="url(#clip0_7053_19873)">
<path d="M7.45609 0.53125H17.5361C21.3761 0.53125 24.4961 3.65125 24.4961 7.49125V17.5713C24.4961 19.4172 23.7628 21.1875 22.4576 22.4927C21.1523 23.798 19.382 24.5313 17.5361 24.5313H7.45609C3.61609 24.5313 0.496094 21.4113 0.496094 17.5713V7.49125C0.496094 5.64534 1.22938 3.87504 2.53463 2.56979C3.83988 1.26453 5.61019 0.53125 7.45609 0.53125ZM7.21609 2.93125C6.07036 2.93125 4.97155 3.38639 4.16139 4.19655C3.35124 5.00671 2.89609 6.10551 2.89609 7.25125V17.8113C2.89609 20.1993 4.82809 22.1313 7.21609 22.1313H17.7761C18.9218 22.1313 20.0206 21.6761 20.8308 20.866C21.641 20.0558 22.0961 18.957 22.0961 17.8113V7.25125C22.0961 4.86325 20.1641 2.93125 17.7761 2.93125H7.21609ZM18.7961 4.73125C19.1939 4.73125 19.5755 4.88929 19.8568 5.17059C20.1381 5.45189 20.2961 5.83343 20.2961 6.23125C20.2961 6.62907 20.1381 7.01061 19.8568 7.29191C19.5755 7.57322 19.1939 7.73125 18.7961 7.73125C18.3983 7.73125 18.0167 7.57322 17.7354 7.29191C17.4541 7.01061 17.2961 6.62907 17.2961 6.23125C17.2961 5.83343 17.4541 5.45189 17.7354 5.17059C18.0167 4.88929 18.3983 4.73125 18.7961 4.73125ZM12.4961 6.53125C14.0874 6.53125 15.6135 7.16339 16.7387 8.28861C17.864 9.41383 18.4961 10.94 18.4961 12.5313C18.4961 14.1225 17.864 15.6487 16.7387 16.7739C15.6135 17.8991 14.0874 18.5313 12.4961 18.5313C10.9048 18.5313 9.37867 17.8991 8.25345 16.7739C7.12824 15.6487 6.49609 14.1225 6.49609 12.5313C6.49609 10.94 7.12824 9.41383 8.25345 8.28861C9.37867 7.16339 10.9048 6.53125 12.4961 6.53125ZM12.4961 8.93125C11.5413 8.93125 10.6256 9.31053 9.95051 9.98567C9.27538 10.6608 8.89609 11.5765 8.89609 12.5313C8.89609 13.486 9.27538 14.4017 9.95051 15.0768C10.6256 15.752 11.5413 16.1313 12.4961 16.1313C13.4509 16.1313 14.3665 15.752 15.0417 15.0768C15.7168 14.4017 16.0961 13.486 16.0961 12.5313C16.0961 11.5765 15.7168 10.6608 15.0417 9.98567C14.3665 9.31053 13.4509 8.93125 12.4961 8.93125Z" fill="#FF6E4E"/>
</g>
<defs>
<clipPath id="clip0_7053_19873">
<rect width="24" height="24" fill="white" transform="translate(0.496094 0.53125)"/>
</clipPath>
</defs>
</svg>
