<svg width="33" height="33" viewBox="0 0 33 33" fill="none" xmlns="http://www.w3.org/2000/svg">
<path d="M13.2887 0.00334531C13.7789 0.0869921 14.2766 0.140526 14.7584 0.254286C19.7555 1.46716 23.0394 4.54788 24.2799 9.53908C26.065 16.7076 21.0696 23.1166 14.5911 24.4132C12.3412 24.8752 10.0054 24.6718 7.86926 23.8276C7.78822 23.7899 7.69818 23.7756 7.60944 23.7866C7.52069 23.7975 7.43681 23.8332 7.36738 23.8895C5.21682 25.3174 2.98512 25.4546 0.68567 24.2701C0.136947 23.9874 -0.0437302 23.4052 0.267436 22.8908C1.40922 20.9828 1.59659 18.9853 0.92992 16.8682C0.613712 15.8861 0.358109 14.8855 0.164552 13.872C-0.188438 11.9481 0.0382452 10.0485 0.731677 8.2367C2.42385 3.81513 5.60578 1.12003 10.2515 0.184023C10.6171 0.110414 10.9868 0.0610622 11.354 0L13.2887 0.00334531ZM2.48659 22.9435C3.82494 23.4069 5.49787 23.048 6.63547 22.0167C7.05956 21.6311 7.47779 21.5633 8.0031 21.8C10.6982 23.0163 13.4334 23.0648 16.1637 21.9531C20.6363 20.1321 23.4134 15.5307 22.5719 10.5537C21.6216 4.93851 16.0825 1.00711 10.4631 2.09452C6.86634 2.78878 4.30005 4.87661 2.78521 8.21496C2.0374 9.86196 1.73962 11.6135 2.02653 13.4111C2.1796 14.373 2.46066 15.3199 2.74087 16.2551C3.2026 17.7992 3.42678 19.3559 3.07044 20.9477C2.92155 21.616 2.68818 22.2643 2.48659 22.9435Z" fill="#FF6E4E"/>
<path d="M27.6898 32.1244C27.377 32.0558 27.06 32.0006 26.7513 31.917C26.0131 31.7257 25.3179 31.3959 24.7028 30.945C24.6422 30.8918 24.5674 30.8572 24.4876 30.8454C24.4077 30.8337 24.3262 30.8453 24.2528 30.8789C19.7487 32.49 15.6126 31.8177 11.8446 28.8622C11.4046 28.5176 11.28 28.1445 11.4197 27.7154C11.628 27.0738 12.4025 26.8497 12.9471 27.2972C13.6941 27.9086 14.4828 28.4515 15.3662 28.8396C18.2561 30.1077 21.1587 30.1562 24.0579 28.8789C24.5899 28.6447 25.0115 28.6958 25.4565 29.0881C26.6183 30.1169 27.9742 30.4055 29.4799 30.0575C29.532 30.0425 29.5831 30.0244 29.633 30.0032C29.4749 29.5506 29.2984 29.1182 29.1712 28.6723C28.6509 26.8672 28.7438 25.0847 29.3929 23.3256C30.7965 19.518 30.313 15.9898 27.8212 12.7644C27.3352 12.1354 27.5292 11.3591 28.2394 11.1525C28.6442 11.0346 28.9864 11.1634 29.2432 11.4796C30.6088 13.1271 31.5172 15.1049 31.8772 17.2144C31.9491 17.6243 32.0052 18.0366 32.0679 18.4482V20.3302C32.0441 20.3983 32.0262 20.4682 32.0144 20.5393C31.9132 21.7748 31.566 22.9442 31.1587 24.1102C30.9342 24.7701 30.8038 25.4583 30.7714 26.1546C30.7053 27.4862 31.0943 28.7242 31.7751 29.871C32.1357 30.4799 31.9809 31.0504 31.3569 31.3607C30.946 31.5589 30.5227 31.7302 30.0897 31.8735C29.7551 31.9864 29.4088 32.0408 29.0675 32.1244H27.6898Z" fill="#FF6E4E"/>
<path d="M12.312 13.8891C11.9114 13.8842 11.5289 13.7214 11.2477 13.436C10.9665 13.1506 10.8094 12.7657 10.8106 12.365C10.8161 11.9635 10.9795 11.5803 11.2656 11.2985C11.5516 11.0167 11.9372 10.8589 12.3388 10.8594C12.7398 10.8664 13.1221 11.0303 13.4036 11.3161C13.6851 11.6018 13.8434 11.9865 13.8444 12.3876C13.8389 12.7895 13.6747 13.1729 13.3876 13.4541C13.1006 13.7354 12.7139 13.8918 12.312 13.8891Z" fill="#FF6E4E"/>
<path d="M17.8756 13.8888C17.4749 13.8879 17.0909 13.7284 16.8075 13.4452C16.5241 13.1619 16.3644 12.778 16.3633 12.3773C16.3663 11.9767 16.5268 11.5934 16.8101 11.3101C17.0934 11.0268 17.4767 10.8663 17.8773 10.8633C18.2776 10.8657 18.6607 11.0265 18.9428 11.3105C19.2249 11.5945 19.3832 11.9786 19.3829 12.379C19.3835 12.5772 19.3449 12.7736 19.2694 12.9568C19.1938 13.1401 19.0829 13.3066 18.9428 13.4469C18.8028 13.5872 18.6364 13.6984 18.4533 13.7743C18.2701 13.8501 18.0738 13.889 17.8756 13.8888Z" fill="#FF6E4E"/>
<path d="M5.272 12.3598C5.2732 12.1615 5.31359 11.9653 5.39084 11.7826C5.46809 11.5999 5.58068 11.4342 5.72215 11.2952C5.86362 11.1561 6.03117 11.0464 6.21518 10.9723C6.39918 10.8982 6.59602 10.8612 6.79437 10.8634C7.19468 10.8704 7.57584 11.036 7.8542 11.3238C8.13256 11.6115 8.28537 11.998 8.27911 12.3983C8.2787 12.5967 8.23878 12.793 8.16168 12.9758C8.08458 13.1586 7.97184 13.3242 7.83005 13.463C7.68826 13.6017 7.52024 13.7109 7.33582 13.784C7.15139 13.8571 6.95425 13.8928 6.7559 13.8889C6.5574 13.8882 6.36105 13.8478 6.17837 13.7701C5.9957 13.6925 5.83039 13.5791 5.69215 13.4366C5.55391 13.2942 5.44553 13.1256 5.37338 12.9406C5.30123 12.7557 5.26676 12.5582 5.272 12.3598Z" fill="#FF6E4E"/>
</svg>
