<svg width="76" height="76" viewBox="0 0 76 76" fill="none" xmlns="http://www.w3.org/2000/svg">
<g clip-path="url(#clip0_2002_3644)">
<path d="M75.9965 11.3506C75.9965 7.91208 75.9965 4.47477 75.9965 1.03869C75.9965 0.848621 75.9965 0.666005 75.961 0.416311C75.961 0.297055 75.9413 0.166623 75.9334 0.0138254L75.9058 -0.388672H75.4758C65.3213 -0.161339 56.6699 3.53935 49.7543 10.609L49.4624 10.3444C49.0679 9.97175 48.6931 9.64379 48.2789 9.34193C45.5174 7.26239 42.2983 4.84745 39.0594 2.48467C38.6649 2.20517 37.7694 1.98528 37.2921 2.29461C35.1973 3.6586 32.8224 5.20521 30.6368 6.8599C29.5007 7.71333 28.4749 8.65247 27.3901 9.64379L26.2539 10.6724C23.1732 7.25583 19.3366 4.5194 15.0146 2.6561C10.0517 0.576566 5.30196 -0.407301 0.512716 -0.325312H0.094546L0.0748138 0.0697247C0.0748138 0.222522 0.0550979 0.356684 0.0472078 0.475941C0.0472078 0.714454 0.0195899 0.904524 0.0195899 1.09832C0.0195899 4.44495 0.0195899 7.79159 0.0195899 11.1382C0.0195899 19.1471 -0.00408115 27.4317 0.043259 35.5784C0.0945441 44.7239 3.06119 52.96 8.85641 60.0595C15.5629 68.2994 24.5181 73.4423 35.4221 75.3393C36.2744 75.503 37.1405 75.594 38.01 75.6113C38.3638 75.612 38.7172 75.5883 39.0673 75.5405C51.6085 73.7628 61.5815 67.8596 68.7022 57.9986C73.3559 51.6435 75.8732 44.1107 75.9255 36.3834C75.9965 28.0428 75.9965 19.557 75.9965 11.3506ZM5.71224 15.0774C5.71224 12.0587 5.71882 9.03758 5.73197 6.01392C5.73197 5.86858 5.73196 5.71578 5.77141 5.52572L5.97656 5.56298C6.44601 5.64869 6.8918 5.72696 7.32181 5.8313C13.0144 7.21355 18.1441 10.1619 22.0604 14.3023C22.6482 14.9097 22.6718 15.1855 22.2142 15.8749C18.2329 21.7247 16.7904 28.7985 18.1864 35.6268C19.3609 41.4811 22.3135 46.886 26.6839 51.1823C28.7599 53.2293 31.4107 54.6747 34.3254 55.3489L34.8067 55.4607L34.8738 54.9948C34.8935 54.8718 34.9132 54.76 34.929 54.652C34.9754 54.4385 35.0005 54.2214 35.0039 54.0035C35.0039 52.0159 35.0039 50.0283 35.0039 48.0407C35.0039 42.663 35.0039 37.1063 34.9605 31.6429C34.8838 26.0574 33.2276 20.5928 30.1634 15.8153C29.7926 15.2265 29.8044 15.0103 30.2265 14.6488C32.1241 13.0277 34.0453 11.3618 35.8995 9.75187L37.7536 8.14191C40.7611 10.0792 43.5051 12.3584 45.9237 14.9283C45.9928 15.1064 45.9928 15.3019 45.9237 15.4799C42.3732 21.0477 40.74 27.4056 40.9017 34.8852C40.9925 39.1971 40.9727 43.5835 40.9491 47.8283C40.9491 49.7326 40.9491 51.637 40.9491 53.5414V55.5054L41.4974 55.3861C44.2472 54.776 46.7715 53.4755 48.8036 51.6221C53.0642 47.8357 56.2794 42.3275 57.6286 36.5101C59.294 29.5876 58.0057 22.3239 54.0425 16.2923C53.3916 15.2898 53.3364 14.8948 54.1964 14.0302C58.7647 9.45745 64.0037 6.66984 70.2092 5.51454V5.54435C70.2092 5.82013 70.2526 6.10709 70.2526 6.3866V12.7556C70.2526 20.3583 70.2526 27.9584 70.2526 35.556C70.267 43.8283 67.1722 51.8368 61.5196 58.1548C55.867 64.4728 48.0236 68.6898 39.3869 70.0547C37.9792 70.224 36.5504 70.1443 35.1736 69.8199C18.3244 66.4658 5.94105 52.2594 5.72802 36.0479C5.64912 29.0453 5.67278 21.9347 5.69645 15.0625L5.71224 15.0774ZM47.7779 25.0167C48.1672 23.7337 48.6456 22.4763 49.2099 21.2527C49.3756 20.88 49.5452 20.4775 49.7149 20.075C54.37 27.1782 52.8393 40.5499 46.8074 45.7897C46.8074 44.2692 46.7364 42.7375 46.6851 41.2468C46.4958 35.8951 46.3024 30.3497 47.7779 25.0167ZM26.1789 20.116C27.7465 22.7689 28.7137 25.7004 29.0194 28.7248C29.2482 31.4118 29.2718 34.1659 29.2955 36.8268C29.2955 37.6914 29.2955 38.5561 29.3271 39.4356C29.3626 41.6716 29.3271 43.7325 29.2324 45.6705C26.4527 42.4565 24.5774 38.6313 23.7804 34.5498C22.7626 29.4888 23.5476 24.7782 26.1789 20.1086V20.116Z" fill="white"/>
</g>
<defs>
<clipPath id="clip0_2002_3644">
<rect width="76" height="76" fill="white"/>
</clipPath>
</defs>
</svg>
