<svg width="24" height="25" viewBox="0 0 24 25" fill="none" xmlns="http://www.w3.org/2000/svg">
<path d="M1.125 24.5977H11.625C11.7245 24.5977 11.8198 24.5581 11.8902 24.4878C11.9605 24.4175 12 24.3221 12 24.2227C12 24.1232 11.9605 24.0278 11.8902 23.9575C11.8198 23.8872 11.7245 23.8477 11.625 23.8477H1.125C1.02554 23.8477 0.930161 23.8081 0.859835 23.7378C0.789509 23.6675 0.75 23.5721 0.75 23.4727V1.72266C0.75 1.6232 0.789509 1.52782 0.859835 1.45749C0.930161 1.38717 1.02554 1.34766 1.125 1.34766H16.875C16.9745 1.34766 17.0698 1.38717 17.1402 1.45749C17.2105 1.52782 17.25 1.6232 17.25 1.72266V5.47266C17.25 5.57211 17.2895 5.6675 17.3598 5.73782C17.4302 5.80815 17.5255 5.84766 17.625 5.84766C17.7245 5.84766 17.8198 5.80815 17.8902 5.73782C17.9605 5.6675 18 5.57211 18 5.47266V1.72266C18 1.10241 17.4953 0.597656 16.875 0.597656H1.125C0.50475 0.597656 0 1.10241 0 1.72266V23.4727C0 24.0929 0.50475 24.5977 1.125 24.5977Z" fill="url(#paint0_linear_333_1603)"/>
<path d="M13.5 8.47266V23.4727C13.5 24.0929 14.0048 24.5977 14.625 24.5977H22.875C23.4952 24.5977 24 24.0929 24 23.4727V8.47266C24 7.85241 23.4952 7.34766 22.875 7.34766H14.625C14.0048 7.34766 13.5 7.85241 13.5 8.47266ZM23.25 8.47266V23.4727C23.25 23.5721 23.2105 23.6675 23.1402 23.7378C23.0698 23.8081 22.9745 23.8477 22.875 23.8477H14.625C14.5255 23.8477 14.4302 23.8081 14.3598 23.7378C14.2895 23.6675 14.25 23.5721 14.25 23.4727V8.47266C14.25 8.3732 14.2895 8.27782 14.3598 8.20749C14.4302 8.13716 14.5255 8.09766 14.625 8.09766H22.875C22.9745 8.09766 23.0698 8.13716 23.1402 8.20749C23.2105 8.27782 23.25 8.3732 23.25 8.47266Z" fill="url(#paint1_linear_333_1603)"/>
<path d="M9 22.3477C9.41421 22.3477 9.75 22.0119 9.75 21.5977C9.75 21.1834 9.41421 20.8477 9 20.8477C8.58579 20.8477 8.25 21.1834 8.25 21.5977C8.25 22.0119 8.58579 22.3477 9 22.3477Z" fill="url(#paint2_linear_333_1603)"/>
<path d="M18.75 22.3477C19.1642 22.3477 19.5 22.0119 19.5 21.5977C19.5 21.1834 19.1642 20.8477 18.75 20.8477C18.3358 20.8477 18 21.1834 18 21.5977C18 22.0119 18.3358 22.3477 18.75 22.3477Z" fill="url(#paint3_linear_333_1603)"/>
<defs>
<linearGradient id="paint0_linear_333_1603" x1="9" y1="0.597656" x2="9" y2="24.5977" gradientUnits="userSpaceOnUse">
<stop stop-color="#2C82E1"/>
<stop offset="1" stop-color="#7B60E2"/>
</linearGradient>
<linearGradient id="paint1_linear_333_1603" x1="18.75" y1="7.34766" x2="18.75" y2="24.5977" gradientUnits="userSpaceOnUse">
<stop stop-color="#2C82E1"/>
<stop offset="1" stop-color="#7B60E2"/>
</linearGradient>
<linearGradient id="paint2_linear_333_1603" x1="9" y1="20.8477" x2="9" y2="22.3477" gradientUnits="userSpaceOnUse">
<stop stop-color="#2C82E1"/>
<stop offset="1" stop-color="#7B60E2"/>
</linearGradient>
<linearGradient id="paint3_linear_333_1603" x1="18.75" y1="20.8477" x2="18.75" y2="22.3477" gradientUnits="userSpaceOnUse">
<stop stop-color="#2C82E1"/>
<stop offset="1" stop-color="#7B60E2"/>
</linearGradient>
</defs>
</svg>
