<svg width="25" height="25" viewBox="0 0 25 25" fill="none" xmlns="http://www.w3.org/2000/svg">
<g clip-path="url(#clip0_6684_20949)">
<path d="M14.9219 0.53125H4.82188C4.1522 0.53125 3.50996 0.784106 3.03643 1.23419C2.5629 1.68428 2.29688 2.29473 2.29688 2.93125V22.1313C2.29688 23.4633 3.4205 24.5313 4.82188 24.5313H19.9719C21.3733 24.5313 22.4969 23.4633 22.4969 22.1313V7.73125L14.9219 0.53125ZM19.9719 22.1313H4.82188V2.93125H13.6594V8.93125H19.9719V22.1313ZM19.1513 10.1313L16.5 20.9313H14.7325L12.46 12.7833L10.1875 20.9313H8.42L5.6425 10.1313H7.53625L9.30375 18.3033L11.5763 10.1313H13.2175L15.49 18.3033L17.2575 10.1313H19.1513Z" fill="#FF6E4E"/>
</g>
<defs>
<clipPath id="clip0_6684_20949">
<rect width="24" height="24" fill="white" transform="translate(0.496094 0.53125)"/>
</clipPath>
</defs>
</svg>
