<svg width="25" height="25" viewBox="0 0 25 25" fill="none" xmlns="http://www.w3.org/2000/svg">
<g clip-path="url(#clip0_6684_20946)">
<path d="M12.4961 0.53125C19.1238 0.53125 24.4961 5.88783 24.4961 12.4962C24.4961 18.9015 19.4482 24.1316 13.1021 24.4463H11.8901C5.54444 24.1316 0.496094 18.9016 0.496094 12.4962C0.496094 5.88783 5.86891 0.53125 12.4961 0.53125Z" fill="#FF6E4E"/>
<path d="M12.0149 5.48111C14.7096 5.30116 17.1059 6.62928 18.4395 8.70496C18.6505 9.06711 18.5481 9.52749 18.1976 9.76983C17.8282 10.0253 17.3422 9.91271 17.0644 9.52282C16.1009 8.1707 14.4191 7.05223 12.5017 7.05223C8.82285 7.05223 5.99985 10.7323 7.48251 14.5865C8.13567 16.2846 9.68376 17.5002 11.4859 17.7824C13.6996 18.1286 15.7244 17.3437 16.8905 15.6379L16.1618 15.7399H14.9043C14.5051 15.7399 14.1358 15.4714 14.0647 15.0798C13.9714 14.5658 14.3653 14.1179 14.864 14.1179H19.2791V18.7354C19.2791 18.8546 19.2528 18.9724 19.2019 19.0803C19.1511 19.1883 19.0769 19.2837 18.9848 19.3598C18.8927 19.436 18.7849 19.491 18.669 19.5209C18.5531 19.5507 18.432 19.5548 18.3144 19.5328C17.9216 19.462 17.6528 19.0933 17.6528 18.6957V17.9247L17.8056 17.0717C16.5144 18.5589 14.6188 19.4782 12.5017 19.4782C8.47129 19.4782 5.23054 16.1524 5.4651 12.0791C5.66676 8.57851 8.50635 5.71588 12.0149 5.48111Z" fill="white"/>
</g>
<defs>
<clipPath id="clip0_6684_20946">
<rect width="24" height="24" fill="white" transform="translate(0.496094 0.53125)"/>
</clipPath>
</defs>
</svg>
