<svg width="53" height="52" viewBox="0 0 53 52" fill="none" xmlns="http://www.w3.org/2000/svg">
<path d="M9.14947 37.0194C6.89966 37.0206 5.07153 35.1901 5.07113 32.9407L5.07031 20.4529C5.0695 18.2056 6.89722 16.3754 9.14419 16.375C10.2366 16.3742 11.2595 16.7979 12.0306 17.5682C12.8017 18.3384 13.2258 19.363 13.2266 20.4521L13.2254 32.9403C13.2283 33.4756 13.1245 34.0062 12.92 34.5011C12.7156 34.9959 12.4146 35.445 12.0347 35.8222C11.6571 36.203 11.2076 36.5049 10.7123 36.7105C10.2169 36.916 9.68572 37.021 9.14947 37.0194ZM9.14622 17.4707C7.49969 17.4698 6.16516 18.8076 6.16475 20.4529L6.16678 32.9394C6.16667 33.7307 6.48075 34.4896 7.03998 35.0494C7.59921 35.6091 8.35782 35.9239 9.14906 35.9246C9.54085 35.9245 9.92879 35.8473 10.2907 35.6972C10.6526 35.5471 10.9814 35.3272 11.2583 35.0501C11.5352 34.7729 11.7547 34.4438 11.9044 34.0817C12.0541 33.7197 12.1309 33.3316 12.1305 32.9399V20.4513C12.1297 19.6604 11.8149 18.9022 11.2553 18.3433C10.6957 17.7844 9.93711 17.4706 9.14622 17.4707Z" fill="#0A141F"/>
<path d="M41.1323 18.0912L40.0363 18.0908L13.1754 18.0944L12.0789 18.0948L12.0781 16.9984C12.0757 12.4971 14.5278 8.31073 18.5444 5.83748L16.9828 2.98682C16.7918 2.65289 16.7439 2.22998 16.8552 1.84323C16.9116 1.65032 17.0058 1.47055 17.1323 1.31439C17.2588 1.15824 17.4151 1.0288 17.5922 0.933637C17.8109 0.813071 18.057 0.750553 18.3068 0.752043C18.8601 0.752043 19.3667 1.05226 19.634 1.53732L21.2683 4.51473C22.9729 3.89053 24.7746 3.57349 26.5898 3.57832C28.461 3.57751 30.2554 3.89398 31.9539 4.51717L33.5858 1.53489C33.7158 1.29693 33.9075 1.09842 34.1408 0.960292C34.3741 0.82216 34.6403 0.749515 34.9114 0.750012C35.161 0.74902 35.4068 0.810172 35.6268 0.927949C35.8042 1.02301 35.9607 1.15271 36.087 1.30938C36.2133 1.46604 36.3069 1.64648 36.3621 1.83998C36.4177 2.03077 36.4349 2.23069 36.4128 2.42817C36.3906 2.62565 36.3295 2.81677 36.2329 2.99048L34.6721 5.83951C38.6822 8.31804 41.1315 12.5012 41.1311 16.9947L41.1323 18.0912ZM33.1918 6.25957L35.273 2.45911C35.3027 2.41136 35.3224 2.35806 35.3308 2.30246C35.3392 2.24686 35.3363 2.19013 35.3221 2.13572C35.3078 2.08131 35.2827 2.03036 35.2481 1.98599C35.2136 1.94163 35.1704 1.90476 35.1211 1.87765C35.0718 1.85054 35.0175 1.83376 34.9616 1.82832C34.9056 1.82288 34.8491 1.82891 34.7955 1.84602C34.742 1.86314 34.6924 1.89099 34.65 1.92788C34.6075 1.96477 34.5731 2.00992 34.5486 2.06057L32.4459 5.89963C30.6771 5.11395 28.6966 4.67235 26.6032 4.67439C24.5143 4.67235 22.5374 5.11232 20.7739 5.89517L18.6691 2.06464C18.6434 2.0168 18.6084 1.97455 18.5662 1.94034C18.5241 1.90612 18.4755 1.88063 18.4234 1.86532C18.3713 1.85002 18.3167 1.84521 18.2627 1.85118C18.2087 1.85715 18.1564 1.87378 18.1089 1.90011C17.907 2.00817 17.8327 2.26207 17.9452 2.46032L20.0272 6.25795C15.9363 8.36801 13.1722 12.3858 13.1746 16.9988L40.035 16.9955C40.0363 12.3842 37.277 8.37451 33.1918 6.25957ZM20.494 12.1327C20.1953 12.1326 19.9089 12.0137 19.6977 11.8024C19.4866 11.5911 19.3681 11.3045 19.3683 11.0058C19.3684 10.7071 19.4873 10.4206 19.6986 10.2095C19.91 9.99842 20.1965 9.87991 20.4952 9.88007C20.794 9.88061 21.0803 9.9995 21.2916 10.2107C21.5029 10.4219 21.6219 10.7083 21.6226 11.007C21.6221 11.3059 21.503 11.5924 21.2914 11.8035C21.0797 12.0146 20.7929 12.1331 20.494 12.1327ZM32.725 12.1303C32.577 12.1306 32.4305 12.1016 32.2938 12.0452C32.1571 11.9887 32.0329 11.9058 31.9282 11.8012C31.8236 11.6966 31.7407 11.5724 31.6841 11.4357C31.6276 11.299 31.5986 11.1525 31.5989 11.0046C31.6001 10.706 31.7192 10.42 31.9301 10.2087C32.141 9.99737 32.4268 9.87783 32.7254 9.87601C33.0236 9.87846 33.3088 9.99835 33.5192 10.2097C33.7297 10.421 33.8483 10.7068 33.8495 11.005C33.8495 11.3033 33.731 11.5894 33.5202 11.8004C33.3093 12.0114 33.0233 12.1301 32.725 12.1303ZM21.6197 51.2542C19.3719 51.2538 17.5426 49.4257 17.5422 47.1762L17.5414 41.6647L16.4697 41.6659C15.9076 41.6679 15.3506 41.5582 14.8312 41.3433C14.3118 41.1284 13.8403 40.8124 13.4439 40.4138C13.0449 40.0175 12.7286 39.5457 12.5136 39.0259C12.2986 38.5062 12.1891 37.9489 12.1915 37.3864L12.1874 18.038V16.9407H13.2839L39.9432 16.9366L41.0401 16.9358V18.0323L41.0429 37.3832C41.0434 39.7431 39.1234 41.6634 36.7643 41.663L35.6861 41.6638L35.6874 47.1734C35.6874 49.4216 33.8584 51.2517 31.6114 51.2517C31.0757 51.2543 30.5447 51.1501 30.0496 50.9453C29.5545 50.7404 29.1052 50.439 28.7279 50.0586C28.3472 49.6814 28.0453 49.2323 27.8398 48.7374C27.6342 48.2425 27.5292 47.7117 27.5307 47.1758V41.6638H25.6981V47.1746C25.6973 49.4232 23.8687 51.2546 21.6197 51.2542Z" fill="#0A141F"/>
<path d="M13.29 37.3844C13.2891 37.8025 13.3708 38.2167 13.5303 38.6033C13.6898 38.9898 13.9241 39.341 14.2196 39.6368C14.5152 39.9326 14.8663 40.1671 15.2527 40.327C15.6391 40.4868 16.0532 40.5687 16.4714 40.5682H18.6379L18.6403 47.1754C18.6399 48.8207 19.9765 50.1577 21.6202 50.1581C22.012 50.158 22.3999 50.0807 22.7618 49.9306C23.1237 49.7805 23.4525 49.5605 23.7293 49.2833C24.0062 49.0061 24.2257 48.677 24.3753 48.3149C24.5249 47.9528 24.6017 47.5648 24.6012 47.173L24.6017 40.5677L28.6272 40.5665L28.6268 47.1734C28.6284 48.8191 29.9666 50.1577 31.6099 50.1544C33.2576 50.1557 34.5934 48.8171 34.593 47.1709L34.5909 40.5657L36.7656 40.5653C38.5202 40.5657 39.9473 39.1402 39.9473 37.3815L39.9437 18.0298L13.2852 18.0347L13.29 37.3844ZM44.0801 37.0147C41.8311 37.0151 40.0018 35.1874 40.0022 32.9376L39.9989 20.4502C39.9997 18.2008 41.8262 16.3711 44.074 16.3711C46.3247 16.3707 48.1552 18.2 48.1548 20.449L48.156 32.9355C48.1564 35.1837 46.3287 37.0151 44.0801 37.0147ZM44.0761 17.4676C42.4295 17.4659 41.0954 18.8029 41.0954 20.4502L41.0966 32.9372C41.0964 33.3289 41.1734 33.7168 41.3232 34.0787C41.4731 34.4406 41.6928 34.7695 41.9698 35.0464C42.2468 35.3234 42.5757 35.543 42.9377 35.6927C43.2997 35.8424 43.6876 35.9193 44.0793 35.919C44.4709 35.9189 44.8587 35.8417 45.2205 35.6917C45.5822 35.5417 45.9109 35.322 46.1877 35.0449C46.4645 34.7679 46.6841 34.4391 46.8338 34.0772C46.9835 33.7154 47.0605 33.3276 47.0604 32.9359L47.0571 20.4494C47.0574 20.0578 46.9805 19.67 46.8308 19.3082C46.6811 18.9463 46.4615 18.6176 46.1846 18.3406C45.9078 18.0637 45.579 17.844 45.2172 17.6942C44.8554 17.5444 44.4676 17.4674 44.0761 17.4676Z" fill="#0A141F"/>
<path d="M9.14553 17.4717C7.499 17.4709 6.16447 18.8087 6.16406 20.454L6.16609 32.9405C6.16593 33.3322 6.24297 33.7202 6.3928 34.0821C6.54264 34.4441 6.76233 34.773 7.03932 35.05C7.31632 35.3271 7.64518 35.5468 8.00714 35.6967C8.36909 35.8466 8.75702 35.9237 9.14878 35.9236C9.54052 35.924 9.92849 35.8471 10.2905 35.6974C10.6524 35.5476 10.9813 35.3279 11.2582 35.0508C11.5352 34.7737 11.7547 34.4447 11.9043 34.0827C12.0538 33.7206 12.1305 33.3326 12.1298 32.9409V20.4523C12.129 19.6615 11.8142 18.9033 11.2546 18.3444C10.695 17.7855 9.93642 17.4716 9.14553 17.4717ZM33.1923 6.25837L35.2735 2.4579C35.3265 2.36149 35.3391 2.248 35.3086 2.14229C35.2781 2.03659 35.2069 1.94731 35.1106 1.89403C35.0142 1.84164 34.9009 1.82963 34.7957 1.86063C34.6904 1.89163 34.6018 1.9631 34.5492 2.05937L32.4468 5.89965C30.678 5.11234 28.6983 4.67115 26.6037 4.67319C24.5148 4.67115 22.5359 5.11112 20.7744 5.89397L18.6697 2.06344C18.644 2.01562 18.609 1.97338 18.5669 1.93916C18.5248 1.90494 18.4763 1.87942 18.4242 1.86408C18.3721 1.84874 18.3175 1.84388 18.2636 1.84979C18.2096 1.8557 18.1574 1.87225 18.1098 1.8985C18.0619 1.92414 18.0195 1.95909 17.9852 2.0013C17.9509 2.04352 17.9254 2.09215 17.9101 2.14435C17.8948 2.19655 17.8901 2.25128 17.8962 2.30533C17.9023 2.35938 17.9191 2.41166 17.9457 2.45912L20.0277 6.25715C15.9368 8.36681 13.1727 12.3846 13.1751 16.9976L40.0356 16.9943C40.0368 12.383 37.2775 8.37331 33.1923 6.25837ZM20.4945 12.1315C20.1958 12.1314 19.9094 12.0125 19.6983 11.8012C19.4872 11.5899 19.3686 11.3033 19.3688 11.0046C19.369 10.7059 19.4878 10.4194 19.6991 10.2083C19.9105 9.99722 20.197 9.87871 20.4957 9.87887C20.7945 9.87941 21.0809 9.9983 21.2922 10.2095C21.5035 10.4207 21.6224 10.7071 21.6231 11.0058C21.6227 11.3047 21.5035 11.5912 21.2919 11.8023C21.0803 12.0134 20.7935 12.1319 20.4945 12.1315ZM32.7255 12.1291C32.5776 12.1292 32.4312 12.1002 32.2945 12.0436C32.1579 11.9871 32.0337 11.9042 31.9291 11.7996C31.8245 11.6951 31.7416 11.571 31.685 11.4343C31.6284 11.2977 31.5993 11.1513 31.5994 11.0034C31.601 10.7049 31.7201 10.4191 31.931 10.2078C32.1418 9.99659 32.4274 9.87694 32.7259 9.87481C33.0241 9.87727 33.3093 9.99715 33.5198 10.2085C33.7302 10.4198 33.8488 10.7056 33.85 11.0038C33.8502 11.1515 33.8212 11.2979 33.7647 11.4344C33.7083 11.571 33.6255 11.695 33.521 11.7996C33.4166 11.9041 33.2926 11.987 33.1561 12.0435C33.0196 12.1001 32.8733 12.1291 32.7255 12.1291ZM13.2848 18.0352L13.2893 37.3869C13.2887 37.8048 13.3706 38.2188 13.5303 38.6051C13.69 38.9914 13.9243 39.3423 14.2199 39.6379C14.5155 39.9334 14.8665 40.1677 15.2528 40.3274C15.6391 40.487 16.0531 40.5689 16.471 40.5682L18.6376 40.569L18.64 47.1763C18.6396 48.8216 19.977 50.159 21.6198 50.159C23.2676 50.159 24.6025 48.8204 24.6029 47.1742L24.6013 40.5686L28.6268 40.5674L28.6285 47.1742C28.6285 48.8183 29.9663 50.1586 31.6095 50.1553C33.2573 50.1565 34.593 48.8179 34.5926 47.1718L34.5906 40.5666L36.7648 40.565C37.1828 40.565 37.5967 40.4827 37.9829 40.3228C38.3691 40.1629 38.7201 39.9285 39.0157 39.633C39.3113 39.3374 39.5458 38.9866 39.7058 38.6004C39.8658 38.2143 39.9482 37.8004 39.9482 37.3824L39.9446 18.0307L13.2848 18.0352ZM47.058 20.4495C47.0579 20.0579 46.9808 19.6702 46.8309 19.3084C46.681 18.9467 46.4613 18.618 46.1843 18.3411C45.9074 18.0643 45.5787 17.8447 45.2169 17.6949C44.8551 17.545 44.4673 17.468 44.0757 17.468C42.4292 17.4664 41.0951 18.8034 41.0951 20.4507L41.0975 32.938C41.0972 33.3296 41.1742 33.7174 41.3239 34.0793C41.4736 34.4411 41.6932 34.7699 41.9702 35.0468C42.2471 35.3237 42.5758 35.5433 42.9377 35.6931C43.2995 35.8428 43.6874 35.9198 44.079 35.9195C44.4706 35.9195 44.8585 35.8424 45.2203 35.6925C45.5821 35.5426 45.9109 35.3228 46.1877 35.0458C46.4646 34.7687 46.6841 34.4398 46.8338 34.0779C46.9835 33.7159 47.0604 33.3281 47.06 32.9364L47.058 20.4495Z" fill="#A4C439"/>
</svg>
