<svg width="53" height="52" viewBox="0 0 53 52" fill="none" xmlns="http://www.w3.org/2000/svg">
<path d="M43.7214 32.5V16.25L30.1797 8.63281M22.5964 8.63281L9.05469 16.25V32.5M12.3047 37.5781L26.388 45.5L35.0547 40.625L40.4714 37.5781" stroke="#0A141F" stroke-linecap="round" stroke-linejoin="round"/>
<path d="M23.1367 20.3177L19.8867 22.2135V26.0052V29.7969L23.1367 31.6927L26.3867 33.5885L29.6367 31.6927L32.8867 29.7969V26.0052V22.2135L29.6367 20.3177L26.3867 18.4219L23.1367 20.3177Z" fill="#2F88FF" stroke="#0A141F" stroke-linecap="round" stroke-linejoin="round"/>
<path d="M26.3867 18.4193V10.8359" stroke="#0A141F" stroke-linecap="round" stroke-linejoin="round"/>
<path d="M32.8867 29.25L40.4701 33.5833" stroke="#0A141F" stroke-linecap="round" stroke-linejoin="round"/>
<path d="M19.888 29.25L12.3047 33.5833" stroke="#0A141F" stroke-linecap="round" stroke-linejoin="round"/>
<path d="M26.3867 10.8359C28.1816 10.8359 29.6367 9.38086 29.6367 7.58594C29.6367 5.79101 28.1816 4.33594 26.3867 4.33594C24.5918 4.33594 23.1367 5.79101 23.1367 7.58594C23.1367 9.38086 24.5918 10.8359 26.3867 10.8359Z" fill="#2F88FF" stroke="#0A141F" stroke-linecap="round" stroke-linejoin="round"/>
<path d="M9.05469 39C10.8496 39 12.3047 37.5449 12.3047 35.75C12.3047 33.9551 10.8496 32.5 9.05469 32.5C7.25976 32.5 5.80469 33.9551 5.80469 35.75C5.80469 37.5449 7.25976 39 9.05469 39Z" fill="#2F88FF" stroke="#0A141F" stroke-linecap="round" stroke-linejoin="round"/>
<path d="M43.7227 39C45.5176 39 46.9727 37.5449 46.9727 35.75C46.9727 33.9551 45.5176 32.5 43.7227 32.5C41.9277 32.5 40.4727 33.9551 40.4727 35.75C40.4727 37.5449 41.9277 39 43.7227 39Z" fill="#2F88FF" stroke="#0A141F" stroke-linecap="round" stroke-linejoin="round"/>
</svg>
