<svg width="53" height="52" viewBox="0 0 53 52" fill="none" xmlns="http://www.w3.org/2000/svg">
<g clip-path="url(#clip0_6242_18339)">
<path d="M35.0264 17.0898C39.9092 21.9727 39.9092 29.8828 35.0264 34.7656C32.585 37.207 32.585 41.1719 35.0264 43.5938C37.4678 46.0352 41.4326 46.0352 43.874 43.5938C53.6397 33.8281 53.6397 18.0078 43.874 8.24219L35.0264 17.0898Z" fill="#EA4335"/>
<path d="M43.8555 8.24219C34.0898 -1.52344 18.2891 -1.52344 8.52344 8.24219C-1.24219 18.0078 -1.24219 33.8281 8.52344 43.5938L17.3711 34.7656C12.4883 29.8828 12.4883 21.9727 17.3711 17.0898C22.2539 12.207 30.1641 12.207 35.0469 17.0898C37.4883 19.5313 41.4531 19.5313 43.8945 17.0898C46.2969 14.6484 46.2969 10.6836 43.8555 8.24219Z" fill="url(#paint0_linear_6242_18339)"/>
<path d="M43.8555 43.5937L35.0078 34.7656C30.125 39.6484 22.2148 39.6484 17.332 34.7656L8.48438 43.5937C18.2891 53.3594 34.0898 53.3594 43.8555 43.5937Z" fill="#FBBC04"/>
<path d="M35.0264 34.7646C37.4678 32.3232 41.4131 32.3232 43.8545 34.7646C46.2959 37.2061 46.2959 41.1709 43.8545 43.6123C41.4131 46.0537 37.4678 46.0537 35.0264 43.6123C32.585 41.1709 32.585 37.2061 35.0264 34.7646Z" fill="#EA4335"/>
<path d="M8.52246 34.7646C10.9639 32.3232 14.9092 32.3232 17.3506 34.7646C19.792 37.2061 19.792 41.1709 17.3506 43.6123C14.9092 46.0537 10.9639 46.0537 8.52246 43.6123C6.08105 41.1709 6.08105 37.2061 8.52246 34.7646Z" fill="#34A853"/>
</g>
<defs>
<linearGradient id="paint0_linear_6242_18339" x1="1.19922" y1="2134.71" x2="4450.38" y2="2134.71" gradientUnits="userSpaceOnUse">
<stop stop-color="#246FDB"/>
<stop offset="0.0552" stop-color="#2973DF"/>
<stop offset="0.2781" stop-color="#377DEB"/>
<stop offset="0.5491" stop-color="#3F83F2"/>
<stop offset="1" stop-color="#4285F4"/>
</linearGradient>
<clipPath id="clip0_6242_18339">
<rect width="50" height="50" fill="white" transform="translate(1.19922 0.917969)"/>
</clipPath>
</defs>
</svg>
