<svg width="53" height="52" viewBox="0 0 53 52" fill="none" xmlns="http://www.w3.org/2000/svg">
<path d="M18.9805 20.1332C20.7749 25.6204 21.4545 35.4086 26.7017 35.4086C27.1006 35.4086 27.5048 35.3696 27.9098 35.2924C23.1405 34.1805 22.575 24.4987 19.6642 19.4844C19.4323 19.6964 19.2043 19.9126 18.9805 20.1332Z" fill="url(#paint0_linear_6242_18382)"/>
<path d="M19.6641 19.4826C22.5748 24.4965 23.1403 34.1783 27.9097 35.2906C28.2925 35.2183 28.6691 35.1166 29.0362 34.9863C24.7548 32.8884 23.5718 23.487 20.2661 18.9609C20.066 19.1278 19.8653 19.3016 19.6641 19.4826Z" fill="url(#paint1_linear_6242_18382)"/>
<path d="M23.8585 16.5039C23.4604 16.5039 23.0554 16.5429 22.6491 16.6201C21.588 16.8204 20.509 17.2774 19.4219 17.9693C19.7184 18.2626 20.0016 18.5977 20.2673 18.9638C21.3735 18.046 22.472 17.368 23.566 16.9601C23.9654 16.8104 24.3772 16.696 24.7966 16.6181C24.4898 16.5413 24.1747 16.503 23.8585 16.5039Z" fill="#14559A"/>
<path d="M32.3795 33.0554C32.8357 32.6912 33.2749 32.3062 33.6958 31.9017C31.8725 26.4405 31.2197 16.5117 25.936 16.5117C25.5582 16.5117 25.1771 16.5471 24.7969 16.6173C29.6097 17.8146 30.2264 28.2857 32.3795 33.0554Z" fill="url(#paint2_linear_6242_18382)"/>
<path d="M24.7982 16.6185C24.4912 16.5415 24.1759 16.5031 23.8594 16.5039L25.9369 16.5116C25.5595 16.5116 25.1785 16.5466 24.7982 16.6185Z" fill="#3092C4"/>
<path d="M32.2847 34.2138C32.0742 34.0108 31.8754 33.7959 31.6892 33.5703C30.8003 34.1996 29.9147 34.6769 29.0352 34.9877C29.3484 35.1405 29.6762 35.2542 30.0248 35.3245C30.2945 35.3798 30.5744 35.4082 30.8677 35.4082C31.8553 35.4082 32.6362 35.2912 33.3 34.9727C32.9343 34.7744 32.5988 34.5185 32.2847 34.2138Z" fill="#1969BC"/>
<path d="M23.5664 16.9605C27.8771 19.2152 28.2521 29.4258 31.6918 33.5716C31.922 33.4091 32.151 33.237 32.3788 33.0553C30.2257 28.2855 29.6102 17.8132 24.7982 16.6172C24.3878 16.6936 23.9773 16.808 23.5664 16.9605Z" fill="url(#paint3_linear_6242_18382)"/>
<path d="M20.2656 18.9638C23.5713 23.4898 24.7543 32.8916 29.0357 34.9895C29.9157 34.6787 30.8013 34.2018 31.6898 33.5721C28.2501 29.4263 27.8751 19.216 23.5644 16.9609C22.4703 17.368 21.3718 18.046 20.2656 18.9638Z" fill="url(#paint4_linear_6242_18382)"/>
<path d="M16.8664 20.0044C16.3485 21.1756 15.8191 22.7157 15.1797 24.7254C16.4517 22.9326 17.72 21.3885 18.981 20.1368C18.8217 19.6383 18.6343 19.1492 18.4195 18.6719C17.8779 19.0873 17.3594 19.5322 16.8664 20.0044Z" fill="url(#paint5_linear_6242_18382)"/>
<path d="M18.877 18.3281C18.7251 18.437 18.5719 18.5483 18.418 18.6661C18.6191 19.1049 18.8051 19.5973 18.9786 20.1315C19.2029 19.9113 19.4309 19.695 19.6627 19.4827C19.4308 19.0783 19.1681 18.6923 18.877 18.3281Z" fill="#2B74B1"/>
<path d="M19.4221 17.9688C19.2417 18.0836 19.0606 18.2042 18.8789 18.3307C19.1612 18.6781 19.4204 19.066 19.6654 19.4861C19.8664 19.3038 20.0671 19.1295 20.2675 18.9632C20.0018 18.5976 19.719 18.2621 19.4221 17.9688Z" fill="#125A9E"/>
<path d="M48.8237 16.0841C46.3857 25.4863 41.2934 33.0385 37.0245 34.9422H37.016L36.7857 35.0409L36.7576 35.0519L36.6922 35.0771L36.663 35.0892L36.5561 35.127L36.5122 35.1425L36.459 35.1599L36.4078 35.1778L36.3623 35.1932L36.2713 35.2209L36.2323 35.231L36.171 35.2477L36.1292 35.2591L36.0621 35.2765L35.9805 35.2944C36.1734 35.3655 36.3745 35.4017 36.5911 35.4017C40.6393 35.4017 44.7213 28.1468 51.4752 16.082H48.8232L48.8237 16.0841Z" fill="url(#paint6_linear_6242_18382)"/>
<path d="M14.2995 16.8851L14.3072 16.8786L14.3166 16.8725H14.3219L14.3873 16.8473L14.4003 16.8408L14.4173 16.8339L14.4876 16.8087H14.4913L14.6469 16.7543L14.67 16.7482L14.7367 16.7283L14.7671 16.7186L14.8342 16.6987L14.8597 16.6918L15.0824 16.6341L15.1128 16.6272L15.1778 16.6146L15.2095 16.6048L15.2749 16.5926H15.2904L15.4257 16.5674H15.4525L15.515 16.5565L15.5504 16.5504L15.6101 16.5414L15.643 16.5349L15.7884 16.5219C15.6451 16.5083 15.5013 16.5009 15.3574 16.5C10.7981 16.5 4.51662 24.9589 1.6875 35.9139H2.23309C3.07896 34.4018 3.89996 32.876 4.69578 31.3371C6.67787 23.5777 10.714 18.2859 14.2995 16.8839" fill="url(#paint7_linear_6242_18382)"/>
<path d="M16.8672 20.0014C17.3607 19.5297 17.8791 19.0847 18.4203 18.6685C18.3102 18.4234 18.1866 18.1846 18.0502 17.9531C17.6334 18.4593 17.2523 19.1272 16.8672 20.0014Z" fill="#0D82CA"/>
<path d="M17.2413 16.9515C17.5391 17.201 17.806 17.5447 18.0497 17.9562C18.1261 17.8622 18.2046 17.7743 18.2853 17.6925C17.9579 17.383 17.5867 17.1233 17.1836 16.9219L17.2323 16.945L17.2413 16.9515Z" fill="#0D82CA"/>
<path d="M4.69531 31.336C8.85247 23.3251 10.822 18.2551 14.2991 16.8828C10.7139 18.286 6.677 23.5774 4.69531 31.336Z" fill="url(#paint8_linear_6242_18382)"/>
<path d="M18.2825 17.6875C18.2017 17.7704 18.1245 17.8569 18.0469 17.9512C18.1777 18.1697 18.2992 18.4078 18.4178 18.6662C18.5713 18.5483 18.7249 18.4374 18.8764 18.3282C18.694 18.1007 18.4956 17.8866 18.2825 17.6875Z" fill="#127BCA"/>
<path d="M6.58312 35.878L6.50756 35.887H6.49334L6.42916 35.8935H6.41859L6.26584 35.9036H6.25C10.4571 35.7858 12.3807 33.6794 13.335 30.6236C14.0602 28.3076 14.6561 26.3559 15.1782 24.7188C13.4158 27.1993 11.6454 30.156 9.86563 33.469C9.00763 35.0655 7.70234 35.7326 6.58312 35.8748" fill="url(#paint9_linear_6242_18382)"/>
<path d="M6.58244 35.8771C7.70166 35.7345 9.00694 35.0682 9.86494 33.4708C11.6447 30.1595 13.416 27.202 15.1767 24.721C15.8173 22.7105 16.3458 21.1716 16.8642 20C13.3546 23.3406 9.83163 28.8953 6.58203 35.875" fill="url(#paint10_linear_6242_18382)"/>
<path d="M4.69747 31.3359C3.90165 32.875 3.0805 34.4008 2.23438 35.9127H3.82037C4.02115 34.3713 4.3139 32.8432 4.69706 31.3367" fill="#05A1E6"/>
<path d="M15.6437 16.5369L15.6099 16.5434L15.5506 16.552L15.5157 16.5581L15.4531 16.569L15.4263 16.5755L15.291 16.5991H15.2756L15.2098 16.6121L15.1769 16.621L15.1131 16.6336L15.083 16.6409L14.86 16.6986L14.8344 16.7059L14.767 16.7258L14.7365 16.7344L14.6703 16.7543L14.6459 16.7608L14.4911 16.8152L14.4208 16.8396L14.3916 16.8518L14.3262 16.8762L14.3043 16.8867C10.8276 18.2586 8.85806 23.3286 4.70091 31.3395C4.31679 32.8458 4.02402 34.3739 3.82422 35.9155H4.04644L5.57191 35.909H6.27187L6.42422 35.8988H6.43397L6.49816 35.8923H6.51319L6.58875 35.8834C9.83875 28.9032 13.3618 23.3489 16.8709 20.0083C17.2569 19.1341 17.6375 18.4662 18.0535 17.9608C17.8098 17.5493 17.5433 17.2048 17.2459 16.955L17.2374 16.9485L17.1878 16.9245L17.1387 16.8997L17.0911 16.8766L17.0347 16.853L16.9908 16.8339L16.8986 16.7953L16.8592 16.7807L16.7905 16.7531L16.7535 16.7409L16.6581 16.708H16.6503L16.5398 16.6767L16.5151 16.669L16.422 16.643L16.4005 16.6369C16.3241 16.6171 16.247 16.6002 16.1693 16.5861L16.1454 16.5796L16.045 16.5633L16.0251 16.5572L15.9065 16.5414H15.8858L15.794 16.5312L15.6485 16.5447" fill="url(#paint11_linear_6242_18382)"/>
<path d="M39.3008 21.2889C38.5005 23.8511 37.8533 25.9648 37.2891 27.704C39.484 24.6835 41.6461 20.8842 43.7046 16.5C41.3024 17.2544 40.0219 18.981 39.3008 21.2889Z" fill="url(#paint12_linear_6242_18382)"/>
<path d="M37.3578 34.7844C37.2461 34.8413 37.1335 34.8953 37.0234 34.9445C41.2923 33.0404 46.3851 25.4882 48.8226 16.0859H48.3286C42.7272 26.0923 40.9259 32.7909 37.3578 34.7844Z" fill="url(#paint13_linear_6242_18382)"/>
<path d="M34.5744 33.9446C35.5035 32.8108 36.2596 30.8835 37.2927 27.707C36.1011 29.3438 34.9019 30.7507 33.7014 31.8979L33.6953 31.9081C33.9573 32.6925 34.2446 33.3852 34.572 33.9442" fill="#079AE1"/>
<path d="M34.5719 33.9414C34.2559 34.3273 33.9207 34.6211 33.5486 34.8388C33.4673 34.8865 33.3847 34.9308 33.3008 34.9717C33.7045 35.191 34.1467 35.3304 34.6032 35.3824L34.8161 35.4011H34.8287L34.9311 35.4076H35.2784L35.3178 35.4011L35.3946 35.3946H35.432L35.5152 35.3856H35.5222L35.5477 35.3795L35.6367 35.3657H35.6627L35.7627 35.3491H35.7789L35.9784 35.3068C35.4271 35.1053 34.966 34.6296 34.5691 33.9524" fill="#1969BC"/>
<path d="M26.7031 35.4086C27.1021 35.4086 27.5059 35.3696 27.9109 35.2916C28.2939 35.2206 28.6706 35.1191 29.0374 34.9881C29.3507 35.1408 29.6789 35.2546 30.0267 35.3257C30.2959 35.3809 30.5771 35.4087 30.8704 35.409L26.7031 35.4086ZM30.8704 35.409C31.8572 35.409 32.6388 35.2916 33.3023 34.9727C33.7059 35.1921 34.1482 35.3317 34.6047 35.3838L34.8176 35.4021H34.8302L34.9325 35.4086H35.0552L30.8704 35.409Z" fill="#1E5CB3"/>
<path d="M35.0547 35.4111H35.2826L35.322 35.4046L35.3996 35.3981H35.437L35.5198 35.3892H35.5268L35.5519 35.3827L35.6409 35.3693L35.6681 35.3632L35.7685 35.3469H35.7843L35.9838 35.3047C36.1768 35.3758 36.3778 35.4119 36.5944 35.4119L35.0555 35.4184L35.0547 35.4111Z" fill="#1D60B5"/>
<path d="M33.6954 31.9049V31.8984C33.2746 32.3029 32.8353 32.6879 32.3792 33.0522C32.1549 33.2308 31.9255 33.403 31.6914 33.5685C31.8848 33.7993 32.081 34.0154 32.2878 34.2124C32.6014 34.5167 32.9366 34.7731 33.3026 34.9709C33.3863 34.9297 33.4687 34.8855 33.55 34.8381C33.9229 34.6203 34.2573 34.3262 34.5737 33.9407C34.2463 33.3817 33.9591 32.6886 33.6975 31.9045" fill="#175FAB"/>
<path d="M46.7672 16.0859H44.2805L43.8864 16.105L43.7032 16.4975C41.6443 20.8821 39.4831 24.6814 37.2881 27.7018C36.2562 30.8779 35.499 32.8056 34.5703 33.939C34.9672 34.6166 35.4291 35.0927 35.9784 35.2947L36.0214 35.2853H36.0304L36.0608 35.2788L36.1299 35.2617L36.1709 35.25L36.2323 35.2341L36.2705 35.2231L36.3623 35.1955L36.4078 35.1801L36.459 35.1614L36.5118 35.1447L36.5548 35.1285L36.6621 35.0907L36.6918 35.0797L36.7576 35.0542L36.7852 35.044L37.0159 34.9453H37.0241C37.1342 34.8969 37.2463 34.8421 37.3576 34.7852C40.9265 32.7913 42.7282 26.0931 48.3296 16.0872H46.7651L46.7672 16.0859Z" fill="url(#paint14_linear_6242_18382)"/>
<path d="M15.7891 16.5248L15.8147 16.5313L15.8797 16.5382H15.9016L16.0202 16.5537L16.0401 16.5602L16.1401 16.5768L16.1653 16.5829L16.3956 16.6341L16.4167 16.6406L16.5093 16.6666L16.5349 16.6743L16.645 16.7056L16.6536 16.7121L16.7498 16.745L16.7864 16.7568L16.8555 16.7848L16.8945 16.7986L16.9863 16.8368L17.031 16.8559L17.0862 16.8799L17.135 16.903L17.1833 16.9282C17.581 17.1232 17.9467 17.3836 18.2855 17.6993C18.4103 17.5685 18.5406 17.4501 18.6763 17.3442C17.9357 16.8189 17.096 16.5195 16.1287 16.5195C16.0166 16.5195 15.9044 16.526 15.7907 16.5346" fill="#7DCBEC"/>
<path d="M18.2852 17.691C18.4927 17.884 18.6914 18.0993 18.8791 18.3317C19.0611 18.2053 19.2415 18.0834 19.4222 17.9697C19.1919 17.7373 18.942 17.5253 18.6752 17.3359C18.54 17.4416 18.41 17.5599 18.2852 17.691Z" fill="#5EC5ED"/>
<path d="M15.6808 16.5494L16.019 16.535C16.987 16.535 17.8259 16.8344 18.5662 17.3594C19.3475 16.7421 20.2928 16.5268 21.6053 16.5268H15.25L15.6808 16.5494Z" fill="url(#paint15_linear_6242_18382)"/>
<path d="M21.6055 16.5259C20.293 16.5259 19.3498 16.7412 18.5664 17.3585C18.8262 17.5417 19.075 17.7529 19.3129 17.9922C20.4019 17.3011 21.4784 16.8417 22.5407 16.6428C22.9468 16.5662 23.3494 16.5279 23.7486 16.5279L21.6055 16.5259Z" fill="url(#paint16_linear_6242_18382)"/>
<path d="M37.2893 27.707C37.8543 25.9666 38.4999 23.8537 39.3018 21.2907C40.0237 18.9816 41.3026 17.255 43.7035 16.5018L43.8888 16.1094C39.9742 16.3438 38.1444 18.3352 37.2242 21.2842C35.6139 26.4326 34.6385 29.7699 33.6992 31.8967C34.8985 30.7498 36.0977 29.3422 37.2893 27.707Z" fill="url(#paint17_linear_6242_18382)"/>
<defs>
<linearGradient id="paint0_linear_6242_18382" x1="23.5341" y1="16.3732" x2="23.5341" y2="40.1577" gradientUnits="userSpaceOnUse">
<stop stop-color="#0994DC"/>
<stop offset="0.35" stop-color="#66CEF5"/>
<stop offset="0.846" stop-color="#127BCA"/>
<stop offset="1" stop-color="#127BCA"/>
</linearGradient>
<linearGradient id="paint1_linear_6242_18382" x1="24.4295" y1="15.7993" x2="24.4295" y2="40.1275" gradientUnits="userSpaceOnUse">
<stop stop-color="#0E76BC"/>
<stop offset="0.36" stop-color="#36AEE8"/>
<stop offset="0.846" stop-color="#00ADEF"/>
<stop offset="1" stop-color="#00ADEF"/>
</linearGradient>
<linearGradient id="paint2_linear_6242_18382" x1="29.2448" y1="34.8318" x2="29.2448" y2="15.4742" gradientUnits="userSpaceOnUse">
<stop stop-color="#1C63B7"/>
<stop offset="0.5" stop-color="#33BDF2"/>
<stop offset="1" stop-color="#33BDF2" stop-opacity="0.42"/>
</linearGradient>
<linearGradient id="paint3_linear_6242_18382" x1="27.937" y1="13.26" x2="27.937" y2="38.5836" gradientUnits="userSpaceOnUse">
<stop stop-color="#166AB8"/>
<stop offset="0.4" stop-color="#36AEE8"/>
<stop offset="0.846" stop-color="#0798DD"/>
<stop offset="1" stop-color="#0798DD"/>
</linearGradient>
<linearGradient id="paint4_linear_6242_18382" x1="26.0692" y1="13.4582" x2="26.0692" y2="40.3866" gradientUnits="userSpaceOnUse">
<stop stop-color="#124379"/>
<stop offset="0.39" stop-color="#1487CB"/>
<stop offset="0.78" stop-color="#165197"/>
<stop offset="1" stop-color="#165197"/>
</linearGradient>
<linearGradient id="paint5_linear_6242_18382" x1="14.9754" y1="21.4108" x2="18.7763" y2="21.4108" gradientUnits="userSpaceOnUse">
<stop stop-color="#33BDF2" stop-opacity="0.698"/>
<stop offset="1" stop-color="#1DACD8"/>
</linearGradient>
<linearGradient id="paint6_linear_6242_18382" x1="43.7586" y1="34.2799" x2="43.7586" y2="15.423" gradientUnits="userSpaceOnUse">
<stop stop-color="#136AB4"/>
<stop offset="0.6" stop-color="#59CAF5" stop-opacity="0.549"/>
<stop offset="1" stop-color="#59CAF5" stop-opacity="0.235"/>
</linearGradient>
<linearGradient id="paint7_linear_6242_18382" x1="1.4855" y1="25.9175" x2="15.5851" y2="25.9175" gradientUnits="userSpaceOnUse">
<stop stop-color="#05A1E6" stop-opacity="0.247"/>
<stop offset="1" stop-color="#05A1E6"/>
</linearGradient>
<linearGradient id="paint8_linear_6242_18382" x1="9.57253" y1="34.8132" x2="9.57253" y2="15.5052" gradientUnits="userSpaceOnUse">
<stop stop-color="#318ED5"/>
<stop offset="1" stop-color="#38A7E4"/>
</linearGradient>
<linearGradient id="paint9_linear_6242_18382" x1="10.6396" y1="34.9384" x2="10.6396" y2="16.1217" gradientUnits="userSpaceOnUse">
<stop stop-color="#05A1E6"/>
<stop offset="1" stop-color="#05A1E6" stop-opacity="0.549"/>
</linearGradient>
<linearGradient id="paint10_linear_6242_18382" x1="11.7928" y1="35.9018" x2="11.7928" y2="20.0015" gradientUnits="userSpaceOnUse">
<stop stop-color="#1959A6"/>
<stop offset="0.5" stop-color="#05A1E6"/>
<stop offset="0.918" stop-color="#7EC5EA"/>
<stop offset="1" stop-color="#7EC5EA"/>
</linearGradient>
<linearGradient id="paint11_linear_6242_18382" x1="12.2717" y1="34.8474" x2="9.23956" y2="17.6511" gradientUnits="userSpaceOnUse">
<stop stop-color="#165096"/>
<stop offset="1" stop-color="#0D82CA"/>
</linearGradient>
<linearGradient id="paint12_linear_6242_18382" x1="40.3985" y1="25.0923" x2="40.3985" y2="16.1056" gradientUnits="userSpaceOnUse">
<stop stop-color="#05A1E6"/>
<stop offset="0.874" stop-color="#0495D6"/>
<stop offset="1" stop-color="#0495D6"/>
</linearGradient>
<linearGradient id="paint13_linear_6242_18382" x1="44.7782" y1="15.3124" x2="41.1242" y2="36.0353" gradientUnits="userSpaceOnUse">
<stop stop-color="#38A7E4" stop-opacity="0.329"/>
<stop offset="0.962" stop-color="#0E88D3"/>
<stop offset="1" stop-color="#0E88D3"/>
</linearGradient>
<linearGradient id="paint14_linear_6242_18382" x1="41.332" y1="16.052" x2="41.332" y2="35.6574" gradientUnits="userSpaceOnUse">
<stop stop-color="#168CD4"/>
<stop offset="0.5" stop-color="#1C87CC"/>
<stop offset="1" stop-color="#154B8D"/>
</linearGradient>
<linearGradient id="paint15_linear_6242_18382" x1="14.8152" y1="14.1361" x2="37.6109" y2="23.5916" gradientUnits="userSpaceOnUse">
<stop stop-color="#97D6EE"/>
<stop offset="0.703" stop-color="#55C1EA"/>
<stop offset="1" stop-color="#55C1EA"/>
</linearGradient>
<linearGradient id="paint16_linear_6242_18382" x1="21.0128" y1="19.4865" x2="39.0176" y2="11.3249" gradientUnits="userSpaceOnUse">
<stop stop-color="#7ACCEC"/>
<stop offset="1" stop-color="#3FB7ED"/>
</linearGradient>
<linearGradient id="paint17_linear_6242_18382" x1="38.6553" y1="17.1171" x2="38.6553" y2="36.2931" gradientUnits="userSpaceOnUse">
<stop stop-color="#1DA7E7"/>
<stop offset="1" stop-color="#37ABE7" stop-opacity="0"/>
</linearGradient>
</defs>
</svg>
