<svg width="49" height="52" viewBox="0 0 49 52" fill="none" xmlns="http://www.w3.org/2000/svg">
<path d="M17.8502 12.2367C11.5774 11.0943 6.61753 12.29 4.64077 15.7138C3.16573 18.2687 3.58738 21.6561 5.66352 25.277C5.71494 25.3711 5.78905 25.4509 5.87912 25.5091C5.96919 25.5673 6.07237 25.6021 6.1793 25.6103C6.28622 25.6185 6.39349 25.5998 6.49138 25.556C6.58927 25.5123 6.67467 25.4447 6.73983 25.3595C6.79172 25.2914 6.82951 25.2136 6.851 25.1307C6.8725 25.0478 6.87726 24.9614 6.86502 24.8766C6.8527 24.7919 6.82359 24.7104 6.77939 24.6371C4.90948 21.3754 4.54549 18.4521 5.75494 16.3571C7.39714 13.5129 11.821 12.4463 17.6196 13.5023C17.7863 13.5301 17.9571 13.4912 18.0953 13.394C18.2335 13.2968 18.3279 13.1492 18.3582 12.983C18.3885 12.8169 18.3522 12.6454 18.2571 12.5058C18.1621 12.3661 18.0159 12.2695 17.8502 12.2367ZM8.92549 29.6783C11.4619 32.4655 14.7571 35.0801 18.5153 37.2496C27.6147 42.5033 37.3019 43.9074 42.0761 40.6522C42.1475 40.6053 42.2089 40.5447 42.2566 40.4738C42.3043 40.4029 42.3374 40.3233 42.3539 40.2394C42.3792 40.1132 42.3658 39.9824 42.3157 39.8638C42.2656 39.7453 42.181 39.6445 42.0729 39.5746C41.965 39.5046 41.8385 39.4685 41.7098 39.4711C41.5811 39.4738 41.4562 39.5149 41.3512 39.5894C37.0783 42.5028 27.8764 41.1688 19.1586 36.1356C15.5129 34.0308 12.3218 31.499 9.87709 28.8123C9.82027 28.7495 9.75164 28.6985 9.67511 28.6623C9.59858 28.626 9.51566 28.6052 9.43108 28.601C9.34647 28.5968 9.26186 28.6093 9.18212 28.6378C9.10237 28.6664 9.02906 28.7105 8.9664 28.7675C8.90374 28.8245 8.85297 28.8933 8.81701 28.97C8.78106 29.0467 8.76062 29.1298 8.75688 29.2144C8.75305 29.299 8.76598 29.3836 8.79491 29.4632C8.82385 29.5428 8.86822 29.6159 8.92549 29.6783Z" fill="#4EE1FF"/>
<path d="M40.5528 28.8915C44.6602 24.0392 46.0943 19.1589 44.1216 15.7423C42.6702 13.2281 39.6017 11.9007 35.5235 11.8477C35.3974 11.8477 35.2741 11.8849 35.1689 11.9545C35.0638 12.024 34.9814 12.123 34.9321 12.239C34.8827 12.3551 34.8686 12.483 34.8914 12.607C34.9142 12.7311 34.9729 12.8456 35.0603 12.9365C35.1775 13.0584 35.3378 13.1294 35.5068 13.1341C39.1745 13.1818 41.8182 14.3254 43.0077 16.3857C44.646 19.2236 43.3671 23.5756 39.5708 28.0603C39.515 28.1245 39.4725 28.1992 39.4459 28.2801C39.4193 28.3609 39.409 28.4463 39.4157 28.5311C39.4222 28.616 39.4456 28.6985 39.4845 28.7743C39.5231 28.8501 39.5764 28.9175 39.6413 28.9725C39.7063 29.0275 39.7815 29.069 39.8627 29.0946C39.944 29.1204 40.0294 29.1298 40.114 29.1221C40.1988 29.1147 40.2812 29.0904 40.3565 29.0507C40.432 29.0111 40.4985 28.9571 40.5528 28.8915ZM29.997 12.4466C26.2832 13.2424 22.3301 14.7982 18.5339 16.9899C9.14045 22.4132 3.01284 30.4102 3.86385 36.2088C3.87506 36.2932 3.90297 36.3746 3.94596 36.4481C3.98895 36.5216 4.04616 36.5858 4.11423 36.637C4.21656 36.7144 4.33976 36.7593 4.46791 36.766C4.59605 36.7727 4.72325 36.7407 4.83306 36.6743C4.90604 36.6305 4.96958 36.5726 5.01998 36.504C5.07038 36.4354 5.10663 36.3574 5.12662 36.2746C5.14661 36.1919 5.15005 36.106 5.13675 36.0219C4.38102 30.8733 10.1895 23.2931 19.1772 18.1041C22.8599 15.9778 26.6875 14.4714 30.2664 13.7045C30.3712 13.6838 30.4693 13.6372 30.5516 13.5691C30.634 13.501 30.6981 13.4134 30.7382 13.3143C30.7782 13.2153 30.793 13.1077 30.7811 13.0015C30.7693 12.8953 30.7311 12.7937 30.6702 12.7059C30.6213 12.6359 30.5591 12.5763 30.4871 12.5305C30.415 12.4847 30.3346 12.4536 30.2505 12.4391C30.1663 12.4248 30.0801 12.4273 29.997 12.4466Z" fill="#4EE1FF"/>
<path d="M14.7785 40.2294C16.9263 46.2261 20.4396 49.9184 24.3902 49.9184C27.2715 49.9184 29.9372 47.9541 32.016 44.4963C32.0609 44.4238 32.091 44.3432 32.1046 44.259C32.1181 44.1748 32.1148 44.0888 32.0949 44.0059C32.0751 43.9229 32.0389 43.8447 31.9885 43.7758C31.9381 43.707 31.8745 43.6489 31.8013 43.6049C31.7282 43.561 31.647 43.532 31.5626 43.5198C31.4781 43.5076 31.3921 43.5124 31.3095 43.5338C31.227 43.5552 31.1495 43.5926 31.0815 43.644C31.0135 43.6955 30.9564 43.7598 30.9134 43.8334C29.0452 46.941 26.7505 48.6317 24.3902 48.6317C21.1085 48.6317 17.9748 45.3386 15.9899 39.796C15.9627 39.7148 15.9197 39.6399 15.8632 39.5756C15.8066 39.5113 15.7379 39.4589 15.6609 39.4216C15.5449 39.3651 15.4147 39.3449 15.2871 39.3635C15.1595 39.3821 15.0404 39.4386 14.9454 39.5258C14.8824 39.5837 14.8315 39.6535 14.7958 39.7313C14.76 39.809 14.74 39.893 14.737 39.9786C14.7341 40.0642 14.7481 40.1496 14.7785 40.2294ZM34.3947 39.0564C35.5067 35.5038 36.1037 31.4055 36.1037 27.1348C36.1037 16.4781 32.3738 7.29161 27.0612 4.93276C26.906 4.86776 26.7315 4.86614 26.5752 4.92826C26.4188 4.99039 26.293 5.1113 26.2247 5.26508C26.1564 5.41886 26.1511 5.59328 26.2099 5.75093C26.2687 5.90858 26.3869 6.03692 26.5392 6.10845C31.2774 8.21257 34.817 16.9308 34.817 27.1348C34.817 31.2781 34.2388 35.2469 33.1671 38.6721C33.1271 38.7941 33.1245 38.9253 33.1595 39.0489C33.1946 39.1724 33.2658 39.2826 33.3639 39.3654C33.4623 39.4478 33.5831 39.4991 33.7107 39.5125C33.8384 39.526 33.9672 39.501 34.0806 39.4409C34.1558 39.4008 34.2223 39.3462 34.2763 39.2802C34.3303 39.2142 34.3703 39.1381 34.3947 39.0564ZM46.5095 38.4263C46.5095 36.726 45.1312 35.3477 43.4309 35.3477C41.7305 35.3477 40.3522 36.726 40.3522 38.4263C40.3522 40.1267 41.7305 41.505 43.4309 41.505C45.1312 41.505 46.5095 40.1267 46.5095 38.4263ZM45.2231 38.4263C45.2231 38.6618 45.1768 38.8948 45.0866 39.1121C44.9967 39.3297 44.8647 39.5274 44.6983 39.6938C44.5318 39.8603 44.3342 39.9923 44.1166 40.0823C43.8443 40.1949 43.5484 40.2387 43.2552 40.2098C42.9619 40.1808 42.6803 40.08 42.4353 39.9163C42.1903 39.7525 41.9894 39.5309 41.8504 39.271C41.7115 39.0112 41.6387 38.721 41.6386 38.4263C41.6388 38.072 41.7441 37.7256 41.941 37.431C42.138 37.1364 42.4179 36.9068 42.7453 36.7712C43.0727 36.6355 43.4329 36.6 43.7805 36.669C44.1281 36.7381 44.4475 36.9086 44.6982 37.159C45.0342 37.4952 45.223 37.951 45.2231 38.4263ZM5.3052 41.505C7.00578 41.505 8.38409 40.1267 8.38409 38.4263C8.38409 36.726 7.00554 35.3477 5.3052 35.3477C3.60511 35.3477 2.22656 36.726 2.22656 38.4263C2.22656 40.1267 3.60511 41.505 5.3052 41.505ZM5.3052 40.2186C4.95077 40.2185 4.60432 40.1133 4.30965 39.9164C4.01497 39.7194 3.7853 39.4395 3.64966 39.1121C3.51403 38.7846 3.47851 38.4243 3.5476 38.0767C3.6167 37.729 3.7873 37.4097 4.03785 37.159C4.28855 36.9084 4.60789 36.7378 4.95553 36.6687C5.30316 36.5996 5.66347 36.6352 5.99093 36.7708C6.31838 36.9064 6.59827 37.1361 6.79522 37.4308C6.99217 37.7255 7.09734 38.0719 7.09744 38.4263C7.09747 38.6617 7.05114 38.8948 6.96108 39.1122C6.87102 39.3297 6.73901 39.5273 6.57258 39.6937C6.40615 39.8601 6.20856 39.9921 5.9911 40.0822C5.77364 40.1723 5.54057 40.2186 5.3052 40.2186Z" fill="#4EE1FF"/>
<path d="M24.3911 8.07525C26.0915 8.07525 27.4698 6.69694 27.4698 4.99661C27.4698 3.29628 26.0915 1.91797 24.3911 1.91797C22.6908 1.91797 21.3125 3.29628 21.3125 4.99661C21.3125 6.69694 22.6908 8.07525 24.3911 8.07525ZM24.3911 6.78885C23.9158 6.78885 23.4599 6.60001 23.1238 6.26388C22.7876 5.92775 22.5988 5.47185 22.5988 4.99649C22.5988 4.52113 22.7876 4.06523 23.1238 3.7291C23.4599 3.39297 23.9158 3.20413 24.3911 3.20413C24.8665 3.20413 25.3224 3.39297 25.6585 3.7291C25.9947 4.06523 26.1835 4.52113 26.1835 4.99649C26.1835 5.47185 25.9947 5.92775 25.6585 6.26388C25.3224 6.60001 24.8665 6.78885 24.3911 6.78885ZM24.8613 29.3141C23.6588 29.5739 22.4742 28.8097 22.2139 27.6072C22.1521 27.3213 22.1472 27.026 22.1996 26.7382C22.2519 26.4504 22.3604 26.1757 22.5189 25.9299C22.6774 25.684 22.8828 25.4718 23.1233 25.3053C23.3639 25.1388 23.6348 25.0214 23.9208 24.9597C25.1232 24.6999 26.3078 25.464 26.5684 26.6665C26.8281 27.869 26.064 29.0538 24.8613 29.3141Z" fill="#4EE1FF"/>
</svg>
