<svg width="53" height="52" viewBox="0 0 53 52" fill="none" xmlns="http://www.w3.org/2000/svg">
<g clip-path="url(#clip0_6242_18346)">
<path d="M38.9492 0.917969H13.4492C7.23602 0.917969 2.19922 5.95477 2.19922 12.168V37.668C2.19922 43.8812 7.23602 48.918 13.4492 48.918H38.9492C45.1624 48.918 50.1992 43.8812 50.1992 37.668V12.168C50.1992 5.95477 45.1624 0.917969 38.9492 0.917969Z" fill="#F4F2ED"/>
<mask id="mask0_6242_18346" style="mask-type:luminance" maskUnits="userSpaceOnUse" x="13" y="6" width="26" height="38">
<path d="M13.6367 6.16797H38.6417V43.668H13.6367V6.16797Z" fill="white"/>
</mask>
<g mask="url(#mask0_6242_18346)">
<path d="M19.8907 43.668C23.3407 43.668 26.1407 40.8681 26.1407 37.4181V31.168H19.8907C16.4408 31.168 13.6406 33.9681 13.6406 37.4181C13.6406 40.8681 16.4408 43.668 19.8907 43.668Z" fill="#0ACF83"/>
<path d="M13.6406 24.9179C13.6406 21.4679 16.4408 18.668 19.8907 18.668H26.1407V31.1678H19.8907C16.4408 31.1678 13.6406 28.3679 13.6406 24.9179Z" fill="#A259FF"/>
<path d="M13.6406 12.4179C13.6406 8.96791 16.4408 6.16797 19.8907 6.16797H26.1407V18.668H19.8907C16.4408 18.668 13.6406 15.8679 13.6406 12.4179Z" fill="#F24E1E"/>
<path d="M26.1406 6.16797H32.3906C35.8406 6.16797 38.6407 8.96791 38.6407 12.4179C38.6407 15.8679 35.8406 18.668 32.3906 18.668H26.1406V6.16797Z" fill="#FF7262"/>
<path d="M38.6407 24.9179C38.6407 28.3679 35.8406 31.1678 32.3906 31.1678C28.9406 31.1678 26.1406 28.3679 26.1406 24.9179C26.1406 21.4679 28.9406 18.668 32.3906 18.668C35.8406 18.668 38.6407 21.4679 38.6407 24.9179Z" fill="#1ABCFE"/>
</g>
</g>
<defs>
<clipPath id="clip0_6242_18346">
<rect width="48" height="48" fill="white" transform="translate(2.19922 0.917969)"/>
</clipPath>
</defs>
</svg>
