<svg width="53" height="52" viewBox="0 0 53 52" fill="none" xmlns="http://www.w3.org/2000/svg">
<path d="M47.4856 34.9373C47.7003 35.3098 47.7586 35.7521 47.6478 36.1675C47.537 36.5828 47.2661 36.9373 46.8945 37.1534L27.3945 48.5284C27.1461 48.6733 26.8636 48.7497 26.5759 48.7497C26.2883 48.7497 26.0058 48.6733 25.7573 48.5284L6.25734 37.1534C5.8911 36.9333 5.62627 36.5779 5.5202 36.164C5.41414 35.75 5.47536 35.311 5.69063 34.9419C5.90589 34.5728 6.25787 34.3033 6.67035 34.1919C7.08284 34.0804 7.52264 34.1358 7.89453 34.3462L26.582 45.2439L45.2695 34.3462C45.642 34.1316 46.0843 34.0733 46.4997 34.1841C46.915 34.2949 47.2695 34.5657 47.4856 34.9373ZM45.2695 24.5962L26.582 35.4939L7.89453 24.5962C7.52453 24.412 7.09823 24.3757 6.7024 24.4947C6.30657 24.6137 5.97097 24.8791 5.7639 25.2368C5.55683 25.5945 5.49385 26.0177 5.58778 26.4202C5.68172 26.8227 5.92551 27.1743 6.26953 27.4034L25.7695 38.7784C26.018 38.9233 26.3005 38.9997 26.5881 38.9997C26.8758 38.9997 27.1582 38.9233 27.4067 38.7784L46.9067 27.4034C47.094 27.2975 47.2584 27.1554 47.3903 26.9853C47.5222 26.8153 47.6191 26.6208 47.6752 26.4131C47.7314 26.2054 47.7457 25.9885 47.7174 25.7752C47.6891 25.5619 47.6187 25.3563 47.5102 25.1704C47.4018 24.9846 47.2576 24.8221 47.0859 24.6924C46.9141 24.5627 46.7184 24.4684 46.5099 24.415C46.3015 24.3615 46.0845 24.3501 45.8715 24.3812C45.6586 24.4123 45.454 24.4854 45.2695 24.5962ZM5.45703 16.2498C5.45768 15.9652 5.53307 15.6858 5.67566 15.4394C5.81825 15.1931 6.02304 14.9886 6.26953 14.8462L25.7695 3.47124C26.018 3.32635 26.3005 3.25 26.5881 3.25C26.8758 3.25 27.1582 3.32635 27.4067 3.47124L46.9067 14.8462C47.152 14.9894 47.3555 15.1943 47.497 15.4405C47.6384 15.6868 47.7128 15.9658 47.7128 16.2498C47.7128 16.5338 47.6384 16.8129 47.497 17.0591C47.3555 17.3054 47.152 17.5103 46.9067 17.6534L27.4067 29.0284C27.1582 29.1733 26.8758 29.2497 26.5881 29.2497C26.3005 29.2497 26.018 29.1733 25.7695 29.0284L6.26953 17.6534C6.02304 17.5111 5.81825 17.3066 5.67566 17.0602C5.53307 16.8139 5.45768 16.5345 5.45703 16.2498ZM10.3077 16.2498L26.582 25.7439L42.8564 16.2498L26.582 6.75578L10.3077 16.2498Z" fill="#5BAFA9"/>
</svg>
