<svg width="52" height="53" viewBox="0 0 52 53" fill="none" xmlns="http://www.w3.org/2000/svg">
<path d="M40.5365 42.2487C38.7382 44.9354 36.8315 47.557 33.9282 47.6004C31.0249 47.6654 30.0932 45.8887 26.7999 45.8887C23.4849 45.8887 22.4665 47.557 19.7149 47.6654C16.8765 47.7737 14.7315 44.8054 12.9115 42.1837C9.20654 36.832 6.36821 26.9737 10.1815 20.3437C12.0665 17.0504 15.4465 14.9704 19.1082 14.9054C21.8815 14.862 24.5249 16.7904 26.2365 16.7904C27.9265 16.7904 31.1332 14.472 34.4915 14.8187C35.8999 14.8837 39.8432 15.382 42.3782 19.1087C42.1832 19.2387 37.6765 21.882 37.7199 27.3637C37.7849 33.907 43.4615 36.0954 43.5265 36.117C43.4615 36.2687 42.6165 39.237 40.5365 42.2487ZM28.1649 7.58203C29.7465 5.7837 32.3682 4.4187 34.5349 4.33203C34.8165 6.86703 33.7982 9.4237 32.2815 11.2437C30.7865 13.0854 28.3165 14.5154 25.8899 14.3204C25.5649 11.8287 26.7782 9.2287 28.1649 7.58203Z" fill="#0A141F"/>
</svg>
