<svg width="53" height="52" viewBox="0 0 53 52" fill="none" xmlns="http://www.w3.org/2000/svg">
<g clip-path="url(#clip0_6242_18430)">
<path d="M39.332 2H13.832C7.61883 2 2.58203 7.0368 2.58203 13.25V38.75C2.58203 44.9632 7.61883 50 13.832 50H39.332C45.5452 50 50.582 44.9632 50.582 38.75V13.25C50.582 7.0368 45.5452 2 39.332 2Z" fill="#F0DB4F"/>
<path d="M15.2033 42.1148L18.8764 39.8918C19.5852 41.1483 20.2298 42.2114 21.7761 42.2114C23.2583 42.2114 24.1928 41.6316 24.1928 39.3764V24.0392H28.7037V39.4401C28.7037 44.1121 25.9651 46.2387 21.9694 46.2387C18.361 46.2387 16.2664 44.3699 15.2031 42.1144M31.1537 41.6314L34.8265 39.505C35.7934 41.0839 37.0501 42.2438 39.2731 42.2438C41.1423 42.2438 42.334 41.3093 42.334 40.0204C42.334 38.4739 41.1096 37.9261 39.0475 37.0242L37.9201 36.5406C34.6656 35.1554 32.5068 33.4154 32.5068 29.7423C32.5068 26.359 35.0845 23.7812 39.1122 23.7812C41.9798 23.7812 44.0419 24.7802 45.5239 27.3901L42.0119 29.6455C41.2384 28.2601 40.4011 27.7124 39.1122 27.7124C37.7911 27.7124 36.9533 28.5501 36.9533 29.6455C36.9533 30.9987 37.7911 31.5466 39.7242 32.3845L40.8518 32.8677C44.686 34.5111 46.8449 36.1862 46.8449 39.9559C46.8449 44.0161 43.6551 46.2391 39.3698 46.2391C35.1813 46.2391 32.4747 44.2414 31.1537 41.6314Z" fill="#323330"/>
</g>
<defs>
<clipPath id="clip0_6242_18430">
<rect width="48" height="48" fill="white" transform="translate(2.58203 2)"/>
</clipPath>
</defs>
</svg>
