<svg width="53" height="52" viewBox="0 0 53 52" fill="none" xmlns="http://www.w3.org/2000/svg">
<g clip-path="url(#clip0_6242_18422)">
<path d="M17.3525 40.1987C17.3525 40.1987 14.6716 41.3521 19.2604 41.7424C24.8198 42.2116 27.6609 42.1444 33.7873 41.2864C33.7873 41.2864 35.3981 42.0337 37.6473 42.681C23.9138 47.0359 6.56533 42.4286 17.3525 40.1987ZM15.6743 34.5156C15.6743 34.5156 12.6674 36.1625 17.2597 36.5139C23.1982 36.9671 27.888 37.0043 36.0032 35.8481C36.0032 35.8481 37.1257 36.69 38.8906 37.1505C22.2858 40.743 3.79105 37.4338 15.6743 34.5156Z" fill="#5382A1"/>
<path d="M29.8226 24.8737C33.2067 27.7563 28.9335 30.3503 28.9335 30.3503C28.9335 30.3503 37.5259 27.0684 33.5798 22.9586C29.8943 19.1262 27.0678 17.2218 42.3686 10.6562C42.3686 10.6562 18.3515 15.0944 29.8226 24.8737Z" fill="#E76F00"/>
<path d="M47.9846 44.4011C47.9846 44.4011 49.9685 45.6105 45.7996 46.5462C37.8724 48.323 12.8056 48.8596 5.84204 46.617C3.33893 45.8114 8.03315 44.6933 9.50967 44.4585C11.0496 44.2114 11.9297 44.2576 11.9297 44.2576C9.14587 42.8065 -6.06372 47.1066 4.20404 48.3379C32.2054 51.6978 55.2477 46.8251 47.9846 44.4011ZM18.6403 28.6265C18.6403 28.6265 5.88998 30.8673 14.1253 31.6808C17.6024 32.0253 24.534 31.9474 30.9907 31.547C36.2675 31.2179 41.566 30.5176 41.566 30.5176C41.566 30.5176 39.7054 31.1071 38.3593 31.7872C25.4113 34.3068 0.398088 33.1347 7.59907 30.5574C13.689 28.3794 18.6403 28.6265 18.6403 28.6265ZM41.5134 38.086C54.6759 33.0254 48.5901 28.1624 44.3424 28.8176C43.3011 28.9778 42.837 29.1167 42.837 29.1167C42.837 29.1167 43.2235 28.6689 43.9617 28.475C52.365 26.289 58.8278 34.9219 41.249 38.341C41.249 38.3412 41.4527 38.2065 41.5134 38.086Z" fill="#5382A1"/>
<path d="M33.5765 0.0548378C33.5765 0.0548378 40.866 5.45021 26.6627 13.7463C15.2733 20.4014 24.0655 24.1959 26.658 28.5313C20.0097 24.0933 15.1307 20.1864 18.404 16.5503C23.2081 11.2124 36.5175 8.62477 33.5765 0.0548378Z" fill="#E76F00"/>
<path d="M19.934 51.7981C32.5682 52.3966 51.9693 51.4661 52.4287 47.043C52.4287 47.043 51.5455 48.7199 41.9873 50.0515C31.2038 51.5528 17.904 51.3776 10.0156 50.4153C10.0158 50.4153 11.6303 51.4042 19.934 51.7981Z" fill="#5382A1"/>
</g>
<defs>
<clipPath id="clip0_6242_18422">
<rect width="52" height="52" fill="white" transform="translate(0.582031)"/>
</clipPath>
</defs>
</svg>
