<svg width="53" height="52" viewBox="0 0 53 52" fill="none" xmlns="http://www.w3.org/2000/svg">
<path d="M26.6275 48.7494C26.0137 48.7496 25.4106 48.5882 24.879 48.2814L19.315 44.9875C18.4846 44.5227 18.8893 44.3586 19.1639 44.2627C20.047 43.9899 20.8926 43.6078 21.681 43.1252C21.747 43.0947 21.8197 43.0815 21.8922 43.0869C21.9647 43.0923 22.0346 43.1161 22.0954 43.1561L26.3708 45.696C26.4504 45.7381 26.5391 45.7601 26.6291 45.7601C26.7192 45.7601 26.8079 45.7381 26.8875 45.696L43.56 36.0727C43.638 36.026 43.7026 35.9598 43.7473 35.8806C43.792 35.8014 43.8154 35.7119 43.8151 35.621V16.3712C43.8152 16.2789 43.7914 16.188 43.7462 16.1075C43.7009 16.0269 43.6357 15.9594 43.5568 15.9114L26.8843 6.29624C26.8056 6.25196 26.7169 6.2287 26.6267 6.2287C26.5365 6.2287 26.4478 6.25196 26.3691 6.29624L9.70639 15.9146C9.62691 15.9616 9.56091 16.0284 9.51479 16.1084C9.46867 16.1884 9.44399 16.2789 9.44314 16.3712V35.6129C9.44336 35.7036 9.46771 35.7927 9.51368 35.8709C9.55966 35.9491 9.6256 36.0138 9.70476 36.0581L14.2775 38.6971C16.7556 39.9354 18.2734 38.4761 18.2734 37.0104V18.0125C18.2734 17.8832 18.3247 17.7592 18.4162 17.6678C18.5076 17.5764 18.6316 17.525 18.7609 17.525H20.8734C21.0027 17.525 21.1267 17.5764 21.2181 17.6678C21.3095 17.7592 21.3609 17.8832 21.3609 18.0125V37.012C21.3609 40.3189 19.5604 42.212 16.4241 42.212C15.0711 42.2356 13.7393 41.8737 12.5843 41.1687L8.20164 38.6549C7.66959 38.345 7.22813 37.9011 6.92131 37.3673C6.6145 36.8335 6.45307 36.2286 6.45314 35.6129V16.3712C6.45156 15.7546 6.6123 15.1484 6.91923 14.6136C7.22615 14.0787 7.66843 13.6341 8.20164 13.3244L24.8758 3.69787C25.4129 3.40402 26.0153 3.25 26.6275 3.25C27.2397 3.25 27.8421 3.40402 28.3793 3.69787L45.0518 13.3244C45.5837 13.6336 46.0253 14.0769 46.3324 14.6101C46.6395 15.1434 46.8014 15.7478 46.8019 16.3631V35.6129C46.801 36.2285 46.639 36.8333 46.3319 37.3669C46.0249 37.9006 45.5836 38.3446 45.0518 38.6549L28.3793 48.2814C27.8466 48.5887 27.2424 48.7501 26.6275 48.7494Z" fill="#83CD29"/>
<path d="M23.4688 29.1739C23.4687 29.0446 23.5201 28.9206 23.6115 28.8292C23.703 28.7378 23.827 28.6864 23.9563 28.6864H26.1126C26.2278 28.6868 26.3392 28.728 26.427 28.8026C26.5147 28.8773 26.5732 28.9806 26.592 29.0943C26.917 31.2897 27.892 32.3963 32.3006 32.3963C35.8123 32.3963 37.3089 31.6017 37.3089 29.7378C37.3089 28.6637 36.8848 27.8658 31.4264 27.3312C26.8634 26.8794 24.0424 25.8687 24.0424 22.2222C24.0424 18.8584 26.878 16.8516 31.6311 16.8516C36.9725 16.8516 39.6164 18.7057 39.9511 22.6837C39.9562 22.7501 39.9477 22.8169 39.926 22.8798C39.9043 22.9428 39.8699 23.0007 39.825 23.0499C39.7801 23.0991 39.7256 23.1385 39.6648 23.1658C39.6041 23.1931 39.5384 23.2076 39.4718 23.2086H37.3008C37.1918 23.207 37.0866 23.1691 37.0018 23.1008C36.9169 23.0324 36.8574 22.9377 36.8327 22.8316C36.3144 20.5224 35.0452 19.7847 31.6327 19.7847C27.7977 19.7847 27.3525 21.1204 27.3525 22.1214C27.3525 23.3337 27.879 23.6879 33.0563 24.3721C38.1799 25.0497 40.6141 26.0084 40.6141 29.6094C40.6141 33.2429 37.5851 35.3229 32.3022 35.3229C24.9979 35.3327 23.4688 31.9836 23.4688 29.1739Z" fill="#83CD29"/>
</svg>
