<svg width="53" height="52" viewBox="0 0 53 52" fill="none" xmlns="http://www.w3.org/2000/svg">
<g clip-path="url(#clip0_6242_18484)">
<path d="M26.3948 4.01172C14.9539 4.01172 15.6682 8.97319 15.6682 8.97319L15.6809 14.1134H26.5988V15.6567H11.3445C11.3445 15.6567 4.02344 14.8264 4.02344 26.3702C4.02344 37.9144 10.4134 37.505 10.4134 37.505H14.227V32.148C14.227 32.148 14.0214 25.758 20.515 25.758H31.3436C31.3436 25.758 37.4274 25.8563 37.4274 19.8782V9.99372C37.4274 9.99372 38.3514 4.01172 26.3948 4.01172ZM20.3747 7.46842C20.6327 7.46819 20.8882 7.51884 21.1266 7.61746C21.365 7.71608 21.5816 7.86075 21.764 8.04318C21.9465 8.22561 22.0911 8.44223 22.1898 8.68063C22.2884 8.91903 22.339 9.17455 22.3388 9.43254C22.339 9.69054 22.2884 9.94605 22.1898 10.1845C22.0911 10.4229 21.9465 10.6395 21.764 10.8219C21.5816 11.0043 21.365 11.149 21.1266 11.2476C20.8882 11.3462 20.6327 11.3969 20.3747 11.3967C20.1167 11.3969 19.8612 11.3462 19.6228 11.2476C19.3844 11.149 19.1677 11.0043 18.9853 10.8219C18.8029 10.6395 18.6582 10.4229 18.5596 10.1845C18.461 9.94605 18.4103 9.69054 18.4106 9.43254C18.4103 9.17455 18.461 8.91903 18.5596 8.68063C18.6582 8.44223 18.8029 8.22561 18.9853 8.04318C19.1677 7.86075 19.3844 7.71608 19.6228 7.61746C19.8612 7.51884 20.1167 7.46819 20.3747 7.46842Z" fill="url(#paint0_linear_6242_18484)"/>
<path d="M26.7212 48.8466C38.1621 48.8466 37.4478 43.8851 37.4478 43.8851L37.4351 38.7451H26.517V37.2018H41.7713C41.7713 37.2018 49.0924 38.0321 49.0924 26.4879C49.0924 14.9439 42.7024 15.3534 42.7024 15.3534H38.8888V20.7101C38.8888 20.7101 39.0944 27.1001 32.6008 27.1001H21.7723C21.7723 27.1001 15.6884 27.0018 15.6884 32.9801V42.8648C15.6884 42.8648 14.7646 48.8466 26.721 48.8466M32.7411 45.3902C32.4831 45.3905 32.2276 45.3398 31.9892 45.2412C31.7508 45.1426 31.5342 44.9979 31.3518 44.8155C31.1693 44.633 31.0247 44.4164 30.9261 44.178C30.8274 43.9396 30.7768 43.6841 30.777 43.4261C30.7768 43.1681 30.8274 42.9126 30.926 42.6742C31.0246 42.4357 31.1693 42.2191 31.3517 42.0366C31.5342 41.8542 31.7508 41.7095 31.9892 41.6109C32.2276 41.5122 32.4831 41.4616 32.7411 41.4618C32.9991 41.4616 33.2546 41.5122 33.493 41.6109C33.7315 41.7095 33.9481 41.8542 34.1305 42.0366C34.3129 42.219 34.4576 42.4356 34.5562 42.674C34.6548 42.9124 34.7055 43.1679 34.7053 43.4259C34.7055 43.6839 34.6548 43.9394 34.5562 44.1779C34.4576 44.4163 34.3129 44.6329 34.1305 44.8153C33.9481 44.9977 33.7315 45.1424 33.493 45.241C33.2546 45.3396 32.9991 45.3905 32.7411 45.3902Z" fill="url(#paint1_linear_6242_18484)"/>
</g>
<defs>
<linearGradient id="paint0_linear_6242_18484" x1="437.12" y1="407.258" x2="2670.52" y2="2618.38" gradientUnits="userSpaceOnUse">
<stop stop-color="#387EB8"/>
<stop offset="1" stop-color="#366994"/>
</linearGradient>
<linearGradient id="paint1_linear_6242_18484" x1="654.939" y1="704.646" x2="3053.36" y2="2971.95" gradientUnits="userSpaceOnUse">
<stop stop-color="#FFE052"/>
<stop offset="1" stop-color="#FFC331"/>
</linearGradient>
<clipPath id="clip0_6242_18484">
<rect width="45.1765" height="45" fill="white" transform="translate(4 4)"/>
</clipPath>
</defs>
</svg>
