<svg width="59" height="52" viewBox="0 0 59 52" fill="none" xmlns="http://www.w3.org/2000/svg">
<g clip-path="url(#clip0_6242_18435)">
<path d="M48.5869 16.837C47.9656 16.6238 47.3389 16.4263 46.7076 16.2447C46.8137 15.8114 46.9113 15.3833 46.998 14.9627C48.4207 8.05654 47.4906 2.49277 44.3138 0.660908C41.2679 -1.09523 36.2866 0.735943 31.2559 5.11421C30.7601 5.54648 30.2753 5.9912 29.8019 6.44796C29.4851 6.14423 29.1626 5.8464 28.8347 5.55461C23.5622 0.873241 18.2773 -1.09979 15.1039 0.737311C12.0608 2.49893 11.1597 7.72926 12.4405 14.2744C12.568 14.9226 12.7119 15.5675 12.872 16.2085C12.124 16.421 11.4021 16.6473 10.7113 16.8881C4.5297 19.0434 0.582031 22.4209 0.582031 25.9242C0.582031 29.5426 4.82003 33.1719 11.2585 35.3725C11.7804 35.5502 12.3067 35.7148 12.8369 35.8663C12.6647 36.5566 12.5119 37.2515 12.3785 37.9504C11.1574 44.382 12.111 49.4887 15.1459 51.2391C18.2805 53.0468 23.5416 51.189 28.6643 46.7108C29.0797 46.3467 29.486 45.9723 29.8827 45.588C30.3953 46.0826 30.9215 46.5628 31.4609 47.028C36.4233 51.298 41.324 53.0222 44.356 51.2669C47.4876 49.454 48.5055 43.968 47.1841 37.2935C47.08 36.7706 46.9632 36.2503 46.834 35.7331C47.2035 35.6236 47.5661 35.5109 47.9196 35.3937C54.613 33.1762 58.968 29.5909 58.968 25.9242C58.968 22.4081 54.8928 19.0078 48.5869 16.837ZM47.1353 33.0264C46.816 33.1319 46.4885 33.2339 46.1546 33.3331C45.4156 30.9938 44.4185 28.5065 43.1981 25.9363C44.3626 23.4276 45.3214 20.9719 46.0396 18.6479C46.6369 18.8208 47.2165 19.003 47.7752 19.1953C53.1782 21.0554 56.4738 23.8052 56.4738 25.9242C56.4738 28.1812 52.9146 31.1112 47.1353 33.0264ZM44.7373 37.778C45.3216 40.7292 45.4049 43.3976 45.0179 45.4838C44.6703 47.3583 43.971 48.6079 43.1062 49.1085C41.2663 50.1736 37.3314 48.7892 33.0877 45.1373C32.5861 44.7048 32.0965 44.2583 31.6196 43.7986C33.2649 41.9993 34.9091 39.9077 36.5138 37.5846C39.3364 37.3341 42.003 36.9245 44.4212 36.3655C44.5377 36.8338 44.6431 37.3047 44.7373 37.778ZM20.4871 48.9244C18.6894 49.5592 17.2576 49.5774 16.3921 49.0784C14.5504 48.0163 13.7848 43.9158 14.8291 38.4157C14.9533 37.7657 15.0954 37.1193 15.2554 36.4773C17.6469 37.0064 20.2941 37.3868 23.1233 37.6163C24.739 39.8894 26.4306 41.9788 28.1354 43.8084C27.7731 44.1589 27.4022 44.5005 27.0231 44.8329C24.7577 46.813 22.4877 48.2179 20.4871 48.9244ZM12.0654 33.0124C9.21836 32.0393 6.86719 30.7746 5.25565 29.3946C3.8074 28.1545 3.07643 26.9232 3.07643 25.9242C3.07643 23.7982 6.24593 21.0864 11.5324 19.2434C12.1739 19.0199 12.8454 18.8089 13.5421 18.6109C14.2729 20.9874 15.2312 23.4723 16.3878 25.9849C15.2162 28.5347 14.2441 31.0592 13.5063 33.4638C13.0224 33.3252 12.5419 33.1747 12.0654 33.0124ZM14.8884 13.7952C13.7912 8.18768 14.5199 3.95766 16.3538 2.896C18.307 1.76522 22.6262 3.37745 27.1787 7.41977C27.4755 7.68396 27.7676 7.95351 28.0547 8.22828C26.3583 10.0499 24.6822 12.1237 23.0809 14.3834C20.335 14.638 17.7065 15.0467 15.2898 15.5943C15.1409 14.9981 15.0071 14.3981 14.8884 13.7952ZM40.0735 20.0145C39.5027 19.0285 38.9107 18.055 38.298 17.0945C40.1609 17.3301 41.9458 17.6428 43.6218 18.025C43.1187 19.6379 42.4915 21.3241 41.7533 23.0528C41.2136 22.029 40.6536 21.016 40.0735 20.0145ZM29.8031 10.0111C30.9535 11.2575 32.1057 12.649 33.2389 14.1588C30.94 14.0502 28.6372 14.0498 26.3382 14.1574C27.4726 12.6615 28.6347 11.2719 29.8031 10.0111ZM19.4667 20.0314C18.8939 21.0248 18.3443 22.0315 17.8184 23.0506C17.0923 21.3279 16.4708 19.6341 15.9633 17.9983C17.6291 17.6257 19.4056 17.321 21.2566 17.0897C20.637 18.056 20.0402 19.037 19.4667 20.0314ZM21.3097 34.9362C19.3974 34.7227 17.5942 34.4338 15.9289 34.0711C16.4443 32.4062 17.0795 30.6763 17.8214 28.9168C18.3493 29.9366 18.9012 30.9439 19.4765 31.9378C20.0681 32.9595 20.6807 33.9603 21.3097 34.9362ZM29.8719 42.0132C28.6896 40.7379 27.5105 39.3268 26.359 37.8092C27.477 37.853 28.6166 37.8754 29.775 37.8754C30.9651 37.8754 32.1415 37.8487 33.2994 37.7971C32.1625 39.3421 31.0146 40.7552 29.8719 42.0132ZM41.7768 28.8269C42.5572 30.6058 43.215 32.3266 43.7372 33.963C42.0445 34.3494 40.2168 34.6605 38.2909 34.8915C38.908 33.9132 39.5056 32.9227 40.0833 31.9207C40.6707 30.9021 41.2353 29.8706 41.7768 28.8269ZM37.9228 30.6745C37.0384 32.2109 36.1043 33.7181 35.1219 35.1937C33.3424 35.3197 31.559 35.3823 29.775 35.3814C27.958 35.3814 26.1907 35.3248 24.4888 35.2145C23.4808 33.7422 22.5288 32.2324 21.635 30.6882C20.7453 29.1521 19.9145 27.5829 19.144 25.9838C19.9126 24.3843 20.741 22.8143 21.6277 21.2771L21.6274 21.2773C22.5137 19.7397 23.4581 18.2363 24.4585 16.7704C26.1948 16.639 27.9753 16.5706 29.7748 16.5706C31.5825 16.5706 33.3655 16.6397 35.1014 16.772C36.0917 18.2357 37.03 19.7339 37.9146 21.2639C38.8042 22.7977 39.6436 24.36 40.4316 25.9484C39.6517 27.5531 38.8149 29.1294 37.9228 30.6745ZM43.0681 2.82164C45.0231 3.94922 45.7835 8.49626 44.5551 14.4592C44.4766 14.8396 44.3886 15.2271 44.2928 15.62C41.8703 15.0608 39.2399 14.645 36.486 14.3866C34.8817 12.102 33.2193 10.025 31.5505 8.22691C31.9879 7.80532 32.4357 7.39467 32.8934 6.99533C37.2039 3.24426 41.2326 1.76317 43.0681 2.82164ZM29.775 20.7106C32.6544 20.7106 34.9887 23.0449 34.9887 25.9242C34.9887 28.8036 32.6544 31.1379 29.775 31.1379C26.8956 31.1379 24.5613 28.8036 24.5613 25.9242C24.5613 23.0449 26.8956 20.7106 29.775 20.7106Z" fill="#00D8FF"/>
</g>
<defs>
<clipPath id="clip0_6242_18435">
<rect width="58.386" height="52" fill="white" transform="translate(0.582031)"/>
</clipPath>
</defs>
</svg>
