<svg width="53" height="52" viewBox="0 0 53 52" fill="none" xmlns="http://www.w3.org/2000/svg">
<g clip-path="url(#clip0_6242_18374)">
<mask id="mask0_6242_18374" style="mask-type:luminance" maskUnits="userSpaceOnUse" x="0" y="0" width="53" height="52">
<path d="M0.582031 0H52.582V52H0.582031V0Z" fill="white"/>
</mask>
<g mask="url(#mask0_6242_18374)">
<path d="M52.582 25.3275C52.582 21.8825 48.2682 18.6173 41.6534 16.5936C43.1809 9.85313 42.5027 4.48847 39.5127 2.7703C38.7882 2.36453 37.9682 2.16028 37.138 2.1788V4.54047C37.6255 4.54047 38.0177 4.63797 38.347 4.8178C39.7879 5.64547 40.414 8.79147 39.9265 12.841C39.8095 13.8376 39.6189 14.8863 39.3849 15.9566C37.1697 15.4228 34.9216 15.037 32.6552 14.8018C31.3051 12.9391 29.8321 11.1686 28.246 9.50213C31.7019 6.29114 34.9454 4.5318 37.151 4.5318V2.16797C34.2347 2.16797 30.4192 4.2458 26.5604 7.84897C22.7037 4.26964 18.886 2.2113 15.9719 2.2113V4.57297C18.1667 4.57297 21.421 6.32363 24.8769 9.51297C23.3927 11.073 21.9085 12.841 20.498 14.8018C18.227 15.0344 15.9748 15.4239 13.7575 15.9675C13.5232 14.953 13.3388 13.9277 13.205 12.8951C12.7067 8.84347 13.322 5.69747 14.7542 4.86113C15.0705 4.67047 15.4844 4.5838 15.9719 4.5838V2.22214C15.0835 2.22214 14.2754 2.4128 13.5777 2.81364C10.5985 4.5318 9.9312 9.88347 11.4674 16.6045C4.8742 18.6411 0.582031 21.8933 0.582031 25.3275C0.582031 28.7725 4.89587 32.0376 11.5107 34.0591C9.9832 40.8018 10.6614 46.1665 13.6514 47.8825C14.3404 48.2855 15.1464 48.4761 16.0347 48.4761C18.951 48.4761 22.7665 46.3983 26.6254 42.7951C30.482 46.3766 34.2975 48.4328 37.2139 48.4328C38.0504 48.4505 38.8766 48.2456 39.608 47.8391C42.5872 46.1231 43.2545 40.7715 41.7184 34.0505C48.2899 32.0268 52.582 28.7616 52.582 25.3275ZM38.7804 18.2576C38.3687 19.6743 37.8915 21.0712 37.3504 22.4436C36.4645 20.7206 35.4919 19.0436 34.4362 17.4191C35.942 17.6423 37.3937 17.9175 38.7825 18.2576M33.9292 29.546C33.1356 30.9315 32.2833 32.2825 31.3747 33.5955C28.1946 33.8758 24.9961 33.8794 21.8154 33.6063C19.9909 31.0002 18.3954 28.2411 17.0465 25.36C18.3933 22.472 19.9821 19.7033 21.7959 17.0833C24.9752 16.8024 28.1729 16.7981 31.353 17.0703C32.2327 18.3313 33.0929 19.679 33.9184 21.1003C34.7244 22.487 35.4567 23.8953 36.124 25.3166C35.4493 26.7552 34.7171 28.1661 33.9292 29.546ZM37.3504 28.168C37.9224 29.5893 38.412 31.0085 38.8129 32.3865C37.4262 32.7266 35.9615 33.0126 34.447 33.2336C35.4984 31.5944 36.4674 29.9037 37.3504 28.168ZM26.6037 39.478C25.6179 38.4596 24.632 37.3265 23.657 36.085C24.6104 36.1283 25.5854 36.1608 26.5712 36.1608C27.5679 36.1608 28.5537 36.1391 29.5179 36.085C28.5645 37.3265 27.5787 38.4596 26.6037 39.478ZM18.717 33.2336C17.2561 33.022 15.8058 32.7429 14.3707 32.3973C14.7629 31.0301 15.2504 29.6196 15.8007 28.2113C16.2362 29.0563 16.6934 29.9056 17.1917 30.755C17.69 31.6021 18.197 32.4298 18.717 33.2336ZM26.5495 11.177C27.5354 12.1953 28.5212 13.3285 29.4962 14.57C28.5429 14.5266 27.5679 14.4941 26.582 14.4941C25.5854 14.4941 24.5995 14.5158 23.6354 14.57C24.5887 13.3285 25.5745 12.1953 26.5495 11.177ZM18.7062 17.4213C17.6551 19.057 16.6861 20.744 15.8029 22.4761C15.2465 21.0948 14.7584 19.6869 14.3404 18.2576C15.727 17.9283 17.1917 17.6423 18.7062 17.4213ZM9.11436 30.69C5.3617 29.091 2.93503 26.9915 2.93503 25.3275C2.93503 23.6635 5.3617 21.5531 9.11436 19.965C10.0244 19.5728 11.021 19.2218 12.0502 18.8946C12.6547 20.9703 13.4499 23.1326 14.4335 25.3491C13.5048 27.4339 12.7194 29.5795 12.0827 31.7711C11.0762 31.4595 10.0855 31.0987 9.11436 30.69ZM14.817 45.835C13.3762 45.0116 12.75 41.8613 13.2375 37.814C13.3545 36.8173 13.5452 35.7665 13.7792 34.6961C15.8549 35.2053 18.1234 35.5975 20.5089 35.8531C21.8591 37.7158 23.3321 39.4863 24.918 41.1528C21.4622 44.3638 18.2187 46.1231 16.013 46.1231C15.5969 46.1277 15.1861 46.0294 14.817 45.8371M39.959 37.762C40.4574 41.8115 39.842 44.9596 38.4099 45.796C38.0935 45.9866 37.6797 46.0711 37.1922 46.0711C34.9974 46.0711 31.743 44.3226 28.2872 41.1311C29.8665 39.4716 31.3296 37.7052 32.666 35.8445C34.9371 35.6118 37.1893 35.2223 39.4065 34.6788C39.6514 35.7491 39.8399 36.7761 39.959 37.762ZM44.0389 30.6921C43.1289 31.0843 42.1322 31.4353 41.103 31.7625C40.4551 29.5596 39.6589 27.4032 38.7197 25.308C39.6947 23.1045 40.4769 20.953 41.0705 18.886C42.0803 19.1987 43.0744 19.5595 44.0497 19.9671C47.8024 21.5661 50.229 23.6656 50.229 25.3296C50.2182 26.9936 47.7915 29.104 44.0389 30.6921Z" fill="#0A141F"/>
<path d="M26.5712 30.1737C27.8561 30.1737 29.0884 29.6633 29.9969 28.7547C30.9055 27.8462 31.4159 26.6139 31.4159 25.329C31.4159 24.0442 30.9055 22.8119 29.9969 21.9033C29.0884 20.9948 27.8561 20.4844 26.5712 20.4844C25.2863 20.4844 24.0541 20.9948 23.1455 21.9033C22.237 22.8119 21.7266 24.0442 21.7266 25.329C21.7266 26.6139 22.237 27.8462 23.1455 28.7547C24.0541 29.6633 25.2863 30.1737 26.5712 30.1737Z" fill="#0A141F"/>
</g>
</g>
<defs>
<clipPath id="clip0_6242_18374">
<rect width="52" height="52" fill="white" transform="translate(0.582031)"/>
</clipPath>
</defs>
</svg>
