<svg width="46" height="52" viewBox="0 0 46 52" fill="none" xmlns="http://www.w3.org/2000/svg">
<g clip-path="url(#clip0_6242_18437)">
<path d="M39.8512 10.2131C39.8154 9.95313 39.5877 9.80924 39.3994 9.79339C38.0114 9.6891 36.6234 9.58563 35.2353 9.483C35.2353 9.483 32.4738 6.74142 32.1707 6.43797C31.8674 6.13469 31.2751 6.22694 31.0452 6.29461C31.0114 6.30458 30.4419 6.48035 29.4998 6.77187C28.5774 4.11738 26.9493 1.67801 24.0852 1.67801C24.0062 1.67801 23.9248 1.68121 23.8434 1.68584C23.0289 0.608625 22.0198 0.140625 21.1483 0.140625C14.4765 0.140625 11.289 8.48111 10.2896 12.7195C7.69705 13.5228 5.85532 14.0939 5.62007 14.1678C4.17298 14.6217 4.12721 14.6673 3.9372 16.0309C3.7942 17.0632 0.0078125 46.3451 0.0078125 46.3451L29.5121 51.8732L45.4986 48.4148C45.4986 48.4148 39.8865 10.4731 39.8512 10.2131ZM27.8691 7.2762L25.3726 8.0489C25.3735 7.87295 25.3744 7.69986 25.3744 7.51056C25.3744 5.8608 25.1454 4.53249 24.778 3.47949C26.2537 3.66469 27.2366 5.34383 27.8691 7.2762ZM22.9473 3.80663C23.3576 4.83469 23.6244 6.3101 23.6244 8.30106C23.6244 8.40293 23.6235 8.49606 23.6226 8.59027C21.999 9.09317 20.2347 9.63917 18.4666 10.187C19.4594 6.35534 21.3203 4.50471 22.9473 3.80663ZM20.9651 1.93017C21.253 1.93017 21.5431 2.02794 21.8207 2.21902C19.6825 3.22519 17.3906 5.7593 16.4227 10.8199L12.3471 12.0821C13.4808 8.22217 16.1729 1.93017 20.9651 1.93017Z" fill="#95BF46"/>
<path d="M39.3976 9.79332C38.0096 9.68903 36.6216 9.58556 35.2335 9.48293C35.2335 9.48293 32.472 6.74135 32.1689 6.4379C32.0554 6.325 31.9025 6.26712 31.7426 6.24219L29.5117 51.8727L45.4967 48.4147C45.4967 48.4147 39.8847 10.4731 39.8494 10.2131C39.8136 9.95306 39.5858 9.80917 39.3976 9.79332Z" fill="#5E8E3E"/>
<path d="M24.084 18.6241L22.1128 24.4876C22.1128 24.4876 20.3858 23.5659 18.2687 23.5659C15.1651 23.5659 15.0089 25.5135 15.0089 26.0043C15.0089 28.6823 21.9898 29.7085 21.9898 35.9812C21.9898 40.9164 18.8596 44.0943 14.6391 44.0943C9.5744 44.0943 6.98438 40.9422 6.98438 40.9422L8.34047 36.4617C8.34047 36.4617 11.0028 38.7474 13.2493 38.7474C14.7172 38.7474 15.3143 37.5916 15.3143 36.7472C15.3143 33.2539 9.58722 33.0981 9.58722 27.3579C9.58722 22.5268 13.0548 17.8516 20.0545 17.8516C22.7516 17.8516 24.084 18.6241 24.084 18.6241Z" fill="#0A141F"/>
</g>
<defs>
<clipPath id="clip0_6242_18437">
<rect width="45.589" height="52" fill="white"/>
</clipPath>
</defs>
</svg>
