<svg width="53" height="52" viewBox="0 0 53 52" fill="none" xmlns="http://www.w3.org/2000/svg">
<g clip-path="url(#clip0_6242_18463)">
<path d="M13.7799 4H38.1518C39.3377 4 40.4893 4.18906 41.6065 4.58438C43.2221 5.16875 44.6831 6.2 45.7831 7.54063C46.9002 8.88125 47.6393 10.5312 47.8971 12.25C48.0002 12.8859 48.0174 13.5219 48.0174 14.1578V37.9281C48.0174 38.6844 47.9831 39.4578 47.8284 40.1969C47.4846 41.8984 46.6768 43.4969 45.5081 44.7859C44.3565 46.075 42.844 47.0375 41.2112 47.5531C40.2143 47.8625 39.1831 48 38.1346 48C37.6706 48 13.7112 48 13.3502 47.9828C11.5971 47.8969 9.86118 47.3297 8.40024 46.35C6.97367 45.3875 5.80492 44.0469 5.04867 42.5C4.39555 41.1766 4.06899 39.6984 4.06899 38.2203V13.7797C4.03461 12.3188 4.34399 10.875 4.97992 9.56875C5.71899 8.02188 6.87055 6.66406 8.29711 5.70156C9.75805 4.70469 11.4768 4.12031 13.2299 4.03438C13.4018 4 13.5909 4 13.7799 4Z" fill="url(#paint0_linear_6242_18463)"/>
<path d="M41.125 39.9906C40.9703 39.75 40.7984 39.5094 40.6094 39.2859C40.1797 38.7703 39.6812 38.3234 39.1312 37.9453C38.4437 37.4813 37.6359 37.1891 36.8109 37.1547C36.2266 37.1203 35.6422 37.2234 35.0922 37.4297C34.5422 37.6188 34.0094 37.8938 33.4938 38.1688C32.8922 38.4781 32.2906 38.7875 31.6547 39.0453C30.8984 39.3547 30.1078 39.5953 29.3 39.7672C28.2859 39.9563 27.2547 40.025 26.2406 40.0078C24.4016 39.9734 22.5625 39.6984 20.8094 39.1828C19.2625 38.7188 17.7844 38.0828 16.3922 37.275C15.1719 36.5703 14.0375 35.7625 12.9719 34.8516C12.0953 34.0953 11.2875 33.2875 10.5312 32.4281C10.0156 31.8266 9.51719 31.1906 9.05312 30.5375C8.86406 30.2797 8.69219 30.0047 8.5375 29.7297L4 24.8313V13.7453C4 8.36563 8.34844 4 13.7281 4H22.4078L28.8359 10.5313C43.3422 20.3969 38.65 31.2766 38.65 31.2766C38.65 31.2766 42.775 35.9172 41.125 39.9906Z" fill="url(#paint1_linear_6242_18463)"/>
<path d="M28.8719 10.5312C43.3781 20.3969 38.6859 31.2766 38.6859 31.2766C38.6859 31.2766 42.8109 35.9344 41.1438 40.0078C41.1438 40.0078 39.4422 37.1547 36.5891 37.1547C33.8391 37.1547 32.2234 40.0078 26.6891 40.0078C14.3656 40.0078 8.53906 29.7125 8.53906 29.7125C19.6422 37.0172 27.2219 31.8438 27.2219 31.8438C22.2203 28.9391 11.5813 15.0516 11.5813 15.0516C20.8453 22.9406 24.85 25.0203 24.85 25.0203C22.4609 23.0438 15.7578 13.3844 15.7578 13.3844C21.1203 18.8156 31.7766 26.3953 31.7766 26.3953C34.8016 18.0078 28.8719 10.5312 28.8719 10.5312Z" fill="white"/>
</g>
<defs>
<linearGradient id="paint0_linear_6242_18463" x1="30.1753" y1="2.42992" x2="21.8622" y2="49.5754" gradientUnits="userSpaceOnUse">
<stop stop-color="#FAAE42"/>
<stop offset="1" stop-color="#EF3E31"/>
</linearGradient>
<linearGradient id="paint1_linear_6242_18463" x1="26.4489" y1="4.71088" x2="20.3647" y2="39.216" gradientUnits="userSpaceOnUse">
<stop stop-color="#E39F3A"/>
<stop offset="1" stop-color="#D33929"/>
</linearGradient>
<clipPath id="clip0_6242_18463">
<rect width="44" height="44" fill="white" transform="translate(4 4)"/>
</clipPath>
</defs>
</svg>
