<svg width="53" height="52" viewBox="0 0 53 52" fill="none" xmlns="http://www.w3.org/2000/svg">
<g clip-path="url(#clip0_6242_18450)">
<path d="M51.932 6.68782C52.4933 5.68642 52.7161 4.90307 51.5189 5.0352H43.9789C41.8938 4.9184 38.9733 7.69817 36.1291 11.0259C34.9601 7.85214 33.4411 5.22766 30.2417 5.24178H21.5971C21.5971 5.24178 18.8704 5.20064 16.7001 10.9323C15.9235 9.23582 11.3559 5.57917 9.84718 5.03601C8.33836 4.49275 2.11086 4.63291 1.01144 4.93191C-0.0879712 5.23071 0.598287 6.17138 0.598287 6.17138C2.53336 8.37488 8.50828 22.9198 15.8713 26.4201L5.76274 45.2137C5.02418 46.2243 5.20801 46.932 6.33078 47.3311L15.3684 47.1762C17.426 46.898 18.8833 45.8614 19.913 44.2841L26.4604 34.4159L33.9601 45.2654C35.0532 46.4509 37.0558 46.9571 37.9366 46.9696H46.148C47.3627 46.9016 47.6531 46.705 47.3874 45.627L37.0352 26.4242C45.1668 22.1809 48.9849 10.3603 51.932 6.68782ZM30.3232 9.98475L33.2444 9.95661C32.5285 10.8982 31.5283 11.3412 30.2389 11.2768L30.3232 9.98475ZM31.6745 12.1262C32.8533 12.3473 33.1856 12.881 32.9156 15.2586C32.6456 17.6362 29.9134 16.7893 29.7854 15.4471C29.6577 14.1049 30.4955 11.905 31.6745 12.1262ZM28.5444 16.7165C28.451 17.7073 28.3671 18.7653 26.3577 18.9428C24.0987 19.142 23.9738 16.8938 23.9738 16.8938C26.0424 18.332 27.2455 18.048 28.5444 16.7165ZM22.2912 9.98475L22.3755 11.2768C21.086 11.3412 20.0859 10.8982 19.37 9.95661L22.2912 9.98475ZM22.8289 15.4471C22.701 16.7893 19.9688 17.6362 19.6987 15.2586C19.4288 12.881 19.761 12.3473 20.9398 12.1262C22.1188 11.905 22.9568 14.1049 22.8289 15.4471ZM34.296 25.9851C34.296 25.9851 43.9028 42.713 44.3921 44.181C41.2935 45.3516 36.3917 45.1168 34.5325 43.2576C32.6733 41.3985 26.8333 30.6504 26.8333 30.6504L18.2905 43.2576C17.3134 44.7541 16.3793 44.8098 14.6423 45.0542L7.89697 45.0511L13.894 34.185C20.5733 24.6826 26.4245 22.3443 33.3525 19.9316C38.2315 18.2324 42.0791 16.8831 46.61 12.6212C44.6476 16.4945 39.1175 23.4691 34.296 25.9851Z" fill="#F1CA31"/>
</g>
<defs>
<clipPath id="clip0_6242_18450">
<rect width="52" height="52" fill="white" transform="translate(0.386719)"/>
</clipPath>
</defs>
</svg>
