<svg width="53" height="52" viewBox="0 0 53 52" fill="none" xmlns="http://www.w3.org/2000/svg">
<g clip-path="url(#clip0_6242_18456)">
<path d="M38.75 2H13.25C7.0368 2 2 7.0368 2 13.25V38.75C2 44.9632 7.0368 50 13.25 50H38.75C44.9632 50 50 44.9632 50 38.75V13.25C50 7.0368 44.9632 2 38.75 2Z" fill="#0073AA"/>
<path d="M9.91407 25.9978C9.91407 32.3644 13.614 37.8664 18.9791 40.4738L11.3066 19.452C10.3869 21.5116 9.91236 23.7422 9.91407 25.9978ZM36.8567 25.1861C36.8567 23.1984 36.1427 21.8218 35.5303 20.7503C34.7149 19.4254 33.9506 18.3034 33.9506 16.9785C33.9506 15.4999 35.0721 14.1236 36.6516 14.1236C36.723 14.1236 36.7905 14.1324 36.8601 14.1364C33.9984 11.5148 30.186 9.91406 25.9984 9.91406C20.3794 9.91406 15.4356 12.7971 12.5597 17.1639C12.9369 17.1752 13.2926 17.1833 13.5947 17.1833C15.2771 17.1833 17.8813 16.9789 17.8813 16.9789C18.7483 16.9279 18.8507 18.2014 17.9844 18.3039C17.9844 18.3039 17.1131 18.4065 16.1436 18.4573L22.0007 35.8794L25.5206 25.3226L23.0147 18.4568C22.1486 18.4059 21.3281 18.3034 21.3281 18.3034C20.4613 18.2526 20.5629 16.9273 21.4298 16.9785C21.4298 16.9785 24.0859 17.1825 25.6663 17.1825C27.3486 17.1825 29.9529 16.9785 29.9529 16.9785C30.8207 16.9273 30.9225 18.2008 30.0561 18.3034C30.0561 18.3034 29.1829 18.4059 28.2152 18.4568L34.0279 35.7469L35.6321 30.3859C36.3276 28.161 36.8567 26.5631 36.8567 25.1861Z" fill="white"/>
<path d="M26.2829 27.405L21.457 41.4281C22.9325 41.8627 24.4626 42.0834 26.0007 42.0834C27.8199 42.0841 29.6259 41.7758 31.3418 41.1716C31.2972 41.1013 31.2589 41.0271 31.2275 40.95L26.2829 27.405ZM40.114 18.2812C40.1872 18.8294 40.2234 19.3819 40.2224 19.935C40.2224 21.5672 39.9175 23.4021 38.9993 25.6963L34.0863 39.9011C38.8681 37.1126 42.0845 31.9322 42.0845 25.9984C42.0847 23.2018 41.3705 20.5721 40.114 18.2812Z" fill="white"/>
<path d="M25.9996 7.25C15.6613 7.25 7.25 15.6607 7.25 25.9989C7.25 36.3384 15.6613 44.7487 25.9996 44.7487C36.3374 44.7487 44.75 36.3384 44.75 25.9989C44.7496 15.6607 36.3374 7.25 25.9996 7.25ZM25.9996 43.8894C16.1353 43.8894 8.10969 35.8636 8.10969 25.9989C8.10969 16.1347 16.1351 8.10969 25.9996 8.10969C35.8634 8.10969 43.8884 16.1347 43.8884 25.9989C43.8884 35.8636 35.8634 43.8894 25.9996 43.8894Z" fill="white"/>
</g>
<defs>
<clipPath id="clip0_6242_18456">
<rect width="48" height="48" fill="white" transform="translate(2 2)"/>
</clipPath>
</defs>
</svg>
