<svg width="16" height="17" viewBox="0 0 16 17" fill="none" xmlns="http://www.w3.org/2000/svg">
<path d="M14.0625 0.375C14.9766 0.375 15.75 1.14844 15.75 2.0625V14.4375C15.75 15.3867 14.9766 16.125 14.0625 16.125H9.21094V10.7812H11.25L11.6367 8.25H9.21094V6.63281C9.21094 5.92969 9.5625 5.26172 10.6523 5.26172H11.7422V3.11719C11.7422 3.11719 10.7578 2.94141 9.77344 2.94141C7.80469 2.94141 6.50391 4.17188 6.50391 6.35156V8.25H4.28906V10.7812H6.50391V16.125H1.6875C0.738281 16.125 0 15.3867 0 14.4375V2.0625C0 1.14844 0.738281 0.375 1.6875 0.375H14.0625Z" fill="white"/>
</svg>
