<svg width="18" height="18" viewBox="0 0 18 18" fill="none" xmlns="http://www.w3.org/2000/svg">
<path d="M17.4865 1.95423C17.2114 2.81318 16.6276 3.53634 15.8662 3.99213C16.6118 3.90336 17.3212 3.70476 17.9826 3.41178C17.4886 4.15037 16.8633 4.79949 16.1412 5.31704C16.1493 5.47528 16.1525 5.63493 16.1525 5.79423C16.1525 10.6651 12.4451 16.2812 5.66545 16.2812C3.5837 16.2812 1.64685 15.6704 0.015625 14.6251C0.304046 14.6588 0.597029 14.6767 0.894572 14.6767C2.62159 14.6767 4.21141 14.0872 5.47247 13.0991C3.86019 13.069 2.49913 12.0034 2.03001 10.5391C2.25563 10.582 2.4858 10.6055 2.7237 10.6055C3.06054 10.6055 3.38615 10.5605 3.69492 10.4763C2.00966 10.1374 0.738783 8.64721 0.738783 6.86195V6.81599C1.23598 7.09213 1.80405 7.25844 2.40826 7.27844C1.42019 6.61844 0.768958 5.49002 0.768958 4.21107C0.768958 3.53528 0.94966 2.90195 1.26755 2.35844C3.08545 4.58827 5.80124 6.05599 8.8644 6.20967C8.80159 5.9402 8.76896 5.65844 8.76896 5.36967C8.76896 3.33528 10.4195 1.68476 12.4553 1.68476C13.5149 1.68476 14.4728 2.13178 15.1454 2.84897C15.9851 2.683 16.7746 2.37634 17.4865 1.95423Z" fill="white"/>
</svg>
