<svg width="31" height="29" viewBox="0 0 31 29" fill="none" xmlns="http://www.w3.org/2000/svg">
<g clip-path="url(#clip0_519_8289)">
<path d="M21.0477 22.8359V25.3008H22.5147C22.7525 25.2937 22.9886 25.3418 23.2047 25.4414C23.4207 25.541 23.6107 25.6894 23.7596 25.8748C24.1633 26.3713 24.244 26.934 23.9849 27.5153C23.7257 28.0966 23.2583 28.4349 22.6124 28.4357C17.6676 28.4422 12.7225 28.4422 7.77723 28.4357C6.93516 28.4357 6.25214 27.7236 6.24811 26.8808C6.25041 26.4736 6.40919 26.0829 6.69158 25.7895C6.97397 25.4962 7.35833 25.3226 7.76513 25.3048C8.33028 25.2878 8.89543 25.3048 9.48076 25.3048V22.8383H9.14248C6.85605 22.8383 4.56855 22.8383 2.27997 22.8383C1.20457 22.8383 0.414163 22.3103 0.114634 21.3851C0.0398702 21.1458 0.00257055 20.8963 0.00403677 20.6456C-0.00134559 14.5027 -0.00134559 8.35922 0.00403677 2.21525C0.00403677 0.968697 0.811388 0.116138 2.05875 0.013604C2.13949 0.00714513 2.22022 0.00390625 2.30096 0.00390625C10.8918 0.00390625 19.4828 0.00390625 28.0741 0.00390625C28.8088 0.00390625 29.441 0.223511 29.9141 0.805614C30.2653 1.23755 30.3985 1.74215 30.3985 2.29438C30.3985 7.08846 30.3985 11.8825 30.3985 16.6766C30.3985 17.9684 30.3985 19.2574 30.3985 20.5438C30.3985 21.9389 29.5177 22.8335 28.1218 22.8383C25.8959 22.8456 23.67 22.8383 21.4441 22.8383L21.0477 22.8359ZM29.6864 17.0843V16.7428C29.6864 11.939 29.6727 7.13528 29.6985 2.33152C29.7034 1.34977 29.0244 0.686937 28.0443 0.688551C19.4739 0.703084 10.9036 0.705503 2.33324 0.695815C1.25704 0.695815 0.690288 1.26096 0.68948 2.33071C0.68948 7.13501 0.68948 11.939 0.68948 16.7428V17.0843H29.6864ZM0.717726 17.8109C0.705251 17.8523 0.696617 17.8947 0.691905 17.9377C0.691905 18.854 0.671712 19.7704 0.703199 20.6827C0.72123 20.9717 0.809641 21.2519 0.96074 21.4989C1.25139 21.9833 1.73662 22.1311 2.2832 22.1311C4.96146 22.1279 7.63919 22.1279 10.3164 22.1311H27.9563C28.0871 22.1311 28.2186 22.1311 28.3486 22.1222C29.156 22.0415 29.68 21.4626 29.6856 20.6496C29.6897 20.1264 29.6856 19.6 29.6856 19.0793V17.8109H0.717726ZM15.1815 26.0096H10.3196C9.484 26.0096 8.64838 26.0096 7.81277 26.0096C7.65685 26.0119 7.50441 26.0561 7.37144 26.1376C7.23847 26.219 7.12987 26.3348 7.05698 26.4726C6.98409 26.6105 6.9496 26.7654 6.95714 26.9211C6.96469 27.0769 7.01399 27.2277 7.09987 27.3579C7.3009 27.6679 7.6093 27.7567 7.96212 27.7567H22.4267C22.537 27.7569 22.647 27.7445 22.7545 27.7196C22.9533 27.6758 23.1299 27.562 23.252 27.3991C23.3741 27.2361 23.4336 27.0347 23.4197 26.8315C23.3955 26.3301 23.0266 26.008 22.459 26.0072C20.0337 26.0088 17.6081 26.0107 15.1823 26.0128L15.1815 26.0096ZM10.2251 25.283H20.3074V22.8609H10.2292L10.2251 25.283Z" fill="white"/>
<path d="M23.1655 8.27147C23.1655 8.86487 23.176 9.45909 23.1655 10.0525C23.1421 11.0916 22.3881 11.8844 21.3409 11.9901C20.8459 12.0427 20.3489 11.9117 19.9442 11.6219C19.5395 11.3321 19.2553 10.9038 19.1457 10.4182C19.1259 10.339 19.1151 10.2577 19.1134 10.176C19.1134 8.86703 19.1121 7.55885 19.1094 6.25147C19.1094 6.00927 19.22 5.85345 19.459 5.8478C19.6979 5.84214 19.7916 6.00926 19.8093 6.22563C19.8158 6.30637 19.8093 6.3871 19.8093 6.46784C19.8093 7.62478 19.8174 8.78252 19.8093 9.93946C19.8045 10.4764 20.0128 10.8808 20.4859 11.1239C20.7075 11.2467 20.9591 11.3052 21.2122 11.2927C21.4653 11.2801 21.7098 11.197 21.9182 11.0528C22.3267 10.7888 22.4833 10.3948 22.4833 9.92251C22.4833 8.77553 22.4833 7.62828 22.4833 6.48076C22.4833 6.39034 22.4833 6.29991 22.4833 6.20868C22.4833 5.99069 22.606 5.85667 22.8111 5.85183C23.0331 5.84537 23.1639 5.98342 23.1639 6.21352C23.1639 6.89816 23.1639 7.58199 23.1639 8.26663L23.1655 8.27147Z" fill="white"/>
<path d="M9.07083 8.25149C9.07083 8.87558 9.07971 9.49967 9.07083 10.1238C9.05307 11.1733 8.14076 12.0033 7.02903 11.996C5.94152 11.9887 5.03488 11.1451 5.026 10.1108C5.0155 8.84248 5.02599 7.57493 5.01953 6.30658C5.01953 6.06437 5.08493 5.88433 5.34732 5.85204C5.56289 5.8262 5.70982 6.00866 5.71063 6.30496C5.7144 7.52245 5.7144 8.73994 5.71063 9.95743C5.71063 10.4903 5.92378 10.8988 6.40092 11.1362C6.6284 11.2591 6.88609 11.315 7.14406 11.2973C7.40203 11.2795 7.64966 11.189 7.85818 11.0361C8.25137 10.768 8.38862 10.3764 8.3862 9.91464C8.38135 8.7682 8.3862 7.62095 8.3862 6.4737C8.3862 6.38327 8.3862 6.29204 8.39105 6.20162C8.40396 5.98848 8.52426 5.85204 8.73175 5.85527C8.95296 5.85527 9.07487 5.99656 9.07407 6.22907C9.07407 6.90348 9.07407 7.57628 9.07407 8.24746L9.07083 8.25149Z" fill="white"/>
<path d="M11.8402 9.65655L10.8246 11.5385C10.7818 11.6192 10.7439 11.7 10.6962 11.7807C10.5832 11.9607 10.4314 12.0697 10.2183 11.9551C10.0051 11.8404 9.98172 11.6443 10.0907 11.44C10.4581 10.7481 10.8101 10.0465 11.2089 9.37317C11.4059 9.04135 11.418 8.78784 11.2145 8.44956C10.8109 7.77865 10.4621 7.07705 10.0939 6.38434C9.98657 6.18331 9.98495 5.98067 10.2086 5.86441C10.4201 5.75703 10.5977 5.83777 10.7067 6.05333C10.7382 6.1163 10.7753 6.17605 10.8084 6.23822C11.0986 6.77645 11.3884 7.31603 11.678 7.85696C11.724 7.94254 11.7773 8.02408 11.8523 8.15084C12.0816 7.73101 12.2915 7.34348 12.4982 6.96241C12.6508 6.67984 12.7994 6.39726 12.9536 6.11307C13.1078 5.82888 13.3145 5.74169 13.505 5.87087C13.7472 6.03234 13.6794 6.24144 13.564 6.45377C13.1667 7.18685 12.7792 7.92558 12.3739 8.65382C12.3246 8.7272 12.2982 8.81364 12.2982 8.90208C12.2982 8.99052 12.3246 9.07695 12.3739 9.15034C12.7857 9.88557 13.185 10.6286 13.572 11.3794C13.6361 11.5105 13.653 11.6597 13.6197 11.8017C13.5935 11.8528 13.5545 11.8962 13.5066 11.9276C13.4586 11.959 13.4032 11.9774 13.346 11.9809C13.2046 11.9531 13.0797 11.8711 12.998 11.7524C12.6621 11.1703 12.3521 10.5721 12.0292 9.97626C11.9775 9.88342 11.921 9.793 11.8402 9.65655Z" fill="white"/>
<path d="M14.3945 13.3304C14.4397 13.1916 14.4656 13.1052 14.4962 13.0212C15.5361 10.2041 16.5765 7.38776 17.6175 4.57225C17.628 4.54399 17.6417 4.51735 17.6514 4.49151C17.7321 4.2493 17.8936 4.13062 18.1358 4.2267C18.3635 4.31712 18.3893 4.51412 18.3086 4.7321C18.0066 5.53946 17.7057 6.34896 17.4059 7.16062C16.6583 9.17578 15.9107 11.1907 15.1631 13.2053C15.1284 13.2989 15.1082 13.4257 15.038 13.4725C14.925 13.5476 14.7651 13.6211 14.6464 13.5961C14.5431 13.5718 14.468 13.4128 14.3945 13.3304Z" fill="white"/>
<path d="M24.6685 8.89413C24.6685 7.90808 24.6685 6.9223 24.6685 5.93679C24.6685 5.61384 24.7936 5.43945 25.0213 5.43945C25.249 5.43945 25.3757 5.61787 25.3765 5.9392C25.3765 7.92126 25.3814 9.90251 25.3668 11.8846C25.3627 11.9696 25.3407 12.0527 25.3024 12.1287C25.264 12.2046 25.21 12.2717 25.144 12.3254C24.9139 12.4747 24.6701 12.2519 24.6693 11.912C24.6669 10.9061 24.6685 9.89928 24.6685 8.89413Z" fill="white"/>
<path d="M16.3266 19.9642C16.3303 20.2644 16.2153 20.5541 16.0067 20.7701C15.7981 20.9861 15.5127 21.1111 15.2124 21.1179C14.9069 21.1174 14.6139 20.9965 14.3971 20.7812C14.1803 20.5659 14.0572 20.2737 14.0547 19.9682C14.0591 19.6684 14.1807 19.3823 14.3935 19.171C14.6062 18.9598 14.8933 18.8402 15.1931 18.8379C15.4927 18.837 15.7804 18.9552 15.993 19.1664C16.2055 19.3776 16.3255 19.6645 16.3266 19.9642ZM15.6331 19.9642C15.6324 19.9068 15.6201 19.8502 15.597 19.7977C15.5739 19.7452 15.5404 19.6979 15.4985 19.6587C15.4567 19.6195 15.4073 19.5892 15.3535 19.5695C15.2996 19.5498 15.2423 19.5413 15.185 19.5443C15.1277 19.5449 15.071 19.5567 15.0183 19.5791C14.9655 19.6016 14.9177 19.6342 14.8776 19.6752C14.8375 19.7161 14.8058 19.7646 14.7845 19.8177C14.7631 19.8709 14.7524 19.9278 14.7531 19.9852C14.7593 20.1004 14.8098 20.2087 14.8941 20.2876C14.9783 20.3664 15.0898 20.4096 15.2052 20.4082C15.2626 20.4079 15.3195 20.3961 15.3723 20.3735C15.4252 20.3509 15.4729 20.3179 15.5128 20.2765C15.5527 20.2351 15.5839 20.1861 15.6046 20.1325C15.6252 20.0788 15.6349 20.0216 15.6331 19.9642Z" fill="white"/>
<path d="M19.6437 19.995C19.6363 20.2938 19.5129 20.5781 19.2995 20.7874C19.086 20.9968 18.7994 21.1148 18.5005 21.1164C17.8796 21.1115 17.346 20.5641 17.3637 19.9506C17.3733 19.6515 17.4988 19.3678 17.7136 19.1595C17.9284 18.9512 18.2158 18.8345 18.515 18.834C18.6657 18.835 18.8146 18.866 18.9532 18.9251C19.0918 18.9842 19.2172 19.0703 19.3223 19.1783C19.4273 19.2863 19.5098 19.4142 19.565 19.5544C19.6201 19.6946 19.6469 19.8443 19.6437 19.995ZM18.4948 20.4059C18.5527 20.4096 18.6107 20.4012 18.6652 20.3813C18.7196 20.3613 18.7693 20.3302 18.811 20.2899C18.8527 20.2496 18.8856 20.2011 18.9074 20.1474C18.9293 20.0936 18.9397 20.036 18.9381 19.978C18.9417 19.9226 18.934 19.867 18.9154 19.8147C18.8968 19.7624 18.8677 19.7145 18.8299 19.6738C18.7921 19.6331 18.7464 19.6006 18.6956 19.5782C18.6447 19.5558 18.5899 19.5441 18.5344 19.5436C18.4767 19.5382 18.4186 19.5447 18.3635 19.5626C18.3085 19.5806 18.2577 19.6096 18.2143 19.648C18.1709 19.6864 18.1359 19.7332 18.1114 19.7857C18.0869 19.8382 18.0734 19.8951 18.0718 19.953C18.0692 20.0106 18.0781 20.0683 18.0981 20.1224C18.1181 20.1766 18.1486 20.2262 18.188 20.2684C18.2274 20.3106 18.2749 20.3445 18.3276 20.3681C18.3803 20.3917 18.4371 20.4046 18.4948 20.4059Z" fill="white"/>
<path d="M13.003 19.9757C13.0016 20.2002 12.9335 20.4193 12.8074 20.6052C12.6813 20.791 12.5029 20.9353 12.2947 21.0196C12.0866 21.104 11.8581 21.1246 11.6382 21.079C11.4183 21.0333 11.2169 20.9234 11.0595 20.7632C10.9021 20.603 10.7958 20.3997 10.7541 20.179C10.7124 19.9583 10.7371 19.7302 10.8252 19.5236C10.9132 19.317 11.0606 19.1412 11.2487 19.0184C11.4368 18.8957 11.657 18.8315 11.8816 18.8341C12.0302 18.8352 12.1772 18.8657 12.314 18.9237C12.4509 18.9817 12.575 19.0662 12.6791 19.1722C12.7833 19.2783 12.8655 19.4038 12.9211 19.5417C12.9767 19.6795 13.0045 19.827 13.003 19.9757ZM12.3111 19.9611C12.3094 19.9038 12.2962 19.8474 12.2724 19.7952C12.2485 19.743 12.2145 19.6961 12.1724 19.6573C12.1302 19.6184 12.0807 19.5883 12.0267 19.5688C11.9728 19.5493 11.9155 19.5408 11.8582 19.5437C11.7426 19.5458 11.6325 19.5937 11.552 19.6767C11.4715 19.7598 11.4272 19.8713 11.4287 19.987C11.4355 20.1024 11.4869 20.2106 11.572 20.289C11.6571 20.3673 11.7692 20.4095 11.8848 20.4068C11.9422 20.4058 11.9988 20.3935 12.0514 20.3706C12.1039 20.3476 12.1514 20.3144 12.191 20.273C12.2307 20.2315 12.2617 20.1826 12.2823 20.1291C12.3029 20.0755 12.3127 20.0185 12.3111 19.9611Z" fill="white"/>
</g>
<defs>
<clipPath id="clip0_519_8289">
<rect width="30.3969" height="28.4415" fill="white"/>
</clipPath>
</defs>
</svg>
