<svg width="30" height="30" viewBox="0 0 30 30" fill="none" xmlns="http://www.w3.org/2000/svg">
<g clip-path="url(#clip0_519_8343)">
<path d="M29.0192 19.2191V5.28859C29.0192 4.68664 28.8942 4.56495 28.28 4.56413C28.035 4.56413 27.7899 4.57148 27.5449 4.56413C27.2419 4.55188 27.0638 4.37056 27.0549 4.08878C27.0491 3.7923 27.2313 3.59873 27.5506 3.59138C27.9067 3.58239 28.2645 3.57586 28.6198 3.59138C28.9741 3.61474 29.308 3.76557 29.5598 4.016C29.8116 4.26642 29.9642 4.59951 29.9895 4.95372C29.996 5.055 29.9895 5.15709 29.9895 5.25919V22.442C29.9895 23.561 29.4177 24.1319 28.2939 24.1319H2.34728C1.22424 24.1319 0.648438 23.5602 0.648438 22.4453C0.648438 16.7182 0.648438 10.9906 0.648438 5.26245C0.648438 4.16147 1.22017 3.58566 2.3236 3.58484C2.56862 3.58484 2.81365 3.58076 3.05868 3.58484C3.40334 3.59383 3.59119 3.77433 3.58629 4.08224C3.58629 4.37382 3.396 4.55188 3.07011 4.56005C2.79568 4.5674 2.52043 4.56005 2.24518 4.56005C1.78698 4.56005 1.62772 4.7234 1.62772 5.1914C1.62772 7.24961 1.62772 9.30837 1.62772 11.3677V19.2142L29.0192 19.2191ZM1.62609 20.2303V22.393C1.62609 23.0399 1.74043 23.1526 2.3922 23.1526H28.2473C28.3192 23.1526 28.3903 23.1526 28.4613 23.1526C28.8436 23.1428 29.0151 22.9729 29.0175 22.5809C29.0224 21.8458 29.0175 21.1107 29.0175 20.3805C29.0144 20.3296 29.0081 20.2788 28.9987 20.2286L1.62609 20.2303Z" fill="white"/>
<path d="M25.1085 5.55662H5.54317V17.5139C5.54685 17.6157 5.54521 17.7177 5.53826 17.8193C5.53527 17.8809 5.52 17.9411 5.49334 17.9966C5.46669 18.0522 5.4292 18.1018 5.38307 18.1426C5.33695 18.1834 5.28312 18.2145 5.22477 18.2342C5.16642 18.2539 5.10472 18.2617 5.04331 18.2571C4.77378 18.2432 4.6088 18.0995 4.57041 17.8283C4.56236 17.7368 4.56045 17.6449 4.5647 17.5531V2.29941C4.5647 1.23764 5.15031 0.650391 6.20555 0.650391H24.4534C25.4899 0.650391 26.0869 1.24335 26.0869 2.27736C26.0869 7.39295 26.0869 12.5083 26.0869 17.6233C26.0869 18.0472 25.9497 18.2408 25.6402 18.2637C25.5768 18.2722 25.5124 18.2676 25.4509 18.2502C25.3894 18.2327 25.3322 18.2028 25.2828 18.1622C25.2333 18.1217 25.1928 18.0714 25.1637 18.0146C25.1345 17.9577 25.1174 17.8954 25.1134 17.8316C25.1081 17.7298 25.1081 17.6279 25.1134 17.5261V5.55662H25.1085ZM25.1085 4.55283V2.38354C25.1085 1.74729 24.9917 1.62886 24.3734 1.62886H6.27742C6.21617 1.62886 6.15491 1.62886 6.09447 1.62886C5.72448 1.64029 5.55133 1.80609 5.5448 2.17363C5.53827 2.54117 5.5448 2.88666 5.5448 3.24276V4.54957L25.1085 4.55283Z" fill="white"/>
<path d="M12.2043 27.0592H18.4786C18.4198 26.9734 18.3757 26.913 18.334 26.8501C18.1168 26.5185 17.884 26.1967 17.688 25.8528C17.514 25.5506 17.6063 25.2493 17.8709 25.1235C18.1356 24.9977 18.3659 25.1235 18.5562 25.4012C18.8649 25.852 19.2023 26.2841 19.5363 26.7194C19.7495 26.9996 20.0264 27.1106 20.3865 27.0763C20.6298 27.0547 20.875 27.0743 21.1118 27.1343C21.4089 27.2151 21.6722 27.3889 21.8633 27.6303C22.0543 27.8716 22.1631 28.1678 22.1736 28.4754C22.1859 28.8119 22.1834 29.1484 22.1736 29.4841C22.1638 29.8198 21.9817 29.9848 21.6558 30.0028C21.5847 30.0028 21.5128 30.0028 21.4418 30.0028H9.21418C8.61223 30.0028 8.4791 29.8704 8.4791 29.2677C8.4791 29.0129 8.47339 28.758 8.4791 28.5032C8.50442 27.7052 9.14394 27.0126 9.93211 27.0878C10.6631 27.158 11.1066 26.8305 11.4921 26.3135C11.7102 26.0211 11.907 25.7124 12.0973 25.4004C12.2737 25.1104 12.522 24.9985 12.7801 25.1218C13.0382 25.2452 13.1362 25.549 12.9631 25.8512C12.7344 26.2563 12.473 26.641 12.2043 27.0592ZM21.1796 29.0145C21.2425 28.1561 21.1445 28.0466 20.3359 28.0466H10.1918C10.1004 28.0466 10.0081 28.0466 9.9174 28.0466C9.66013 28.0695 9.50004 28.2149 9.46819 28.4664C9.45508 28.6475 9.45345 28.8292 9.46329 29.0104L21.1796 29.0145Z" fill="white"/>
<path d="M16.7324 7.49805C17.1408 7.49805 17.3564 7.8076 17.2356 8.18167C16.944 9.0801 16.6442 9.97853 16.3453 10.877C15.6968 12.8252 15.0475 14.7726 14.3973 16.7192C14.234 17.1986 14.0265 17.3661 13.7096 17.264C13.3731 17.1553 13.3013 16.9046 13.472 16.4015C14.4107 13.5864 15.3486 10.7708 16.2857 7.95461C16.3706 7.69815 16.4923 7.51111 16.7324 7.49805Z" fill="white"/>
<path d="M9.24196 12.3913C10.0522 13.066 10.833 13.7145 11.6105 14.3671C11.71 14.4374 11.7955 14.5254 11.8629 14.6268C11.9846 14.8522 11.9299 15.0662 11.7363 15.2287C11.5248 15.406 11.3043 15.3815 11.0984 15.2108C10.4565 14.6782 9.81533 14.1444 9.17499 13.6091C8.863 13.3486 8.54773 13.0905 8.23736 12.8267C7.90086 12.5408 7.89923 12.2411 8.23736 11.9593C9.16302 11.1812 10.0925 10.4053 11.0258 9.63153C11.3059 9.39876 11.591 9.39794 11.7821 9.61928C11.983 9.85287 11.9364 10.1428 11.6465 10.3854C10.8575 11.0453 10.0677 11.702 9.24196 12.3913Z" fill="white"/>
<path d="M21.3984 12.3846L19.3728 10.6956C19.2242 10.5714 19.0706 10.4506 18.9277 10.3231C18.7112 10.1247 18.6827 9.85106 18.855 9.64197C18.8934 9.59042 18.9419 9.5473 18.9977 9.51531C19.0535 9.48332 19.1152 9.46314 19.1791 9.45601C19.2429 9.44889 19.3076 9.45498 19.369 9.4739C19.4305 9.49283 19.4874 9.52418 19.5362 9.56602C20.5261 10.3828 21.51 11.2055 22.4879 12.0342C22.7615 12.2678 22.7141 12.5766 22.3997 12.8404C21.5421 13.5602 20.6823 14.2773 19.8204 14.9917C19.7387 15.0636 19.6505 15.1387 19.5615 15.2057C19.305 15.4001 19.0428 15.3837 18.8566 15.1657C18.6704 14.9476 18.6933 14.6585 18.9505 14.4445C19.6905 13.8221 20.4354 13.2055 21.1778 12.5855C21.2464 12.5251 21.3101 12.4639 21.3984 12.3846Z" fill="white"/>
<path d="M15.3505 22.1752C15.0344 22.1752 14.7183 22.1801 14.403 22.1752C14.0878 22.1703 13.8795 21.9857 13.8713 21.7048C13.8632 21.4238 14.0771 21.2066 14.4071 21.2025C15.0385 21.1959 15.6706 21.1951 16.302 21.2025C16.6336 21.2025 16.841 21.4181 16.8304 21.7105C16.8198 22.0029 16.6246 22.1703 16.2979 22.1752C15.9712 22.1801 15.6665 22.1752 15.3505 22.1752Z" fill="white"/>
<path d="M20.6713 3.5854C19.7345 3.5854 18.7977 3.5854 17.8601 3.5854C17.4639 3.5854 17.2663 3.41306 17.2736 3.08718C17.2802 2.78171 17.4819 2.60938 17.856 2.60938C19.7503 2.60938 21.6446 2.60938 23.539 2.60938C23.9049 2.60938 24.1107 2.79233 24.1164 3.09453C24.1221 3.39672 23.9073 3.58458 23.5447 3.58458C22.5858 3.5903 21.6286 3.5854 20.6713 3.5854Z" fill="white"/>
<path d="M7.49674 3.09961C7.49523 3.22856 7.44296 3.3517 7.35124 3.44235C7.25953 3.53299 7.13577 3.58383 7.00682 3.58382C6.87802 3.5821 6.75509 3.52973 6.66462 3.43803C6.57415 3.34634 6.52343 3.22271 6.52344 3.0939C6.52537 2.96524 6.57783 2.84251 6.6695 2.75222C6.76117 2.66192 6.88468 2.61131 7.01336 2.61133C7.14187 2.61304 7.26457 2.66519 7.35499 2.75653C7.44541 2.84787 7.49632 2.97109 7.49674 3.09961Z" fill="white"/>
<path d="M8.96077 3.5835C8.83183 3.58199 8.70868 3.52971 8.61803 3.438C8.52739 3.34628 8.47655 3.22253 8.47656 3.09358C8.47807 2.96464 8.53035 2.84149 8.62207 2.75084C8.71378 2.6602 8.83753 2.60937 8.96648 2.60938C9.09556 2.61067 9.21892 2.66285 9.30974 2.75459C9.40056 2.84633 9.45151 2.9702 9.45151 3.09929C9.45 3.22838 9.3976 3.35165 9.30571 3.44231C9.21382 3.53298 9.08986 3.58372 8.96077 3.5835Z" fill="white"/>
<path d="M10.9349 2.61139C11.0635 2.61523 11.1855 2.66955 11.2744 2.7626C11.3633 2.85565 11.4121 2.97996 11.4101 3.10865C11.4064 3.23759 11.3521 3.3599 11.2589 3.44902C11.1656 3.53814 11.041 3.58689 10.912 3.58469C10.7832 3.58064 10.6612 3.526 10.5724 3.43261C10.4836 3.33923 10.4352 3.21463 10.4376 3.08579C10.4416 2.95728 10.4961 2.83552 10.5891 2.74677C10.6821 2.65802 10.8063 2.60939 10.9349 2.61139Z" fill="white"/>
</g>
<defs>
<clipPath id="clip0_519_8343">
<rect width="29.35" height="29.3541" fill="white" transform="translate(0.648438 0.650391)"/>
</clipPath>
</defs>
</svg>
