<svg width="31" height="30" viewBox="0 0 31 30" fill="none" xmlns="http://www.w3.org/2000/svg">
<g clip-path="url(#clip0_519_8304)">
<path d="M30.5993 14.5249C30.2282 15.1826 29.7501 15.248 29.2146 14.7141L28.0094 13.5113C27.9767 13.4848 27.9426 13.46 27.9073 13.4371V19.9019C27.9073 20.803 27.7093 20.9985 26.7963 20.9985C21.6079 20.9985 16.4202 20.9964 11.2329 20.9921C10.9687 20.9921 10.8338 21.06 10.766 21.3154C10.576 22.0632 10.1411 22.645 9.57838 23.167C8.84092 23.8502 8.14894 24.5829 7.43782 25.294C7.38833 25.3427 7.34045 25.3938 7.28937 25.4417C7.0635 25.6508 6.81049 25.6675 6.62453 25.4887C6.43857 25.31 6.43458 25.0354 6.66364 24.8048C7.44953 24.013 8.23807 23.2242 9.02927 22.4383C9.12824 22.3402 9.23838 22.254 9.31819 22.1845L7.52561 20.4007L2.6004 25.3307L4.39458 27.1113C4.58134 26.9126 4.82078 26.65 5.06979 26.3978C5.3188 26.1456 5.57181 26.1153 5.77373 26.3076C5.97566 26.5 5.96129 26.7673 5.69392 27.0347C4.97561 27.753 4.26209 28.4713 3.53899 29.1896C2.91406 29.8034 2.12312 29.8042 1.49659 29.1976C1.13904 28.8512 0.786799 28.4995 0.439882 28.1425C-0.14993 27.5359 -0.147533 26.7226 0.452655 26.1193C2.05528 24.5103 3.6603 22.9039 5.26772 21.3002C5.34753 21.2244 5.41697 21.1446 5.55345 21.0009H5.17754C4.28125 21.0009 3.38496 21.0049 2.48867 21.0009C1.23082 20.9953 0.481385 20.2435 0.480587 18.9928C0.480587 13.3352 0.480587 7.67759 0.480587 2.01996C0.480587 0.768507 1.2396 0.00630062 2.48388 0.00390625C3.08087 0.00390625 3.68106 0.00390625 4.27566 0.00390625C4.77209 0.00390625 5.0235 0.263296 5.02589 0.764517C5.02589 1.43095 5.02589 2.09738 5.02589 2.8101H5.41458C6.03153 2.8101 6.64927 2.8101 7.26622 2.8101C7.5735 2.8101 7.76425 2.9833 7.77303 3.24189C7.78181 3.50048 7.58388 3.70081 7.26542 3.7032C6.53035 3.70799 5.79608 3.7032 5.02589 3.7032V17.3144C5.02589 17.984 4.82158 18.1923 4.15435 18.1923C3.54697 18.1923 2.9388 18.1811 2.33223 18.1987C1.8334 18.2139 1.4543 18.5483 1.38566 18.9968C1.34851 19.2152 1.38963 19.4396 1.50176 19.6306C1.6139 19.8216 1.78986 19.9668 1.99862 20.0408C2.14049 20.0857 2.28879 20.107 2.43758 20.1038C3.70261 20.1086 4.96683 20.1118 6.23186 20.0982C6.3847 20.0918 6.52949 20.028 6.6373 19.9195C7.04993 19.4478 7.55435 19.1485 8.14416 18.9457C8.91435 18.6816 9.66937 18.3719 10.4292 18.0758C10.7923 17.9345 11.1339 17.9313 11.4252 18.221C11.7166 18.5108 11.7213 18.8524 11.5769 19.2155C11.4667 19.4917 11.3646 19.7742 11.2465 20.0799H27.011V19.7758C27.011 17.4453 27.0123 15.1148 27.015 12.7842C27.0188 12.6966 27.0034 12.6093 26.9698 12.5283C26.9361 12.4473 26.8851 12.3748 26.8202 12.3157C24.0071 9.50954 21.1943 6.70255 18.3817 3.89475C18.2626 3.78579 18.1088 3.72247 17.9475 3.71597C15.1892 3.7056 12.4309 3.70799 9.67256 3.70799C9.57304 3.71347 9.47325 3.71134 9.37406 3.70161C9.12505 3.6609 8.975 3.50766 8.975 3.25546C8.975 3.00325 9.12744 2.85161 9.37965 2.81729C9.47893 2.80902 9.57863 2.80715 9.67815 2.8117H17.226L17.2882 2.72231C16.9858 2.44217 16.6809 2.16363 16.3816 1.88109C16.2004 1.71029 16.0232 1.5347 15.854 1.35193C15.7504 1.25002 15.6815 1.11812 15.657 0.974888C15.6325 0.831658 15.6537 0.684352 15.7175 0.553812C15.77 0.423155 15.8614 0.311828 15.9793 0.234993C16.0973 0.158159 16.2361 0.119549 16.3768 0.124422C16.4462 0.124422 16.5157 0.124422 16.5859 0.124422C20.9373 0.124422 25.2889 0.122028 29.6408 0.117239C30.0925 0.117239 30.4118 0.250526 30.5985 0.667146L30.5993 14.5249ZM23.5591 7.73612L24.615 8.80879C24.6701 8.71424 24.73 8.6226 24.7946 8.53424C24.8655 8.4509 24.9426 8.373 25.0252 8.30119C25.2535 8.09208 25.4993 8.0809 25.6877 8.26926C25.876 8.45762 25.8697 8.71381 25.6558 8.92931C25.5025 9.08414 25.3237 9.21344 25.1968 9.32039L26.1873 10.3731C26.2623 10.3021 26.3342 10.2342 26.4044 10.1656C26.4746 10.097 26.5576 10.006 26.6374 9.93414C26.8705 9.71785 27.1059 9.70029 27.3007 9.88227C27.4954 10.0642 27.4882 10.338 27.2688 10.5679C27.1203 10.7227 26.9559 10.8624 26.8354 10.9741L29.6847 13.8218V1.03827H16.89L19.7441 3.89874C19.7896 3.83888 19.8446 3.75508 19.9101 3.68006C19.983 3.59825 20.0602 3.52045 20.1415 3.44701C20.3714 3.23151 20.6459 3.21715 20.8287 3.4087C21.0115 3.60025 20.9963 3.84926 20.7808 4.07194C20.63 4.22597 20.4616 4.36565 20.3171 4.50133L21.3635 5.55245C21.4991 5.39283 21.6276 5.21245 21.7809 5.06001C21.9956 4.84771 22.2597 4.84212 22.4433 5.0225C22.6269 5.20288 22.6301 5.46226 22.4122 5.68414C22.2619 5.82513 22.1044 5.95832 21.9405 6.0832L23.0028 7.14391C23.0531 7.07367 23.1129 6.98029 23.184 6.89729C23.2563 6.81516 23.3336 6.7376 23.4154 6.66504C23.6301 6.47189 23.8728 6.46151 24.0539 6.63391C24.2351 6.8063 24.2519 7.07527 24.042 7.29555C23.8943 7.45597 23.7211 7.59166 23.5591 7.73612ZM4.11444 0.897803H2.53096C1.71688 0.897803 1.37608 1.24259 1.37608 2.06466V17.4485C1.83979 17.3958 2.28594 17.3248 2.73289 17.3C3.17984 17.2753 3.64275 17.2944 4.11204 17.2944L4.11444 0.897803ZM3.64833 27.8368L1.81265 26.0011C1.56364 26.2597 1.28589 26.5295 1.0297 26.8176C0.842137 27.0283 0.854907 27.2757 1.06002 27.4896C1.41918 27.8621 1.78552 28.2282 2.15904 28.5879C2.38331 28.8034 2.62913 28.8097 2.85261 28.607C3.12876 28.3548 3.39214 28.085 3.64833 27.8368ZM10.7269 18.9202L8.41951 19.8085L9.84017 21.2308C10.1187 20.5021 10.4092 19.7463 10.7269 18.9202Z" fill="white"/>
<path d="M25.0549 25.9994C24.1506 25.9994 23.236 25.9994 22.3213 26.005C22.2377 26.0232 22.1625 26.0687 22.1074 26.1343C21.6198 26.6179 21.1385 27.112 20.6548 27.5908C20.1712 28.0697 19.7386 28.0601 19.2557 27.5797C18.7729 27.0992 18.2868 26.606 17.7968 26.1247C17.7308 26.0569 17.6434 26.014 17.5493 26.0034C16.6538 25.9946 15.7592 25.9978 14.8708 25.9978C14.3257 27.1335 13.5691 27.5845 12.6074 27.3586C12.1999 27.2607 11.8374 27.0283 11.5784 26.699C11.3193 26.3697 11.1789 25.9626 11.1797 25.5436C11.1805 25.1246 11.3226 24.7181 11.583 24.3898C11.8433 24.0615 12.2067 23.8306 12.6145 23.7343C13.5891 23.5196 14.3233 23.961 14.8732 25.1015C15.7615 25.1015 16.657 25.1055 17.5517 25.0951C17.6548 25.0781 17.749 25.0266 17.8191 24.9491C18.3163 24.4606 18.804 23.9634 19.2996 23.4733C19.7234 23.0551 20.1903 23.0495 20.6117 23.463C21.1161 23.9578 21.6102 24.4638 22.1114 24.961C22.1705 25.0193 22.2519 25.0943 22.3237 25.0951C23.2376 25.1039 24.1522 25.1007 25.0557 25.1007C25.5234 23.9977 26.3055 23.5252 27.2904 23.7327C27.7012 23.8276 28.068 24.058 28.3319 24.3868C28.5957 24.7156 28.7411 25.1237 28.7446 25.5453C28.7446 26.4144 28.1061 27.2038 27.2657 27.369C26.2952 27.5605 25.5066 27.0769 25.0549 25.9994ZM21.3268 25.5676L19.9477 24.1797L18.5558 25.5668L19.9509 26.9523L21.3268 25.5676ZM13.9913 25.5421C13.9913 25.2881 13.8904 25.0444 13.7108 24.8648C13.5312 24.6852 13.2876 24.5843 13.0336 24.5843C12.7796 24.5843 12.5359 24.6852 12.3563 24.8648C12.1767 25.0444 12.0758 25.2881 12.0758 25.5421C12.0758 25.7961 12.1767 26.0397 12.3563 26.2193C12.5359 26.3989 12.7796 26.4998 13.0336 26.4998C13.2876 26.4998 13.5312 26.3989 13.7108 26.2193C13.8904 26.0397 13.9913 25.7961 13.9913 25.5421ZM25.924 25.5508C25.924 25.6775 25.9491 25.8029 25.9979 25.9198C26.0467 26.0367 26.1182 26.1427 26.2082 26.2318C26.2982 26.3208 26.4051 26.3912 26.5225 26.4387C26.6399 26.4862 26.7655 26.51 26.8922 26.5086C27.0829 26.5078 27.2692 26.4504 27.4274 26.3437C27.5855 26.237 27.7085 26.0858 27.7806 25.9092C27.8528 25.7326 27.871 25.5385 27.8328 25.3516C27.7946 25.1646 27.7018 24.9932 27.5662 24.8591C27.4306 24.7249 27.2582 24.634 27.0708 24.5978C26.8835 24.5617 26.6897 24.5819 26.5138 24.656C26.338 24.73 26.1881 24.8546 26.0831 25.0139C25.9781 25.1732 25.9228 25.3601 25.924 25.5508Z" fill="white"/>
<path d="M15.6206 12.6654C15.9614 12.1626 16.362 11.8489 16.9415 11.8258C17.5624 11.8002 18.0501 12.0452 18.3781 12.5704C18.9176 13.4404 19.4478 14.3164 19.9687 15.1986C20.3223 15.7996 19.9496 16.4477 19.2504 16.4493C16.4836 16.4557 13.7168 16.4557 10.95 16.4493C10.2859 16.4493 9.9124 15.8778 10.1822 15.2752C10.9579 13.5433 11.7457 11.817 12.531 10.0874C12.7162 9.6804 13.0291 9.44895 13.4888 9.44336C13.9589 9.44336 14.2749 9.6828 14.4649 10.101C14.8424 10.9422 15.2215 11.7874 15.6206 12.6654ZM15.9199 15.5386C15.8808 15.4349 15.8544 15.3527 15.8193 15.2744C15.1116 13.7091 14.4018 12.145 13.6899 10.5823C13.6358 10.4949 13.5712 10.4145 13.4976 10.3428C13.4257 10.4274 13.3292 10.5025 13.2845 10.5974C12.5709 12.1607 11.8627 13.7253 11.1599 15.2912C11.1255 15.371 11.1 15.4508 11.0649 15.5418L15.9199 15.5386ZM19.1435 15.5514C18.5928 14.6503 18.0884 13.7955 17.5472 12.9671C17.4586 12.8306 17.2168 12.7492 17.0356 12.7276C16.7076 12.6893 16.0619 13.3845 16.0947 13.7005C16.104 13.7391 16.1194 13.776 16.1402 13.8099C16.3796 14.335 16.6126 14.8618 16.8585 15.383C16.8904 15.4516 16.9742 15.5426 17.0356 15.5426C17.7172 15.5586 18.398 15.5546 19.1411 15.5546L19.1435 15.5514Z" fill="white"/>
<path d="M17.0245 10.5894C16.7041 10.5882 16.3913 10.4917 16.1258 10.3123C15.8603 10.1329 15.6541 9.87873 15.5333 9.58194C15.4126 9.28516 15.3827 8.95918 15.4475 8.64539C15.5123 8.3316 15.6689 8.04413 15.8973 7.81948C16.1258 7.59483 16.4159 7.44312 16.7307 7.38361C17.0456 7.32409 17.371 7.35946 17.6657 7.48522C17.9604 7.61097 18.2111 7.82145 18.386 8.08994C18.5609 8.35842 18.652 8.67281 18.6479 8.9932C18.6466 9.20473 18.6035 9.41391 18.5211 9.60873C18.4387 9.80356 18.3186 9.98019 18.1678 10.1285C18.0169 10.2768 17.8383 10.3939 17.6421 10.473C17.4459 10.5521 17.2361 10.5917 17.0245 10.5894ZM17.0453 9.69156C17.2357 9.6882 17.4169 9.6094 17.5492 9.47246C17.6815 9.33552 17.754 9.15166 17.7508 8.96128C17.7471 8.77077 17.6679 8.58954 17.5306 8.45745C17.3932 8.32536 17.2091 8.25323 17.0186 8.25694C16.828 8.26064 16.6468 8.33987 16.5147 8.4772C16.3826 8.61453 16.3105 8.7987 16.3142 8.98921C16.3157 9.08332 16.3358 9.17621 16.3734 9.26247C16.4111 9.34873 16.4655 9.42666 16.5335 9.49171C16.6015 9.55676 16.6818 9.60764 16.7697 9.6414C16.8575 9.67516 16.9512 9.69113 17.0453 9.68837V9.69156Z" fill="white"/>
<path d="M25.2148 3.0474C25.7735 3.0474 26.3322 3.04341 26.8861 3.0474C27.3705 3.05219 27.6674 3.3419 27.6698 3.82956C27.6754 4.95331 27.6698 6.07707 27.6698 7.20082C27.6698 7.52806 27.5381 7.78505 27.2324 7.91914C26.9268 8.05322 26.6299 7.97979 26.388 7.73796C25.2494 6.59931 24.1107 5.45959 22.9721 4.31881C22.7119 4.05782 22.6528 3.7673 22.7917 3.47599C22.9306 3.18467 23.1796 3.04101 23.51 3.045C24.0815 3.05219 24.6465 3.0474 25.2148 3.0474ZM26.7584 3.96524H23.9769L26.7584 6.75148V3.96524Z" fill="white"/>
</g>
<defs>
<clipPath id="clip0_519_8304">
<rect width="30.6" height="29.6494" fill="white"/>
</clipPath>
</defs>
</svg>
