<svg width="27" height="27" viewBox="0 0 27 27" fill="none" xmlns="http://www.w3.org/2000/svg">
<g clip-path="url(#clip0_519_8360)">
<path d="M13.9372 12.94C13.9372 9.53903 13.9372 6.13786 13.9372 2.73645C13.9372 1.84455 13.405 1.30664 12.521 1.30664H1.42006C0.538963 1.30664 0.00463323 1.84745 0.00390625 2.73645C0.00390625 6.13786 0.00390625 9.53903 0.00390625 12.94C0.00390625 13.8413 0.538962 14.3705 1.44769 14.3705H12.4934C13.4014 14.3705 13.9372 13.8399 13.9372 12.94ZM13.0648 12.9007C13.0648 13.363 12.9281 13.4997 12.4651 13.4997H1.47313C1.01077 13.4997 0.874827 13.3637 0.874827 12.9007V2.77571C0.874827 2.31267 1.01077 2.17747 1.47386 2.17747H12.468C12.9303 2.17747 13.067 2.3134 13.067 2.77643L13.0648 12.9007Z" fill="white"/>
<path d="M26.375 0H16.3056C15.8047 0 15.6797 0.125755 15.6797 0.625863V14.1797C15.6797 14.6805 15.8055 14.8062 16.3049 14.8062H26.3743C26.8737 14.8062 27.0002 14.6798 27.0009 14.1804V0.626588C27.0002 0.12648 26.8744 0 26.375 0ZM26.1169 13.918H16.5681V0.886092H26.1169V13.918Z" fill="white"/>
<path d="M25.5421 16.1133H14.5509C13.5847 16.1133 13.0664 16.6265 13.0664 17.5845V25.5296C13.0664 26.4745 13.5869 27.0001 14.524 27.0001C18.1967 27.0001 21.8696 27.0001 25.5428 27.0001C26.469 27.0001 26.9968 26.4745 26.9968 25.5557C26.9968 22.8904 26.9968 20.2251 26.9968 17.5598C26.9997 16.6374 26.4697 16.1133 25.5421 16.1133ZM26.1288 25.5303C26.1288 25.9926 25.9928 26.1292 25.5305 26.1292H14.5364C14.0733 26.1292 13.9373 25.9933 13.9373 25.5303C13.9373 22.8815 13.9373 20.2324 13.9373 17.5831C13.9373 17.12 14.0725 16.9841 14.5356 16.9841H25.5297C25.9928 16.9841 26.1288 17.12 26.1288 17.5831C26.1297 20.2319 26.1297 22.881 26.1288 25.5303Z" fill="white"/>
<path d="M10.6107 17.2556C9.5035 16.2954 8.18694 15.8221 6.74098 15.708C4.95334 15.5663 3.29219 15.9479 1.84623 17.0448C-0.324529 18.6898 -0.632767 21.3546 1.19704 23.3267C1.26361 23.4073 1.30123 23.5078 1.30391 23.6123C1.30899 23.8522 1.31045 24.0928 1.31045 24.3327C1.31045 24.5726 1.31045 24.8139 1.31045 25.0538C1.31045 25.5168 1.31481 25.9791 1.31045 26.4414C1.31045 26.666 1.34825 26.858 1.57652 26.9583C1.82006 27.0658 1.98945 26.943 2.15156 26.7787C2.7077 26.219 3.26239 25.6578 3.82943 25.1068C3.92082 25.0326 4.03794 24.9975 4.15512 25.0094C4.5913 25.0683 5.02749 25.1883 5.46368 25.2224C7.25132 25.3613 8.90956 24.9789 10.357 23.8827C11.414 23.0832 12.1068 22.0401 12.1846 20.6844C12.2638 19.2778 11.6503 18.1562 10.6107 17.2556ZM9.88371 23.1609C8.59405 24.159 7.10374 24.489 5.50584 24.353C5.0224 24.3123 4.54478 24.1822 4.07079 24.0667C3.82216 24.0063 3.6346 24.0478 3.45794 24.2317C3.05665 24.6474 2.64373 25.0523 2.1821 25.5146C2.1821 24.7456 2.19518 24.0608 2.17264 23.3696C2.16312 23.1845 2.0911 23.0082 1.96836 22.8694C0.389365 21.2419 0.528218 19.1383 2.33622 17.7572C3.62297 16.7737 5.10455 16.4487 6.69445 16.5767C7.87507 16.6712 8.96626 17.0368 9.90189 17.7855C10.7866 18.4942 11.3558 19.3847 11.3195 20.5594C11.2853 21.6628 10.7277 22.506 9.88153 23.1609H9.88371Z" fill="white"/>
<path d="M10.3509 8.43199C10.1212 8.20593 9.90021 8.21756 9.66104 8.45234C9.25974 8.84632 8.86499 9.24685 8.46661 9.64374C8.40481 9.7048 8.33793 9.76077 8.24851 9.84145C8.16637 9.74696 8.10312 9.66772 8.03478 9.59721C7.22784 8.78841 6.41968 7.98035 5.61031 7.173C5.34351 6.90696 5.12614 6.89242 4.88333 7.13593C3.88591 8.12645 2.89238 9.11988 1.90271 10.1162C1.69771 10.3234 1.69262 10.5575 1.86709 10.7435C2.04157 10.9296 2.30328 10.9427 2.5141 10.7326C3.02299 10.2303 3.53187 9.72079 4.03567 9.21414C4.42606 8.82379 4.81572 8.43272 5.2301 8.01693L7.83268 10.6229C8.19036 10.9798 8.3641 10.9812 8.71887 10.6272C9.14706 10.1991 9.5738 9.77022 10.0107 9.33117C10.0965 9.41113 10.1634 9.47001 10.2288 9.53325C10.6272 9.93014 11.0212 10.3328 11.4232 10.7246C11.6413 10.9369 11.882 10.9427 12.0702 10.7501C12.2585 10.5574 12.252 10.3292 12.0492 10.1235C11.487 9.55554 10.9209 8.9917 10.3509 8.43199Z" fill="white"/>
<path d="M8.70288 6.96768C8.93201 6.96845 9.15904 6.92408 9.37101 6.83712C9.58299 6.75015 9.77576 6.62229 9.93831 6.46083C10.1009 6.29937 10.23 6.10748 10.3184 5.89611C10.4068 5.68474 10.4527 5.45804 10.4534 5.22894C10.4534 4.76625 10.2696 4.32252 9.94242 3.99535C9.61522 3.66818 9.17143 3.48438 8.7087 3.48438C8.24621 3.48668 7.80357 3.6725 7.47804 4.00099C7.15251 4.32949 6.97074 4.77377 6.97267 5.23621C6.97609 5.69411 7.15943 6.13232 7.48313 6.45626C7.80683 6.78019 8.24493 6.96388 8.70288 6.96768ZM8.72469 4.35593C8.95374 4.36105 9.1717 4.45555 9.33199 4.61922C9.49229 4.78289 9.5822 5.00276 9.58253 5.23185C9.57911 5.46138 9.48585 5.68044 9.32276 5.84202C9.15967 6.0036 8.93974 6.09483 8.71015 6.09613C8.59428 6.09557 8.47966 6.07204 8.37293 6.02691C8.26621 5.98178 8.16948 5.91595 8.08836 5.83321C8.00724 5.75047 7.94332 5.65248 7.90031 5.54489C7.8573 5.4373 7.83605 5.32226 7.83778 5.2064C7.8435 4.97594 7.94023 4.75711 8.10683 4.59774C8.27343 4.43838 8.49635 4.35144 8.72687 4.35593H8.72469Z" fill="white"/>
<path d="M24.2889 6.09766C22.3309 6.09766 20.3729 6.09766 18.4149 6.09766C18.0449 6.09766 17.8544 6.25176 17.8595 6.54034C17.8646 6.82892 18.0507 6.96776 18.4309 6.96776C19.4002 6.96776 20.3695 6.96776 21.3388 6.96776C22.3268 6.96776 23.3147 6.96776 24.3027 6.96776C24.6226 6.96776 24.797 6.82601 24.8167 6.56578C24.8399 6.27502 24.6473 6.09838 24.2889 6.09766Z" fill="white"/>
<path d="M24.3162 10.0176C23.3282 10.0176 22.3403 10.0176 21.3523 10.0176H18.4669C18.0446 10.0176 17.8512 10.1579 17.8555 10.4595C17.8599 10.7612 18.046 10.8877 18.48 10.8884H20.9816C22.0873 10.8884 23.193 10.8884 24.2995 10.8884C24.5423 10.8884 24.7284 10.8157 24.7996 10.5657C24.8891 10.2625 24.6761 10.019 24.3162 10.0176Z" fill="white"/>
<path d="M18.4033 3.04783C19.7806 3.04783 21.158 3.04783 22.5354 3.04783C22.8894 3.04783 23.0734 2.90245 23.077 2.61896C23.0806 2.33547 22.8916 2.17846 22.5201 2.17773H18.4156C18.0449 2.17773 17.8544 2.33184 17.8595 2.62042C17.8646 2.909 18.0485 3.04783 18.4033 3.04783Z" fill="white"/>
<path d="M21.3949 4.3557C21.0873 4.3557 20.9107 4.51852 20.9063 4.78311C20.902 5.04771 21.0844 5.21926 21.4079 5.22434C21.8877 5.22434 22.3683 5.22434 22.8481 5.22434C23.3279 5.22434 23.8266 5.22434 24.3159 5.22434C24.6394 5.22434 24.8247 5.05716 24.8175 4.78311C24.8102 4.50907 24.6372 4.35715 24.3297 4.3557C23.3512 4.35279 22.3729 4.35279 21.3949 4.3557Z" fill="white"/>
<path d="M18.3596 9.14499C18.6046 9.14499 18.8489 9.14499 19.0939 9.14499H20.5478C20.7902 9.14499 21.0301 9.14499 21.2676 9.14499C21.5918 9.14499 21.7764 8.97926 21.7714 8.70522C21.7663 8.43117 21.5911 8.2778 21.2843 8.27635C20.3067 8.27247 19.3285 8.27247 18.3495 8.27635C18.0412 8.27635 17.8646 8.43772 17.8595 8.70158C17.8544 8.96545 18.0376 9.14208 18.3596 9.14499Z" fill="white"/>
<path d="M18.3271 12.6266C18.4158 12.6266 18.5037 12.6266 18.5924 12.6266C18.857 12.6266 19.1217 12.6266 19.387 12.6266C19.7396 12.6266 20.0929 12.6325 20.4462 12.6266C20.7297 12.6208 20.8999 12.45 20.9006 12.1905C20.9013 11.931 20.7297 11.7602 20.4462 11.7544C19.7406 11.7485 19.0344 11.7485 18.3278 11.7544C18.037 11.7544 17.8676 11.9194 17.8596 12.1738C17.8516 12.4449 18.0319 12.6216 18.3271 12.6266Z" fill="white"/>
<path d="M18.2777 5.22348C18.3504 5.22784 18.4231 5.22857 18.4958 5.22784C18.5685 5.22712 18.6412 5.22784 18.7139 5.22784C18.8295 5.22784 18.9451 5.2322 19.0599 5.22784C19.0987 5.22784 19.1372 5.22639 19.1755 5.22348C19.2324 5.22376 19.2887 5.21242 19.341 5.19014C19.3934 5.16787 19.4406 5.13513 19.4798 5.09395C19.519 5.05276 19.5494 5.004 19.5691 4.95065C19.5888 4.8973 19.5973 4.84049 19.5943 4.7837C19.5961 4.72909 19.587 4.67466 19.5674 4.62363C19.5478 4.57261 19.5182 4.52603 19.4803 4.48665C19.4425 4.44727 19.397 4.41589 19.3468 4.39438C19.2966 4.37286 19.2425 4.36164 19.1879 4.36138C18.8804 4.34829 18.5721 4.34829 18.2653 4.36138C18.2106 4.36163 18.1565 4.3729 18.1062 4.39451C18.0559 4.41613 18.0104 4.44765 17.9726 4.4872C17.9347 4.52674 17.9052 4.57351 17.8858 4.6247C17.8664 4.67589 17.8575 4.73046 17.8597 4.78516C17.8546 5.03231 18.0167 5.20676 18.2777 5.22348Z" fill="white"/>
<path d="M23.9438 9.14313C24.0979 9.14313 24.252 9.15113 24.4054 9.14313C24.4623 9.14314 24.5185 9.13151 24.5706 9.10896C24.6228 9.0864 24.6698 9.0534 24.7086 9.01198C24.7475 8.97057 24.7775 8.92162 24.7968 8.86817C24.816 8.81471 24.8241 8.75788 24.8205 8.70118C24.822 8.64652 24.8125 8.59213 24.7926 8.54121C24.7727 8.4903 24.7427 8.44389 24.7046 8.40472C24.6664 8.36556 24.6208 8.33443 24.5704 8.31319C24.5201 8.29194 24.4659 8.28101 24.4113 8.28103C24.1037 8.26867 23.7955 8.26794 23.4887 8.28103C23.434 8.28175 23.38 8.29346 23.33 8.31548C23.2799 8.33749 23.2347 8.36935 23.1972 8.40916C23.1597 8.44897 23.1306 8.49591 23.1116 8.5472C23.0926 8.5985 23.0842 8.65308 23.0867 8.70772C23.0834 8.76253 23.091 8.81745 23.1093 8.86925C23.1275 8.92104 23.1559 8.96867 23.1928 9.00932C23.2298 9.04996 23.2744 9.08281 23.3243 9.10591C23.3741 9.12902 23.428 9.14192 23.4829 9.14386C23.6356 9.15331 23.7904 9.14313 23.9438 9.14313Z" fill="white"/>
<path d="M17.856 22.0779C17.8632 22.8775 18.6018 23.3289 19.2976 22.9386C20.2533 22.4055 21.2025 21.8584 22.1451 21.2972C22.8205 20.896 22.8154 20.0368 22.1379 19.6363C21.202 19.0838 20.2606 18.5413 19.3136 18.0087C18.6033 17.6089 17.8596 18.0509 17.8596 18.8687C17.8596 19.1362 17.8596 19.4027 17.8596 19.6683C17.8596 19.9358 17.8596 20.2033 17.8596 20.4678C17.8596 20.7324 17.8596 21.0028 17.8596 21.2674C17.8596 21.532 17.8538 21.8104 17.856 22.0779ZM18.7494 18.6869L21.8478 20.4686L18.7494 22.2546V18.6869Z" fill="white"/>
<path d="M24.3522 23.9537C24.081 23.9472 23.8098 23.9537 23.538 23.9537C23.4747 23.7131 23.3598 23.5329 23.1018 23.522C22.8146 23.5103 22.6954 23.7102 22.6234 23.9537H15.8938C15.7943 23.9476 15.6945 23.951 15.5957 23.9639C15.495 23.9775 15.4033 24.029 15.3393 24.1079C15.2753 24.1868 15.2437 24.2871 15.2511 24.3884C15.2435 24.4898 15.2749 24.5902 15.3388 24.6692C15.4027 24.7482 15.4943 24.7999 15.595 24.8137C15.6938 24.8269 15.7936 24.8303 15.893 24.8238H22.6321C22.6903 25.0783 22.8161 25.2484 23.0734 25.2542C23.3468 25.26 23.4703 25.0761 23.538 24.8238H23.9443C24.0803 24.8238 24.2162 24.8238 24.3522 24.8238C24.643 24.8144 24.8123 24.6581 24.8203 24.4037C24.8291 24.1362 24.6488 23.9603 24.3522 23.9537Z" fill="white"/>
<path d="M3.05272 19.8164C2.87919 19.8164 2.71277 19.8853 2.59007 20.008C2.46737 20.1307 2.39844 20.2971 2.39844 20.4706C2.40207 20.6439 2.47385 20.8087 2.59824 20.9294C2.72262 21.0501 2.88958 21.1169 3.0629 21.1154C3.23154 21.11 3.39169 21.0401 3.51032 20.9202C3.62894 20.8002 3.697 20.6393 3.70046 20.4706C3.70047 20.2982 3.63243 20.1328 3.51114 20.0103C3.38985 19.8878 3.22511 19.8181 3.05272 19.8164Z" fill="white"/>
<path d="M6.0838 19.8165C5.99787 19.8186 5.91319 19.8376 5.8346 19.8724C5.75601 19.9072 5.68505 19.9571 5.62578 20.0194C5.5665 20.0816 5.52007 20.1549 5.48914 20.2351C5.45821 20.3153 5.44339 20.4008 5.44551 20.4867C5.45255 20.6552 5.52381 20.8146 5.64467 20.9322C5.76552 21.0498 5.92681 21.1167 6.09543 21.1191C6.26866 21.1182 6.43453 21.0489 6.55702 20.9264C6.67952 20.804 6.74876 20.6381 6.74971 20.4649C6.74896 20.3785 6.73109 20.2931 6.69714 20.2136C6.66319 20.1342 6.61384 20.0622 6.55192 20.0019C6.49001 19.9416 6.41676 19.8942 6.33641 19.8624C6.25606 19.8306 6.17021 19.815 6.0838 19.8165Z" fill="white"/>
<path d="M9.14029 19.8164C9.0543 19.8177 8.96942 19.836 8.8905 19.8701C8.81158 19.9043 8.74016 19.9537 8.68034 20.0155C8.62052 20.0772 8.57346 20.1502 8.54186 20.2302C8.51026 20.3101 8.49474 20.3955 8.49619 20.4815C8.50208 20.6501 8.57223 20.81 8.69225 20.9286C8.81228 21.0471 8.97309 21.1152 9.14174 21.119C9.31492 21.1179 9.48067 21.0486 9.60313 20.9261C9.72558 20.8037 9.79488 20.638 9.79602 20.4648C9.79449 20.2921 9.72468 20.1269 9.60183 20.0054C9.47898 19.884 9.31306 19.816 9.14029 19.8164Z" fill="white"/>
</g>
<defs>
<clipPath id="clip0_519_8360">
<rect width="27" height="27" fill="white"/>
</clipPath>
</defs>
</svg>
