<svg width="29" height="29" viewBox="0 0 29 29" fill="none" xmlns="http://www.w3.org/2000/svg">
<g clip-path="url(#clip0_519_8326)">
<path d="M19.2294 14.5033H18.3007V5.62341H17.9723C12.8248 5.62341 7.67649 5.62341 2.52739 5.62341C1.53848 5.62341 0.974061 6.19252 0.973279 7.1869C0.973279 7.74194 0.973279 8.29776 0.973279 8.87625H0C0.039869 8.05777 -0.00937789 7.22052 0.139936 6.41923C0.340062 5.35058 1.3235 4.68688 2.47736 4.68688C6.98282 4.68688 11.4878 4.68688 15.9922 4.68688H18.2788V3.74878C18.0005 3.74878 17.7214 3.74488 17.4431 3.74878C17.2086 3.75347 17.0209 3.67843 16.9256 3.44859C16.8302 3.21876 16.9201 3.05225 17.0765 2.8959C17.9809 1.99377 18.8815 1.0885 19.7883 0.188715C20.0486 -0.0708247 20.2863 -0.0676977 20.5513 0.195751C21.4581 1.09554 22.3587 2.0008 23.2624 2.9045C23.4188 3.06085 23.4969 3.23987 23.4 3.45876C23.3031 3.67765 23.1303 3.75113 22.9051 3.748C22.6253 3.748 22.3454 3.748 22.0523 3.748V4.66734C22.1359 4.67359 22.2196 4.68375 22.304 4.68375C22.8012 4.68375 23.2984 4.68375 23.7956 4.68375C25.2559 4.68844 26.2495 5.68439 26.251 7.1525C26.251 9.92145 26.251 12.6907 26.251 15.4601V16.3724H25.3129V16.0355C25.3129 13.53 25.2754 11.0229 25.3231 8.51821C25.3747 5.79149 25.123 5.52491 22.4001 5.6195C22.2938 5.62341 22.1867 5.6195 22.0358 5.6195V14.0303H21.0977V3.50253C21.0977 2.95531 21.2127 2.83649 21.6872 2.80834L20.1378 1.25892L18.5977 2.79896C18.6337 2.79896 18.7134 2.80678 18.7924 2.81773C18.9057 2.82466 19.0126 2.87301 19.0926 2.95359C19.1726 3.03416 19.2201 3.14134 19.2263 3.25472C19.2302 3.31329 19.2302 3.37205 19.2263 3.43061V14.5033H19.2294Z" fill="white"/>
<path d="M7.99652 17.7818H8.93461V17.4566C8.93461 15.2922 8.93461 13.1273 8.93461 10.9619C8.93461 10.4444 9.07455 10.3052 9.59363 10.3044C10.4223 10.3044 11.2512 10.3044 12.0804 10.3044C12.5197 10.3044 12.6784 10.4608 12.6792 10.904C12.6792 13.0689 12.6792 15.2338 12.6792 17.3988V17.7709H13.6173V7.69574C13.6173 7.16102 13.7533 7.02813 14.295 7.02734C15.1339 7.02734 15.9719 7.02734 16.8107 7.02734C17.1789 7.02734 17.3579 7.19933 17.3579 7.55737C17.361 10.1408 17.361 12.725 17.3579 15.3099C17.3555 15.3521 17.3508 15.3941 17.3439 15.4358H16.437V7.98186H14.5608V18.7082H2.39844V17.8045H4.25117V17.4762C4.25117 16.3817 4.25117 15.2896 4.25117 14.1999C4.25117 13.7378 4.40752 13.5831 4.86094 13.5815H7.3766C7.83783 13.5815 7.99495 13.7378 7.99573 14.1913C7.99573 15.2737 7.99573 16.3562 7.99573 17.4386L7.99652 17.7818ZM11.7208 17.7818V11.2652H9.88443V17.7826L11.7208 17.7818ZM5.21194 14.529V17.7779H7.04123V14.529H5.21194Z" fill="white"/>
<path d="M0.992012 20.5951C0.992012 20.8695 0.960738 21.097 0.99748 21.3135C1.11709 22.0171 1.69089 22.4752 2.43198 22.476C5.02581 22.4791 7.61965 22.4791 10.2135 22.476H14.5318V23.407H11.157C10.7834 24.6531 10.4144 25.8812 10.0376 27.1367H16.2517L15.7459 25.4278L16.6316 25.1511C16.8349 25.8179 17.0342 26.473 17.2398 27.1492H18.2748V28.078H8.01756V27.1586C8.28726 27.1586 8.56478 27.1688 8.84386 27.1524C8.92829 27.1477 9.06354 27.0859 9.08386 27.0218C9.45128 25.8328 9.80462 24.6398 10.1713 23.4133H2.54534C1.02094 23.4133 0.035938 22.4306 0.0351562 20.9117C0.0351562 17.3329 0.0351562 13.7543 0.0351562 10.176V9.86328H0.963861V19.6664H14.0628V20.5951H0.992012Z" fill="white"/>
<path d="M23.4947 25.4583C20.5679 27.0781 17.4463 25.9273 15.986 23.7705C15.254 22.6912 14.9195 21.3912 15.0396 20.0926C15.1597 18.7941 15.727 17.5775 16.6445 16.6508C17.5621 15.7241 18.773 15.1447 20.0703 15.0118C21.3677 14.8788 22.6709 15.2005 23.7574 15.9218C25.9564 17.3946 27.1134 20.5388 25.4866 23.4734L27.258 25.2402C27.4144 25.3965 27.5801 25.5529 27.7318 25.7178C28.261 26.2932 28.2563 27.125 27.724 27.6722C27.5972 27.805 27.4452 27.9112 27.2769 27.9845C27.1085 28.0578 26.9273 28.0967 26.7437 28.099C26.5601 28.1012 26.3779 28.0668 26.2078 27.9977C26.0377 27.9285 25.8831 27.8261 25.7532 27.6964C25.0293 27.0007 24.3288 26.2815 23.6182 25.5724C23.5815 25.5372 23.5447 25.5052 23.4947 25.4583ZM20.6523 15.921C20.0341 15.919 19.4215 16.0395 18.8501 16.2754C18.2786 16.5112 17.7595 16.8579 17.3227 17.2954C16.8858 17.7329 16.5399 18.2525 16.3049 18.8244C16.0698 19.3962 15.9503 20.0089 15.9532 20.6271C15.9532 23.1889 18.0639 25.28 20.6437 25.2824C23.2063 25.2824 25.3201 23.1717 25.3146 20.6052C25.3092 18.0262 23.2141 15.921 20.6523 15.9233V15.921ZM24.2757 24.9111C24.9746 25.6084 25.6664 26.3057 26.3653 26.9952C26.5904 27.2164 26.8742 27.2164 27.0634 27.0179C27.2526 26.8193 27.2385 26.559 27.029 26.3393C26.7679 26.0649 26.4943 25.8015 26.2269 25.5333L24.9386 24.2427L24.2757 24.9111Z" fill="white"/>
<path d="M22.9922 0.931148V0.0297955C24.4181 -0.0819941 25.8065 1.29779 25.7721 2.79483H24.8606C24.8246 2.30233 24.6604 1.85674 24.304 1.49635C23.9475 1.13597 23.4995 0.967108 22.9922 0.931148Z" fill="white"/>
<path d="M3.29823 6.58008V7.48221H2.39844V6.58008H3.29823Z" fill="white"/>
<path d="M4.26172 7.47596V6.57617H5.16151V7.47518L4.26172 7.47596Z" fill="white"/>
<path d="M6.13672 6.57617H7.03651V7.48143H6.13672V6.57617Z" fill="white"/>
<path d="M24.3798 20.6025C24.38 21.3446 24.1598 22.0701 23.747 22.6868C23.3343 23.3035 22.7476 23.7836 22.0614 24.0663C21.3752 24.3489 20.6205 24.4213 19.8932 24.2742C19.1658 24.1272 18.4985 23.7673 17.976 23.2403C17.4535 22.7133 17.0994 22.043 16.9586 21.3144C16.8178 20.5858 16.8967 19.8317 17.1853 19.148C17.4738 18.4643 17.959 17.8818 18.5792 17.4743C19.1994 17.0668 19.9267 16.8529 20.6688 16.8595C22.7006 16.8681 24.3798 18.5614 24.3798 20.6025ZM20.6368 23.4129C21.1921 23.4118 21.7348 23.2461 22.196 22.9367C22.6572 22.6273 23.0164 22.1881 23.2281 21.6746C23.4398 21.1612 23.4945 20.5965 23.3853 20.0519C23.2761 19.5073 23.0079 19.0074 22.6146 18.6152C22.2214 18.223 21.7207 17.9562 21.1758 17.8486C20.6309 17.7409 20.0664 17.7972 19.5535 18.0103C19.0406 18.2234 18.6024 18.5838 18.2943 19.0459C17.9862 19.508 17.822 20.051 17.8225 20.6064C17.8245 21.3508 18.1214 22.064 18.6481 22.59C19.1748 23.116 19.8885 23.4119 20.6328 23.4129H20.6368Z" fill="white"/>
<path d="M20.6155 19.6514C20.0761 19.7295 19.7556 20.0321 19.6821 20.5895H18.7886C18.694 19.7452 19.5289 18.7133 20.6155 18.7469V19.6514Z" fill="white"/>
</g>
<defs>
<clipPath id="clip0_519_8326">
<rect width="28.1233" height="28.0975" fill="white"/>
</clipPath>
</defs>
</svg>
