<svg width="33" height="33" viewBox="0 0 33 33" fill="none" xmlns="http://www.w3.org/2000/svg">
<g clip-path="url(#clip0_519_8315)">
<path d="M8.2419 18.2092H6.56157C6.1045 18.2092 6.0112 18.115 6.0112 17.6438C6.0112 14.9748 6.0112 12.3047 6.0112 9.63323V9.17334H5.60784C4.58438 9.17334 3.56092 9.17993 2.53745 9.17334C1.09744 9.16014 0.0164923 8.0839 0.00706812 6.64861C-0.00235604 5.27268 -0.00235604 3.89675 0.00706812 2.52082C0.0174347 1.0893 1.10498 0.00646032 2.54405 0.00174824C5.09611 -0.00579108 7.64849 -0.00579108 10.2012 0.00174824C11.628 0.00174824 12.6892 1.06008 12.724 2.49255C12.7372 3.06837 12.724 3.64513 12.724 4.22094C12.724 4.33497 12.7344 4.44995 12.741 4.59791H13.1839C15.5239 4.59791 17.8658 4.62807 20.2049 4.5866C21.5639 4.5621 22.7494 4.83634 23.5976 6.03886L24.8887 4.74304C25.7526 3.8779 26.6174 3.01339 27.4832 2.14951C27.8206 1.81307 27.928 1.81401 28.2682 2.14951C28.6942 2.57171 29.1183 2.99549 29.5405 3.42083C29.9043 3.78649 29.9061 3.90052 29.5461 4.26052C27.8171 5.9908 26.0894 7.72202 24.3629 9.45418C24.2418 9.57256 24.1661 9.72963 24.1489 9.89805C24.1376 13.5666 24.1348 17.2354 24.1404 20.9045C24.1404 20.9507 24.148 20.9988 24.1555 21.093H25.8688C26.5087 21.093 26.5474 21.1326 26.5483 21.7706V23.4915C26.6991 23.4999 26.8235 23.5112 26.9479 23.5122C27.9242 23.5122 28.9006 23.5122 29.8769 23.5122C31.4376 23.5197 32.4657 24.5488 32.4686 26.0982C32.4686 27.3679 32.4686 28.6377 32.4686 29.9074C32.4639 31.3946 31.4215 32.4444 29.9401 32.4519C27.4351 32.4576 24.9292 32.4519 22.4243 32.4519C21.5761 32.4519 20.8919 32.1164 20.4009 31.4294C20.3487 31.3479 20.2749 31.2825 20.1877 31.2404C20.1005 31.1984 20.0034 31.1812 19.9071 31.191C17.1194 31.1966 14.3318 31.1966 11.5441 31.191C9.88264 31.1853 8.59907 30.1421 8.29844 28.5682C8.25471 28.2897 8.23735 28.0076 8.24661 27.7257C8.24284 24.7037 8.24284 21.6814 8.24661 18.6587L8.2419 18.2092ZM21.0295 21.0742H23.3997V10.4098C22.7466 11.0629 22.1491 11.6792 21.5318 12.2748C21.0248 12.7639 20.6271 13.4057 19.877 13.4773C19.9655 13.9919 20.0654 14.4612 20.1192 14.9353C20.1587 15.3122 20.0296 15.4281 19.6555 15.4291C17.3384 15.4329 15.0216 15.4329 12.7052 15.4291C12.3395 15.4291 12.2198 15.2906 12.2396 14.924C12.3056 13.762 12.7645 12.7847 13.6712 12.0477C14.0123 11.7697 14.4109 11.5624 14.7813 11.3239C13.87 10.1817 13.854 9.00841 14.753 8.17814C15.1448 7.81404 15.6605 7.61283 16.1954 7.61546C16.7302 7.61808 17.244 7.82434 17.6321 8.19228C18.5236 9.04046 18.5039 10.2317 17.5643 11.3522L18.158 11.6491C18.518 11.2278 18.8328 10.815 19.1946 10.4475C20.3906 9.23177 21.6016 8.03113 22.8116 6.82955C22.911 6.74923 23.0183 6.67943 23.1321 6.62127C22.543 5.73258 21.8127 5.31226 20.8561 5.30943C18.2444 5.30378 15.6336 5.30378 13.0237 5.30943C12.9246 5.31508 12.8258 5.32577 12.7278 5.34147C12.7278 5.74954 12.7278 6.13593 12.7278 6.52138C12.7193 8.1461 11.6808 9.17522 10.0494 9.17899H8.9685V17.4864H11.3679C11.3679 17.3318 11.3679 17.1942 11.3679 17.0566C11.3745 16.6797 11.4697 16.5732 11.8504 16.5722C14.7405 16.5722 17.6334 16.5722 20.5291 16.5722C20.8985 16.5722 21.0003 16.6806 21.0003 17.0661C21.006 17.5476 21.0003 18.0302 21.0003 18.5117C21.0003 19.0772 20.9362 19.146 20.3783 19.146H11.9814C11.4159 19.146 11.3679 19.0941 11.3603 18.5155C11.3603 18.4213 11.3519 18.3327 11.3472 18.2262H8.97038V26.232H19.9024C19.9099 26.1698 19.9175 26.1378 19.9184 26.1001C19.9976 24.4461 20.9692 23.5235 22.6326 23.5216H23.4129V21.8253H21.0069C21.0069 21.9666 21.0069 22.092 21.0069 22.2183C20.9975 22.6471 20.9127 22.7385 20.4895 22.7451C20.2784 22.7451 20.0664 22.7451 19.8553 22.7451H11.9871C11.4216 22.7451 11.3679 22.6876 11.3679 22.1127V20.7726C11.3679 20.2316 11.4301 20.1694 11.9805 20.1694H20.2379C20.9824 20.1694 20.9815 20.1694 21.0107 20.8998C21.0116 20.9564 21.022 21.011 21.0295 21.0742ZM6.3712 8.47689C7.61707 8.47689 8.86295 8.47689 10.1088 8.47689C11.267 8.47689 12.0116 7.74369 12.0191 6.59206C12.0266 5.26514 12.0266 3.93759 12.0191 2.60941C12.0125 1.4559 11.2652 0.716099 10.1182 0.715156C7.61456 0.715156 5.11119 0.715156 2.60813 0.715156C1.46593 0.715156 0.712937 1.46909 0.710109 2.61789C0.710109 3.93351 0.710109 5.24943 0.710109 6.56567C0.710109 7.72956 1.46404 8.47406 2.63452 8.47689C3.87945 8.47689 5.12533 8.47689 6.3712 8.47689ZM26.1911 31.7546C27.437 31.7546 28.6838 31.7546 29.9297 31.7546C31.0304 31.7546 31.758 31.0195 31.7608 29.914C31.7646 28.6336 31.7646 27.3522 31.7608 26.0699C31.7608 24.9663 31.0361 24.235 29.9259 24.2322C27.4449 24.2247 24.9632 24.2247 22.4808 24.2322C21.35 24.2322 20.6328 24.9626 20.6281 26.0925C20.6212 27.3623 20.6212 28.632 20.6281 29.9018C20.6337 31.0327 21.3613 31.7536 22.4846 31.7564C23.7204 31.7552 24.9559 31.7546 26.1911 31.7546ZM8.92892 26.9784C8.95248 27.5099 8.91478 28.0226 9.00808 28.5098C9.23897 29.7133 10.2436 30.4889 11.5243 30.4936C14.2281 30.5021 16.9319 30.4936 19.6357 30.4936C19.7394 30.4936 19.8421 30.4823 19.9118 30.4785V26.9784H8.92892ZM18.5821 13.1381C19.0655 12.9892 19.4811 12.8742 19.8864 12.73C20.0619 12.6707 20.2227 12.5743 20.3576 12.4473C23.1547 9.66151 25.9474 6.87164 28.7357 4.0777C28.8082 4.00607 28.8742 3.92691 28.91 3.88921L27.8507 2.81109C27.8101 2.84029 27.771 2.87176 27.7339 2.90533C24.8916 5.74577 22.0505 8.58684 19.2107 11.4285C19.1424 11.4916 19.0886 11.5688 19.0533 11.6547C18.8978 12.1203 18.7536 12.5915 18.5821 13.1381ZM12.9756 14.6968H19.4368C19.3351 14.3481 19.2484 14.0371 19.1494 13.713C18.8149 13.8138 18.5397 13.9175 18.2551 13.974C18.1118 14.0023 17.8969 13.9985 17.814 13.9127C17.7311 13.827 17.7198 13.6102 17.7471 13.4651C17.8045 13.2014 17.8855 12.9434 17.9893 12.6942C18.0694 12.4897 18.011 12.3851 17.8272 12.2758C17.2639 11.9509 16.6165 11.8014 15.9678 11.8466C15.319 11.8917 14.6986 12.1294 14.1857 12.5293C13.848 12.7901 13.5667 13.1166 13.3588 13.4892C13.1508 13.8617 13.0205 14.2725 12.9756 14.6968ZM6.74157 9.19784V17.4751H8.22116V9.19595L6.74157 9.19784ZM20.2869 17.3026H12.0954V18.409H20.2869V17.3026ZM20.2765 22.0213V20.9036H12.0954V22.0232L20.2765 22.0213ZM17.5831 9.71805C17.584 9.53572 17.5489 9.355 17.4799 9.18624C17.4108 9.01748 17.3092 8.86398 17.1808 8.73453C17.0524 8.60507 16.8997 8.5022 16.7315 8.4318C16.5634 8.36139 16.3829 8.32484 16.2006 8.32422C15.9223 8.32048 15.6493 8.39967 15.4162 8.5517C15.1831 8.70373 15.0006 8.92171 14.8918 9.17787C14.7831 9.43403 14.7531 9.71676 14.8056 9.99004C14.8581 10.2633 14.9908 10.5148 15.1868 10.7123C15.3828 10.9099 15.6332 11.0447 15.906 11.0994C16.1788 11.1542 16.4618 11.1265 16.7188 11.0198C16.9759 10.9132 17.1953 10.7324 17.3493 10.5006C17.5032 10.2687 17.5846 9.99633 17.5831 9.71805ZM24.1565 21.8253V23.4999H25.8217V21.8253H24.1565Z" fill="white"/>
<path d="M6.3831 2.94922C7.41975 2.94922 8.4517 2.94922 9.48647 2.94922C9.74375 2.94922 9.99066 2.9822 9.9916 3.29509C9.99255 3.60797 9.75129 3.65697 9.49213 3.65697C7.41253 3.65697 5.3323 3.65697 3.25145 3.65697C2.88391 3.65697 2.69825 3.49488 2.75103 3.23194C2.8038 2.96901 2.99605 2.94922 3.20904 2.94922C4.26643 2.95048 5.32445 2.95048 6.3831 2.94922Z" fill="white"/>
<path d="M6.35474 6.23517H3.25137C3.00163 6.23517 2.75095 6.21726 2.75 5.8893C2.74906 5.56134 2.9922 5.5293 3.24477 5.5293C5.32562 5.5293 7.40585 5.5293 9.48545 5.5293C9.87372 5.5293 10.065 5.71307 9.97833 5.98354C9.90105 6.22951 9.69561 6.23422 9.49204 6.23422L6.35474 6.23517Z" fill="white"/>
<path d="M26.1858 28.9355H29.1836C29.2665 28.9355 29.3485 28.9355 29.4305 28.9355C29.6661 28.9403 29.8254 29.0571 29.8216 29.2937C29.8178 29.5302 29.6567 29.6414 29.4201 29.6405C28.7736 29.6405 28.1262 29.6405 27.4797 29.6405H22.9646C22.7299 29.6405 22.5744 29.534 22.5782 29.2842C22.582 29.0345 22.7469 28.9384 22.9759 28.9374C23.5988 28.9374 24.2218 28.9374 24.8447 28.9374L26.1858 28.9355Z" fill="white"/>
<path d="M26.1935 27.0429C25.1351 27.0429 24.0768 27.0523 23.0194 27.0326C22.9382 27.0249 22.8596 27.0002 22.7887 26.9601C22.7177 26.92 22.656 26.8654 22.6076 26.7998C22.5595 26.7263 22.6453 26.5076 22.7348 26.4172C22.8074 26.3427 22.9742 26.3427 23.1005 26.3408C23.6763 26.3342 24.2521 26.3408 24.8279 26.3408H29.163C29.2573 26.3408 29.3515 26.3408 29.4457 26.3408C29.6785 26.3578 29.8623 26.485 29.8086 26.7121C29.7764 26.7915 29.7251 26.8617 29.6594 26.9166C29.5937 26.9715 29.5154 27.0094 29.4316 27.0269C28.8935 27.0637 28.3506 27.0429 27.8106 27.0439L26.1935 27.0429Z" fill="white"/>
<path d="M16.1897 28.2812C16.6119 28.2812 17.0379 28.2812 17.4563 28.2812C17.6882 28.2812 17.8512 28.3755 17.8559 28.6215C17.8606 28.8674 17.6872 28.9796 17.4658 28.9815C16.6101 28.989 15.754 28.989 14.8977 28.9815C14.6724 28.9815 14.5066 28.8627 14.516 28.6158C14.5254 28.3689 14.6913 28.2803 14.9231 28.2822C15.3453 28.2831 15.7675 28.2812 16.1897 28.2812Z" fill="white"/>
</g>
<defs>
<clipPath id="clip0_519_8315">
<rect width="32.47" height="32.4615" fill="white"/>
</clipPath>
</defs>
</svg>
