<svg width="25" height="25" viewBox="0 0 25 25" fill="none" xmlns="http://www.w3.org/2000/svg">
<g clip-path="url(#clip0_7055_19947)">
<path d="M15.8343 24.5103L23.0503 22.9492C23.0503 22.9492 20.4463 5.33625 20.4253 5.21925C20.4073 5.10325 20.3113 5.02725 20.2143 5.02725C20.1173 5.02725 18.2853 4.89125 18.2853 4.89125C18.2853 4.89125 17.0103 3.61725 16.8463 3.48025C16.8107 3.44857 16.7697 3.42351 16.7253 3.40625L15.8113 24.5103H15.8343ZM12.2073 11.8363C12.2073 11.8363 11.3973 11.4122 10.4333 11.4122C8.98631 11.4122 8.92931 12.3183 8.92931 12.5533C8.92931 13.7853 12.1693 14.2682 12.1693 17.1822C12.1693 19.4772 10.7293 20.9422 8.76331 20.9422C6.40931 20.9422 5.22331 19.4772 5.22331 19.4772L5.86931 17.3913C5.86931 17.3913 7.11431 18.4573 8.14931 18.4573C8.27486 18.4614 8.39997 18.4404 8.51731 18.3956C8.63466 18.3508 8.74187 18.2829 8.83267 18.1961C8.92348 18.1093 8.99605 18.0053 9.04612 17.8901C9.0962 17.7749 9.12278 17.6509 9.12431 17.5252C9.12431 15.9062 6.47031 15.8313 6.47031 13.1663C6.43631 10.9293 8.04131 8.75025 11.2973 8.75025C12.5543 8.75025 13.1723 9.11125 13.1723 9.11125L12.2273 11.8263L12.2073 11.8363ZM11.6673 1.36125C11.8033 1.36125 11.9383 1.39925 12.0723 1.49625C11.0883 1.96125 10.0083 3.13525 9.56431 5.48825C8.93771 5.69078 8.30796 5.88347 7.67531 6.06625C8.19431 4.28125 9.44831 1.37125 11.6673 1.37125V1.36125ZM12.9023 4.31025V4.44525C12.1483 4.67725 11.3193 4.92925 10.5083 5.18125C10.9743 3.40425 11.8413 2.53625 12.5933 2.21025C12.7863 2.71125 12.9023 3.38625 12.9023 4.31025ZM13.4413 2.07625C14.1353 2.15025 14.5823 2.94325 14.8703 3.83125C14.5213 3.94525 14.1353 4.06225 13.7123 4.19725V3.94525C13.7123 3.19325 13.6163 2.57425 13.4413 2.07425V2.07625ZM16.4333 3.36525C16.4133 3.36525 16.3733 3.38625 16.3553 3.38625C16.3373 3.38625 16.0663 3.46125 15.6413 3.59625C15.2183 2.36325 14.4653 1.22625 13.1333 1.22625H13.0183C12.6323 0.74025 12.1663 0.53125 11.7623 0.53125C8.65631 0.53125 7.17231 4.40825 6.70731 6.37725C5.51331 6.74225 4.64431 7.01325 4.54731 7.05125C3.87231 7.26425 3.85331 7.28325 3.77531 7.92125C3.70031 8.38325 1.94531 21.9842 1.94531 21.9842L15.5063 24.5312L16.4333 3.36525Z" fill="#FF6E4E"/>
</g>
<defs>
<clipPath id="clip0_7055_19947">
<rect width="24" height="24" fill="white" transform="translate(0.496094 0.53125)"/>
</clipPath>
</defs>
</svg>
