<svg width="25" height="25" viewBox="0 0 25 25" fill="none" xmlns="http://www.w3.org/2000/svg">
<g clip-path="url(#clip0_7055_19942)">
<path d="M19.4472 12.0103C19.4472 10.7383 18.9897 9.85783 18.5982 9.17233L18.4782 8.97733C18.0027 8.21233 17.5872 7.54033 17.5872 6.75733C17.5872 5.81233 18.3042 4.93033 19.3152 4.93033C19.3452 4.93033 19.3742 4.93183 19.4022 4.93483L19.4487 4.93933C17.5528 3.1983 15.0717 2.2335 12.4977 2.23633C10.7918 2.23613 9.11262 2.66003 7.61125 3.46989C6.10987 4.27975 4.83339 5.45017 3.89666 6.87583C4.13666 6.88333 4.36616 6.88933 4.55966 6.88933C5.63516 6.88933 7.30166 6.75883 7.30166 6.75883C7.85666 6.72583 7.92266 7.54033 7.36766 7.60633C7.36766 7.60633 6.81116 7.67233 6.19016 7.70383L9.94016 18.8548L12.1902 12.0958L10.5852 7.70233C10.0317 7.66933 9.50666 7.60483 9.50666 7.60483C8.95166 7.57183 9.01766 6.72283 9.57116 6.75583C9.57116 6.75583 11.2722 6.88633 12.2832 6.88633C13.3602 6.88633 15.0282 6.75583 15.0282 6.75583C15.5832 6.72283 15.6477 7.53883 15.0927 7.60483C15.0927 7.60483 14.5347 7.66933 13.9152 7.70233L17.6352 18.7678L18.6612 15.3373L18.7422 15.0778C19.1472 13.7878 19.4457 12.8353 19.4457 12.0088L19.4472 12.0103ZM2.20316 12.5308C2.20235 14.4641 2.74618 16.3585 3.77233 17.9969C4.79849 19.6354 6.26546 20.9516 8.00516 21.7948L3.09266 8.33983C2.5028 9.65811 2.19961 11.0866 2.20316 12.5308Z" fill="#FF6E4E"/>
<path d="M9.58594 22.4058L12.6759 13.4313L15.8394 22.1013C15.8594 22.1513 15.8839 22.1983 15.9129 22.2423C13.8737 22.9612 11.6596 23.0184 9.58594 22.4058ZM21.5259 7.5918C21.5719 7.9198 21.5954 8.2728 21.5964 8.6508C21.5964 9.6948 21.4014 10.8693 20.8134 12.3378L17.6694 21.4278C19.9895 20.0798 21.6913 17.8789 22.412 15.2943C23.1326 12.7097 22.8153 9.94578 21.5274 7.5918H21.5259Z" fill="#FF6E4E"/>
<path fill-rule="evenodd" clip-rule="evenodd" d="M0.496094 12.5312C0.496094 5.91475 5.87959 0.53125 12.4961 0.53125C19.1126 0.53125 24.4961 5.91475 24.4961 12.5312C24.4961 19.1477 19.1111 24.5312 12.4961 24.5312C5.88109 24.5312 0.496094 19.1477 0.496094 12.5312ZM1.04659 12.5312C1.04659 18.8448 6.18259 23.9808 12.4961 23.9808C18.8096 23.9808 23.9441 18.8448 23.9441 12.5312C23.9441 6.21625 18.8081 1.08175 12.4961 1.08175C6.18109 1.08175 1.04659 6.21625 1.04659 12.5312Z" fill="#FF6E4E"/>
</g>
<defs>
<clipPath id="clip0_7055_19942">
<rect width="24" height="24" fill="white" transform="translate(0.496094 0.53125)"/>
</clipPath>
</defs>
</svg>
