<svg width="25" height="25" viewBox="0 0 25 25" fill="none" xmlns="http://www.w3.org/2000/svg">
<g clip-path="url(#clip0_7055_19940)">
<path d="M23.7901 2.98911C24.0491 2.49873 24.152 2.11513 23.5994 2.17983H20.1194C19.1571 2.12264 17.8091 3.48388 16.4965 5.11343C15.9569 3.55927 15.2558 2.27408 13.7792 2.28099H9.78941C9.78941 2.28099 8.53091 2.26085 7.52924 5.06763C7.17079 4.23686 5.06268 2.44621 4.36636 2.18023C3.66998 1.9142 0.795754 1.98283 0.288334 2.12925C-0.219087 2.27557 0.0976465 2.73621 0.0976465 2.73621C0.990754 3.81526 3.7484 10.9379 7.14669 12.6519L2.48124 21.8551C2.14036 22.3499 2.2252 22.6965 2.74341 22.892L6.91462 22.8161C7.86425 22.6799 8.53686 22.1722 9.01213 21.3999L12.034 16.5674L15.4954 21.8804C15.9999 22.4609 16.9241 22.7088 17.3307 22.715H21.1205C21.6812 22.6816 21.8152 22.5853 21.6926 22.0575L16.9146 12.6539C20.6677 10.576 22.4299 4.78752 23.7901 2.98911ZM13.8168 4.6036L15.1651 4.58983C14.8346 5.05092 14.373 5.26786 13.7779 5.23633L13.8168 4.6036ZM14.4405 5.65226C14.9846 5.76053 15.1379 6.02189 15.0133 7.18618C14.8887 8.35047 13.6277 7.93578 13.5686 7.27849C13.5096 6.62124 13.8964 5.54394 14.4405 5.65226ZM12.9958 7.90012C12.9527 8.38528 12.914 8.90342 11.9866 8.99031C10.944 9.08788 10.8863 7.98696 10.8863 7.98696C11.8411 8.6912 12.3964 8.55214 12.9958 7.90012ZM10.1097 4.6036L10.1487 5.23633C9.55349 5.26786 9.09191 5.05092 8.76149 4.58983L10.1097 4.6036ZM10.3579 7.27849C10.2989 7.93578 9.03786 8.35047 8.91322 7.18618C8.78863 6.02189 8.94196 5.76053 9.48603 5.65226C10.0302 5.54394 10.4169 6.62124 10.3579 7.27849ZM15.6504 12.4389C15.6504 12.4389 20.0843 20.6305 20.3101 21.3494C18.88 21.9226 16.6176 21.8076 15.7595 20.8972C14.9015 19.9868 12.2061 14.7235 12.2061 14.7235L8.26325 20.8972C7.81232 21.63 7.38116 21.6573 6.57951 21.777L3.46626 21.7755L6.23413 16.4543C9.31686 11.8011 12.0174 10.656 15.2149 9.47452C17.4668 8.64246 19.2426 7.98169 21.3338 5.89467C20.428 7.7914 17.8757 11.2068 15.6504 12.4389Z" fill="#FF6E4E"/>
</g>
<defs>
<clipPath id="clip0_7055_19940">
<rect width="24" height="24" fill="white" transform="translate(0.496094 0.53125)"/>
</clipPath>
</defs>
</svg>
