<svg width="25" height="25" viewBox="0 0 25 25" fill="none" xmlns="http://www.w3.org/2000/svg">
<g clip-path="url(#clip0_7055_19909)">
<path d="M10.5881 9.50781C11.0081 10.8758 11.4401 12.2438 11.8721 13.6358H9.32812C9.76012 12.2438 10.1681 10.8758 10.5881 9.50781Z" fill="#FF6E4E"/>
<path d="M18.4961 0.53125H6.49609C4.90479 0.53125 3.37867 1.16339 2.25345 2.28861C1.12823 3.41383 0.496094 4.93995 0.496094 6.53125V18.5313C0.496094 20.1225 1.12823 21.6487 2.25345 22.7739C3.37867 23.8991 4.90479 24.5313 6.49609 24.5313H18.4961C20.0874 24.5313 21.6135 23.8991 22.7387 22.7739C23.864 21.6487 24.4961 20.1225 24.4961 18.5313V6.53125C24.4961 4.93995 23.864 3.41383 22.7387 2.28861C21.6135 1.16339 20.0874 0.53125 18.4961 0.53125ZM15.4841 18.2673H13.6121C13.5374 18.2776 13.4617 18.2583 13.4011 18.2134C13.3405 18.1685 13.2999 18.1017 13.2881 18.0273C13.0601 17.3553 12.8201 16.6833 12.5921 15.9993C12.5849 15.9564 12.5692 15.9154 12.5458 15.8787C12.5224 15.842 12.4919 15.8104 12.4561 15.7858C12.4203 15.7612 12.3798 15.744 12.3372 15.7353C12.2946 15.7266 12.2507 15.7266 12.2081 15.7353H9.01609C8.97176 15.7248 8.92572 15.7238 8.88098 15.7323C8.83624 15.7409 8.7938 15.7587 8.75644 15.7848C8.71907 15.8108 8.68761 15.8445 8.66412 15.8835C8.64063 15.9225 8.62563 15.966 8.62009 16.0113C8.41609 16.6833 8.18809 17.3313 7.98409 18.0033C7.97839 18.0456 7.96402 18.0864 7.94189 18.123C7.91976 18.1596 7.89034 18.1913 7.85545 18.2161C7.82056 18.2408 7.78096 18.2582 7.73909 18.267C7.69723 18.2758 7.654 18.2759 7.61209 18.2673H5.96809C5.68009 18.2673 5.65609 18.2673 5.75209 17.9673L8.34409 10.4913C8.58409 9.80725 8.82409 9.12325 9.04009 8.43925C9.10118 8.23678 9.1335 8.02672 9.13609 7.81525C9.13609 7.56325 9.23209 7.50325 9.46009 7.51525H11.7521C11.9201 7.51525 12.0041 7.51525 12.0641 7.74325L15.0161 16.0593C15.2441 16.7073 15.4721 17.3433 15.6881 17.9793C15.7841 18.2433 15.7721 18.2673 15.4841 18.2673ZM19.1561 18.0633C19.1561 18.2673 19.0721 18.3273 18.8801 18.3273H17.1521C16.9121 18.3273 16.8521 18.2313 16.8521 18.0153V10.4793C16.8521 10.2393 16.9241 10.1433 17.1761 10.1553H18.8681C19.0601 10.1553 19.1561 10.1553 19.1561 10.4193C19.1477 12.9633 19.1477 15.5109 19.1561 18.0633ZM17.9561 9.30325C17.7841 9.31417 17.6119 9.28793 17.451 9.22632C17.2901 9.16472 17.1443 9.06919 17.0236 8.94622C16.9029 8.82326 16.8102 8.67575 16.7516 8.51373C16.693 8.3517 16.67 8.17896 16.6841 8.00725C16.6858 7.83662 16.7214 7.66804 16.789 7.51133C16.8565 7.35463 16.9546 7.21294 17.0774 7.09453C17.2003 6.97613 17.3455 6.88338 17.5046 6.82169C17.6637 6.76001 17.8335 6.73062 18.0041 6.73525C18.1701 6.73472 18.3344 6.76863 18.4866 6.83485C18.6388 6.90107 18.7757 6.99815 18.8885 7.11995C19.0012 7.24176 19.0875 7.38564 19.1419 7.5425C19.1962 7.69936 19.2174 7.86578 19.2041 8.03125C19.2139 8.19479 19.1902 8.35861 19.1343 8.51261C19.0784 8.66662 18.9916 8.80755 18.8791 8.92672C18.7667 9.04589 18.6311 9.14077 18.4806 9.20553C18.3301 9.27029 18.1679 9.30355 18.0041 9.30325H17.9561Z" fill="#FF6E4E"/>
<path d="M11.8721 13.6358H9.32812C9.76012 12.2438 10.1681 10.8758 10.5281 9.50781C11.0081 10.8758 11.4401 12.2438 11.8721 13.6358Z" fill="#FF6E4E"/>
</g>
<defs>
<clipPath id="clip0_7055_19909">
<rect width="24" height="24" fill="white" transform="translate(0.496094 0.53125)"/>
</clipPath>
</defs>
</svg>
