<svg width="25" height="25" viewBox="0 0 25 25" fill="none" xmlns="http://www.w3.org/2000/svg">
<g clip-path="url(#clip0_7055_19918)">
<path d="M12.68 0.53125V16.8512M12.68 16.8512V20.6912C12.68 21.4507 12.4548 22.1932 12.0328 22.8246C11.6109 23.4561 11.0112 23.9483 10.3095 24.2389C9.60784 24.5296 8.83574 24.6056 8.09085 24.4575C7.34597 24.3093 6.66174 23.9436 6.12471 23.4065C5.58768 22.8695 5.22195 22.1853 5.07379 21.4404C4.92562 20.6955 5.00166 19.9234 5.2923 19.2217C5.58294 18.5201 6.07513 17.9204 6.70661 17.4984C7.3381 17.0765 8.08052 16.8512 8.84 16.8512M12.68 16.8512H8.84M8.84 16.8512C7.82157 16.8512 6.84485 16.4467 6.12471 15.7265C5.40457 15.0064 5 14.0297 5 13.0112C5 11.9928 5.40457 11.0161 6.12471 10.296C6.84485 9.57582 7.82157 9.17125 8.84 9.17125M8.84 9.17125H12.68M8.84 9.17125H16.52M8.84 9.17125C7.82157 9.17125 6.84485 8.76668 6.12471 8.04654C5.40457 7.3264 5 6.34968 5 5.33125C5 4.31282 5.40457 3.3361 6.12471 2.61596C6.84485 1.89582 7.82157 1.49125 8.84 1.49125H16.52C17.5384 1.49125 18.5152 1.89582 19.2353 2.61596C19.9554 3.3361 20.36 4.31282 20.36 5.33125C20.36 6.34968 19.9554 7.3264 19.2353 8.04654C18.5152 8.76668 17.5384 9.17125 16.52 9.17125M16.52 9.17125C17.5384 9.17125 18.5152 9.57582 19.2353 10.296C19.9554 11.0161 20.36 11.9928 20.36 13.0112C20.36 14.0297 19.9554 15.0064 19.2353 15.7265C18.5152 16.4467 17.5384 16.8512 16.52 16.8512C15.5016 16.8512 14.5249 16.4467 13.8047 15.7265C13.0846 15.0064 12.68 14.0297 12.68 13.0112C12.68 11.9928 13.0846 11.0161 13.8047 10.296C14.5249 9.57582 15.5016 9.17125 16.52 9.17125Z" stroke="#FF6E4E"/>
</g>
<defs>
<clipPath id="clip0_7055_19918">
<rect width="24" height="24" fill="white" transform="translate(0.496094 0.53125)"/>
</clipPath>
</defs>
</svg>
