<svg width="25" height="25" viewBox="0 0 25 25" fill="none" xmlns="http://www.w3.org/2000/svg">
<g clip-path="url(#clip0_7055_19916)">
<path d="M4.74609 0.832031C2.39609 0.832031 0.496094 2.73203 0.496094 5.08203V19.982C0.496094 22.332 2.39609 24.232 4.74609 24.232H20.2461C22.5961 24.232 24.4961 22.332 24.4961 19.982V5.08203C24.4961 2.73203 22.5961 0.832031 20.2461 0.832031H4.74609ZM18.8161 5.96203H20.8461C20.8961 5.95203 20.9361 5.99203 20.9461 6.03203V15.572C20.9461 15.752 20.9561 15.952 20.9661 16.172C20.9861 16.382 20.9961 16.582 21.0061 16.752C21.0061 16.822 20.9761 16.882 20.9061 16.912C20.3861 17.132 19.8361 17.292 19.2761 17.392C18.7661 17.482 18.2561 17.532 17.7361 17.532C16.9961 17.542 16.2561 17.392 15.5861 17.082C14.9561 16.792 14.4361 16.312 14.0761 15.722C13.7061 15.112 13.5261 14.352 13.5261 13.442C13.5165 12.6951 13.7107 11.9597 14.0877 11.3148C14.4648 10.6699 15.0105 10.14 15.6661 9.78203C16.3661 9.39203 17.2061 9.20203 18.1961 9.20203C18.2461 9.20203 18.3161 9.20203 18.4061 9.21203C18.4961 9.22203 18.5961 9.22203 18.7161 9.23203V6.07203C18.7161 6.00203 18.7461 5.96203 18.8161 5.96203ZM4.17609 6.83203H6.44609C6.49609 6.83203 6.54609 6.84203 6.58609 6.85203C6.62609 6.87203 6.65609 6.90203 6.68609 6.94203C6.87609 7.37203 7.09609 7.80203 7.32609 8.23203C7.56609 8.66203 7.79609 9.08203 8.04609 9.50203C8.28609 9.92203 8.50609 10.342 8.71609 10.772H8.73609C8.94609 10.332 9.16609 9.90203 9.38609 9.48203C9.60609 9.06203 9.83609 8.64203 10.0661 8.22203C10.2961 7.80203 10.5161 7.37203 10.7361 6.96203C10.7461 6.92203 10.7661 6.88203 10.7961 6.86203C10.8359 6.8409 10.8817 6.83385 10.9261 6.84203H13.0361C13.0861 6.83203 13.1361 6.86203 13.1461 6.91203C13.1561 6.92203 13.1361 6.96203 13.1161 6.98203L10.1161 11.932L13.3161 17.182C13.3361 17.222 13.3461 17.262 13.3361 17.302C13.3261 17.342 13.2861 17.312 13.2261 17.322H10.9361C10.7761 17.322 10.6661 17.312 10.5961 17.212C10.3861 16.792 10.1661 16.382 9.95609 15.962C9.74609 15.552 9.51609 15.132 9.27609 14.702C9.03609 14.272 8.79609 13.842 8.55609 13.402H8.53609C8.32609 13.832 8.09609 14.262 7.86609 14.692C7.63609 15.122 7.40609 15.552 7.18609 15.972C6.95609 16.392 6.72609 16.822 6.49609 17.232C6.45609 17.332 6.37609 17.342 6.26609 17.342H4.06609C4.02609 17.342 3.99609 17.362 3.99609 17.312C3.99169 17.2933 3.9912 17.2739 3.99464 17.255C3.99808 17.236 4.00538 17.218 4.01609 17.202L7.12609 12.102L4.09609 6.97203C4.06609 6.93203 4.05609 6.89203 4.07609 6.87203C4.09609 6.84203 4.13609 6.83203 4.17609 6.83203ZM18.1161 11.062C17.7261 11.062 17.3361 11.142 16.9861 11.322C16.6461 11.492 16.3561 11.742 16.1361 12.062C15.9161 12.382 15.8061 12.812 15.8061 13.332C15.7961 13.682 15.8561 14.032 15.9761 14.362C16.0761 14.632 16.2261 14.872 16.4261 15.072C16.6161 15.252 16.8461 15.392 17.1061 15.472C17.3761 15.562 17.6561 15.602 17.9361 15.602C18.0861 15.602 18.2261 15.592 18.3561 15.582C18.4861 15.592 18.5961 15.572 18.7161 15.532V11.132C18.5195 11.0855 18.3181 11.062 18.1161 11.062Z" fill="#FF6E4E"/>
</g>
<defs>
<clipPath id="clip0_7055_19916">
<rect width="24" height="24" fill="white" transform="translate(0.496094 0.53125)"/>
</clipPath>
</defs>
</svg>
