<svg width="25" height="25" viewBox="0 0 25 25" fill="none" xmlns="http://www.w3.org/2000/svg">
<g clip-path="url(#clip0_7055_19905)">
<path d="M10.6362 10.7069C10.6544 11.0712 10.5443 11.4304 10.325 11.722C10.1058 12.0136 9.79129 12.2191 9.43622 12.3029C8.80966 12.4872 8.15647 12.5643 7.50422 12.5309C7.33622 12.5309 7.32422 12.4229 7.32422 12.3029V9.24288C7.32422 9.15888 7.40822 9.01488 7.45622 9.01488C8.14267 8.93826 8.83724 8.98294 9.50822 9.14688C9.84588 9.23942 10.1418 9.44453 10.3469 9.72824C10.5521 10.0119 10.6541 10.3572 10.6362 10.7069Z" fill="#FF6E4E"/>
<path d="M18.4961 0.53125H6.49609C4.90479 0.53125 3.37867 1.16339 2.25345 2.28861C1.12823 3.41383 0.496094 4.93995 0.496094 6.53125V18.5313C0.496094 20.1225 1.12823 21.6487 2.25345 22.7739C3.37867 23.8991 4.90479 24.5313 6.49609 24.5313H18.4961C20.0874 24.5313 21.6135 23.8991 22.7387 22.7739C23.864 21.6487 24.4961 20.1225 24.4961 18.5313V6.53125C24.4961 4.93995 23.864 3.41383 22.7387 2.28861C21.6135 1.16339 20.0874 0.53125 18.4961 0.53125ZM11.2961 13.7313C10.6909 14.1169 9.99661 14.34 9.28009 14.3793H7.67209C7.33609 14.3793 7.33609 14.3793 7.33609 14.7033V17.4872C7.33609 17.7272 7.26409 17.7992 7.02409 17.7992H5.44009C5.21209 17.7992 5.15209 17.7152 5.15209 17.4992V7.38325C5.15209 7.14325 5.15209 7.07125 5.45209 7.07125H9.20809C9.89368 7.08983 10.563 7.28402 11.1521 7.63525C11.6608 7.92191 12.0844 8.33843 12.3795 8.84229C12.6747 9.34615 12.8309 9.91931 12.8321 10.5033C12.9015 11.1309 12.7945 11.7655 12.5232 12.3357C12.2519 12.9059 11.8269 13.3892 11.2961 13.7313ZM18.4001 17.6912C17.3562 18.0963 16.2141 18.1758 15.1241 17.9193C14.7977 17.8473 14.4761 17.7513 14.1641 17.6313C14.1159 17.6086 14.0735 17.5752 14.0402 17.5336C14.0069 17.492 13.9836 17.4433 13.9721 17.3912V15.5793C14.3561 15.7233 14.7161 15.8913 15.0881 16.0113C15.7115 16.2105 16.3716 16.2679 17.0201 16.1793C17.1485 16.1553 17.2745 16.1157 17.3921 16.0593C17.4624 16.0285 17.5236 15.9799 17.5695 15.9185C17.6155 15.857 17.6448 15.7846 17.6545 15.7085C17.6641 15.6323 17.6539 15.5549 17.6247 15.4839C17.5956 15.4129 17.5485 15.3506 17.4881 15.3033C17.2136 15.1132 16.92 14.9523 16.6121 14.8233C16.1201 14.5833 15.6161 14.3913 15.1481 14.1153C14.7255 13.9097 14.3806 13.5733 14.1644 13.1561C13.9482 12.7388 13.8723 12.263 13.9481 11.7993C14.0091 11.3529 14.1946 10.9328 14.4832 10.5869C14.7718 10.2409 15.1519 9.98326 15.5801 9.84325C16.3519 9.58275 17.1753 9.51276 17.9801 9.63925C18.3641 9.63925 18.7361 9.78325 19.1201 9.85525C19.3241 9.85525 19.3961 10.0233 19.3841 10.2273V11.6313C19.3841 11.8953 19.3241 11.9193 19.0841 11.8233C18.3346 11.4763 17.5061 11.3354 16.6841 11.4153C16.5676 11.4288 16.4541 11.4612 16.3481 11.5112C16.2761 11.5395 16.2128 11.5861 16.1643 11.6464C16.1159 11.7067 16.084 11.7785 16.0719 11.8549C16.0597 11.9313 16.0678 12.0095 16.0952 12.0819C16.1226 12.1542 16.1684 12.2181 16.2281 12.2673C16.5749 12.4977 16.9397 12.6993 17.3201 12.8673C17.7761 13.0953 18.2561 13.2753 18.7001 13.5273C19.103 13.7106 19.4367 14.0179 19.6526 14.4043C19.8685 14.7907 19.9552 15.2361 19.9001 15.6753C19.8622 16.1134 19.6996 16.5315 19.4317 16.8802C19.1638 17.229 18.8017 17.4937 18.3881 17.6433L18.4001 17.6912Z" fill="#FF6E4E"/>
</g>
<defs>
<clipPath id="clip0_7055_19905">
<rect width="24" height="24" fill="white" transform="translate(0.496094 0.53125)"/>
</clipPath>
</defs>
</svg>
