<svg width="25" height="25" viewBox="0 0 25 25" fill="none" xmlns="http://www.w3.org/2000/svg">
<g clip-path="url(#clip0_7055_19914)">
<path d="M9.03609 11.262C8.93609 10.952 8.84609 10.652 8.74609 10.342C8.64609 10.032 8.55609 9.74203 8.47609 9.45203C8.39609 9.17203 8.32609 8.91203 8.25609 8.67203H8.23609C8.14609 9.10203 8.03609 9.53203 7.89609 9.96203C7.74609 10.442 7.59609 10.942 7.43609 11.442C7.30609 11.952 7.14609 12.422 6.99609 12.842H9.53609C9.47609 12.632 9.39609 12.382 9.30609 12.122C9.21609 11.852 9.12609 11.562 9.03609 11.262ZM17.6161 10.972C17.0661 10.942 16.5461 11.232 16.2861 11.732C16.1661 11.962 16.0961 12.202 16.0661 12.452H18.1751C18.4351 12.452 18.6251 12.452 18.7451 12.442C18.8251 12.432 18.9051 12.412 18.9751 12.362V12.262C18.9712 12.0879 18.9329 11.9162 18.8624 11.757C18.7919 11.5977 18.6905 11.454 18.5642 11.3341C18.4379 11.2142 18.289 11.1204 18.1263 11.0583C17.9636 10.9962 17.7902 10.9668 17.6161 10.972ZM20.2461 0.832031H4.74609C2.39609 0.832031 0.496094 2.73203 0.496094 5.08203V19.982C0.496094 22.332 2.39609 24.232 4.74609 24.232H20.2461C22.5961 24.232 24.4961 22.332 24.4961 19.982V5.08203C24.4961 2.73203 22.5961 0.832031 20.2461 0.832031ZM13.2061 17.343H11.1161C11.0461 17.353 10.9761 17.302 10.9561 17.233L10.1361 14.833H6.41609L5.65609 17.193C5.63609 17.283 5.55609 17.343 5.46609 17.333H3.58609C3.47609 17.333 3.44609 17.273 3.47609 17.153L6.69609 7.92203C6.72609 7.82203 6.75609 7.73203 6.79609 7.61203C6.83609 7.40203 6.85609 7.18203 6.85609 6.96203C6.84609 6.91203 6.88609 6.86203 6.93609 6.85203H9.52609C9.59609 6.85203 9.64609 6.88203 9.65609 6.93203L13.3061 17.182C13.3361 17.292 13.3071 17.343 13.2061 17.343ZM21.0571 13.352C21.0361 13.541 21.0261 13.682 21.0161 13.772C21.0061 13.842 20.9471 13.902 20.8761 13.902C20.8161 13.902 20.7061 13.912 20.5461 13.923C20.3881 13.943 20.1951 13.9527 19.9671 13.952C19.7371 13.952 19.4961 13.912 19.2371 13.912H16.0671C16.1061 14.222 16.2071 14.532 16.3771 14.802C16.5541 15.0712 16.8081 15.2806 17.1061 15.403C17.5061 15.573 17.9471 15.663 18.3871 15.653C18.7371 15.642 19.0861 15.613 19.4261 15.543C19.7315 15.5037 20.0308 15.4265 20.3171 15.313C20.3671 15.274 20.3971 15.293 20.3971 15.393V16.924C20.3971 16.963 20.3871 17.004 20.3761 17.043C20.3582 17.0709 20.3347 17.0947 20.3071 17.113C19.9871 17.253 19.6571 17.353 19.3071 17.413C18.8361 17.503 18.3671 17.543 17.8871 17.533C17.1261 17.533 16.4871 17.413 15.9671 17.183C15.478 16.9697 15.0461 16.6443 14.7061 16.233C14.3871 15.843 14.1561 15.403 14.0161 14.923C13.876 14.4487 13.8056 13.9566 13.8071 13.462C13.8071 12.923 13.8871 12.392 14.0571 11.872C14.2171 11.372 14.4671 10.912 14.8071 10.502C15.1371 10.102 15.5461 9.78203 16.0161 9.55203C16.4861 9.32203 17.0461 9.24203 17.6861 9.24203C18.2193 9.22926 18.7488 9.33514 19.2361 9.55203C19.6461 9.73203 20.0061 10.002 20.2861 10.352C20.5461 10.692 20.7561 11.072 20.8871 11.492C21.0161 11.892 21.0761 12.302 21.0761 12.712C21.0761 12.952 21.0661 13.162 21.0571 13.352Z" fill="#FF6E4E"/>
</g>
<defs>
<clipPath id="clip0_7055_19914">
<rect width="24" height="24" fill="white" transform="translate(0.496094 0.53125)"/>
</clipPath>
</defs>
</svg>
